<svg width="45" height="45" viewBox="0 0 45 45" fill="none" xmlns="http://www.w3.org/2000/svg">
    <path fill-rule="evenodd" clip-rule="evenodd"
          d="M34.862 13.7379C29.8527 13.7379 29.8367 17.2471 29.8367 17.5421L28.5656 18.9687C28.2405 19.3323 27.9061 19.6636 27.4915 20.1402C26.9126 20.8068 26.9981 21.5845 27.5708 21.5845H30.8962C31.5313 21.5845 31.9831 21.5845 32.3963 21.5845C32.8082 21.5845 33.1825 21.5845 33.6573 21.5845C34.6078 21.5845 34.889 20.8931 34.222 20.1189L33.2286 18.9687L31.8555 17.4291C32.0385 16.5397 32.4198 15.9679 33.2445 15.6535C34.1777 15.2969 35.5592 15.2726 37.2241 15.3501C37.2241 14.7561 37.2241 14.2902 37.2241 13.6962C35.7975 13.71 36.2882 13.7241 34.862 13.7379ZM12.4249 36.2715C12.7314 36.33 13.0184 36.6157 13.2231 36.8797L15.2108 39.4472C15.6573 40.0252 15.5506 40.8619 14.9734 41.3088H14.973C14.3959 41.7552 13.5588 41.6489 13.1123 41.0714L11.4899 38.9755H7.6295C6.16479 38.9755 4.96582 37.7774 4.96582 36.3118V5.94481C4.96582 4.47921 6.16479 3.28113 7.6295 3.28113H20.9488V3.28511H24.0483V3.28113H37.3676C38.8323 3.28113 40.0313 4.47921 40.0313 5.94481V36.3118C40.0313 37.7774 38.8292 38.9932 37.3676 38.9755C36.5823 38.9662 35.0281 38.976 34.4063 38.9281C33.8323 38.7722 33.4071 38.2456 33.4071 37.6237V37.6233C33.4071 36.629 34.2495 36.3167 35.1078 36.2715C36.3489 36.2055 37.3676 35.2555 37.3676 34.0118V8.24442C37.3676 7.00116 36.3511 5.98511 35.1078 5.98511H24.2233V35.9633C24.636 36.4048 25.2238 36.6817 25.8718 36.6817H26.2469C26.5534 36.7406 26.8404 37.0263 27.0446 37.2898L29.0324 39.8578C29.4793 40.4354 29.3726 41.272 28.7954 41.7189H28.7946C28.0669 41.7189 27.1638 41.7455 26.7421 41.1502L25.2025 38.9777C24.1666 38.9746 23.6847 38.9671 22.1996 38.9773L20.9488 38.9281C20.3748 38.7722 19.9496 38.2456 19.9496 37.6237V37.6233C19.9496 37.0015 20.3748 36.4748 20.9488 36.3189V33.2504V5.98511H9.88925C8.64599 5.98511 7.6295 7.00116 7.6295 8.24442V34.0118C7.6295 35.2555 8.64599 36.2715 9.88925 36.2715H12.4249ZM32.4902 23.1923H32.729C32.9907 23.1923 33.2038 23.4053 33.2038 23.6671V24.9834C33.2038 25.2452 32.9907 25.4587 32.729 25.4587H32.4902C32.2285 25.4587 32.015 25.2452 32.015 24.9834V23.6671C32.015 23.4053 32.2285 23.1923 32.4902 23.1923ZM32.4902 26.8335H32.729C32.9907 26.8335 33.2038 27.047 33.2038 27.3087V28.6251C33.2038 28.8868 32.9907 29.1003 32.729 29.1003H32.4902C32.2285 29.1003 32.015 28.8868 32.015 28.6251V27.3087C32.015 27.047 32.2285 26.8335 32.4902 26.8335ZM28.8331 22.2994H29.0714C29.3331 22.2994 29.5466 22.5124 29.5466 22.7742V24.0901C29.5466 24.3518 29.3331 24.5658 29.0714 24.5658H28.8331C28.5713 24.5658 28.3578 24.3518 28.3578 24.0901V22.7742C28.3578 22.5124 28.5713 22.2994 28.8331 22.2994ZM28.8331 25.9406H29.0714C29.3331 25.9406 29.5466 26.1541 29.5466 26.4158V27.7322C29.5466 27.9935 29.3331 28.2074 29.0714 28.2074H28.8331C28.5713 28.2074 28.3578 27.9935 28.3578 27.7322V26.4158C28.3578 26.1541 28.5713 25.9406 28.8331 25.9406ZM13.0525 28.2424H15.9053C16.4289 28.2424 16.8567 27.8154 16.8567 27.2923V24.8572C17.1557 24.8377 19.71 24.9595 19.71 21.585V20.6336H14.4787V15.8391C14.4787 15.1787 13.9388 14.6383 13.2789 14.6383H10.4478C9.78915 14.6383 9.24791 15.1796 9.24791 15.8391V21.8224H11.1498V23.0116C11.1498 24.2247 11.9882 24.5556 12.1016 24.6583V27.2923C12.1016 27.8145 12.529 28.2424 13.0525 28.2424ZM13.0525 20.6336H11.1498H10.675V16.4233C10.675 16.1234 10.9199 15.878 11.2202 15.878H12.5069C12.8072 15.878 13.0525 16.1225 13.0525 16.4233V20.6336ZM13.421 23.7247H16.804C17.6176 23.7247 18.2833 23.0594 18.2833 22.2453V21.8224H14.4787H12.576V22.8796C12.576 23.3447 12.956 23.7247 13.421 23.7247ZM14.0712 27.2432H14.8866C15.1856 27.2432 15.4296 26.9991 15.4296 26.7002V24.9143H13.5282V26.7002C13.5282 26.9991 13.7723 27.2432 14.0712 27.2432ZM30.8625 17.9996L29.998 18.9687C29.8775 19.1042 29.7539 19.226 29.6002 19.4027C29.385 19.6503 29.4169 19.9382 29.6299 19.9382H30.8625C31.0977 19.9382 31.2651 19.9382 31.4188 19.9382C31.5716 19.9382 31.7094 19.9382 31.8857 19.9382C32.2378 19.9382 32.3423 19.6822 32.0951 19.3952L31.7271 18.9687L30.8625 17.9996Z"
          fill="currentColor"/>
</svg>
