<svg width="40" height="40" viewBox="0 0 40 40" fill="none" xmlns="http://www.w3.org/2000/svg">
    <path d="M31.5386 17.1155H8.46176L7.07715 23.2693H32.9232L31.5386 17.1155Z" fill="currentColor"/>
    <path d="M36.5384 5.19238H3.46156C1.55281 5.19238 0 6.7452 0 8.65387V19.8077C0 21.7164 1.55281 23.2693 3.46156 23.2693H4.71156L6.41281 15.7083C6.53125 15.1818 6.99883 14.8077 7.53852 14.8077H32.4616C33.0013 14.8077 33.4688 15.1818 33.5873 15.7083L35.2885 23.2693H36.5385C38.4472 23.2693 40.0001 21.7164 40.0001 19.8077V8.65387C40 6.7452 38.4472 5.19238 36.5384 5.19238ZM26.1538 13.2693H24.6154C23.9781 13.2693 23.4616 12.7526 23.4616 12.1154C23.4616 11.4782 23.9782 10.9616 24.6154 10.9616H26.1538C26.7911 10.9616 27.3077 11.4782 27.3077 12.1154C27.3077 12.7526 26.7911 13.2693 26.1538 13.2693ZM31.5384 13.2693H30C29.3627 13.2693 28.8462 12.7526 28.8462 12.1154C28.8462 11.4782 29.3628 10.9616 30 10.9616H31.5384C32.1757 10.9616 32.6923 11.4782 32.6923 12.1154C32.6923 12.7526 32.1757 13.2693 31.5384 13.2693Z"
          fill="currentColor"/>
    <path d="M20.7691 28.5253C20.7691 28.2039 20.829 28.104 20.9893 27.8371C21.2079 27.4727 21.5383 26.9221 21.5383 25.9614C21.5383 25.3242 21.0217 24.8076 20.3845 24.8076C19.7473 24.8076 19.2306 25.3243 19.2306 25.9614C19.2306 26.2828 19.1707 26.3827 19.0105 26.6496C18.7918 27.014 18.4614 27.5646 18.4614 28.5253C18.4614 29.4859 18.7918 30.0366 19.0104 30.4011C19.1706 30.6682 19.2306 30.7681 19.2306 31.0895C19.2306 31.4109 19.1707 31.511 19.0104 31.7779C18.7918 32.1424 18.4614 32.6931 18.4614 33.6537C18.4614 34.291 18.9781 34.8075 19.6153 34.8075C20.2524 34.8075 20.7691 34.2909 20.7691 33.6537C20.7691 33.3322 20.829 33.2322 20.9893 32.9653C21.2079 32.6009 21.5383 32.0502 21.5383 31.0895C21.5383 30.1288 21.2079 29.5782 20.9893 29.2137C20.8291 28.9467 20.7691 28.8468 20.7691 28.5253Z"
          fill="currentColor"/>
    <path d="M14.6153 28.5253C14.6153 28.2039 14.6752 28.104 14.8354 27.8371C15.0541 27.4727 15.3845 26.9221 15.3845 25.9614C15.3845 25.3242 14.8679 24.8076 14.2307 24.8076C13.5935 24.8076 13.0768 25.3243 13.0768 25.9614C13.0768 26.2828 13.0169 26.3827 12.8567 26.6496C12.638 27.014 12.3076 27.5646 12.3076 28.5253C12.3076 29.4859 12.638 30.0366 12.8566 30.4011C13.0168 30.6682 13.0768 30.7681 13.0768 31.0895C13.0768 31.4109 13.0169 31.511 12.8566 31.7779C12.638 32.1424 12.3076 32.6931 12.3076 33.6537C12.3076 34.291 12.8243 34.8075 13.4614 34.8075C14.0986 34.8075 14.6153 34.2909 14.6153 33.6537C14.6153 33.3322 14.6752 33.2322 14.8355 32.9653C15.0541 32.6009 15.3845 32.0502 15.3845 31.0895C15.3845 30.1288 15.0541 29.5782 14.8355 29.2137C14.6753 28.9467 14.6153 28.8468 14.6153 28.5253Z"
          fill="currentColor"/>
    <path d="M26.9229 28.5253C26.9229 28.2039 26.9828 28.104 27.143 27.8371C27.3617 27.4727 27.6921 26.9221 27.6921 25.9614C27.6921 25.3242 27.1755 24.8076 26.5383 24.8076C25.9011 24.8076 25.3845 25.3243 25.3845 25.9614C25.3845 26.2828 25.3245 26.3827 25.1643 26.6496C24.9456 27.014 24.6152 27.5646 24.6152 28.5253C24.6152 29.4859 24.9456 30.0366 25.1642 30.4011C25.3245 30.6682 25.3845 30.7681 25.3845 31.0895C25.3845 31.4109 25.3245 31.511 25.1642 31.7779C24.9456 32.1424 24.6152 32.6931 24.6152 33.6537C24.6152 34.291 25.1319 34.8075 25.7691 34.8075C26.4063 34.8075 26.9229 34.2909 26.9229 33.6537C26.9229 33.3322 26.9828 33.2322 27.1431 32.9653C27.3617 32.6009 27.6921 32.0502 27.6921 31.0895C27.6921 30.1288 27.3617 29.5782 27.1431 29.2137C26.9829 28.9467 26.9229 28.8468 26.9229 28.5253Z"
          fill="currentColor"/>
</svg>
