<svg width="40" height="40" viewBox="0 0 40 40" fill="none" xmlns="http://www.w3.org/2000/svg">
    <path d="M32.8909 21.0938C32.8909 19.8079 32.8909 5.61867 32.8909 5.85938C32.8909 2.62867 30.2622 0 27.0315 0C26.6751 0 12.733 0 12.969 0C9.7383 0 7.10963 2.62867 7.10963 5.85938C7.10963 6.24656 7.10963 22.0285 7.10963 21.0938C4.16807 21.0938 2.28424 21.0938 2.42213 21.0938V40C2.92713 40 38.1607 40 37.5784 40V21.0938C37.4665 21.0938 35.6453 21.0938 32.8909 21.0938ZM12.7255 15.39C16.3181 13.7069 18.8284 10.0823 18.8284 5.85938V2.34375H21.1721V5.85938C21.1721 10.0823 23.6824 13.7069 27.2749 15.39C25.331 16.6509 23.9521 18.7055 23.6063 21.0938C21.2316 21.0938 18.769 21.0938 16.3942 21.0938C16.0483 18.7055 14.6694 16.6509 12.7255 15.39ZM7.10963 37.6562H4.76588V23.4375H7.10963V37.6562ZM11.7971 37.6562H9.45338V23.4375H11.7971V37.6562ZM16.4846 37.6562H14.1409V23.4375H16.4846V37.6562ZM21.1721 37.6562H18.8284V23.4375H21.1721V37.6562ZM25.8596 37.6562H23.5159V23.4375H25.8596V37.6562ZM30.5471 37.6562H28.2034V23.4375H30.5471V37.6562ZM35.2346 37.6562H32.8909V23.4375H35.2346V37.6562Z"
          fill="currentColor"/>
</svg>
