<svg width="40" height="40" viewBox="0 0 40 40" fill="none" xmlns="http://www.w3.org/2000/svg">
    <path d="M37.5 19.9258H2.5C1.12164 19.9258 0 21.0474 0 22.4258C0 23.8041 1.12164 24.9258 2.5 24.9258H37.5C38.8784 24.9258 40 23.8041 40 22.4258C40 21.0474 38.8784 19.9258 37.5 19.9258Z"
          fill="currentColor"/>
    <path d="M37.7297 23.2909C37.278 23.1642 36.8247 23.4209 36.6997 23.8642L36.6347 24.0926H3.3663L3.29966 23.8642C3.17466 23.4209 2.71802 23.1676 2.26966 23.2909C1.8263 23.4175 1.5713 23.8792 1.69802 24.3209L3.99466 32.3609C4.7063 34.8525 7.01302 36.5925 9.60302 36.5925H30.3947C32.9863 36.5925 35.2913 34.8525 36.003 32.3609L38.2997 24.3209C38.428 23.8792 38.1713 23.4175 37.7297 23.2909ZM9.60466 33.2591C8.49466 33.2591 7.50466 32.5141 7.2013 31.4458L6.11966 27.6558C5.99302 27.2124 6.24966 26.7524 6.6913 26.6258C7.13795 26.4992 7.5963 26.7574 7.7213 27.1992L8.80295 30.9892C8.9063 31.3441 9.23459 31.5941 9.60459 31.5941C10.0646 31.5941 10.4379 31.9675 10.4379 32.4275C10.438 32.8875 10.0647 33.2591 9.60466 33.2591Z"
          fill="currentColor"/>
    <path d="M11.2052 35.0125C10.7936 34.8109 10.2952 34.9725 10.0868 35.3859L8.42019 38.7192C8.21519 39.1309 8.38183 39.6309 8.79355 39.8376C8.91519 39.8976 9.04191 39.9259 9.16691 39.9259C9.47191 39.9259 9.76527 39.7576 9.91191 39.4643L11.5786 36.131C11.7836 35.7192 11.6168 35.2192 11.2052 35.0125Z"
          fill="currentColor"/>
    <path d="M31.58 38.721L29.9134 35.3876C29.7067 34.9742 29.2067 34.8092 28.795 35.0142C28.3834 35.2209 28.2166 35.7209 28.4216 36.1326L30.0883 39.4659C30.2349 39.7576 30.5283 39.9259 30.8333 39.9259C30.9583 39.9259 31.0849 39.8976 31.2066 39.8393C31.6184 39.6326 31.785 39.1326 31.58 38.721Z"
          fill="currentColor"/>
    <path d="M33.4749 0.0742188C32.6249 0.0742188 31.8249 0.405859 31.2232 1.00758L28.5782 3.65258C28.2532 3.97758 28.2532 4.50594 28.5782 4.83094C28.9032 5.15594 29.4316 5.15594 29.7566 4.83094L32.4015 2.18758C32.6865 1.90094 33.0681 1.74258 33.4831 1.74258C34.3198 1.74258 34.9998 2.42258 34.9998 3.25922V20.7592C34.9998 21.2192 35.3731 21.5926 35.8331 21.5926C36.2931 21.5926 36.6665 21.2192 36.6682 20.7576V3.25758C36.6682 1.50258 35.2415 0.0742188 33.4749 0.0742188Z"
          fill="currentColor"/>
    <path d="M30.59 4.48601L28.9234 2.81937C28.7334 2.62937 28.4684 2.54101 28.1984 2.58601L24.0318 3.26937C23.7251 3.31937 23.4734 3.53601 23.3751 3.82937C23.2768 4.12273 23.3518 4.44937 23.5685 4.67101L28.5685 9.82101C28.7268 9.98601 28.9451 10.0744 29.1651 10.0744C29.2435 10.0744 29.3235 10.0627 29.4018 10.0394C29.6984 9.95273 29.9234 9.70773 29.9834 9.40437L30.8168 5.23773C30.8717 4.96601 30.7867 4.68429 30.59 4.48601Z"
          fill="currentColor"/>
    <path d="M19.7548 10.171C19.4298 9.846 18.9014 9.846 18.5764 10.171L16.9098 11.8376C16.5848 12.1626 16.5848 12.691 16.9098 13.016C17.0731 13.1776 17.2864 13.2594 17.4998 13.2594C17.7131 13.2594 17.9264 13.1777 18.0881 13.016L19.7548 11.3494C20.0798 11.0243 20.0798 10.496 19.7548 10.171Z"
          fill="currentColor"/>
    <path d="M23.0883 13.5042C22.7633 13.1792 22.2349 13.1792 21.9099 13.5042L20.2433 15.1709C19.9183 15.4959 19.9183 16.0243 20.2433 16.3493C20.4066 16.5109 20.6199 16.5926 20.8333 16.5926C21.0466 16.5926 21.2599 16.511 21.4216 16.3493L23.0883 14.6826C23.4133 14.3576 23.4133 13.8292 23.0883 13.5042Z"
          fill="currentColor"/>
    <path d="M24.7548 8.50425C24.4298 8.17925 23.9014 8.17925 23.5764 8.50425L21.9098 10.1709C21.5848 10.4959 21.5848 11.0243 21.9098 11.3493C22.0731 11.5109 22.2864 11.5926 22.4998 11.5926C22.7131 11.5926 22.9264 11.511 23.0881 11.3493L24.7548 9.68261C25.0798 9.35761 25.0798 8.82925 24.7548 8.50425Z"
          fill="currentColor"/>
</svg>
