<svg width="40" height="40" viewBox="0 0 40 40" fill="none" xmlns="http://www.w3.org/2000/svg">
    <path d="M3.69137 31.4062H6.48509C7.07728 32.6109 8.00852 33.6179 9.1546 34.3031H16.2545C18.2787 33.0937 19.6334 30.8804 19.6334 28.3516V22.5266H5.77651V24.0235H3.69137C1.65623 24.0235 0 25.6797 0 27.7148C0 29.75 1.65623 31.4062 3.69137 31.4062ZM3.69137 26.3672H5.77651C5.77651 27.2598 5.72323 28.1731 5.81244 29.0625H3.69137C2.94841 29.0625 2.34373 28.4578 2.34373 27.7148C2.34373 26.9719 2.94841 26.3672 3.69137 26.3672Z"
          fill="currentColor"/>
    <path d="M4.6187 9.23851H7.66555V16.1814H11.5333L11.5331 16.1818V19.9611H13.8768V16.1818L13.8767 16.1814H17.7436V9.23851H25.7224V34.3031H39.9996V5.933C39.9996 4.34708 39.3442 2.85803 38.1551 1.73851C36.9653 0.617426 35.384 0.000244141 33.7012 0.000244141H4.6187C2.07185 0.000322265 0 2.07296 0 4.61981C0 7.16666 2.07185 9.23851 4.6187 9.23851ZM31.6888 22.5267H34.0325V24.8704H31.6888V22.5267ZM31.6888 27.5657H34.0325V29.9094H31.6888V27.5657Z"
          fill="currentColor"/>
    <path d="M0 36.6467H39.9998V39.9998H0V36.6467Z" fill="currentColor"/>
</svg>
