<svg width="40" height="40" viewBox="0 0 40 40" fill="none" xmlns="http://www.w3.org/2000/svg">
    <path d="M18.8279 23.5156C17.7781 23.5156 16.7607 23.8031 15.8687 24.3262C16.259 24.8209 16.6008 25.3506 16.8702 25.9274C18.0601 25.7312 19.2534 25.9753 20.2629 26.6501C21.5654 27.5235 22.3436 28.9801 22.3436 30.5469C22.3436 31.1945 21.8193 31.7188 21.1717 31.7188C20.5241 31.7188 19.9998 31.1945 19.9998 30.5469C19.9998 29.7629 19.6107 29.0341 18.9586 28.5968C18.683 28.4128 18.1871 28.1897 17.5392 28.219C17.5938 28.6002 17.6561 28.9792 17.6561 29.375C17.6561 30.6079 17.3497 31.7975 16.8287 32.8906H23.4855C24.25 31.8777 24.6873 30.6546 24.6873 29.375C24.6873 26.1444 22.0585 23.5156 18.8279 23.5156Z"
          fill="currentColor"/>
    <path d="M14.1528 22.6712C15.5228 21.7157 17.1399 21.1719 18.8281 21.1719C20.5786 21.1719 22.1945 21.7334 23.5278 22.6712C24.8978 21.7157 26.5149 21.1719 28.2031 21.1719C29.9213 21.1719 31.5286 21.7569 32.8906 22.7161V16.4062H7.10938V21.5253C7.86743 21.2994 8.65479 21.1719 9.45312 21.1719C11.2036 21.1719 12.8195 21.7334 14.1528 22.6712Z"
          fill="currentColor"/>
    <path d="M36.4062 0H3.59375C1.65527 0 0 1.57715 0 3.51562V9.375H40V3.51562C40 1.57715 38.3447 0 36.4062 0ZM5.93536 7.03125C5.28809 7.03125 4.76349 6.50665 4.76349 5.85938C4.76349 5.2121 5.28809 4.6875 5.93536 4.6875C6.58264 4.6875 7.10724 5.2121 7.10724 5.85938C7.10724 6.50665 6.58264 7.03125 5.93536 7.03125ZM10.6229 7.03125C9.97559 7.03125 9.45099 6.50665 9.45099 5.85938C9.45099 5.2121 9.97559 4.6875 10.6229 4.6875C11.2701 4.6875 11.7947 5.2121 11.7947 5.85938C11.7947 6.50665 11.2701 7.03125 10.6229 7.03125ZM15.3104 7.03125C14.6631 7.03125 14.1385 6.50665 14.1385 5.85938C14.1385 5.2121 14.6631 4.6875 15.3104 4.6875C15.9576 4.6875 16.4822 5.2121 16.4822 5.85938C16.4822 6.50665 15.9576 7.03125 15.3104 7.03125ZM34.0625 7.03125H20C19.3524 7.03125 18.8281 6.50696 18.8281 5.85938C18.8281 5.21179 19.3524 4.6875 20 4.6875H34.0625C34.7101 4.6875 35.2344 5.21179 35.2344 5.85938C35.2344 6.50696 34.7101 7.03125 34.0625 7.03125Z"
          fill="currentColor"/>
    <path d="M0 36.4844C0 38.4229 1.65527 40 3.59375 40H36.4062C38.3447 40 40 38.4229 40 36.4844V11.7188H0V36.4844ZM4.76562 15.2344C4.76562 14.5868 5.28992 14.0625 5.9375 14.0625H34.0625C34.7101 14.0625 35.2344 14.5868 35.2344 15.2344V34.0625C35.2344 34.7101 34.7101 35.3125 34.0625 35.3125H5.9375C5.28992 35.3125 4.76562 34.7101 4.76562 34.0625V15.2344Z"
          fill="currentColor"/>
    <path d="M15.3125 29.375C15.3125 26.1444 12.6837 23.5156 9.45312 23.5156C8.63678 23.5156 7.84943 23.7311 7.10938 24.0564V26.0535C8.25714 25.7712 9.43237 25.8524 10.4694 26.4008C12.0108 27.2156 12.9688 28.804 12.9688 30.5469C12.9688 31.1945 12.4445 31.7188 11.7969 31.7188C11.1493 31.7188 10.625 31.1945 10.625 30.5469C10.625 29.675 10.1456 28.8806 9.37408 28.4732C8.68958 28.1104 7.88818 28.1384 7.10938 28.5016V32.8906H14.1107C14.8752 31.8777 15.3125 30.6546 15.3125 29.375Z"
          fill="currentColor"/>
    <path d="M28.2029 23.5156C27.1531 23.5156 26.1357 23.8031 25.2437 24.3262C25.634 24.8209 25.9758 25.3503 26.2452 25.9271C27.4351 25.7309 28.629 25.9753 29.6379 26.6501C30.9404 27.5235 31.7186 28.9801 31.7186 30.5469C31.7186 31.1945 31.1943 31.7188 30.5467 31.7188C29.8991 31.7188 29.3748 31.1945 29.3748 30.5469C29.3748 29.7629 28.9857 29.0341 28.3336 28.5968C28.0586 28.4128 27.5627 28.1897 26.9142 28.219C26.9688 28.6002 27.0311 28.9792 27.0311 29.375C27.0311 30.6079 26.7247 31.7975 26.2037 32.8906H32.8904V25.9085C31.7857 24.4177 30.0685 23.5156 28.2029 23.5156Z"
          fill="currentColor"/>
</svg>
