<svg width="40" height="40" viewBox="0 0 40 40" fill="none" xmlns="http://www.w3.org/2000/svg">
    <path d="M25.8334 15C25.3727 15 25 15.3727 25 15.8334V22.5C25 22.9606 25.3727 23.3334 25.8334 23.3334C26.294 23.3334 26.6667 22.9606 26.6667 22.5V15.8334C26.6666 15.3727 26.294 15 25.8334 15Z"
          fill="currentColor"/>
    <path d="M13.0889 15.2442C12.7633 14.9186 12.236 14.9186 11.9105 15.2442L8.57717 18.5775C8.25162 18.9031 8.25162 19.4304 8.57717 19.7559C8.7399 19.9186 8.95318 20 9.16639 20C9.37959 20 9.59279 19.9186 9.75561 19.7559L13.089 16.4225C13.4144 16.0971 13.4144 15.5697 13.0889 15.2442Z"
          fill="currentColor"/>
    <path d="M13.5773 18.5774L11.9107 20.244C11.5851 20.5696 11.5851 21.0969 11.9107 21.4224C12.0734 21.5851 12.2867 21.6665 12.4999 21.6665C12.7131 21.6665 12.9263 21.5851 13.0891 21.4224L14.7557 19.7558C15.0813 19.4302 15.0813 18.9029 14.7557 18.5774C14.4301 18.2519 13.9028 18.2519 13.5773 18.5774Z"
          fill="currentColor"/>
    <path d="M36.6666 5H3.33336C1.49492 5 0 6.49492 0 8.33336V31.6667C0 33.5051 1.49492 35 3.33336 35H36.6667C38.5051 35 40 33.5051 40 31.6666V8.33336C40 6.49492 38.5051 5 36.6666 5ZM30 29.1666C30 29.6273 29.6273 30 29.1666 30H5.83336C5.37273 30 5 29.6273 5 29.1666V10.8334C5 10.3727 5.37273 10 5.83336 10H29.1667C29.6273 10 30.0001 10.3727 30.0001 10.8334V29.1666H30ZM35.8334 28.3334H34.1667C33.7061 28.3334 33.3334 27.9606 33.3334 27.5C33.3334 27.0394 33.7061 26.6666 34.1667 26.6666H35.8334C36.294 26.6666 36.6667 27.0394 36.6667 27.5C36.6666 27.9606 36.294 28.3334 35.8334 28.3334ZM35 25C34.0812 25 33.3334 24.2521 33.3334 23.3334C33.3334 22.4146 34.0812 21.6667 35 21.6667C35.9188 21.6667 36.6666 22.4146 36.6666 23.3334C36.6666 24.2521 35.9188 25 35 25ZM35 20C34.0812 20 33.3334 19.2521 33.3334 18.3334C33.3334 17.4146 34.0812 16.6667 35 16.6667C35.9188 16.6667 36.6666 17.4146 36.6666 18.3334C36.6666 19.2521 35.9188 20 35 20ZM35 15C34.0812 15 33.3334 14.2521 33.3334 13.3334C33.3334 12.4146 34.0812 11.6667 35 11.6667C35.9188 11.6667 36.6666 12.4146 36.6666 13.3334C36.6666 14.2521 35.9188 15 35 15Z"
          fill="currentColor"/>
</svg>
