<svg width="40" height="40" viewBox="0 0 40 40" fill="none" xmlns="http://www.w3.org/2000/svg">
    <path d="M9.45312 18.75V30.625H30.5469V18.75H9.45312ZM24.6875 23.4375H15.3125C14.6648 23.4375 14.1406 22.9134 14.1406 22.2656C14.1406 21.6179 14.6648 21.0938 15.3125 21.0938H24.6875C25.3352 21.0938 25.8594 21.6179 25.8594 22.2656C25.8594 22.9134 25.3352 23.4375 24.6875 23.4375Z"
          fill="currentColor"/>
    <path d="M2.42188 14.0625V34.1406C2.42188 35.6664 3.40453 36.955 4.76562 37.4404V38.8281C4.76562 39.4759 5.28977 40 5.9375 40C6.58523 40 7.10938 39.4759 7.10938 38.8281V37.6562H32.8906V38.8281C32.8906 39.4759 33.4148 40 34.0625 40C34.7102 40 35.2344 39.4759 35.2344 38.8281V37.4404C36.5955 36.955 37.5781 35.6664 37.5781 34.1406V14.0625H2.42188ZM32.8906 31.7969C32.8906 32.4446 32.3665 32.9688 31.7188 32.9688H8.28125C7.63352 32.9688 7.10938 32.4446 7.10938 31.7969V17.5781C7.10938 16.9304 7.63352 16.4062 8.28125 16.4062H31.7188C32.3665 16.4062 32.8906 16.9304 32.8906 17.5781V31.7969Z"
          fill="currentColor"/>
    <path d="M35.2344 2.55961V1.17188C35.2344 0.524141 34.7102 0 34.0625 0C33.4148 0 32.8906 0.524141 32.8906 1.17188V2.34375H30.5469V1.17188C30.5469 0.524141 30.0227 0 29.375 0C28.7273 0 28.2031 0.524141 28.2031 1.17188V2.34375H25.8594V1.17188C25.8594 0.524141 25.3352 0 24.6875 0C24.0398 0 23.5156 0.524141 23.5156 1.17188V2.34375H16.4844V1.17188C16.4844 0.524141 15.9602 0 15.3125 0C14.6648 0 14.1406 0.524141 14.1406 1.17188V2.34375H11.7969V1.17188C11.7969 0.524141 11.2727 0 10.625 0C9.97727 0 9.45312 0.524141 9.45312 1.17188V2.34375H7.10938V1.17188C7.10938 0.524141 6.58523 0 5.9375 0C5.28977 0 4.76562 0.524141 4.76562 1.17188V2.55961C3.40453 3.045 2.42188 4.33359 2.42188 5.85938V11.7188H37.5781V5.85938C37.5781 4.33359 36.5955 3.045 35.2344 2.55961ZM10.625 9.375C9.97781 9.375 9.45312 8.85031 9.45312 8.20312C9.45312 7.55578 9.97781 7.03125 10.625 7.03125C11.2722 7.03125 11.7969 7.55578 11.7969 8.20312C11.7969 8.85031 11.2722 9.375 10.625 9.375ZM20 9.375C19.3528 9.375 18.8281 8.85031 18.8281 8.20312C18.8281 7.55578 19.3528 7.03125 20 7.03125C20.6472 7.03125 21.1719 7.55578 21.1719 8.20312C21.1719 8.85031 20.6472 9.375 20 9.375ZM29.375 9.375C28.7278 9.375 28.2031 8.85031 28.2031 8.20312C28.2031 7.55578 28.7278 7.03125 29.375 7.03125C30.0222 7.03125 30.5469 7.55578 30.5469 8.20312C30.5469 8.85031 30.0222 9.375 29.375 9.375Z"
          fill="currentColor"/>
</svg>
