<svg width="40" height="40" viewBox="0 0 40 40" fill="none" xmlns="http://www.w3.org/2000/svg">
    <path d="M24.4844 14.9205C24.4844 16.8139 22.9441 18.3546 21.0503 18.3546H15.5155V11.4866H21.0503C22.9441 11.4866 24.4844 13.027 24.4844 14.9205ZM40 5.38712V34.6128C40 37.5834 37.5834 39.9999 34.6129 39.9999H5.38712C2.4166 40 0 37.5834 0 34.6129V5.38712C0 2.4168 2.4166 0 5.38712 0H34.6128C37.5834 0 40 2.4168 40 5.38712ZM29.8325 14.9205C29.8325 10.0781 25.8927 6.13837 21.0504 6.13837H11.2316C10.6441 6.13837 10.1675 6.6149 10.1675 7.20248V32.7973C10.1675 33.3848 10.6441 33.8614 11.2316 33.8614H14.4514C15.039 33.8614 15.5156 33.3848 15.5156 32.7973V23.7024H21.0504C25.8927 23.7025 29.8325 19.7628 29.8325 14.9205Z"
          fill="currentColor"/>
</svg>
