<svg width="40" height="40" viewBox="0 0 40 40" fill="none" xmlns="http://www.w3.org/2000/svg">
    <path d="M20.3906 34.5312H22.3438V36.7188H20.3906V34.5312Z" fill="currentColor"/>
    <path d="M26.5625 37.4998V38.7498H28.75V37.4639C28.5296 37.4949 28.307 37.507 28.0846 37.4998H26.5625Z"
          fill="currentColor"/>
    <path d="M23.125 34.5312H25V36.7188H23.125V34.5312Z" fill="currentColor"/>
    <path d="M17.6562 34.5312H19.6094V36.7188H17.6562V34.5312Z" fill="currentColor"/>
    <path d="M11.25 37.4639V38.7498H13.4375V37.4998H11.9154C11.693 37.507 11.4704 37.4949 11.25 37.4639Z"
          fill="currentColor"/>
    <path d="M12.5781 36.4223V36.7188H14.2188V34.5195C13.7634 34.5892 13.348 34.8192 13.0472 35.1681C12.7464 35.5169 12.58 35.9617 12.5781 36.4223Z"
          fill="currentColor"/>
    <path d="M15 34.5312H16.875V36.7188H15V34.5312Z" fill="currentColor"/>
    <path d="M13.5156 14.612V8.82813C13.5156 8.6002 13.4251 8.38162 13.2639 8.22046C13.1028 8.05929 12.8842 7.96875 12.6562 7.96875C12.4283 7.96875 12.2097 8.05929 12.0486 8.22046C11.8874 8.38162 11.7969 8.6002 11.7969 8.82813V14.6121C11.7969 14.84 11.8874 15.0586 12.0486 15.2198C12.2097 15.3809 12.4283 15.4715 12.6562 15.4715C12.8842 15.4715 13.1028 15.3809 13.2639 15.2198C13.4251 15.0586 13.5156 14.84 13.5156 14.6121V14.612Z"
          fill="currentColor"/>
    <path d="M23.8281 8.04688H28.5938V9.29688H23.8281V8.04688Z" fill="currentColor"/>
    <path d="M27.5 36.4221C27.5 35.4386 26.7188 34.6252 25.7812 34.5081V36.7186H27.5V36.4221Z" fill="currentColor"/>
    <path d="M14.2969 14.612C14.2969 15.0471 14.124 15.4644 13.8163 15.772C13.5087 16.0797 13.0914 16.2526 12.6562 16.2526C12.2211 16.2526 11.8038 16.0797 11.4962 15.772C11.1885 15.4644 11.0156 15.0471 11.0156 14.612V12.1094H9.21875V34.0089C9.21875 35.4784 10.3125 36.6803 11.7969 36.7404V36.4223C11.7969 34.928 13.0169 33.7504 14.5112 33.7504H25.5659C27.0601 33.7504 28.2809 34.9284 28.2809 36.4223V36.7359C28.9656 36.6827 29.6045 36.3716 30.0685 35.8655C30.5326 35.3594 30.7872 34.6959 30.7809 34.0093V12.1094H14.2969V14.612ZM11.0156 24.9932C11.0156 25.0968 10.9745 25.1962 10.9012 25.2694C10.828 25.3427 10.7286 25.3838 10.625 25.3838C10.5214 25.3838 10.422 25.3427 10.3488 25.2694C10.2755 25.1962 10.2344 25.0968 10.2344 24.9932V19.0708C10.2344 18.9672 10.2755 18.8678 10.3488 18.7946C10.422 18.7213 10.5214 18.6802 10.625 18.6802C10.7286 18.6802 10.828 18.7213 10.9012 18.7946C10.9745 18.8678 11.0156 18.9672 11.0156 19.0708V24.9932ZM11.0156 17.4786C11.0156 17.5822 10.9745 17.6816 10.9012 17.7548C10.828 17.8281 10.7286 17.8692 10.625 17.8692C10.5214 17.8692 10.422 17.8281 10.3488 17.7548C10.2755 17.6816 10.2344 17.5822 10.2344 17.4786V17.1009C10.2344 16.9973 10.2755 16.898 10.3488 16.8247C10.422 16.7515 10.5214 16.7103 10.625 16.7103C10.7286 16.7103 10.828 16.7515 10.9012 16.8247C10.9745 16.898 11.0156 16.9973 11.0156 17.1009V17.4786Z"
          fill="currentColor"/>
    <path d="M28.0843 1.25H11.9151C11.5581 1.25114 11.2048 1.32293 10.8757 1.46122C10.5466 1.5995 10.2481 1.80156 9.99743 2.05574C9.74676 2.30992 9.54887 2.61119 9.41517 2.9422C9.28147 3.27321 9.2146 3.6274 9.21842 3.98438V11.3281H11.0153V8.82812C11.0153 8.393 11.1881 7.9757 11.4958 7.66803C11.8035 7.36035 12.2208 7.1875 12.6559 7.1875C13.091 7.1875 13.5083 7.36035 13.816 7.66803C14.1237 7.9757 14.2965 8.393 14.2965 8.82812V11.3281H30.7809V3.98438C30.7847 3.6274 30.7179 3.27321 30.5842 2.9422C30.4505 2.61119 30.2526 2.30992 30.0019 2.05574C29.7512 1.80156 29.4527 1.5995 29.1236 1.46122C28.7945 1.32293 28.4413 1.25114 28.0843 1.25ZM29.4528 9.375C29.4528 9.56148 29.3787 9.74032 29.2469 9.87218C29.115 10.004 28.9361 10.0781 28.7497 10.0781H23.7497C23.5632 10.0781 23.3843 10.004 23.2525 9.87218C23.1206 9.74032 23.0465 9.56148 23.0465 9.375V7.96875C23.0465 7.78227 23.1206 7.60343 23.2525 7.47157C23.3843 7.3397 23.5632 7.26562 23.7497 7.26562H28.7497C28.9361 7.26562 29.115 7.3397 29.2469 7.47157C29.3787 7.60343 29.4528 7.78227 29.4528 7.96875V9.375Z"
          fill="currentColor"/>
</svg>
