<svg width="40" height="40" viewBox="0 0 40 40" fill="none" xmlns="http://www.w3.org/2000/svg">
    <path d="M33.4732 36.0045L32.1646 35.4811C35.3838 32.9513 37.7343 29.4808 38.8888 25.5527C40.0434 21.6246 39.9446 17.4342 38.6062 13.5649C37.2678 9.6955 34.7564 6.33964 31.4216 3.96438C28.0867 1.58911 24.0943 0.312591 20 0.3125C19.7514 0.3125 19.5129 0.411272 19.3371 0.587087C19.1613 0.762903 19.0625 1.00136 19.0625 1.25C19.0625 1.49864 19.1613 1.7371 19.3371 1.91291C19.5129 2.08873 19.7514 2.1875 20 2.1875C29.8219 2.1875 37.8125 10.1781 37.8125 20C37.8146 22.7124 37.1962 25.3894 36.0046 27.826C34.813 30.2627 33.0797 32.3944 30.9375 34.0581V32.5C30.9375 32.2514 30.8387 32.0129 30.6629 31.8371C30.4871 31.6613 30.2486 31.5625 30 31.5625C29.7514 31.5625 29.5129 31.6613 29.3371 31.8371C29.1613 32.0129 29.0625 32.2514 29.0625 32.5V35.625C29.0625 35.8124 29.1186 35.9954 29.2237 36.1506C29.3287 36.3058 29.4778 36.4259 29.6518 36.4955L32.7768 37.7455C32.8911 37.7912 33.0133 37.814 33.1364 37.8125C33.2595 37.811 33.3811 37.7852 33.4943 37.7367C33.6075 37.6882 33.71 37.6179 33.796 37.5298C33.8819 37.4417 33.9497 37.3375 33.9955 37.2232C34.0412 37.1089 34.064 36.9867 34.0625 36.8636C34.061 36.7405 34.0352 36.6189 33.9867 36.5057C33.9382 36.3925 33.8679 36.29 33.7798 36.204C33.6917 36.1181 33.5875 36.0503 33.4732 36.0045Z"
          fill="currentColor"/>
    <path d="M19.9999 37.8125C10.178 37.8125 2.18736 29.8219 2.18736 20C2.18522 17.2876 2.80362 14.6107 3.99524 12.174C5.18686 9.73738 6.92011 7.60563 9.06236 5.9419V7.50003C9.06236 7.74867 9.16113 7.98713 9.33694 8.16294C9.51276 8.33876 9.75122 8.43753 9.99986 8.43753C10.2485 8.43753 10.487 8.33876 10.6628 8.16294C10.8386 7.98713 10.9374 7.74867 10.9374 7.50003V4.37503C10.9374 4.18766 10.8812 4.00459 10.7762 3.84943C10.6711 3.69428 10.522 3.57415 10.3481 3.50456L7.22306 2.25456C6.9922 2.16221 6.73411 2.16535 6.50556 2.2633C6.27701 2.36124 6.09674 2.54596 6.00439 2.77683C5.91204 3.00769 5.91518 3.26578 6.01313 3.49433C6.11107 3.72287 6.29579 3.90315 6.52665 3.9955L7.83525 4.51894C4.61603 7.04873 2.26557 10.5192 1.11102 14.4473C-0.043532 18.3755 0.0552608 22.5658 1.39365 26.4352C2.73204 30.3045 5.24343 33.6604 8.57829 36.0357C11.9132 38.4109 15.9056 39.6874 19.9999 39.6875C20.2485 39.6875 20.487 39.5888 20.6628 39.4129C20.8386 39.2371 20.9374 38.9987 20.9374 38.75C20.9374 38.5014 20.8386 38.2629 20.6628 38.0871C20.487 37.9113 20.2485 37.8125 19.9999 37.8125Z"
          fill="currentColor"/>
    <path d="M6.67394 18.2647C6.44544 20.0263 6.56757 21.8156 7.03331 23.5298L7.95519 24.0727C8.02613 24.1144 8.09581 24.1568 8.16558 24.1992C8.63144 24.4827 8.968 24.6875 9.73198 24.6875C10.496 24.6875 10.8325 24.4827 11.2983 24.1991C11.856 23.8594 12.5499 23.4375 13.8396 23.4375C15.1294 23.4375 15.8231 23.8598 16.3806 24.1992C16.8463 24.4827 17.1828 24.6875 17.9466 24.6875C18.7104 24.6875 19.047 24.4827 19.5128 24.1992C20.0702 23.8598 20.7641 23.4375 22.0537 23.4375C23.3433 23.4375 24.0371 23.8598 24.5946 24.1992C25.0603 24.4827 25.3967 24.6875 26.1607 24.6875C26.9246 24.6875 27.2609 24.4827 27.7266 24.1992C28.2841 23.8598 28.9778 23.4375 30.2675 23.4375C31.5292 23.4375 32.2207 23.8415 32.7717 24.1768C33.2134 22.8286 33.438 21.4187 33.4371 20C33.4371 19.7522 33.4302 19.506 33.4165 19.2615C32.2503 18.9535 31.9395 18.125 30.2675 18.125C28.2141 18.125 28.2141 19.375 26.1607 19.375C24.1072 19.375 24.1071 18.125 22.0537 18.125C20.0003 18.125 20.0002 19.375 17.9466 19.375C15.893 19.375 15.8932 18.125 13.8396 18.125C11.7861 18.125 11.7859 19.375 9.73206 19.375C8.10464 19.375 7.76597 18.5905 6.67394 18.2647Z"
          fill="currentColor"/>
    <path d="M26.1609 25.625C24.1074 25.625 24.1074 24.375 22.054 24.375C20.0005 24.375 20.0004 25.625 17.9469 25.625C15.8933 25.625 15.8934 24.375 13.8399 24.375C11.7864 24.375 11.7862 25.625 9.73232 25.625C8.57381 25.625 8.06873 25.2273 7.47998 24.8805C9.43732 29.8841 14.3112 33.4375 19.9998 33.4375C25.6151 33.4375 30.4361 29.9748 32.442 25.0731C31.8851 24.7382 31.3748 24.375 30.2677 24.375C28.2144 24.375 28.2144 25.625 26.1609 25.625Z"
          fill="currentColor"/>
    <path d="M23.4375 10C23.9553 10 24.375 9.58027 24.375 9.0625C24.375 8.54473 23.9553 8.125 23.4375 8.125C22.9197 8.125 22.5 8.54473 22.5 9.0625C22.5 9.58027 22.9197 10 23.4375 10Z"
          fill="currentColor"/>
    <path d="M17.8125 16.25C18.3303 16.25 18.75 15.8303 18.75 15.3125C18.75 14.7947 18.3303 14.375 17.8125 14.375C17.2947 14.375 16.875 14.7947 16.875 15.3125C16.875 15.8303 17.2947 16.25 17.8125 16.25Z"
          fill="currentColor"/>
    <path d="M10.9375 12.5C11.4553 12.5 11.875 12.0803 11.875 11.5625C11.875 11.0447 11.4553 10.625 10.9375 10.625C10.4197 10.625 10 11.0447 10 11.5625C10 12.0803 10.4197 12.5 10.9375 12.5Z"
          fill="currentColor"/>
    <path d="M28.75 15.3125C29.3063 15.3125 29.85 15.1475 30.3125 14.8385C30.7751 14.5295 31.1355 14.0902 31.3484 13.5763C31.5613 13.0624 31.617 12.4969 31.5085 11.9513C31.3999 11.4057 31.1321 10.9046 30.7387 10.5113C30.3454 10.1179 29.8443 9.85006 29.2987 9.74154C28.7531 9.63302 28.1876 9.68872 27.6737 9.90159C27.1598 10.1145 26.7205 10.4749 26.4115 10.9375C26.1025 11.4 25.9375 11.9437 25.9375 12.5C25.9383 13.2457 26.2349 13.9606 26.7622 14.4878C27.2894 15.0151 28.0043 15.3117 28.75 15.3125ZM28.75 11.5625C28.9354 11.5625 29.1167 11.6175 29.2709 11.7205C29.425 11.8235 29.5452 11.9699 29.6161 12.1412C29.6871 12.3125 29.7057 12.501 29.6695 12.6829C29.6333 12.8648 29.544 13.0318 29.4129 13.1629C29.2818 13.294 29.1148 13.3833 28.9329 13.4195C28.751 13.4557 28.5625 13.4371 28.3912 13.3661C28.2199 13.2952 28.0735 13.175 27.9705 13.0208C27.8675 12.8667 27.8125 12.6854 27.8125 12.5C27.8128 12.2514 27.9116 12.0131 28.0874 11.8374C28.2631 11.6616 28.5014 11.5628 28.75 11.5625Z"
          fill="currentColor"/>
    <path d="M16.875 11.5625C17.4313 11.5625 17.975 11.3975 18.4375 11.0885C18.9001 10.7795 19.2605 10.3402 19.4734 9.82629C19.6863 9.31238 19.742 8.74688 19.6335 8.20131C19.5249 7.65574 19.2571 7.1546 18.8637 6.76126C18.4704 6.36793 17.9693 6.10006 17.4237 5.99154C16.8781 5.88302 16.3126 5.93872 15.7987 6.15159C15.2848 6.36446 14.8455 6.72495 14.5365 7.18746C14.2275 7.64997 14.0625 8.19374 14.0625 8.75C14.0633 9.49566 14.3599 10.2106 14.8872 10.7378C15.4144 11.2651 16.1293 11.5617 16.875 11.5625ZM16.875 7.8125C17.0604 7.8125 17.2417 7.86748 17.3958 7.9705C17.55 8.07351 17.6702 8.21993 17.7411 8.39123C17.8121 8.56254 17.8307 8.75104 17.7945 8.93289C17.7583 9.11475 17.669 9.2818 17.5379 9.41291C17.4068 9.54402 17.2398 9.63331 17.0579 9.66948C16.876 9.70566 16.6875 9.68709 16.5162 9.61613C16.3449 9.54518 16.1985 9.42501 16.0955 9.27084C15.9925 9.11667 15.9375 8.93542 15.9375 8.75C15.9378 8.50144 16.0366 8.26314 16.2124 8.08738C16.3881 7.91163 16.6264 7.81277 16.875 7.8125Z"
          fill="currentColor"/>
</svg>
