<svg width="40" height="40" viewBox="0 0 40 40" fill="none" xmlns="http://www.w3.org/2000/svg">
    <path d="M14.3542 6.68139C14.865 6.30686 14.8503 6.3354 18.442 4.30393C18.4499 4.30001 18.4569 4.2953 18.4648 4.29139C16.5811 1.64113 13.506 0.0114746 10.1722 0.0114746C4.56367 0.0114746 0 4.57515 0 10.1837V39.5967C0 39.8131 0.175586 39.9887 0.391933 39.9887H4.31127C4.52761 39.9887 4.7032 39.8131 4.7032 39.5967V10.1837C4.7032 7.15563 7.17708 4.69429 10.2099 4.71467C11.8356 4.72565 13.3351 5.47346 14.3542 6.68139Z"
          fill="currentColor"/>
    <path d="M22.1223 27.5719C22.7628 27.465 23.1955 26.8592 23.0887 26.2187L22.9071 25.1296C22.8003 24.4891 22.1945 24.0565 21.5539 24.1631C20.9134 24.27 20.4807 24.8758 20.5875 25.5163L20.7691 26.6054C20.8759 27.2459 21.4816 27.6786 22.1223 27.5719Z"
          fill="currentColor"/>
    <path d="M28.086 24.3052C28.6523 23.9874 28.8537 23.2706 28.5359 22.7044L28.0275 21.7986C27.7097 21.2322 26.993 21.0308 26.4267 21.3487C25.8604 21.6665 25.659 22.3833 25.9768 22.9495L26.4852 23.8553C26.8033 24.4221 27.5204 24.6226 28.086 24.3052Z"
          fill="currentColor"/>
    <path d="M33.9811 20.9167C34.406 20.4256 34.3523 19.6831 33.8612 19.2582L33.0262 18.5358C32.535 18.111 31.7926 18.1647 31.3677 18.6557C30.9428 19.1468 30.9965 19.8894 31.4876 20.3142L32.3226 21.0367C32.8139 21.4615 33.5563 21.4077 33.9811 20.9167Z"
          fill="currentColor"/>
    <path d="M23.4103 32.1079C23.3166 31.4654 22.7199 31.0205 22.0772 31.114C21.4346 31.2076 20.9896 31.8045 21.0833 32.4471L21.2479 33.5765C21.3417 34.2198 21.9392 34.664 22.581 34.5704C23.2236 34.4767 23.6686 33.8799 23.5749 33.2373L23.4103 32.1079Z"
          fill="currentColor"/>
    <path d="M28.5699 28.8998C28.3265 28.2977 27.6412 28.007 27.0392 28.2503C26.4371 28.4936 26.1464 29.179 26.3897 29.781L26.7922 30.7768C27.0357 31.3792 27.7212 31.6696 28.3229 31.4263C28.925 31.183 29.2158 30.4976 28.9725 29.8956L28.5699 28.8998Z"
          fill="currentColor"/>
    <path d="M33.6564 25.7024C33.2693 25.1811 32.5329 25.0723 32.0115 25.4594C31.4902 25.8466 31.3814 26.583 31.7685 27.1044L32.4088 27.9667C32.796 28.4881 33.5326 28.5968 34.0538 28.2097C34.5751 27.8225 34.6839 27.0861 34.2968 26.5647L33.6564 25.7024Z"
          fill="currentColor"/>
    <path d="M39.5751 23.2904L38.6968 22.5616C38.1971 22.1468 37.4558 22.2158 37.0411 22.7154C36.6263 23.2152 36.6953 23.9565 37.1949 24.3712L38.0732 25.1C38.573 25.5148 39.3143 25.4458 39.7289 24.9462C40.1437 24.4464 40.0747 23.7052 39.5751 23.2904Z"
          fill="currentColor"/>
    <path d="M14.5629 16.5486L27.6542 9.14346L27.2803 8.48187C25.7545 5.78216 22.3254 4.80985 19.6 6.35054C16.0659 8.34893 16.0097 8.35042 15.5184 8.75309C13.4797 10.4183 12.7892 13.4152 14.1882 15.8863L14.5629 16.5486Z"
          fill="currentColor"/>
    <path d="M32.3452 11.7631L31.8263 10.846C31.5051 10.2752 30.7776 10.0781 30.2131 10.3976C29.5333 10.7812 14.6379 19.2064 14.3218 19.3854C13.7588 19.7028 13.5508 20.4258 13.8742 20.9986L14.3931 21.9165C14.8267 22.6831 15.7979 22.9524 16.5652 22.5193L31.7424 13.9352C32.5081 13.5013 32.7794 12.5306 32.3452 11.7631Z"
          fill="currentColor"/>
</svg>
