<svg width="40" height="40" viewBox="0 0 40 40" fill="none" xmlns="http://www.w3.org/2000/svg">
    <path d="M18.8232 0H21.1762V7.05882H18.8232V0Z" fill="currentColor"/>
    <path d="M32.4673 14.8416L39.392 13.458L39.8532 15.7663L32.9285 17.1498L32.4673 14.8416Z" fill="currentColor"/>
    <path d="M28.5762 7.7981L33.5668 2.8075L35.2303 4.47104L30.2397 9.46163L28.5762 7.7981Z" fill="currentColor"/>
    <path d="M0.166016 15.7532L0.627207 13.4449L7.55191 14.8284L7.09072 17.1367L0.166016 15.7532Z" fill="currentColor"/>
    <path d="M4.76367 4.46826L6.4272 2.80473L11.4178 7.79532L9.75426 9.45885L4.76367 4.46826Z" fill="currentColor"/>
    <path d="M4.70557 36.2762V39.9999H35.2938V36.2762C35.2938 34.6535 33.9736 33.3333 32.3509 33.3333H7.64847C6.02572 33.3333 4.70557 34.6535 4.70557 36.2762Z"
          fill="currentColor"/>
    <path d="M28.7491 13.6817C28.486 12.4761 27.8118 11.3859 26.8508 10.6118C25.8897 9.8379 24.6808 9.41162 23.4467 9.41162H16.2369C13.6589 9.41162 11.4208 11.2464 10.9152 13.7744L7.47412 30.9802H18.8238V28.1069C16.3601 27.5668 14.51 25.3684 14.51 22.745C14.51 19.7176 16.9729 17.2548 20.0002 17.2548C23.0276 17.2548 25.4904 19.7176 25.4904 22.745C25.4904 25.3684 23.6404 27.5668 21.1767 28.1069V30.9802C21.1767 30.9802 32.4059 30.986 32.5264 30.9941L28.7491 13.6817Z"
          fill="currentColor"/>
    <path d="M20.0005 25.8822C21.7332 25.8822 23.1378 24.4776 23.1378 22.7449C23.1378 21.0123 21.7332 19.6077 20.0005 19.6077C18.2679 19.6077 16.8633 21.0123 16.8633 22.7449C16.8633 24.4776 18.2679 25.8822 20.0005 25.8822Z"
          fill="currentColor"/>
</svg>
