<svg width="40" height="40" viewBox="0 0 40 40" fill="none" xmlns="http://www.w3.org/2000/svg">
    <path d="M28.5173 8.51733H7.50008V13.8069H3.33336V16.1506H7.50008V18.8282H0V21.1719H7.50008V23.8495H3.33336V26.1933H7.50008V31.4828H28.5173C34.8488 31.4828 40 26.3317 40 20.0001C40 13.6684 34.8488 8.51733 28.5173 8.51733ZM20.7979 22.0167C20.6922 24.0558 18.9289 25.7274 16.886 25.7274C14.9366 25.7276 13.2762 24.2907 13.0061 22.3548L15.3274 22.0309C15.4372 22.818 16.1222 23.3982 16.9188 23.3834C17.7391 23.3669 18.4148 22.7132 18.4573 21.8953C18.48 21.458 18.3272 21.0432 18.027 20.727C17.7266 20.4105 17.3213 20.2362 16.8859 20.2362C16.2613 20.2362 16.006 20.3212 15.7589 20.4237L15.1844 20.6622L13.7851 19.7401L14.6915 14.2682H20.3769V16.6119H16.6789L16.465 17.9031C16.599 17.8958 16.7387 17.8923 16.8859 17.8923C17.9548 17.8923 18.9902 18.3373 19.7267 19.1131C20.4738 19.9001 20.8543 20.9312 20.7979 22.0167ZM33.6719 20.0023C33.6719 23.3758 31.5721 25.7319 28.5656 25.7319C25.4063 25.7319 22.836 23.1616 22.836 20.0023C22.836 16.843 25.4063 14.2727 28.5656 14.2727C29.7137 14.2727 30.8217 14.6114 31.7699 15.2519L30.4578 17.194C29.8986 16.8162 29.2443 16.6164 28.5656 16.6164C26.6986 16.6164 25.1798 18.1352 25.1798 20.0022C25.1798 21.8691 26.6986 23.388 28.5656 23.388C30.1019 23.388 30.8914 22.3526 31.1873 21.1741H28.3365V18.8303H33.6719V20.0023Z"
          fill="currentColor"/>
</svg>
