<svg width="40" height="40" viewBox="0 0 40 40" fill="none" xmlns="http://www.w3.org/2000/svg">
    <path d="M3.15723 9.43359V34.6977H36.8427V9.43359H3.15723ZM31.5403 29.7072C31.5403 30.5687 30.842 31.2668 29.9808 31.2668H9.70718C8.84601 31.2668 8.14766 30.5687 8.14766 29.7072V17.2312C8.14766 16.3697 8.84601 15.6716 9.70718 15.6716H29.9808C30.842 15.6716 31.5403 16.3697 31.5403 17.2312V29.7072ZM32.5219 14.0968C32.006 14.0968 31.5862 13.8305 31.5862 13.3146C31.5862 12.9815 31.3155 12.8645 30.9823 12.8645H9.75926C9.42646 12.8645 9.15511 12.9815 9.15511 13.3146C9.15511 13.8305 8.73529 14.1736 8.2194 14.1736C7.70352 14.1736 7.2837 13.8688 7.2837 13.353C7.2837 11.9884 8.39438 10.9931 9.75926 10.9931H30.9827C32.3475 10.9931 33.4579 11.95 33.4579 13.3146C33.4576 13.8308 33.0381 14.0968 32.5219 14.0968Z"
          fill="currentColor"/>
    <path d="M34.3475 1.03001V0.07652H6.34175C6.16927 0.07652 5.65245 -0.09565 5.65245 0.07652V1.03001C4.40484 1.09239 3.15723 2.23987 3.15723 3.64531V8.18598H36.8427V3.64499C36.8427 2.2405 35.5951 1.09426 34.3475 1.03001ZM9.13234 6.92995C7.92746 6.92995 6.94653 5.94933 6.94653 4.74414C6.94653 4.36798 7.04228 4.01335 7.2104 3.70426L10.1722 6.66608C9.86282 6.8342 9.50849 6.92995 9.13234 6.92995ZM11.0546 5.78402L8.09246 2.82188C8.40186 2.65408 8.75619 2.55802 9.13234 2.55802C10.3372 2.55802 11.3182 3.53864 11.3182 4.74414C11.3182 5.12029 11.2224 5.47461 11.0546 5.78402ZM16.6274 6.92995C15.4222 6.92995 14.4412 5.94933 14.4412 4.74414C14.4415 4.36798 14.537 4.01335 14.7051 3.70426L17.6675 6.66608C17.3581 6.8342 17.0035 6.92995 16.6274 6.92995ZM18.5499 5.78402L15.5875 2.82188C15.8969 2.65408 16.2512 2.55802 16.6277 2.55802C17.8329 2.55802 18.8135 3.53864 18.8135 4.74414C18.8135 5.12029 18.718 5.47461 18.5499 5.78402ZM24.0516 6.92995C22.8467 6.92995 21.8658 5.94933 21.8658 4.74414C21.8658 4.36798 21.9615 4.01335 22.1296 3.70426L25.0918 6.66608C24.7824 6.8342 24.4277 6.92995 24.0516 6.92995ZM25.9738 5.78402L23.0117 2.82188C23.3211 2.65408 23.6754 2.55802 24.0516 2.55802C25.2568 2.55802 26.2377 3.53864 26.2377 4.74414C26.2377 5.12029 26.1419 5.47461 25.9738 5.78402ZM31.5466 6.92995C30.3417 6.92995 29.3608 5.94933 29.3608 4.74414C29.3611 4.36798 29.4565 4.01335 29.6246 3.70426L32.5868 6.66608C32.2774 6.8342 31.923 6.92995 31.5466 6.92995ZM33.4691 5.78402L30.507 2.82188C30.8164 2.65408 31.1704 2.55802 31.5469 2.55802C32.7521 2.55802 33.733 3.53864 33.733 4.74414C33.733 5.12029 33.6373 5.47461 33.4691 5.78402Z"
          fill="currentColor"/>
    <path d="M34.3472 0.07652H34.3834C34.5559 0.07652 34.3472 -0.0956501 34.3472 0.07652Z" fill="currentColor"/>
    <path d="M3.15723 35.9453V39.3763C3.15723 39.5487 3.15723 40.0001 3.15723 40.0001H36.8361C36.8361 40.0001 36.8427 39.5487 36.8427 39.3763V35.9453H3.15723Z"
          fill="currentColor"/>
</svg>
