<svg width="40" height="40" viewBox="0 0 40 40" fill="none" xmlns="http://www.w3.org/2000/svg">
    <path d="M18.75 31.25C18.75 31.0647 18.7088 30.8816 18.6293 30.7142C18.5499 30.5467 18.4342 30.399 18.2906 30.2818C18.147 30.1645 17.9791 30.0807 17.7992 30.0363C17.6192 29.992 17.4316 29.9882 17.25 30.0253C17.6187 30.5847 18.1377 31.0288 18.7474 31.3065C18.748 31.2876 18.75 31.2691 18.75 31.25Z"
          fill="currentColor"/>
    <path d="M16.3108 30.866C16.2344 31.1007 16.2293 31.3528 16.2962 31.5904C16.363 31.828 16.4989 32.0404 16.6865 32.2008C16.8741 32.3611 17.1051 32.4623 17.3502 32.4914C17.5953 32.5204 17.8435 32.4762 18.0635 32.3642C17.3666 32.0141 16.7651 31.4999 16.3108 30.866Z"
          fill="currentColor"/>
    <path d="M24.6328 18.75C24.6324 18.3134 24.5405 17.8818 24.363 17.4829C24.1855 17.084 23.9264 16.7267 23.6024 16.434C23.2784 16.1414 22.8966 15.9199 22.4818 15.7838C22.0669 15.6478 21.6281 15.6001 21.1938 15.644C20.7594 15.6879 20.339 15.8223 19.9597 16.0386C19.5805 16.2549 19.2507 16.5482 18.9918 16.8998C18.7328 17.2513 18.5504 17.6532 18.4563 18.0795C18.3622 18.5058 18.3584 18.9472 18.4453 19.375H24.5703C24.612 19.1693 24.6329 18.9599 24.6328 18.75Z"
          fill="currentColor"/>
    <path d="M16.8696 28.8306C17.2872 28.7213 17.726 28.7219 18.1433 28.8325C18.5605 28.9431 18.9421 29.1597 19.2508 29.4615C19.5595 29.7632 19.7848 30.1398 19.9048 30.5544C20.0248 30.9691 20.0354 31.4077 19.9356 31.8277C19.8358 32.2477 19.629 32.6347 19.3352 32.951C19.0415 33.2673 18.6709 33.5022 18.2595 33.6328C17.848 33.7634 17.4098 33.7853 16.9874 33.6963C16.565 33.6073 16.1728 33.4105 15.8491 33.125H11.25C11.0842 33.125 10.9253 33.0592 10.8081 32.9419C10.6908 32.8247 10.625 32.6658 10.625 32.5C10.625 32.3342 10.6908 32.1753 10.8081 32.0581C10.9253 31.9408 11.0842 31.875 11.25 31.875H11.3698C11.1359 30.4291 11.0456 28.9637 11.1 27.5H9.375V35H30.625V27.5H16.8573C16.8746 27.9427 16.8787 28.3863 16.8696 28.8306ZM27.5 28.75H28.125C28.2908 28.75 28.4497 28.8158 28.5669 28.9331C28.6842 29.0503 28.75 29.2092 28.75 29.375C28.75 29.5408 28.6842 29.6997 28.5669 29.8169C28.4497 29.9342 28.2908 30 28.125 30H27.5C27.3342 30 27.1753 29.9342 27.0581 29.8169C26.9408 29.6997 26.875 29.5408 26.875 29.375C26.875 29.2092 26.9408 29.0503 27.0581 28.9331C27.1753 28.8158 27.3342 28.75 27.5 28.75ZM25.625 32.5H26.875C27.0408 32.5 27.1997 32.5658 27.3169 32.6831C27.4342 32.8003 27.5 32.9592 27.5 33.125C27.5 33.2908 27.4342 33.4497 27.3169 33.5669C27.1997 33.6842 27.0408 33.75 26.875 33.75H25.625C25.4592 33.75 25.3003 33.6842 25.1831 33.5669C25.0658 33.4497 25 33.2908 25 33.125C25 32.9592 25.0658 32.8003 25.1831 32.6831C25.3003 32.5658 25.4592 32.5 25.625 32.5ZM23.75 30H24.375C24.5408 30 24.6997 30.0658 24.8169 30.1831C24.9342 30.3003 25 30.4592 25 30.625C25 30.7908 24.9342 30.9497 24.8169 31.0669C24.6997 31.1842 24.5408 31.25 24.375 31.25H23.75C23.5842 31.25 23.4253 31.1842 23.3081 31.0669C23.1908 30.9497 23.125 30.7908 23.125 30.625C23.125 30.4592 23.1908 30.3003 23.3081 30.1831C23.4253 30.0658 23.5842 30 23.75 30ZM21.25 28.75H21.875C22.0408 28.75 22.1997 28.8158 22.3169 28.9331C22.4342 29.0503 22.5 29.2092 22.5 29.375C22.5 29.5408 22.4342 29.6997 22.3169 29.8169C22.1997 29.9342 22.0408 30 21.875 30H21.25C21.0842 30 20.9253 29.9342 20.8081 29.8169C20.6908 29.6997 20.625 29.5408 20.625 29.375C20.625 29.2092 20.6908 29.0503 20.8081 28.9331C20.9253 28.8158 21.0842 28.75 21.25 28.75Z"
          fill="currentColor"/>
    <path d="M16.7735 26.25H30.625V23.125H29.375C29.2093 23.125 29.0503 23.0592 28.9331 22.9419C28.8159 22.8247 28.75 22.6658 28.75 22.5C28.75 22.3342 28.8159 22.1753 28.9331 22.0581C29.0503 21.9408 29.2093 21.875 29.375 21.875H30.625V20.625H15.4771C16.1528 22.4354 16.5887 24.3265 16.7735 26.25ZM21.25 25H19.375C19.2093 25 19.0503 24.9342 18.9331 24.8169C18.8159 24.6997 18.75 24.5408 18.75 24.375C18.75 24.2092 18.8159 24.0503 18.9331 23.9331C19.0503 23.8158 19.2093 23.75 19.375 23.75H21.25C21.4158 23.75 21.5748 23.8158 21.692 23.9331C21.8092 24.0503 21.875 24.2092 21.875 24.375C21.875 24.5408 21.8092 24.6997 21.692 24.8169C21.5748 24.9342 21.4158 25 21.25 25ZM23.75 25H23.125C22.9593 25 22.8003 24.9342 22.6831 24.8169C22.5659 24.6997 22.5 24.5408 22.5 24.375C22.5 24.2092 22.5659 24.0503 22.6831 23.9331C22.8003 23.8158 22.9593 23.75 23.125 23.75H23.75C23.9158 23.75 24.0748 23.8158 24.192 23.9331C24.3092 24.0503 24.375 24.2092 24.375 24.375C24.375 24.5408 24.3092 24.6997 24.192 24.8169C24.0748 24.9342 23.9158 25 23.75 25ZM27.5 23.75H28.75C28.9158 23.75 29.0748 23.8158 29.192 23.9331C29.3092 24.0503 29.375 24.2092 29.375 24.375C29.375 24.5408 29.3092 24.6997 29.192 24.8169C29.0748 24.9342 28.9158 25 28.75 25H27.5C27.3343 25 27.1753 24.9342 27.0581 24.8169C26.9409 24.6997 26.875 24.5408 26.875 24.375C26.875 24.2092 26.9409 24.0503 27.0581 23.9331C27.1753 23.8158 27.3343 23.75 27.5 23.75ZM18.125 21.875H25C25.1658 21.875 25.3248 21.9408 25.442 22.0581C25.5592 22.1753 25.625 22.3342 25.625 22.5C25.625 22.6658 25.5592 22.8247 25.442 22.9419C25.3248 23.0592 25.1658 23.125 25 23.125H18.125C17.9593 23.125 17.8003 23.0592 17.6831 22.9419C17.5659 22.8247 17.5 22.6658 17.5 22.5C17.5 22.3342 17.5659 22.1753 17.6831 22.0581C17.8003 21.9408 17.9593 21.875 18.125 21.875Z"
          fill="currentColor"/>
    <path d="M12.4834 20.625H9.375V26.25H11.1827C11.3662 24.3258 11.8035 22.4344 12.4834 20.625Z" fill="currentColor"/>
    <path d="M12.6214 31.7899L12.6356 31.8751H15.0789C14.9796 31.49 14.9736 31.0868 15.0616 30.6991C15.1495 30.3113 15.3288 29.9501 15.5845 29.6455C15.6373 28.7922 15.6375 27.9364 15.5851 27.083C15.5613 27.0163 15.549 26.9459 15.5489 26.875H12.3848C12.2702 28.5169 12.3496 30.1666 12.6214 31.7899Z"
          fill="currentColor"/>
    <path d="M13.981 20.2427C13.5842 21.1783 13.2563 22.1416 13 23.125H14.9566C14.702 22.1421 14.376 21.1791 13.9811 20.2437L13.981 20.2427Z"
          fill="currentColor"/>
    <path d="M12.5117 25.625H15.4441C15.3887 25.2064 15.3208 24.7897 15.2402 24.375H12.7159C12.6351 24.7896 12.567 25.2063 12.5117 25.625Z"
          fill="currentColor"/>
    <path d="M20 5C14.1413 5 9.375 9.76641 9.375 15.625V19.375H12.9958C13.1312 19.0713 13.2734 18.7698 13.4223 18.4705C13.4743 18.3666 13.554 18.2793 13.6528 18.2183C13.7515 18.1573 13.8653 18.125 13.9814 18.125C14.0974 18.125 14.2112 18.1573 14.31 18.2183C14.4087 18.2793 14.4885 18.3666 14.5404 18.4705C14.6896 18.769 14.8317 19.0705 14.9666 19.375H17.1781C17.0881 18.7539 17.1328 18.1208 17.3091 17.5185C17.4854 16.9162 17.7892 16.3589 18.1999 15.8843C18.6106 15.4098 19.1186 15.0292 19.6893 14.7684C20.2601 14.5075 20.8803 14.3725 21.5079 14.3725C22.1355 14.3725 22.7557 14.5075 23.3264 14.7684C23.8972 15.0292 24.4052 15.4098 24.8159 15.8843C25.2266 16.3589 25.5304 16.9162 25.7067 17.5185C25.883 18.1208 25.9277 18.7539 25.8377 19.375H30.625V15.625C30.625 9.76641 25.8587 5 20 5ZM13.4375 14.1666C13.3214 14.1666 13.2077 14.1343 13.1089 14.0733C13.0102 14.0123 12.9304 13.925 12.8785 13.8212L12.8238 13.7113C12.7363 13.5346 12.601 13.3861 12.4332 13.2824C12.2655 13.1788 12.0721 13.1243 11.875 13.125C11.7092 13.125 11.5503 13.0592 11.4331 12.9419C11.3158 12.8247 11.25 12.6658 11.25 12.5C11.25 12.3342 11.3158 12.1753 11.4331 12.0581C11.5503 11.9408 11.7092 11.875 11.875 11.875C12.4535 11.8732 13.0115 12.0896 13.4375 12.4811C13.8635 12.0896 14.4215 11.8732 15 11.875C15.1658 11.875 15.3247 11.9408 15.4419 12.0581C15.5592 12.1753 15.625 12.3342 15.625 12.5C15.625 12.6658 15.5592 12.8247 15.4419 12.9419C15.3247 13.0592 15.1658 13.125 15 13.125C14.8029 13.1243 14.6096 13.1788 14.442 13.2824C14.2743 13.386 14.1391 13.5344 14.0515 13.7109L13.9968 13.8209C13.9449 13.9248 13.8651 14.0122 13.7663 14.0732C13.6675 14.1343 13.5536 14.1667 13.4375 14.1666ZM16.1582 17.0118C16.1329 17.0899 16.0924 17.1622 16.0391 17.2247C15.9859 17.2871 15.9208 17.3384 15.8476 17.3757C15.7745 17.4129 15.6947 17.4354 15.6129 17.4418C15.5311 17.4483 15.4488 17.4385 15.3707 17.413L14.1819 17.0267C14.103 17.002 14.0298 16.962 13.9665 16.9088C13.9032 16.8556 13.8511 16.7904 13.8132 16.717C13.7753 16.6436 13.7523 16.5633 13.7456 16.481C13.7389 16.3986 13.7486 16.3157 13.7741 16.2371C13.7997 16.1585 13.8405 16.0858 13.8944 16.0231C13.9482 15.9604 14.014 15.909 14.0878 15.8718C14.1617 15.8347 14.2421 15.8126 14.3246 15.8068C14.407 15.801 14.4898 15.8116 14.5681 15.838L15.757 16.2242C15.835 16.2496 15.9073 16.2901 15.9697 16.3434C16.0321 16.3967 16.0834 16.4618 16.1207 16.5349C16.158 16.608 16.1804 16.6878 16.1869 16.7696C16.1933 16.8514 16.1836 16.9337 16.1582 17.0118ZM15.9375 11.0416C15.8214 11.0416 15.7077 11.0093 15.6089 10.9483C15.5102 10.8873 15.4304 10.8 15.3785 10.6962L15.3238 10.5862C15.2363 10.4096 15.101 10.2611 14.9332 10.1574C14.7655 10.0538 14.5721 9.99928 14.375 10C14.2092 10 14.0503 9.93415 13.9331 9.81694C13.8158 9.69973 13.75 9.54076 13.75 9.375C13.75 9.20924 13.8158 9.05027 13.9331 8.93306C14.0503 8.81585 14.2092 8.75 14.375 8.75C14.9535 8.74822 15.5115 8.96464 15.9375 9.35609C16.3635 8.96464 16.9215 8.74822 17.5 8.75C17.6658 8.75 17.8247 8.81585 17.9419 8.93306C18.0592 9.05027 18.125 9.20924 18.125 9.375C18.125 9.54076 18.0592 9.69973 17.9419 9.81694C17.8247 9.93415 17.6658 10 17.5 10C17.3029 9.99931 17.1096 10.0538 16.942 10.1574C16.7743 10.261 16.6391 10.4094 16.5515 10.5859L16.4968 10.6959C16.4449 10.7998 16.3651 10.8872 16.2663 10.9482C16.1675 11.0093 16.0536 11.0417 15.9375 11.0416ZM18.2016 14.1992C18.0675 14.2966 17.9002 14.3368 17.7365 14.3109C17.5728 14.2849 17.4261 14.195 17.3287 14.0609L16.5937 13.0497C16.5001 12.9154 16.4629 12.7498 16.49 12.5883C16.5172 12.4269 16.6067 12.2826 16.7391 12.1864C16.8716 12.0902 17.0365 12.0498 17.1984 12.0739C17.3603 12.098 17.5063 12.1847 17.605 12.3153L18.3398 13.3266C18.4371 13.4606 18.4772 13.6278 18.4513 13.7915C18.4254 13.9551 18.3356 14.1018 18.2016 14.1992ZM22.1328 12.5C22.1328 12.6658 22.067 12.8247 21.9498 12.9419C21.8325 13.0592 21.6736 13.125 21.5078 13.125C21.3421 13.125 21.1831 13.0592 21.0659 12.9419C20.9487 12.8247 20.8828 12.6658 20.8828 12.5V11.25C20.8828 11.0842 20.9487 10.9253 21.0659 10.8081C21.1831 10.6908 21.3421 10.625 21.5078 10.625C21.6736 10.625 21.8325 10.6908 21.9498 10.8081C22.067 10.9253 22.1328 11.0842 22.1328 11.25V12.5ZM26.4219 13.0497L25.6875 14.0609C25.64 14.1291 25.5793 14.1871 25.5091 14.2315C25.4389 14.2759 25.3606 14.3059 25.2787 14.3197C25.1967 14.3335 25.1129 14.3308 25.032 14.3118C24.9511 14.2928 24.8748 14.2579 24.8076 14.2091C24.7404 14.1603 24.6836 14.0986 24.6405 14.0275C24.5974 13.9565 24.5689 13.8776 24.5567 13.7954C24.5445 13.7132 24.5487 13.6294 24.5693 13.5489C24.5898 13.4684 24.6262 13.3928 24.6762 13.3266L25.411 12.3153C25.5097 12.1847 25.6557 12.098 25.8176 12.0739C25.9795 12.0498 26.1444 12.0902 26.2769 12.1864C26.4094 12.2826 26.4988 12.4269 26.526 12.5883C26.5532 12.7498 26.5159 12.9154 26.4223 13.0497H26.4219ZM29.2352 16.2392C29.2864 16.3969 29.2729 16.5684 29.1976 16.7161C29.1224 16.8637 28.9915 16.9755 28.8339 17.0267L27.6451 17.413C27.567 17.4384 27.4847 17.4481 27.4029 17.4417C27.3211 17.4353 27.2413 17.4128 27.1682 17.3755C27.0951 17.3382 27.03 17.2869 26.9767 17.2245C26.9234 17.1621 26.8829 17.0898 26.8575 17.0118C26.8322 16.9337 26.8224 16.8514 26.8289 16.7696C26.8353 16.6878 26.8578 16.608 26.8951 16.5349C26.9323 16.4617 26.9836 16.3967 27.0461 16.3434C27.1085 16.2901 27.1808 16.2496 27.2588 16.2242L28.4477 15.838C28.5257 15.8126 28.608 15.8029 28.6898 15.8093C28.7717 15.8157 28.8514 15.8382 28.9245 15.8755C28.9977 15.9127 29.0628 15.964 29.1161 16.0264C29.1694 16.0889 29.2099 16.1612 29.2352 16.2392H29.2352Z"
          fill="currentColor"/>
    <path d="M20 2.5C12.7628 2.5 6.875 8.38781 6.875 15.625V37.5H33.125V15.625C33.125 8.38781 27.2372 2.5 20 2.5ZM31.875 35.625C31.875 35.7908 31.8092 35.9497 31.6919 36.0669C31.5747 36.1842 31.4158 36.25 31.25 36.25H8.75C8.58424 36.25 8.42527 36.1842 8.30806 36.0669C8.19085 35.9497 8.125 35.7908 8.125 35.625V15.625C8.125 9.07711 13.4521 3.75 20 3.75C26.5479 3.75 31.875 9.07711 31.875 15.625V35.625Z"
          fill="currentColor"/>
</svg>
