<svg width="40" height="40" viewBox="0 0 40 40" fill="none" xmlns="http://www.w3.org/2000/svg">
    <path d="M38.6407 5.2395H1.3593C0.608594 5.2395 0 5.8481 0 6.5988V26.8622C0 27.6129 0.608594 28.2215 1.3593 28.2215H38.6407C39.3914 28.2215 40 27.6129 40 26.8622V6.5988C40 5.8481 39.3914 5.2395 38.6407 5.2395Z"
          fill="currentColor"/>
    <path d="M27.7673 32.4023H23.1525V30.5796H16.8472V32.4023H12.2324C11.5812 32.4023 11.0532 32.9302 11.0532 33.5815C11.0532 34.2326 11.5811 34.7606 12.2324 34.7606H27.7673C28.4185 34.7606 28.9464 34.2327 28.9464 33.5815C28.9464 32.9303 28.4185 32.4023 27.7673 32.4023Z"
          fill="currentColor"/>
</svg>
