<svg width="40" height="40" viewBox="0 0 40 40" fill="none" xmlns="http://www.w3.org/2000/svg">
    <path d="M0.648226 39.8755C1.23264 40.1658 1.9321 39.9265 2.22049 39.3516L5.85971 32.0731L9.49893 39.3516C9.78702 39.9259 10.4865 40.1661 11.0712 39.8755C11.6504 39.5862 11.8848 38.8822 11.5955 38.3033L7.75608 30.6245H10.5472C11.1942 30.6245 11.7191 30.0999 11.7191 29.4526C11.7191 23.6277 6.9971 18.906 1.17221 18.906C0.52524 18.906 0.00033787 19.4303 0.00033787 20.0779V29.4526C0.00033787 30.0999 0.52524 30.6245 1.17221 30.6245H3.96366L0.123934 38.3033C-0.165373 38.8822 0.0690024 39.5862 0.648226 39.8755Z"
          fill="currentColor"/>
    <path d="M2.54325 7.63214C2.35648 7.9126 2.29942 8.25806 2.38517 8.58307C2.47215 8.90808 2.69309 9.17938 2.994 9.33044C5.72929 10.6985 8.91013 10.918 11.7895 9.99023C11.7367 9.56573 11.7052 9.13544 11.7361 8.68958C11.9689 5.29663 14.6563 2.01141 16.7498 0H16.6534C10.9682 0 5.69358 2.90253 2.54325 7.63214Z"
          fill="currentColor"/>
    <path d="M19.9819 0.333008C18.3397 1.68341 14.3123 5.35132 14.0743 8.85321C14.0486 9.22614 14.077 9.5838 14.1411 9.93262L16.2383 10.6318C17.0528 10.9031 17.9769 11.0468 18.8283 11.1323V23.5932H12.6396C13.3736 25.0239 13.8512 26.6044 14.0035 28.2807H18.8283V37.6554H15.2346C14.587 37.6554 14.0627 38.1797 14.0627 38.8273C14.0627 39.4749 14.587 39.9991 15.2346 39.9991H24.7655C25.4134 39.9991 25.9374 39.4749 25.9374 38.8273C25.9374 38.1797 25.4134 37.6554 24.7655 37.6554H21.1721V28.2807H25.9969C26.1489 26.6044 26.6268 25.0239 27.3604 23.5932H21.1721V11.1323C22.0235 11.0468 22.9476 10.9031 23.7621 10.6318L25.8785 9.92621C26.4421 6.30377 21.7696 1.8717 19.9819 0.333008Z"
          fill="currentColor"/>
    <path d="M37.0079 9.32922C37.3091 9.17938 37.5298 8.90717 37.6167 8.58215C37.7028 8.25714 37.6454 7.91046 37.459 7.63123C34.3062 2.90131 29.0294 0 23.3464 0H23.1768C25.5181 2.29523 28.6513 6.21643 28.2347 9.99939C31.1064 10.9164 34.2766 10.6924 37.0079 9.32922Z"
          fill="currentColor"/>
    <path d="M38.828 18.906C33.0031 18.906 28.2811 23.6277 28.2811 29.4526C28.2811 30.0999 28.806 30.6245 29.453 30.6245H32.2444L28.4047 38.3033C28.1154 38.8822 28.3498 39.5862 28.929 39.8755C29.5134 40.1658 30.2129 39.9265 30.5013 39.3516L34.1405 32.0731L37.7797 39.3516C38.0678 39.9259 38.7672 40.1661 39.3519 39.8755C39.9312 39.5862 40.1655 38.8822 39.8762 38.3033L36.0368 30.6245H38.828C39.4749 30.6245 39.9998 30.0999 39.9998 29.4526V20.0779C39.9998 19.4303 39.4749 18.906 38.828 18.906Z"
          fill="currentColor"/>
</svg>
