<svg width="40" height="40" viewBox="0 0 40 40" fill="none" xmlns="http://www.w3.org/2000/svg">
    <path d="M7.5 32.5H32.5V8.75H7.5V32.5ZM20 10C21.9778 10 23.9112 10.5865 25.5557 11.6853C27.2002 12.7841 28.4819 14.3459 29.2388 16.1732C29.9957 18.0004 30.1937 20.0111 29.8079 21.9509C29.422 23.8907 28.4696 25.6725 27.0711 27.0711C25.6725 28.4696 23.8907 29.422 21.9509 29.8079C20.0111 30.1937 18.0004 29.9957 16.1732 29.2388C14.3459 28.4819 12.7841 27.2002 11.6853 25.5557C10.5865 23.9112 10 21.9778 10 20C10.003 17.3488 11.0575 14.807 12.9322 12.9322C14.807 11.0575 17.3488 10.003 20 10Z"
          fill="currentColor"/>
    <path d="M20 26.25C21.2361 26.25 22.4445 25.8834 23.4723 25.1967C24.5001 24.5099 25.3012 23.5338 25.7742 22.3918C26.2473 21.2497 26.3711 19.9931 26.1299 18.7807C25.8887 17.5683 25.2935 16.4547 24.4194 15.5806C23.5453 14.7065 22.4317 14.1113 21.2193 13.8701C20.0069 13.6289 18.7503 13.7527 17.6082 14.2258C16.4662 14.6988 15.4901 15.4999 14.8033 16.5277C14.1166 17.5555 13.75 18.7639 13.75 20C13.7519 21.657 14.411 23.2456 15.5827 24.4173C16.7544 25.589 18.343 26.2481 20 26.25ZM22.6505 16.6763C22.7046 16.6132 22.7587 16.5503 22.8109 16.485C22.9154 16.3586 23.0653 16.2783 23.2284 16.2614C23.3915 16.2445 23.5547 16.2924 23.6828 16.3947C23.8109 16.497 23.8937 16.6456 23.9133 16.8084C23.9329 16.9712 23.8877 17.1352 23.7875 17.265C23.7262 17.3417 23.6625 17.4159 23.5994 17.4898C23.3137 17.8233 23.1248 18.0435 23.1248 18.5414C23.1248 19.0393 23.3137 19.2596 23.5994 19.593C23.9453 19.9961 24.375 20.4978 24.375 21.4582C24.375 22.4186 23.9453 22.9203 23.5994 23.3234C23.5454 23.3866 23.4912 23.4496 23.439 23.515C23.3883 23.5806 23.325 23.6356 23.2529 23.6765C23.1808 23.7175 23.1012 23.7437 23.0189 23.7536C22.9365 23.7635 22.853 23.7569 22.7733 23.7342C22.6935 23.7115 22.619 23.6732 22.5542 23.6214C22.4894 23.5696 22.4355 23.5055 22.3958 23.4327C22.356 23.3599 22.3311 23.2799 22.3226 23.1974C22.314 23.1149 22.322 23.0315 22.346 22.9522C22.37 22.8728 22.4096 22.7989 22.4624 22.735C22.5237 22.6582 22.5874 22.5841 22.6506 22.5099C22.9364 22.1765 23.1252 21.9562 23.1252 21.4582C23.1252 20.9602 22.9364 20.7399 22.6507 20.4065C22.3047 20.0034 21.875 19.5018 21.875 18.5414C21.875 17.581 22.3047 17.0794 22.6505 16.6763ZM19.5255 20.4065C19.1797 20.0034 18.75 19.5018 18.75 18.5414C18.75 17.581 19.1797 17.0795 19.5255 16.6764C19.8112 16.343 20 16.1229 20 15.625C20 15.4592 20.0658 15.3003 20.183 15.1831C20.3003 15.0658 20.4592 15 20.625 15C20.7908 15 20.9497 15.0658 21.0669 15.1831C21.1841 15.3003 21.25 15.4592 21.25 15.625C21.25 16.5853 20.8203 17.087 20.4745 17.49C20.1888 17.8234 20 18.0435 20 18.5414C20 19.0393 20.1888 19.2596 20.4745 19.593C20.8203 19.9961 21.25 20.4978 21.25 21.4582C21.25 22.4186 20.8203 22.9202 20.4745 23.3233C20.1888 23.6567 20 23.8769 20 24.375C20 24.5408 19.9341 24.6997 19.8169 24.8169C19.6997 24.9341 19.5408 25 19.375 25C19.2092 25 19.0503 24.9341 18.9331 24.8169C18.8158 24.6997 18.75 24.5408 18.75 24.375C18.75 23.4146 19.1797 22.9129 19.5255 22.5098C19.8112 22.1764 20 21.9562 20 21.4582C20 20.9602 19.8112 20.7399 19.5255 20.4062L19.5255 20.4065ZM16.4005 16.6763C16.4546 16.6132 16.5087 16.5503 16.5609 16.485C16.6654 16.3586 16.8153 16.2783 16.9784 16.2614C17.1415 16.2445 17.3047 16.2924 17.4328 16.3947C17.561 16.497 17.6437 16.6456 17.6633 16.8084C17.6829 16.9712 17.6377 17.1352 17.5375 17.265C17.4762 17.3417 17.4129 17.4159 17.3494 17.4898C17.0637 17.8233 16.8748 18.0435 16.8748 18.5414C16.8748 19.0393 17.0637 19.2596 17.3494 19.593C17.6953 19.9961 18.125 20.4978 18.125 21.4582C18.125 22.4186 17.6953 22.9203 17.3494 23.3234C17.2954 23.3866 17.2412 23.4496 17.189 23.515C17.1383 23.5806 17.075 23.6356 17.0029 23.6765C16.9308 23.7175 16.8512 23.7437 16.7689 23.7536C16.6865 23.7635 16.603 23.7569 16.5233 23.7342C16.4435 23.7115 16.369 23.6732 16.3042 23.6214C16.2394 23.5696 16.1855 23.5055 16.1458 23.4327C16.106 23.3599 16.0811 23.2799 16.0726 23.1974C16.064 23.1149 16.072 23.0315 16.096 22.9522C16.12 22.8728 16.1596 22.7989 16.2124 22.735C16.2737 22.6582 16.3374 22.5841 16.4006 22.5099C16.6864 22.1765 16.8752 21.9562 16.8752 21.4582C16.8752 20.9602 16.6864 20.7399 16.4007 20.4065C16.0547 20.0034 15.625 19.5018 15.625 18.5414C15.625 17.581 16.0547 17.0794 16.4005 16.6763Z"
          fill="currentColor"/>
    <path d="M20 28.75C21.7306 28.75 23.4223 28.2368 24.8612 27.2753C26.3002 26.3139 27.4217 24.9473 28.0839 23.3485C28.7462 21.7496 28.9195 19.9903 28.5819 18.293C28.2442 16.5956 27.4109 15.0365 26.1872 13.8128C24.9635 12.5891 23.4044 11.7558 21.707 11.4181C20.0097 11.0805 18.2504 11.2538 16.6515 11.9161C15.0527 12.5783 13.6861 13.6998 12.7246 15.1388C11.7632 16.5777 11.25 18.2694 11.25 20C11.2526 22.3198 12.1753 24.5439 13.8157 26.1843C15.4561 27.8246 17.6802 28.7474 20 28.75ZM20 12.5C21.4834 12.5 22.9334 12.9399 24.1668 13.764C25.4001 14.5881 26.3614 15.7594 26.9291 17.1299C27.4968 18.5003 27.6453 20.0083 27.3559 21.4632C27.0665 22.918 26.3522 24.2544 25.3033 25.3033C24.2544 26.3522 22.918 27.0665 21.4632 27.3559C20.0083 27.6453 18.5003 27.4967 17.1299 26.9291C15.7594 26.3614 14.5881 25.4001 13.764 24.1668C12.9399 22.9334 12.5 21.4834 12.5 20C12.5022 18.0116 13.2931 16.1052 14.6992 14.6992C16.1052 13.2931 18.0116 12.5022 20 12.5Z"
          fill="currentColor"/>
    <path d="M7.5 33.75H32.5V37.5H7.5V33.75Z" fill="currentColor"/>
    <path d="M13.75 2.5H7.5V7.5H13.75V2.5ZM12.5 5.625H8.75V4.375H12.5V5.625Z" fill="currentColor"/>
    <path d="M27.5 2.5H32.5V5H27.5V2.5Z" fill="currentColor"/>
    <path d="M26.25 5.625V2.5H15V7.5H32.5V6.25H26.875C26.7092 6.25 26.5503 6.18415 26.4331 6.06694C26.3158 5.94973 26.25 5.79076 26.25 5.625ZM19.375 6.875C19.0042 6.875 18.6416 6.76503 18.3333 6.55901C18.025 6.35298 17.7846 6.06014 17.6427 5.71753C17.5008 5.37492 17.4637 4.99792 17.536 4.63421C17.6084 4.27049 17.787 3.9364 18.0492 3.67417C18.3114 3.41195 18.6455 3.23338 19.0092 3.16103C19.3729 3.08868 19.7499 3.12581 20.0925 3.26773C20.4351 3.40964 20.728 3.64996 20.934 3.95831C21.14 4.26665 21.25 4.62916 21.25 5C21.2494 5.49711 21.0517 5.9737 20.7002 6.32521C20.3487 6.67672 19.8721 6.87444 19.375 6.875ZM25 6.875H22.5V5.625H25V6.875ZM25 4.375H22.5V3.125H25V4.375Z"
          fill="currentColor"/>
    <path d="M19.375 5.625C19.7202 5.625 20 5.34518 20 5C20 4.65482 19.7202 4.375 19.375 4.375C19.0298 4.375 18.75 4.65482 18.75 5C18.75 5.34518 19.0298 5.625 19.375 5.625Z"
          fill="currentColor"/>
</svg>
