<svg width="40" height="40" viewBox="0 0 40 40" fill="none" xmlns="http://www.w3.org/2000/svg">
    <path d="M35.546 2.5262C32.4735 0.75284 28.2379 0.678102 24.4944 2.33162C21.0305 3.86235 18.5335 7.23522 17.0575 9.76995C16.3932 9.60794 15.6822 9.92384 15.3737 10.5668C15.0785 11.1815 15.2509 11.8948 15.7421 12.3209C15.6075 12.6206 15.5253 12.8218 15.4943 12.9002L8.32529 28.6468C7.60244 28.3138 6.74125 28.6105 6.38466 29.3289C6.02142 30.0606 6.31959 30.9484 7.05126 31.3124L7.10008 31.3368L5.48734 34.8814H1.47967C0.662891 34.8814 0 35.5443 0 36.361C0 37.1778 0.662891 37.8407 1.47967 37.8407H8.87801C9.69478 37.8407 10.3577 37.1778 10.3577 36.361C10.3577 35.5443 9.69478 34.8814 8.87801 34.8814H8.7389L9.76503 32.6271C9.90043 32.6663 10.0373 32.6929 10.1742 32.6929C10.7179 32.6929 11.2418 32.3918 11.5007 31.8717C11.8396 31.1897 11.5984 30.378 10.9724 29.9755L18.4012 13.6586C18.6016 13.751 18.811 13.797 19.0189 13.797C19.5701 13.797 20.099 13.4877 20.3536 12.9572C20.6924 12.2522 20.4172 11.4161 19.7469 11.0359C21.0127 8.90289 23.0392 6.21063 25.6914 5.03873C28.5428 3.77879 31.8306 3.79805 34.0671 5.08902C35.7118 6.03825 36.6565 7.54825 36.877 9.57831C37.2898 13.3803 36.9398 15.9298 35.8398 17.1572C35.7383 17.2703 35.6267 17.3673 35.5127 17.459V20.7712C36.4242 20.4634 37.2994 19.9611 38.0422 19.1333C39.7527 17.2282 40.3334 13.9981 39.8193 9.2594C39.5012 6.32304 37.983 3.9319 35.546 2.5262Z"
          fill="currentColor"/>
    <path d="M31.3318 27.483C32.2973 27.483 33.2102 27.7028 34.0322 28.086V21.116V18.1138V16.3856C34.0322 15.5681 34.1099 15.6458 33.2924 15.6458H30.3945C29.577 15.6458 21.3315 16.3242 19.1534 27.0909L17.7559 35.9911C17.7559 36.8085 18.4181 37.8406 19.2355 37.8406H26.2573C25.4124 36.7524 24.9041 35.3911 24.9041 33.9106C24.9041 30.3661 27.788 27.483 31.3318 27.483Z"
          fill="currentColor"/>
    <path d="M34.772 30.3623C34.5448 30.1426 34.2977 29.9444 34.0322 29.7705C33.2546 29.2615 32.3276 28.9626 31.3318 28.9626C28.6033 28.9626 26.3838 31.1822 26.3838 33.9107C26.3838 35.5131 27.1532 36.9365 28.3385 37.8407C28.7513 38.1558 29.2137 38.4066 29.7131 38.5804C30.2213 38.7572 30.7645 38.8579 31.3319 38.8579C31.8994 38.8579 32.4424 38.7572 32.9507 38.5804C33.4745 38.3984 33.9591 38.1313 34.3867 37.7948C34.7892 37.4781 35.1436 37.103 35.4314 36.6784C35.967 35.8874 36.2807 34.9345 36.2807 33.9099C36.2807 32.9408 35.9966 32.0388 35.5136 31.2753C35.3009 30.9423 35.0538 30.6354 34.772 30.3623ZM31.3317 31.4285C32.7019 31.4285 33.8132 32.5397 33.8132 33.9099C33.8132 35.2801 32.7019 36.3913 31.3317 36.3913C29.9615 36.3913 28.8504 35.2801 28.8504 33.9099C28.8504 32.5397 29.9608 31.4285 31.3317 31.4285Z"
          fill="currentColor"/>
</svg>
