<svg width="40" height="40" viewBox="0 0 40 40" fill="none" xmlns="http://www.w3.org/2000/svg">
    <path d="M24.2969 24.2969H38.6719V28.8281H24.2969V24.2969Z" fill="currentColor"/>
    <path d="M24.2969 38.125H36.3281V38.8281C36.3281 39.4753 36.8528 40 37.5 40C38.1472 40 38.6719 39.4753 38.6719 38.8281V31.1719H24.2969V38.125Z"
          fill="currentColor"/>
    <path d="M24.2969 17.4219H38.6719V21.9531H24.2969V17.4219Z" fill="currentColor"/>
    <path d="M38.75 0H1.25C0.602812 0 0.078125 0.524687 0.078125 1.17188C0.078125 1.81906 0.602812 2.34375 1.25 2.34375H38.75C39.3972 2.34375 39.9219 1.81906 39.9219 1.17188C39.9219 0.524687 39.3972 0 38.75 0Z"
          fill="currentColor"/>
    <path d="M12.4219 38.125H21.9531V4.6875H12.4219V38.125ZM15.7064 18.8315C16.3518 18.8315 16.875 19.3547 16.875 20C16.875 20.6454 16.3518 21.1685 15.7064 21.1685C15.061 21.1685 14.5378 20.6453 14.5378 20C14.5379 19.3546 15.0611 18.8315 15.7064 18.8315Z"
          fill="currentColor"/>
    <path d="M24.2969 4.6875H38.6719V15.0781H24.2969V4.6875Z" fill="currentColor"/>
    <path d="M1.32812 38.8281C1.32812 39.4753 1.85281 40 2.5 40C3.14719 40 3.67188 39.4753 3.67188 38.8281V38.125H10.0781V4.6875H1.32812V38.8281ZM6.875 18.8315C7.52039 18.8315 8.04359 19.3547 8.04359 20C8.04359 20.6454 7.52039 21.1685 6.875 21.1685C6.22961 21.1685 5.70641 20.6454 5.70641 20C5.70641 19.3546 6.22961 18.8315 6.875 18.8315Z"
          fill="currentColor"/>
</svg>
