<svg width="40" height="40" viewBox="0 0 40 40" fill="none" xmlns="http://www.w3.org/2000/svg">
    <path d="M37.5433 28.8558V30.6446C37.5433 33.2671 35.4097 35.4008 32.7871 35.4008H7.21283C4.59022 35.4008 2.45663 33.2672 2.45663 30.6446V28.3748C0.884127 29.4555 0.0395508 30.7743 0.0395508 32.2028C0.0395508 34.1353 1.5836 35.8676 4.38726 37.0804C6.87951 38.1586 10.1674 38.7523 13.6454 38.7523C15.2146 38.7523 16.7464 38.6322 18.2049 38.395C20.5694 39.4316 23.5839 39.9999 26.7444 39.9999C30.1355 39.9999 33.342 39.35 35.7733 38.1697C38.4734 36.859 39.9604 35.0168 39.9604 32.9826C39.9604 31.4494 39.1154 30.0255 37.5433 28.8558Z"
          fill="currentColor"/>
    <path d="M22.729 19.1041C22.729 19.749 23.2537 20.2737 23.8986 20.2737H26.2845C26.355 19.8942 26.3936 19.5037 26.3936 19.1041C26.3936 18.7045 26.3549 18.314 26.2845 17.9346H23.8986C23.2537 17.9345 22.729 18.4592 22.729 19.1041Z"
          fill="currentColor"/>
    <path d="M14.6981 0H7.21298C5.88016 0 4.7959 1.08433 4.7959 2.41708V5.14714H14.6981V0Z" fill="currentColor"/>
    <path d="M20 25.4976C22.2304 25.4976 24.1966 24.3488 25.341 22.6127H23.8986C21.9639 22.6127 20.3899 21.0387 20.3899 19.104C20.3899 17.1693 21.9639 15.5954 23.8986 15.5954H25.341C24.1966 13.8592 22.2305 12.7104 20 12.7104C16.4746 12.7104 13.6064 15.5786 13.6064 19.104C13.6064 22.6294 16.4746 25.4976 20 25.4976Z"
          fill="currentColor"/>
    <path d="M35.2042 2.41708C35.2042 1.08433 34.1199 0 32.7871 0H17.0371V5.14714H35.2042V2.41708Z"
          fill="currentColor"/>
    <path d="M7.21298 33.0618H32.7873C34.1201 33.0618 35.2044 31.9775 35.2044 30.6447V7.48633H4.7959V30.6448C4.7959 31.9775 5.88023 33.0618 7.21298 33.0618ZM20.0001 10.3712C23.8579 10.3712 27.1389 12.8859 28.2914 16.3619C28.302 16.3907 28.3116 16.4199 28.32 16.4499C28.5877 17.2873 28.7327 18.179 28.7327 19.104C28.7327 20.029 28.5876 20.9208 28.3199 21.7581C28.3116 21.7879 28.302 21.8171 28.2914 21.8458C27.1389 25.3219 23.8578 27.8366 20.0001 27.8366C15.1848 27.8366 11.2674 23.9191 11.2674 19.1039C11.2674 14.2887 15.1849 10.3712 20.0001 10.3712Z"
          fill="currentColor"/>
</svg>
