<svg width="40" height="40" viewBox="0 0 40 40" fill="none" xmlns="http://www.w3.org/2000/svg">
    <path d="M17.2173 28.9153C15.6808 30.4519 15.6808 32.9446 17.2173 34.4814C18.7546 36.0178 21.2469 36.0178 22.7841 34.4814C24.3206 32.9446 24.3206 30.4519 22.7841 28.9153C21.2469 27.3785 18.7546 27.3785 17.2173 28.9153Z"
          fill="currentColor"/>
    <path d="M20.001 19.5552C16.7583 19.5552 13.7077 20.8183 11.4159 23.1122C10.5156 24.0121 10.5156 25.4707 11.4159 26.37C12.3155 27.2699 13.7734 27.2699 14.6737 26.37C16.0952 24.9465 17.9878 24.1629 20.001 24.1629C22.0143 24.1629 23.9069 24.9465 25.3284 26.37C25.7789 26.82 26.3698 27.0449 26.9576 27.0449C27.5485 27.0449 28.1364 26.82 28.5862 26.37C29.4865 25.4707 29.4865 24.0122 28.5862 23.1122C26.2944 20.8183 23.2437 19.5552 20.001 19.5552Z"
          fill="currentColor"/>
    <path d="M20.0006 11.9692C14.7304 11.9692 9.77597 14.0217 6.05017 17.748C5.1506 18.6479 5.1506 20.1066 6.05017 21.0058C6.95039 21.9057 8.40911 21.9057 9.30787 21.0058C12.1634 18.1494 15.9614 16.5766 20.0005 16.5766C24.038 16.5766 27.8359 18.1494 30.6916 21.0058C31.1413 21.4558 31.7323 21.6808 32.3201 21.6808C32.911 21.6808 33.4997 21.4558 33.9494 21.0058C34.8489 20.1066 34.8489 18.6479 33.9494 17.748C30.2236 14.0217 25.2707 11.9692 20.0006 11.9692Z"
          fill="currentColor"/>
    <path d="M39.3268 12.3724C34.1653 7.20913 27.3024 4.36621 20.0007 4.36621C12.6991 4.36621 5.83612 7.20913 0.674679 12.3724C-0.224893 13.2723 -0.224893 14.7311 0.674679 15.6302C1.12519 16.0802 1.71457 16.305 2.30394 16.305C2.89331 16.305 3.4843 16.0802 3.93247 15.6302C8.22374 11.3374 13.9311 8.97368 20.0007 8.97368C26.0705 8.97368 31.7761 11.3374 36.0675 15.6302C36.9669 16.5301 38.4249 16.5293 39.3253 15.631C40.2247 14.7311 40.2247 13.2723 39.3268 12.3724Z"
          fill="currentColor"/>
</svg>
