<svg width="25" height="25" viewBox="0 0 25 25" fill="none" xmlns="http://www.w3.org/2000/svg">
<path d="M23.4375 13.2812H22.6562C22.5526 13.2812 22.4533 13.2401 22.38 13.1668C22.3068 13.0936 22.2656 12.9942 22.2656 12.8906C22.2656 12.787 22.3068 12.6877 22.38 12.6144C22.4533 12.5412 22.5526 12.5 22.6562 12.5H23.4375C23.5411 12.5 23.6405 12.5412 23.7137 12.6144C23.787 12.6877 23.8281 12.787 23.8281 12.8906C23.8281 12.9942 23.787 13.0936 23.7137 13.1668C23.6405 13.2401 23.5411 13.2812 23.4375 13.2812Z" fill="#B9B9B9"/>
<path d="M13.8852 18.3928L14.0625 16.7969H1.5625L1.73984 18.3928C1.90441 19.8851 2.61397 21.2642 3.73252 22.2656H11.8931C13.0114 21.2641 13.7207 19.885 13.8852 18.3928Z" fill="#EAEAE8"/>
<path d="M15.625 17.5781H23.4375V22.2656H15.625V17.5781Z" fill="#715329"/>
<path d="M17.1875 19.1406H21.875V22.2656H17.1875V19.1406Z" fill="#5F4623"/>
<path d="M8.98438 16.7969H12.1094V19.9219H8.98438V16.7969Z" fill="#92D1F7"/>
<path d="M8.98438 17.9688H12.1094V18.75H8.98438V17.9688Z" fill="#F7BA61"/>
<path d="M1.17188 1.95312H2.73438V20.7031H1.17188V1.95312Z" fill="#FAA6B2"/>
<path d="M2.73438 1.95312H4.29688V20.3125H2.73438V1.95312Z" fill="#D88F9A"/>
<path d="M4.29688 1.95312H5.85938V20.7031H4.29688V1.95312Z" fill="#FAA6B2"/>
<path d="M8.59375 1.95312V3.125H5.85938V4.6875H8.69141C9.07991 4.6875 9.4525 4.53317 9.72721 4.25846C10.0019 3.98375 10.1562 3.61116 10.1562 3.22266V1.95312H8.59375Z" fill="#CBCBCB"/>
<path d="M1.17188 22.2656H23.8281V23.8281H1.17188V22.2656Z" fill="#5EBEF7"/>
<path d="M1.17188 22.2656H23.8281V22.8516H1.17188V22.2656Z" fill="#92D1F7"/>
<path d="M23.0469 6.64062C23.0469 4.699 21.4729 3.125 19.5312 3.125C17.5896 3.125 16.0156 4.699 16.0156 6.64062V8.98438C16.0156 10.926 17.5896 12.5 19.5312 12.5C21.4729 12.5 23.0469 10.926 23.0469 8.98438V6.64062Z" fill="#92D1F7"/>
<path d="M22.8794 5.56569L16.0557 9.51589C16.029 9.33991 16.0156 9.16215 16.0156 8.98415V7.97683L22.2251 4.38161C22.518 4.73007 22.7403 5.13225 22.8794 5.56569Z" fill="#92D1F7"/>
<path d="M23.0474 6.97092V7.87326L16.9702 11.3918C16.7895 11.2004 16.6311 10.9891 16.498 10.7619L23.0474 6.97092Z" fill="#92D1F7"/>
<path d="M22.8794 5.56569L16.0557 9.51589C16.029 9.33991 16.0156 9.16215 16.0156 8.98415V7.97683L22.2251 4.38161C22.518 4.73007 22.7403 5.13225 22.8794 5.56569Z" fill="#5EBEF7"/>
<path d="M23.0474 6.97092V7.87326L16.9702 11.3918C16.7895 11.2004 16.6311 10.9891 16.498 10.7619L23.0474 6.97092Z" fill="#5EBEF7"/>
<path d="M5.85938 10.1562H12.5V11.7188H5.85938V10.1562Z" fill="#715329"/>
<path d="M5.85938 11.1397H12.5V11.719H5.85938V11.1397Z" fill="#5F4623"/>
<path d="M7.42188 7.03125H8.98438V10.1562H7.42188V7.03125Z" fill="#FBB540"/>
<path d="M10.1562 7.8125C10.4671 7.8125 10.7651 7.93596 10.9849 8.15573C11.2047 8.3755 11.3281 8.67357 11.3281 8.98438V10.1562H8.98438V8.98438C8.98438 8.67357 9.10784 8.3755 9.32761 8.15573C9.54738 7.93596 9.84545 7.8125 10.1562 7.8125Z" fill="#EA9D2D"/>
<path d="M22.6562 14.8438C22.5526 14.8438 22.4533 14.8026 22.38 14.7293C22.3068 14.6561 22.2656 14.5567 22.2656 14.4531V12.5C22.2656 12.3964 22.2245 12.297 22.1512 12.2238C22.078 12.1505 21.9786 12.1094 21.875 12.1094C21.7714 12.1094 21.672 12.1505 21.5988 12.2238C21.5255 12.297 21.4844 12.3964 21.4844 12.5V12.8906C21.4844 12.9942 21.4432 13.0936 21.37 13.1668C21.2967 13.2401 21.1974 13.2812 21.0938 13.2812C20.9901 13.2812 20.8908 13.2401 20.8175 13.1668C20.7443 13.0936 20.7031 12.9942 20.7031 12.8906V12.5C20.7031 12.1892 20.8266 11.8911 21.0464 11.6714C21.2661 11.4516 21.5642 11.3281 21.875 11.3281C22.1858 11.3281 22.4839 11.4516 22.7036 11.6714C22.9234 11.8911 23.0469 12.1892 23.0469 12.5V14.4531C23.0469 14.5567 23.0057 14.6561 22.9325 14.7293C22.8592 14.8026 22.7599 14.8438 22.6562 14.8438Z" fill="#CBCBCB"/>
<path d="M17.1875 17.5781C16.8184 17.2487 16.5231 16.8449 16.3212 16.3933C16.1192 15.9417 16.0151 15.4524 16.0156 14.9577V14.4531H23.0469V14.9577C23.0474 15.4524 22.9433 15.9417 22.7413 16.3933C22.5394 16.8449 22.2441 17.2487 21.875 17.5781H17.1875Z" fill="#EAEAE8"/>
</svg>
