<svg width="33" height="33" viewBox="0 0 33 33" fill="none" xmlns="http://www.w3.org/2000/svg">
<g filter="url(#filter0_d)">
<path d="M29 12.5C29 15.9235 27.624 19.026 25.3939 21.2832C24.1332 22.5602 22.5995 23.5668 20.8873 24.2082C20.3714 24.4021 19.8388 24.5623 19.2929 24.6867C18.3949 24.8918 17.4602 25 16.5 25C15.3975 25 14.3286 24.8571 13.3107 24.5893C11.3449 24.0725 9.56836 23.0883 8.10659 21.7628C5.58418 19.476 4 16.1729 4 12.5C4 5.59644 9.59644 0 16.5 0C23.4036 0 29 5.59644 29 12.5Z" fill="#FCC72E"/>
<path d="M26.2517 9.75181C26.2517 12.4226 25.1782 14.843 23.4384 16.604C22.4549 17.6002 21.2584 18.3855 19.9226 18.8859C19.5202 19.0372 19.1046 19.1621 18.6787 19.2593C17.9782 19.4193 17.249 19.5037 16.4999 19.5037C15.6397 19.5037 14.8059 19.3922 14.0118 19.1833C12.4781 18.78 11.0922 18.0122 9.95181 16.9782C7.98394 15.1942 6.74805 12.6173 6.74805 9.7519C6.74805 4.36602 11.1141 0 16.4999 0C21.8856 0 26.2517 4.36602 26.2517 9.75181Z" fill="#FFD367"/>
<path d="M13.3096 11.5696V24.5885C11.3438 24.0716 9.56724 23.0874 8.10547 21.7619V11.5696H13.3096Z" fill="#535E8A"/>
<path d="M13.0808 0.867477V4.60595C13.0808 5.91615 12.0186 6.97831 10.7084 6.97831C9.39819 6.97831 8.33603 5.91615 8.33603 4.60595V0.867477C6.08989 1.79882 4.50977 4.01249 4.50977 6.59555C4.50977 10.019 7.28501 12.7942 10.7084 12.7942C14.1319 12.7942 16.9071 10.019 16.9071 6.59555C16.9071 4.01249 15.327 1.79882 13.0808 0.867477Z" fill="#535E8A"/>
<path d="M8.8793 22.4112V12.2332L8.10547 12.2135V21.7622" fill="#323B5B"/>
<path d="M8.89028 12.2274C6.76138 11.2461 5.28359 9.09353 5.28359 6.59553C5.28359 4.32073 6.50942 2.33288 8.33613 1.25461V0.867401C6.08989 1.7988 4.50977 4.01247 4.50977 6.59553C4.50977 9.3826 6.34912 11.74 8.88013 12.5202L8.89028 12.2274Z" fill="#323B5B"/>
<path d="M23.7693 8.67288H21.7031V19.7693H23.7693V8.67288Z" fill="#EDEDED"/>
<path d="M22.4607 8.67288H21.7031V19.7693H22.4607V8.67288Z" fill="#BDBDBD"/>
<path d="M24.9936 6.24972L23.4886 1.19899H21.9835L20.4785 6.24972L21.7029 8.82599H23.7692L24.9936 6.24972Z" fill="#EDEDED"/>
<path d="M25.394 21.2832C23.7532 22.945 21.6501 24.1491 19.293 24.6868V23.0868C19.293 21.7276 20.395 20.6261 21.7537 20.6261H23.72C24.3664 20.6261 24.9547 20.8756 25.394 21.2832Z" fill="#FF4F6F"/>
<path d="M23.348 20.6261C21.9889 20.6261 20.8874 21.7276 20.8874 23.0868V24.2082C20.3715 24.4021 19.8389 24.5623 19.293 24.6868V23.0868C19.293 21.7276 20.395 20.6261 21.7537 20.6261H23.348Z" fill="#E33958"/>
<path d="M22.4605 8.82599L20.9549 6.18747L22.1625 1.64665H23.622L23.4886 1.19899H21.9835L20.4785 6.24972L21.7029 8.82599L22.1682 9.11833L22.4605 8.82599Z" fill="#BDBDBD"/>
<path d="M25.4154 20.8813H20.0583C19.6356 20.8813 19.293 20.5386 19.293 20.116C19.293 19.6933 19.6356 19.3507 20.0583 19.3507H25.4154C25.838 19.3507 26.1807 19.6934 26.1807 20.116C26.1807 20.5386 25.8381 20.8813 25.4154 20.8813Z" fill="#FF4F6F"/>
<path d="M20.9258 20.116C20.9258 19.6933 21.2685 19.3507 21.6911 19.3507H20.0583C19.6356 19.3507 19.293 19.6934 19.293 20.116C19.293 20.5386 19.6356 20.8813 20.0583 20.8813H21.6911C21.2684 20.8813 20.9258 20.5386 20.9258 20.116Z" fill="#E33958"/>
</g>
<defs>
<filter id="filter0_d" x="0" y="0" width="33" height="33" filterUnits="userSpaceOnUse" color-interpolation-filters="sRGB">
<feFlood flood-opacity="0" result="BackgroundImageFix"/>
<feColorMatrix in="SourceAlpha" type="matrix" values="0 0 0 0 0 0 0 0 0 0 0 0 0 0 0 0 0 0 127 0" result="hardAlpha"/>
<feOffset dy="4"/>
<feGaussianBlur stdDeviation="2"/>
<feComposite in2="hardAlpha" operator="out"/>
<feColorMatrix type="matrix" values="0 0 0 0 0 0 0 0 0 0 0 0 0 0 0 0 0 0 0.25 0"/>
<feBlend mode="normal" in2="BackgroundImageFix" result="effect1_dropShadow"/>
<feBlend mode="normal" in="SourceGraphic" in2="effect1_dropShadow" result="shape"/>
</filter>
</defs>
</svg>
