<svg width="25" height="25" viewBox="0 0 25 25" fill="none" xmlns="http://www.w3.org/2000/svg">
<g clip-path="url(#clip0)">
<path d="M23.0765 12.3953C22.8681 12.3953 22.6992 12.2264 22.6992 12.018V6.42742C22.6992 6.21906 22.8681 6.05016 23.0765 6.05016C23.2848 6.05016 23.4537 6.21906 23.4537 6.42742V12.018C23.4538 12.2264 23.2848 12.3953 23.0765 12.3953Z" fill="#DB5C6E"/>
<path d="M3.16974 22.2953H1.38477V24.4813C1.38477 24.6889 1.55309 24.8573 1.76076 24.8573H2.35392C2.53342 24.8573 2.68792 24.7304 2.72274 24.5543L3.16974 22.2953Z" fill="#365E7D"/>
<path d="M12.4766 22.2953H14.2616V24.4813C14.2616 24.6889 14.0933 24.8573 13.8856 24.8573H13.2924C13.1129 24.8573 12.9584 24.7304 12.9236 24.5543L12.4766 22.2953Z" fill="#365E7D"/>
<path d="M7.85934 7.17555C7.85934 7.24494 7.85699 7.31482 7.85231 7.38548C7.79088 8.3163 7.33123 9.34028 6.64799 10.0363C6.34997 10.3401 6.00923 10.5812 5.64075 10.7248C5.39786 10.8198 5.14292 10.872 4.87986 10.872C4.61681 10.872 4.36187 10.8198 4.11898 10.7248C3.90979 10.6433 3.70963 10.5302 3.52095 10.3923C2.55878 9.68767 1.90039 8.33163 1.90039 7.17555C1.90039 6.88061 1.94312 6.61175 2.0231 6.36906C2.10275 6.12637 2.2197 5.91014 2.36761 5.72004C2.96505 4.82922 3.16829 4.18958 3.15784 3.7314C3.15603 3.64023 3.14558 3.55644 3.1281 3.47914C3.10017 3.35535 3.05402 3.24851 2.99567 3.15627C2.95475 3.09088 2.90738 3.03302 2.85621 2.98184H6.90347C6.77988 3.10543 6.67934 3.2676 6.63158 3.47914C6.61068 3.57158 6.59989 3.67353 6.6015 3.7858C6.60799 4.24002 6.81807 4.86399 7.39212 5.72004C7.64292 6.04238 7.8044 6.44021 7.84762 6.91338C7.85533 6.99844 7.85934 7.0858 7.85934 7.17555Z" fill="#EDEDED"/>
<path d="M4.88006 10.8722C4.61691 10.8722 4.36192 10.82 4.11903 10.7247C3.91013 10.6436 3.70988 10.5305 3.52129 10.3926C2.55898 9.68787 1.90039 8.33164 1.90039 7.17566C1.90039 6.88057 1.94351 6.61186 2.0231 6.36902C2.1027 6.12667 2.21984 5.9102 2.36785 5.72005C2.9651 4.82923 3.16844 4.18988 3.15828 3.73156C3.15623 3.64029 3.14558 3.55664 3.12835 3.47905C3.10046 3.35536 3.05432 3.24886 2.99601 3.15662C2.95495 3.09123 2.90778 3.03342 2.8566 2.98219H4.05467C4.07547 3.03342 4.09471 3.09118 4.11146 3.15662C4.13529 3.24891 4.15404 3.35536 4.16571 3.47905C4.17279 3.55664 4.17685 3.64029 4.17787 3.73156C4.18193 4.18988 4.0993 4.82923 3.85544 5.72005C3.79509 5.9102 3.74743 6.12667 3.715 6.36902C3.68204 6.61186 3.6648 6.88057 3.6648 7.17566C3.6648 8.33164 3.93352 9.68787 4.32593 10.3926C4.4025 10.5305 4.48463 10.6435 4.56979 10.7247C4.66867 10.82 4.77259 10.8722 4.88006 10.8722Z" fill="#DBDBDB"/>
<path d="M17.7891 24.8578V4.42152C17.7891 4.00153 18.1296 3.66103 18.5496 3.66103C18.9695 3.66103 19.31 4.00153 19.31 4.42152V24.8578H17.7891Z" fill="#407093"/>
<path d="M18.9298 3.76294C18.7027 3.89478 18.5496 4.14016 18.5496 4.42152V24.858H17.7891V4.42152C17.7891 4.00172 18.1298 3.66103 18.5496 3.66103C18.688 3.66103 18.8178 3.69804 18.9298 3.76294Z" fill="#365E7D"/>
<path d="M7.82881 23.7215C5.58355 23.7215 3.30666 23.6221 1.06136 23.4261C0.67979 23.3928 0.371519 23.0933 0.328401 22.714C-0.109467 18.86 -0.109467 14.9517 0.328401 11.0977C0.371519 10.7184 0.67979 10.4189 1.06136 10.3856C3.30666 10.1896 5.58355 10.0902 7.82881 10.0902C10.0741 10.0902 12.351 10.1896 14.5963 10.3856C14.9778 10.4189 15.2861 10.7184 15.3292 11.0977C15.7671 14.9517 15.7671 18.86 15.3292 22.714C15.2861 23.0933 14.9779 23.3928 14.5963 23.4261C12.3509 23.6221 10.0741 23.7215 7.82881 23.7215Z" fill="#845C47"/>
<path d="M1.52344 17.2827H14.1349C14.1233 18.8436 14.0388 20.4046 13.8809 21.959C11.8662 22.119 9.83585 22.2 7.82919 22.2C5.82253 22.2 3.79223 22.119 1.77751 21.959C1.61954 20.4046 1.53501 18.8436 1.52344 17.2827Z" fill="#986B54"/>
<path d="M14.1349 16.5283H1.52344C1.53501 14.9668 1.61954 13.4064 1.77746 11.8519C3.79218 11.692 5.82248 11.611 7.82914 11.611C9.83581 11.611 11.8661 11.692 13.8808 11.8519C14.0388 13.4063 14.1233 14.9668 14.1349 16.5283Z" fill="#986B54"/>
<path d="M24.3549 8.00466C23.8317 8.12942 23.0469 8.29594 22.0921 8.43427C21.8522 8.46899 21.6011 8.5022 21.3411 8.53238C20.4934 8.63097 19.5462 8.69938 18.5507 8.69938C17.5551 8.69938 16.6079 8.63097 15.7602 8.53238C15.5002 8.5022 15.2497 8.46899 15.0097 8.43427C14.0549 8.29594 13.2697 8.12942 12.7465 8.00466C12.329 7.90504 12.0533 7.50614 12.1086 7.08058C12.4562 4.40234 13.6288 1.82572 14.1877 0.71501C14.3643 0.364402 14.7229 0.143051 15.1158 0.143051H21.9855C22.3784 0.143051 22.737 0.364402 22.9136 0.71501C23.4725 1.82572 24.6451 4.40234 24.9927 7.08058C25.0481 7.50609 24.7719 7.90504 24.3549 8.00466Z" fill="#FFD064"/>
<path d="M16.622 0.143753C16.4014 0.143753 16.2002 0.364274 16.1008 0.715174C15.7869 1.82603 14.9473 5.41409 14.7527 8.09214C14.745 8.19707 14.7486 8.30001 14.7618 8.39733C13.9186 8.26705 13.224 8.11846 12.7469 8.00492C12.3292 7.90555 12.0533 7.50602 12.1086 7.08065C12.4564 4.40314 13.6286 1.82603 14.1878 0.715174C14.3643 0.364323 14.7232 0.143753 15.1157 0.143753H16.622Z" fill="#FFC250"/>
<path d="M16.0647 0.142975C15.7976 1.49066 15.1818 4.89829 15.0098 8.4342C15.2497 8.46892 15.5002 8.50213 15.7603 8.5323C15.9318 4.88823 16.5878 1.36536 16.8343 0.142975H16.0647Z" fill="#E49542"/>
<path d="M21.0373 0.142975H20.2676C20.5136 1.36087 21.17 4.88574 21.3421 8.5323C21.6022 8.50213 21.8532 8.46892 22.0932 8.4342C21.9211 4.89829 21.3044 1.49062 21.0373 0.142975Z" fill="#E49542"/>
<path d="M20.0951 23.3087H17.0061C16.4397 23.3087 15.9805 23.7678 15.9805 24.3343V24.8575H21.1207V24.3343C21.1207 23.7678 20.6616 23.3087 20.0951 23.3087Z" fill="#FFD064"/>
<path d="M18.4506 23.3085C17.8843 23.3085 17.4249 23.7679 17.4249 24.3342V24.8574H15.9805V24.3342C15.9805 23.7679 16.4398 23.3085 17.0062 23.3085H18.4506Z" fill="#FFC250"/>
<path d="M7.82843 15.1419C8.31616 15.1419 8.71154 14.7465 8.71154 14.2588C8.71154 13.7711 8.31616 13.3757 7.82843 13.3757C7.3407 13.3757 6.94531 13.7711 6.94531 14.2588C6.94531 14.7465 7.3407 15.1419 7.82843 15.1419Z" fill="#EDEDED"/>
<path d="M7.82843 20.4347C8.31616 20.4347 8.71154 20.0393 8.71154 19.5516C8.71154 19.0639 8.31616 18.6685 7.82843 18.6685C7.3407 18.6685 6.94531 19.0639 6.94531 19.5516C6.94531 20.0393 7.3407 20.4347 7.82843 20.4347Z" fill="#EDEDED"/>
<path d="M7.85888 7.55337H1.89289C1.68453 7.55337 1.51562 7.38446 1.51562 7.1761C1.51562 6.96774 1.68453 6.79883 1.89289 6.79883H7.85888C8.06724 6.79883 8.23615 6.96774 8.23615 7.1761C8.2362 7.38446 8.06729 7.55337 7.85888 7.55337Z" fill="#DBDBDB"/>
<path d="M6.90271 3.35963H2.85578C2.64742 3.35963 2.47852 3.19072 2.47852 2.98236C2.47852 2.77399 2.64742 2.60509 2.85578 2.60509H6.90266C7.11102 2.60509 7.27993 2.77399 7.27993 2.98236C7.27993 3.19072 7.11107 3.35963 6.90271 3.35963Z" fill="#DBDBDB"/>
</g>
<defs>
<clipPath id="clip0">
<rect width="25" height="25" fill="white"/>
</clipPath>
</defs>
</svg>
