<svg width="25" height="25" viewBox="0 0 25 25" fill="none" xmlns="http://www.w3.org/2000/svg">
<path d="M20.7031 5.07812H21.4844V6.64062H20.7031V5.07812Z" fill="#E67469"/>
<path d="M22.2656 5.07812H23.0469V6.64062H22.2656V5.07812Z" fill="#E67469"/>
<path d="M3.90625 23.8281H2.34375L1.95312 21.875H4.29688L3.90625 23.8281Z" fill="#E67469"/>
<path d="M22.6562 23.8281H21.0938L20.7031 21.875H23.0469L22.6562 23.8281Z" fill="#E67469"/>
<path d="M10.6934 5.07812H9.91211C9.91211 4.64355 10.1056 4.41162 10.2468 4.24209C10.3522 4.11553 10.4004 4.05762 10.4004 3.90625C10.4004 3.75488 10.3522 3.69692 10.2468 3.57036C10.1056 3.40078 9.91211 3.16895 9.91211 2.73438C9.91211 2.2998 10.1056 2.06787 10.2468 1.89839C10.3523 1.77178 10.4004 1.71387 10.4004 1.5625H11.1816C11.1816 1.99707 10.9882 2.229 10.847 2.39849C10.7415 2.525 10.6934 2.58301 10.6934 2.73438C10.6934 2.88574 10.7415 2.9437 10.847 3.07026C10.9882 3.2397 11.1816 3.47168 11.1816 3.90625C11.1816 4.34082 10.9882 4.57275 10.847 4.74229C10.7415 4.8688 10.6934 4.92676 10.6934 5.07812Z" fill="#FFCC78"/>
<path d="M18.75 5.07812H17.9688C17.9688 4.64355 18.1622 4.41162 18.3034 4.24209C18.4089 4.11553 18.457 4.05762 18.457 3.90625C18.457 3.75488 18.4089 3.69692 18.3034 3.57036C18.1622 3.40078 17.9688 3.16895 17.9688 2.73438C17.9688 2.2998 18.1622 2.06787 18.3034 1.89839C18.4089 1.77178 18.457 1.71387 18.457 1.5625H19.2383C19.2383 1.99707 19.0448 2.229 18.9036 2.39849C18.7981 2.525 18.75 2.58301 18.75 2.73438C18.75 2.88574 18.7981 2.9437 18.9036 3.07026C19.0448 3.2397 19.2383 3.47168 19.2383 3.90625C19.2383 4.34082 19.0448 4.57275 18.9036 4.74229C18.7981 4.8688 18.75 4.92676 18.75 5.07812Z" fill="#FFCC78"/>
<path d="M6.64062 4.29688H5.85938C5.85938 3.8623 6.05283 3.63037 6.19404 3.46084C6.29951 3.33428 6.34766 3.27637 6.34766 3.125C6.34766 2.97363 6.29951 2.91567 6.19404 2.78911C6.05283 2.61953 5.85938 2.3877 5.85938 1.95312C5.85938 1.51855 6.05283 1.28662 6.19404 1.11714C6.29956 0.990527 6.34766 0.932617 6.34766 0.78125H7.12891C7.12891 1.21582 6.93545 1.44775 6.79424 1.61724C6.68872 1.74375 6.64062 1.80176 6.64062 1.95312C6.64062 2.10449 6.68877 2.16245 6.79424 2.28901C6.93545 2.45845 7.12891 2.69043 7.12891 3.125C7.12891 3.55957 6.93545 3.7915 6.79424 3.96104C6.68877 4.08755 6.64062 4.14551 6.64062 4.29688Z" fill="#FFCC78"/>
<path d="M14.6973 4.29688H13.916C13.916 3.8623 14.1095 3.63037 14.2507 3.46084C14.3562 3.33428 14.4043 3.27637 14.4043 3.125C14.4043 2.97363 14.3562 2.91567 14.2507 2.78911C14.1095 2.61953 13.916 2.3877 13.916 1.95312C13.916 1.51855 14.1095 1.28662 14.2507 1.11714C14.3562 0.990527 14.4043 0.932617 14.4043 0.78125H15.1855C15.1855 1.21582 14.9921 1.44775 14.8509 1.61724C14.7454 1.74375 14.6973 1.80176 14.6973 1.95312C14.6973 2.10449 14.7454 2.16245 14.8509 2.28901C14.9921 2.45845 15.1855 2.69043 15.1855 3.125C15.1855 3.55957 14.9921 3.7915 14.8509 3.96104C14.7454 4.08755 14.6973 4.14551 14.6973 4.29688Z" fill="#FFCC78"/>
<path d="M23.3398 6.25H1.66016C1.39049 6.25 1.17188 6.46861 1.17188 6.73828V21.7773C1.17188 22.047 1.39049 22.2656 1.66016 22.2656H23.3398C23.6095 22.2656 23.8281 22.047 23.8281 21.7773V6.73828C23.8281 6.46861 23.6095 6.25 23.3398 6.25Z" fill="#FF8175"/>
<path d="M2.73438 7.8125H22.2656V19.1406H2.73438V7.8125Z" fill="#FFCC78"/>
<path d="M10.1562 20.3125H14.8438V21.0938H10.1562V20.3125Z" fill="#E67469"/>
<path d="M22.2656 17.9688H21.2891C20.9266 17.9683 20.5791 17.8242 20.3228 17.5679C20.0665 17.3115 19.9223 16.964 19.9219 16.6016V10.1562C19.9219 10.0526 19.8807 9.95329 19.8075 9.88004C19.7342 9.80678 19.6348 9.76562 19.5312 9.76562C19.4277 9.76562 19.3283 9.80678 19.255 9.88004C19.1818 9.95329 19.1406 10.0526 19.1406 10.1562V16.7969C19.1406 17.1077 19.0172 17.4057 18.7974 17.6255C18.5776 17.8453 18.2796 17.9688 17.9688 17.9688C17.6579 17.9688 17.3599 17.8453 17.1401 17.6255C16.9203 17.4057 16.7969 17.1077 16.7969 16.7969V10.1562C16.7969 10.0526 16.7557 9.95329 16.6825 9.88004C16.6092 9.80678 16.5099 9.76562 16.4062 9.76562C16.3026 9.76562 16.2033 9.80678 16.13 9.88004C16.0568 9.95329 16.0156 10.0526 16.0156 10.1562V16.7969C16.0156 17.1077 15.8922 17.4057 15.6724 17.6255C15.4526 17.8453 15.1546 17.9688 14.8438 17.9688C14.5329 17.9688 14.2349 17.8453 14.0151 17.6255C13.7953 17.4057 13.6719 17.1077 13.6719 16.7969V10.1562C13.6719 10.0526 13.6307 9.95329 13.5575 9.88004C13.4842 9.80678 13.3849 9.76562 13.2812 9.76562C13.1776 9.76562 13.0783 9.80678 13.005 9.88004C12.9318 9.95329 12.8906 10.0526 12.8906 10.1562V16.7969C12.8906 17.1077 12.7672 17.4057 12.5474 17.6255C12.3276 17.8453 12.0296 17.9688 11.7188 17.9688C11.4079 17.9688 11.1099 17.8453 10.8901 17.6255C10.6703 17.4057 10.5469 17.1077 10.5469 16.7969V10.1562C10.5469 10.0526 10.5057 9.95329 10.4325 9.88004C10.3592 9.80678 10.2599 9.76562 10.1562 9.76562C10.0526 9.76562 9.95329 9.80678 9.88004 9.88004C9.80678 9.95329 9.76562 10.0526 9.76562 10.1562V16.7969C9.76562 17.1077 9.64216 17.4057 9.42239 17.6255C9.20262 17.8453 8.90455 17.9688 8.59375 17.9688C8.28295 17.9688 7.98488 17.8453 7.76511 17.6255C7.54534 17.4057 7.42188 17.1077 7.42188 16.7969V10.1562C7.42188 10.0526 7.38072 9.95329 7.30746 9.88004C7.23421 9.80678 7.13485 9.76562 7.03125 9.76562C6.92765 9.76562 6.82829 9.80678 6.75504 9.88004C6.68178 9.95329 6.64062 10.0526 6.64062 10.1562V16.7969C6.64062 17.1077 6.51716 17.4057 6.29739 17.6255C6.07762 17.8453 5.77955 17.9688 5.46875 17.9688C5.15795 17.9688 4.85988 17.8453 4.64011 17.6255C4.42034 17.4057 4.29688 17.1077 4.29688 16.7969V10.1562C4.29676 10.0527 4.25557 9.9534 4.18234 9.88016C4.1091 9.80693 4.00981 9.76574 3.90625 9.76562H2.73438V8.98438H3.90625C4.21694 8.98472 4.51481 9.1083 4.73451 9.32799C4.9542 9.54769 5.07778 9.84556 5.07812 10.1562V16.7969C5.07812 16.9005 5.11928 16.9998 5.19254 17.0731C5.26579 17.1463 5.36515 17.1875 5.46875 17.1875C5.57235 17.1875 5.67171 17.1463 5.74496 17.0731C5.81822 16.9998 5.85938 16.9005 5.85938 16.7969V10.1562C5.85938 9.84545 5.98284 9.54738 6.20261 9.32761C6.42238 9.10784 6.72045 8.98438 7.03125 8.98438C7.34205 8.98438 7.64012 9.10784 7.85989 9.32761C8.07966 9.54738 8.20312 9.84545 8.20312 10.1562V16.7969C8.20312 16.9005 8.24428 16.9998 8.31754 17.0731C8.39079 17.1463 8.49015 17.1875 8.59375 17.1875C8.69735 17.1875 8.79671 17.1463 8.86996 17.0731C8.94322 16.9998 8.98438 16.9005 8.98438 16.7969V10.1562C8.98438 9.84545 9.10784 9.54738 9.32761 9.32761C9.54738 9.10784 9.84545 8.98438 10.1562 8.98438C10.4671 8.98438 10.7651 9.10784 10.9849 9.32761C11.2047 9.54738 11.3281 9.84545 11.3281 10.1562V16.7969C11.3281 16.9005 11.3693 16.9998 11.4425 17.0731C11.5158 17.1463 11.6151 17.1875 11.7188 17.1875C11.8224 17.1875 11.9217 17.1463 11.995 17.0731C12.0682 16.9998 12.1094 16.9005 12.1094 16.7969V10.1562C12.1094 9.84545 12.2328 9.54738 12.4526 9.32761C12.6724 9.10784 12.9704 8.98438 13.2812 8.98438C13.5921 8.98438 13.8901 9.10784 14.1099 9.32761C14.3297 9.54738 14.4531 9.84545 14.4531 10.1562V16.7969C14.4531 16.9005 14.4943 16.9998 14.5675 17.0731C14.6408 17.1463 14.7401 17.1875 14.8438 17.1875C14.9474 17.1875 15.0467 17.1463 15.12 17.0731C15.1932 16.9998 15.2344 16.9005 15.2344 16.7969V10.1562C15.2344 9.84545 15.3578 9.54738 15.5776 9.32761C15.7974 9.10784 16.0954 8.98438 16.4062 8.98438C16.7171 8.98438 17.0151 9.10784 17.2349 9.32761C17.4547 9.54738 17.5781 9.84545 17.5781 10.1562V16.7969C17.5781 16.9005 17.6193 16.9998 17.6925 17.0731C17.7658 17.1463 17.8651 17.1875 17.9688 17.1875C18.0724 17.1875 18.1717 17.1463 18.245 17.0731C18.3182 16.9998 18.3594 16.9005 18.3594 16.7969V10.1562C18.3594 9.84545 18.4828 9.54738 18.7026 9.32761C18.9224 9.10784 19.2204 8.98438 19.5312 8.98438C19.8421 8.98438 20.1401 9.10784 20.3599 9.32761C20.5797 9.54738 20.7031 9.84545 20.7031 10.1562V16.6016C20.7033 16.7569 20.7651 16.9058 20.8749 17.0157C20.9848 17.1255 21.1337 17.1873 21.2891 17.1875H22.2656V17.9688Z" fill="#FFF5E4"/>
<path d="M21.875 20.3125H22.6562V21.0938H21.875V20.3125Z" fill="#E67469"/>
<path d="M20.3125 20.3125H21.0938V21.0938H20.3125V20.3125Z" fill="#E67469"/>
<path d="M2.34375 20.3125H3.125V21.0938H2.34375V20.3125Z" fill="#E67469"/>
<path d="M3.90625 20.3125H4.6875V21.0938H3.90625V20.3125Z" fill="#E67469"/>
</svg>
