<svg width="25" height="25" viewBox="0 0 25 25" fill="none" xmlns="http://www.w3.org/2000/svg">
<path d="M8.22887 23.8995H0.494576C0.221443 23.8995 0 23.678 0 23.4047V1.61762C0 1.34449 0.221443 1.12305 0.494576 1.12305H8.22887C8.50201 1.12305 8.72345 1.34449 8.72345 1.61762V23.4047C8.72345 23.678 8.50201 23.8995 8.22887 23.8995Z" fill="#00D2B4"/>
<path d="M8.72394 1.61781V23.4045C8.72394 23.678 8.5023 23.8991 8.22936 23.8991H7.16602C7.43896 23.8991 7.66059 23.678 7.66059 23.4045V1.61781C7.66059 1.34429 7.43896 1.12323 7.16602 1.12323H8.22936C8.5023 1.12323 8.72394 1.34429 8.72394 1.61781Z" fill="#00B7A0"/>
<path d="M13.8642 4.92325H11.0532C10.78 4.92325 10.5586 4.70181 10.5586 4.42867V1.61762C10.5586 1.34449 10.78 1.12305 11.0532 1.12305H13.8642C14.1374 1.12305 14.3588 1.34449 14.3588 1.61762V4.42867C14.3588 4.70181 14.1374 4.92325 13.8642 4.92325Z" fill="#FFDE46"/>
<path d="M14.3587 1.61781V4.42886C14.3587 4.70199 14.1373 4.92362 13.8641 4.92362H12.8008C13.0739 4.92362 13.2954 4.70199 13.2954 4.42886V1.61781C13.2954 1.34429 13.0739 1.12323 12.8008 1.12323H13.8641C14.1373 1.12323 14.3587 1.34429 14.3587 1.61781Z" fill="#F9C60B"/>
<path d="M13.8642 10.4826H11.0532C10.78 10.4826 10.5586 10.2612 10.5586 9.98803V7.17698C10.5586 6.90385 10.78 6.6824 11.0532 6.6824H13.8642C14.1374 6.6824 14.3588 6.90385 14.3588 7.17698V9.98803C14.3588 10.2612 14.1374 10.4826 13.8642 10.4826Z" fill="#FF3B82"/>
<path d="M14.3587 7.17678V9.98802C14.3587 10.261 14.1373 10.4826 13.8641 10.4826H12.8008C13.0739 10.4826 13.2954 10.261 13.2954 9.98802V7.17678C13.2954 6.90384 13.0739 6.68221 12.8008 6.68221H13.8641C14.1373 6.68221 14.3587 6.90384 14.3587 7.17678Z" fill="#E11158"/>
<path d="M24.0866 4.92325H16.725C16.4519 4.92325 16.2305 4.70181 16.2305 4.42867V1.61762C16.2305 1.34449 16.4519 1.12305 16.725 1.12305H24.0866C24.3598 1.12305 24.5812 1.34449 24.5812 1.61762V4.42867C24.5812 4.70181 24.3598 4.92325 24.0866 4.92325Z" fill="#FF3B82"/>
<path d="M24.5814 1.61781V4.42886C24.5814 4.70199 24.3597 4.92362 24.0868 4.92362H23.0234C23.2964 4.92362 23.518 4.70199 23.518 4.42886V1.61781C23.518 1.34429 23.2964 1.12323 23.0234 1.12323H24.0868C24.3597 1.12323 24.5814 1.34429 24.5814 1.61781Z" fill="#E11158"/>
<path d="M24.0866 10.4826H16.725C16.4519 10.4826 16.2305 10.2612 16.2305 9.98803V7.17698C16.2305 6.90385 16.4519 6.6824 16.725 6.6824H24.0866C24.3598 6.6824 24.5812 6.90385 24.5812 7.17698V9.98803C24.5812 10.2612 24.3598 10.4826 24.0866 10.4826Z" fill="#FFDE46"/>
<path d="M24.5814 7.17678V9.98802C24.5814 10.261 24.3597 10.4826 24.0868 10.4826H23.0234C23.2964 10.4826 23.518 10.261 23.518 9.98802V7.17678C23.518 6.90384 23.2964 6.68221 23.0234 6.68221H24.0868C24.3597 6.68221 24.5814 6.90384 24.5814 7.17678Z" fill="#F9C60B"/>
<path d="M24.129 17.3439H11.4303C10.9488 17.3439 10.5586 16.9537 10.5586 16.4722C10.5586 15.9908 10.9488 15.6006 11.4303 15.6006H24.129C24.6104 15.6006 25.0007 15.9908 25.0007 16.4722C25.0007 16.9537 24.6104 17.3439 24.129 17.3439Z" fill="#8CBCD4"/>
<path d="M25.0004 16.4722C25.0004 16.7131 24.903 16.9308 24.7452 17.0885C24.5875 17.2462 24.3693 17.3443 24.1284 17.3443H23.0078C23.2485 17.3443 23.4661 17.2462 23.6241 17.0885C23.7818 16.9308 23.8793 16.7131 23.8793 16.4722C23.8793 15.991 23.489 15.6008 23.0078 15.6008H24.1286C24.6102 15.6008 25.0004 15.991 25.0004 16.4722Z" fill="#6FACCA"/>
<path d="M24.129 20.6217H11.4303C10.9488 20.6217 10.5586 20.2314 10.5586 19.75C10.5586 19.2684 10.9488 18.8782 11.4303 18.8782H24.129C24.6104 18.8782 25.0007 19.2684 25.0007 19.75C25.0007 20.2314 24.6104 20.6217 24.129 20.6217Z" fill="#3C94BB"/>
<path d="M25.0004 19.7498C25.0004 19.9907 24.903 20.2089 24.7452 20.3667C24.5875 20.5244 24.3693 20.6219 24.1284 20.6219H23.0078C23.2485 20.6219 23.4661 20.5244 23.6241 20.3667C23.7818 20.2089 23.8793 19.9907 23.8793 19.7498C23.8793 19.2686 23.489 18.8784 23.0078 18.8784H24.1286C24.6102 18.8784 25.0004 19.2686 25.0004 19.7498Z" fill="#1683AE"/>
<path d="M24.129 23.8995H11.4303C10.9488 23.8995 10.5586 23.5092 10.5586 23.0276C10.5586 22.5462 10.9488 22.1559 11.4303 22.1559H24.129C24.6104 22.1559 25.0007 22.5462 25.0007 23.0276C25.0007 23.5092 24.6104 23.8995 24.129 23.8995Z" fill="#0A7296"/>
<path d="M25.0004 23.0274C25.0004 23.2683 24.903 23.4865 24.7452 23.6442C24.5875 23.802 24.3693 23.8995 24.1284 23.8995H23.0078C23.2485 23.8995 23.4661 23.802 23.6241 23.6442C23.7818 23.4865 23.8793 23.2683 23.8793 23.0274C23.8793 22.5462 23.489 22.1559 23.0078 22.1559H24.1286C24.6102 22.1559 25.0004 22.5462 25.0004 23.0274Z" fill="#075F7F"/>
<path d="M24.129 14.0663H11.4303C10.9488 14.0663 10.5586 13.6761 10.5586 13.1947C10.5586 12.7131 10.9488 12.3228 11.4303 12.3228H24.129C24.6104 12.3228 25.0007 12.7131 25.0007 13.1947C25.0007 13.6761 24.6104 14.0663 24.129 14.0663Z" fill="#B6D3E3"/>
<path d="M25.0004 13.1945C25.0004 13.4354 24.903 13.653 24.7452 13.8107C24.5875 13.9685 24.3693 14.0665 24.1284 14.0665H23.0078C23.2485 14.0665 23.4661 13.9685 23.6241 13.8107C23.7818 13.653 23.8793 13.4354 23.8793 13.1945C23.8793 12.7132 23.489 12.3232 23.0078 12.3232H24.1286C24.6102 12.3232 25.0004 12.7132 25.0004 13.1945Z" fill="#8CBCD4"/>
<path d="M3.28122 15.769H2.22493C2.01646 15.769 1.84766 15.6002 1.84766 15.3919C1.84766 15.1834 2.01646 15.0146 2.22493 15.0146H3.28122C3.48969 15.0146 3.65849 15.1834 3.65849 15.3919C3.65849 15.6002 3.48969 15.769 3.28122 15.769Z" fill="#008C80"/>
<path d="M6.50063 18.0809H2.22493C2.01646 18.0809 1.84766 17.9121 1.84766 17.7036C1.84766 17.4953 2.01646 17.3264 2.22493 17.3264H6.50044C6.70892 17.3264 6.87772 17.4953 6.87772 17.7036C6.87791 17.9121 6.70892 18.0809 6.50063 18.0809Z" fill="#008C80"/>
<path d="M6.50063 19.7409H2.22493C2.01646 19.7409 1.84766 19.5721 1.84766 19.3636C1.84766 19.1553 2.01646 18.9863 2.22493 18.9863H6.50044C6.70892 18.9863 6.87772 19.1553 6.87772 19.3636C6.87791 19.5721 6.70892 19.7409 6.50063 19.7409Z" fill="#008C80"/>
<path d="M6.50063 21.4008H2.22493C2.01646 21.4008 1.84766 21.2318 1.84766 21.0236C1.84766 20.8153 2.01646 20.6463 2.22493 20.6463H6.50044C6.70892 20.6463 6.87772 20.8153 6.87772 21.0236C6.87791 21.2318 6.70892 21.4008 6.50063 21.4008Z" fill="#008C80"/>
</svg>
