<svg width="25" height="25" viewBox="0 0 25 25" fill="none" xmlns="http://www.w3.org/2000/svg">
<path d="M5.85938 17.2646V18.8446C5.85938 18.981 5.75005 19.0915 5.61523 19.0915H3.17383C3.03901 19.0915 2.92969 18.981 2.92969 18.8446V17.2646C2.92969 17.1282 3.03901 17.0177 3.17383 17.0177H5.61523C5.75005 17.0177 5.85938 17.1282 5.85938 17.2646ZM21.7285 17.0177H19.2871C19.1523 17.0177 19.043 17.1282 19.043 17.2646V18.8446C19.043 18.981 19.1523 19.0915 19.2871 19.0915H21.7285C21.8633 19.0915 21.9727 18.981 21.9727 18.8446V17.2646C21.9727 17.1282 21.8633 17.0177 21.7285 17.0177Z" fill="#8A90A7"/>
<path d="M22.7539 6.89575V12.3272C22.7539 12.5999 22.5353 12.8209 22.2656 12.8209H12.9883C12.7186 12.8209 12.5 12.5999 12.5 12.3272C12.5 12.5999 12.2814 12.8209 12.0117 12.8209H2.73438C2.4647 12.8209 2.24609 12.5999 2.24609 12.3272V6.89575C2.24609 6.35034 2.6833 5.9082 3.22266 5.9082H11.5234C12.0628 5.9082 12.5 6.35034 12.5 6.89575C12.5 6.35034 12.9372 5.9082 13.4766 5.9082H21.7773C22.3167 5.9082 22.7539 6.35034 22.7539 6.89575Z" fill="#52A5D8"/>
<path d="M22.7539 6.89575V12.3272C22.7539 12.5296 22.6334 12.7034 22.4609 12.7796V13.6719H13.2324V13.6851H11.7676V13.6719H2.44141V12.7215C2.323 12.6314 2.24609 12.4886 2.24609 12.3272V11.6236H7.40967C9.56704 11.6236 11.3159 9.85503 11.3159 7.67344V5.9082H11.5234C12.0628 5.9082 12.5 6.35034 12.5 6.89575V10.636C12.5 11.1814 12.9372 11.6236 13.4766 11.6236H17.6636C19.8209 11.6236 21.5698 9.85503 21.5698 7.67344V5.9082H21.7773C22.3167 5.9082 22.7539 6.35034 22.7539 6.89575Z" fill="#4893C0"/>
<path d="M25 10.5989V17.0179C25 17.2906 24.7814 17.5117 24.5117 17.5117H23.291H22.5586H2.44141H1.70898H0.488281C0.218604 17.5117 0 17.2906 0 17.0179V10.5989C0 10.3262 0.218604 10.1051 0.488281 10.1051H2.44141C2.71108 10.1051 2.92969 10.3262 2.92969 10.5989V14.0306H22.0703V10.5989C22.0703 10.3262 22.2889 10.1051 22.5586 10.1051H24.5117C24.7814 10.1051 25 10.3262 25 10.5989Z" fill="#A2DAF9"/>
<path d="M25 10.5989V17.0179C25 17.2906 24.7814 17.5117 24.5117 17.5117H23.4375C23.7072 17.5117 23.9258 17.2906 23.9258 17.0179V10.5989C23.9258 10.3262 23.7072 10.1051 23.4375 10.1051H24.5117C24.7814 10.1051 25 10.3262 25 10.5989Z" fill="#84C5FA"/>
<path d="M22.7539 13.3145V14.7958C22.7539 15.0685 22.5353 15.2895 22.2656 15.2895H12.9883C12.7186 15.2895 12.5 15.0685 12.5 14.7958C12.5 15.0685 12.2814 15.2895 12.0117 15.2895H2.73438C2.4647 15.2895 2.24609 15.0685 2.24609 14.7958V13.3145C2.24609 13.0418 2.4647 12.8207 2.73438 12.8207H12.0117C12.2814 12.8207 12.5 13.0418 12.5 13.3145C12.5 13.0418 12.7186 12.8207 12.9883 12.8207H22.2656C22.5353 12.8207 22.7539 13.0418 22.7539 13.3145Z" fill="#52A5D8"/>
<path d="M11.2305 13.3145V14.7958C11.2305 15.0685 11.0119 15.2895 10.7422 15.2895H2.73438C2.4647 15.2895 2.24609 15.0685 2.24609 14.7958V13.3145C2.24609 13.0418 2.4647 12.8207 2.73438 12.8207H10.7422C11.0119 12.8207 11.2305 13.0418 11.2305 13.3145ZM20.9961 12.8207H12.9883C12.7186 12.8207 12.5 13.0418 12.5 13.3145V14.7958C12.5 15.0685 12.7186 15.2895 12.9883 15.2895H20.9961C21.2658 15.2895 21.4844 15.0685 21.4844 14.7958V13.3145C21.4844 13.0418 21.2658 12.8207 20.9961 12.8207Z" fill="#70B5E8"/>
</svg>
