<svg width="31" height="26" viewBox="0 0 31 26" fill="none" xmlns="http://www.w3.org/2000/svg">
<g clip-path="url(#clip0)">
<path d="M15.5254 2.58814H13.4629V6.18815H15.5254V2.58814Z" fill="#F05540"/>
<path d="M16.3133 0.74971H12.6758V2.69972H16.3133V0.74971Z" fill="#F3705A"/>
<path d="M1.57422 9.71189V17.9994H16.2742V9.71189C13.3867 6.8244 11.7742 5.21189 8.92419 2.36188C6.07422 5.24937 4.46171 6.86188 1.57422 9.71189Z" fill="#FFD15C"/>
<path d="M16.3117 9.71189C13.4242 6.8244 11.8117 5.21189 8.96171 2.36188C7.49921 3.78687 6.37421 4.91187 5.24921 6.03687C4.12421 7.16187 2.99921 8.28687 1.57422 9.71186V11.3994C4.46171 8.51187 6.07422 6.89936 8.92423 4.04935C11.8117 6.93683 13.4242 8.54934 16.2742 11.3994V11.6244V9.71186H16.3117V9.71189Z" fill="#F7B64C"/>
<path d="M7.61248 17.9998H3.1875V13.6498C3.1875 12.4123 4.2 11.4373 5.39999 11.4373C6.63749 11.4373 7.61248 12.4498 7.61248 13.6498V17.9998Z" fill="#415A6B"/>
<path d="M14.7008 11.4372H8.92578V16.4997H14.7008V11.4372Z" fill="#344A5E"/>
<path d="M11.5129 12.0371H9.52539V15.8996H11.5129V12.0371Z" fill="#8AD7F8"/>
<path d="M14.1008 12.0371H12.1133V15.8996H14.1008V12.0371Z" fill="#8AD7F8"/>
<path d="M17.6625 8.17499L9.82501 0.3375C9.37501 -0.1125 8.58751 -0.1125 8.13751 0.3375L0.3375 8.17499C-0.1125 8.62499 -0.1125 9.41249 0.3375 9.86249C0.7875 10.3125 1.575 10.3125 2.025 9.86249L9 2.88749L15.975 9.86249C16.425 10.3125 17.2125 10.3125 17.6625 9.86249C18.1125 9.37501 18.1125 8.62499 17.6625 8.17499Z" fill="#F3705A"/>
</g>
<g clip-path="url(#clip1)">
<path d="M17.3979 5.87707C17.5215 6.09457 17.7491 6.1967 17.9655 6.13362L19.4198 5.71005L19.4198 20.3848C19.4198 20.7249 19.6556 21 19.9471 21L22.0565 21C22.348 21 22.5839 20.7249 22.5839 20.3848L22.5839 5.71005L24.0382 6.13362C24.2535 6.1967 24.4811 6.09457 24.6057 5.87707C24.7283 5.66017 24.7221 5.37598 24.5882 5.16811L21.4241 0.246185C21.2125 -0.082188 20.7909 -0.0817779 20.5796 0.246185L17.4155 5.16811C17.2815 5.37597 17.2754 5.66017 17.3979 5.87707Z" fill="url(#paint0_linear)"/>
</g>
<path d="M6.38155 25.8951C6.6177 25.7715 6.72858 25.5439 6.66009 25.3276L6.20021 23.8732L22.1328 23.8732C22.502 23.8732 22.8008 23.6374 22.8008 23.3459L22.8008 21.2365C22.8008 20.945 22.502 20.7091 22.1328 20.7091L6.20021 20.7091L6.66009 19.2548C6.72858 19.0396 6.6177 18.8119 6.38155 18.6873C6.14606 18.5647 5.83751 18.5709 5.61182 18.7048L0.268017 21.8689C-0.0885047 22.0805 -0.0880584 22.5021 0.268017 22.7134L5.61182 25.8775C5.83751 26.0115 6.14606 26.0176 6.38155 25.8951Z" fill="url(#paint1_linear)"/>
<defs>
<linearGradient id="paint0_linear" x1="21.0018" y1="4.87915e-05" x2="21.0018" y2="21" gradientUnits="userSpaceOnUse">
<stop stop-color="#FD3A84"/>
<stop offset="1" stop-color="#FFA68D"/>
</linearGradient>
<linearGradient id="paint1_linear" x1="0.000782629" y1="22.2912" x2="22.8008" y2="22.2912" gradientUnits="userSpaceOnUse">
<stop stop-color="#FD3A84"/>
<stop offset="1" stop-color="#FFA68D"/>
</linearGradient>
<clipPath id="clip0">
<rect width="18" height="18" fill="white"/>
</clipPath>
<clipPath id="clip1">
<rect width="18" height="21" fill="white" transform="translate(30.002 21) rotate(-180)"/>
</clipPath>
</defs>
</svg>
