<svg width="25" height="25" viewBox="0 0 25 25" fill="none" xmlns="http://www.w3.org/2000/svg">
<g clip-path="url(#clip0)">
<path d="M24.1379 13.7931V11.2069C24.6135 11.2055 24.9986 10.8204 25 10.3448V7.75859C24.9986 7.28306 24.6135 6.8979 24.1379 6.89653V4.31035C24.6135 4.30894 24.9986 3.92383 25 3.44829V0.862061C24.9986 0.386523 24.6135 0.00136719 24.1379 0H20.2586C19.7831 0.00136719 19.3979 0.386523 19.3966 0.862061H16.8104C16.8089 0.386523 16.4238 0.00136719 15.9483 0H0.862061C0.386523 0.00136719 0.00136719 0.386523 0 0.862061V3.44829C0.00141602 3.92383 0.386523 4.30898 0.862061 4.31035V6.89658C0.386523 6.89795 0.00136719 7.28311 0 7.75864V10.3449C0.00141602 10.8204 0.386523 11.2056 0.862061 11.2069V13.7932C0.386523 13.7945 0.00136719 14.1796 0 14.6552V17.2414C0.00141602 17.7169 0.386523 18.1021 0.862061 18.1035V20.6897C0.386523 20.6911 0.00136719 21.0762 0 21.5517V24.1379C0.00141602 24.6135 0.386523 24.9986 0.862061 25H4.74136C5.21689 24.9986 5.60205 24.6135 5.60342 24.1379H8.18965C8.19106 24.6135 8.57617 24.9986 9.05171 25H24.1379C24.6135 24.9986 24.9986 24.6135 25 24.1379V21.5517C24.9986 21.0762 24.6135 20.691 24.1379 20.6896V18.1034C24.6135 18.102 24.9986 17.7169 25 17.2414V14.6551C24.9986 14.1796 24.6135 13.7945 24.1379 13.7931Z" fill="#FCCC88"/>
<path d="M0.862061 0H15.9483C16.4244 0 16.8104 0.385937 16.8104 0.86206V3.44829C16.8104 3.92441 16.4244 4.31035 15.9483 4.31035H0.862061C0.385938 4.31035 0 3.92437 0 3.44829V0.86206C0 0.385937 0.385938 0 0.862061 0Z" fill="#CD4F38"/>
<path d="M20.2585 0H24.1378C24.6139 0 24.9999 0.385937 24.9999 0.86206V3.44829C24.9999 3.92441 24.6139 4.31035 24.1378 4.31035H20.2585C19.7824 4.31035 19.3965 3.92441 19.3965 3.44829V0.86206C19.3964 0.385937 19.7824 0 20.2585 0Z" fill="#DC6C33"/>
<path d="M9.05151 20.69H24.1377C24.6139 20.69 24.9998 21.076 24.9998 21.5521V24.1383C24.9998 24.6144 24.6138 25.0003 24.1377 25.0003H9.05151C8.57539 25.0003 8.18945 24.6144 8.18945 24.1383V21.5521C8.18945 21.076 8.57544 20.69 9.05151 20.69Z" fill="#CD4F38"/>
<path d="M0.862061 20.69H4.74136C5.21748 20.69 5.60342 21.076 5.60342 21.5521V24.1383C5.60342 24.6144 5.21748 25.0003 4.74136 25.0003H0.862061C0.385938 25.0003 0 24.6144 0 24.1383V21.5521C0 21.076 0.385938 20.69 0.862061 20.69Z" fill="#DC6C33"/>
<path d="M0.862061 13.7927H15.9483C16.4244 13.7927 16.8104 14.1787 16.8104 14.6548V17.241C16.8104 17.7172 16.4244 18.1031 15.9483 18.1031H0.862061C0.385938 18.1031 0 17.7171 0 17.241V14.6548C0 14.1787 0.385938 13.7927 0.862061 13.7927Z" fill="#DC6C33"/>
<path d="M20.2585 13.7927H24.1378C24.614 13.7927 24.9999 14.1787 24.9999 14.6548V17.241C24.9999 17.7172 24.6139 18.1031 24.1378 18.1031H20.2585C19.7824 18.1031 19.3965 17.7172 19.3965 17.241V14.6548C19.3964 14.1787 19.7824 13.7927 20.2585 13.7927Z" fill="#CD4F38"/>
<path d="M9.05151 6.89633H24.1377C24.6139 6.89633 24.9998 7.28227 24.9998 7.75839V10.3446C24.9998 10.8207 24.6138 11.2067 24.1377 11.2067H9.05151C8.57539 11.2067 8.18945 10.8207 8.18945 10.3446V7.75839C8.18945 7.28232 8.57544 6.89633 9.05151 6.89633Z" fill="#ED634C"/>
<path d="M0.862061 6.89633H4.74136C5.21748 6.89633 5.60342 7.28227 5.60342 7.75839V10.3446C5.60342 10.8207 5.21748 11.2067 4.74136 11.2067H0.862061C0.385938 11.2067 0 10.8207 0 10.3446V7.75839C0 7.28232 0.385938 6.89633 0.862061 6.89633Z" fill="#EC9130"/>
<path d="M0.862061 0H15.9483C16.4244 0 16.8104 0.385937 16.8104 0.86206V3.44829C16.8104 3.92441 16.4244 4.31035 15.9483 4.31035H0.862061C0.385938 4.31035 0 3.92437 0 3.44829V0.86206C0 0.385937 0.385938 0 0.862061 0Z" fill="#CD4F38"/>
<path d="M20.2585 0H24.1378C24.6139 0 24.9999 0.385937 24.9999 0.86206V3.44829C24.9999 3.92441 24.6139 4.31035 24.1378 4.31035H20.2585C19.7824 4.31035 19.3965 3.92441 19.3965 3.44829V0.86206C19.3964 0.385937 19.7824 0 20.2585 0Z" fill="#EC9130"/>
<path d="M9.05151 20.69H24.1377C24.6139 20.69 24.9998 21.076 24.9998 21.5521V24.1383C24.9998 24.6144 24.6138 25.0003 24.1377 25.0003H9.05151C8.57539 25.0003 8.18945 24.6144 8.18945 24.1383V21.5521C8.18945 21.076 8.57544 20.69 9.05151 20.69Z" fill="#CD4F38"/>
<path d="M0.862061 20.69H4.74136C5.21748 20.69 5.60342 21.076 5.60342 21.5521V24.1383C5.60342 24.6144 5.21748 25.0003 4.74136 25.0003H0.862061C0.385938 25.0003 0 24.6144 0 24.1383V21.5521C0 21.076 0.385938 20.69 0.862061 20.69Z" fill="#DC6C33"/>
<path d="M0.862061 13.7927H15.9483C16.4244 13.7927 16.8104 14.1787 16.8104 14.6548V17.241C16.8104 17.7172 16.4244 18.1031 15.9483 18.1031H0.862061C0.385938 18.1031 0 17.7171 0 17.241V14.6548C0 14.1787 0.385938 13.7927 0.862061 13.7927Z" fill="#DC6C33"/>
<path d="M20.2585 13.7927H24.1378C24.614 13.7927 24.9999 14.1787 24.9999 14.6548V17.241C24.9999 17.7172 24.6139 18.1031 24.1378 18.1031H20.2585C19.7824 18.1031 19.3965 17.7172 19.3965 17.241V14.6548C19.3964 14.1787 19.7824 13.7927 20.2585 13.7927Z" fill="#CD4F38"/>
<path d="M9.05151 6.89633H24.1377C24.6139 6.89633 24.9998 7.28227 24.9998 7.75839V10.3446C24.9998 10.8207 24.6138 11.2067 24.1377 11.2067H9.05151C8.57539 11.2067 8.18945 10.8207 8.18945 10.3446V7.75839C8.18945 7.28232 8.57544 6.89633 9.05151 6.89633Z" fill="#DC6C33"/>
<path d="M0.862061 6.89633H4.74136C5.21748 6.89633 5.60342 7.28227 5.60342 7.75839V10.3446C5.60342 10.8207 5.21748 11.2067 4.74136 11.2067H0.862061C0.385938 11.2067 0 10.8207 0 10.3446V7.75839C0 7.28232 0.385938 6.89633 0.862061 6.89633Z" fill="#EC9130"/>
</g>
<defs>
<clipPath id="clip0">
<rect width="25" height="25" fill="white"/>
</clipPath>
</defs>
</svg>
