<svg width="45" height="45" viewBox="0 0 45 45" fill="none" xmlns="http://www.w3.org/2000/svg">
    <path fill-rule="evenodd" clip-rule="evenodd"
          d="M13.6459 29.1797H16.8654C17.4558 29.1797 17.9381 28.6973 17.9381 28.1074V25.36C18.2761 25.3378 21.1577 25.476 21.1577 21.6687V20.5951H15.2554V15.1849C15.2554 14.4399 14.6464 13.8305 13.9014 13.8305H10.7076C9.96394 13.8305 9.3536 14.4408 9.3536 15.1849V21.9362H11.4995V23.2778C11.4995 24.6464 12.4456 25.0207 12.5727 25.1359V28.1074C12.5727 28.6969 13.055 29.1797 13.6459 29.1797ZM12.3047 36.4372C12.6134 36.4961 12.9027 36.784 13.1086 37.0498L15.1106 39.636C15.5606 40.2175 15.4525 41.0608 14.8714 41.5104H14.871C14.2899 41.9604 13.447 41.8536 12.997 41.2716L11.3631 39.1607H7.47521C5.99986 39.1607 4.79248 37.9538 4.79248 36.478V5.89348C4.79248 4.41725 5.99986 3.21075 7.47521 3.21075H37.5233C38.9987 3.21075 40.2061 4.41725 40.2061 5.89348V36.478C40.2061 37.9538 38.9987 39.1607 37.5233 39.1607H33.0092H23.0361H21.2445C20.4955 39.1607 19.883 38.5486 19.883 37.7992V37.7987C19.883 37.0498 20.4955 36.4372 21.2445 36.4372H23.0361H33.0092H35.2476C36.4998 36.4372 37.5233 35.4141 37.5233 34.1615V14.6335C35.6449 14.5458 34.0868 14.5737 33.0335 14.9754C32.103 15.3306 31.6729 15.9764 31.4661 16.9787L33.0149 18.7167L34.1359 20.0144C34.8889 20.887 34.5713 21.6678 33.499 21.6678C32.9631 21.6678 32.541 21.6678 32.0764 21.6678C31.61 21.6678 31.1007 21.6678 30.3845 21.6678H26.6321C25.9863 21.6678 25.8893 20.7904 26.5426 20.0388C27.0103 19.4998 27.3873 19.1268 27.7544 18.7167L29.1886 17.1067C29.1886 16.7741 29.2063 12.8144 34.8579 12.8144C36.4679 12.7985 35.9138 12.7834 37.5233 12.7675V8.20992C37.5233 6.95736 36.4998 5.93379 35.2476 5.93379H23.6128V10.3798C23.6128 11.1287 23.0006 11.7408 22.2517 11.7408H22.2508C21.5018 11.7408 20.8897 11.1287 20.8897 10.3798V5.93379H9.7509C8.49878 5.93379 7.47521 6.95736 7.47521 8.20992V34.1615C7.47521 35.4141 8.49878 36.4372 9.7509 36.4372H12.3047ZM30.3455 17.6227L29.3702 18.7167C29.2347 18.8686 29.0947 19.0068 28.9215 19.2066C28.6788 19.4852 28.7151 19.8103 28.9547 19.8103H30.3455C30.6112 19.8103 30.7999 19.8103 30.9731 19.8103C31.1454 19.8103 31.3013 19.8103 31.5002 19.8103C31.8979 19.8103 32.0157 19.5215 31.7367 19.1977L31.3212 18.7167L30.3455 17.6227ZM32.1822 23.4816H32.4515C32.747 23.4816 32.9879 23.7225 32.9879 24.0179V25.5026C32.9879 25.798 32.747 26.039 32.4515 26.039H32.1822C31.8868 26.039 31.6463 25.798 31.6463 25.5026V24.0179C31.6463 23.7225 31.8868 23.4816 32.1822 23.4816ZM32.1822 27.5905H32.4515C32.747 27.5905 32.9879 27.831 32.9879 28.1264V29.6115C32.9879 29.9065 32.747 30.1474 32.4515 30.1474H32.1822C31.8868 30.1474 31.6463 29.9065 31.6463 29.6115V28.1264C31.6463 27.831 31.8868 27.5905 32.1822 27.5905ZM28.0561 22.4739H28.3254C28.6208 22.4739 28.8613 22.7149 28.8613 23.0103V24.495C28.8613 24.7904 28.6208 25.0313 28.3254 25.0313H28.0561C27.7606 25.0313 27.5197 24.7904 27.5197 24.495V23.0103C27.5197 22.7149 27.7606 22.4739 28.0561 22.4739ZM28.0561 26.5828H28.3254C28.6208 26.5828 28.8613 26.8234 28.8613 27.1188V28.6039C28.8613 28.8988 28.6208 29.1398 28.3254 29.1398H28.0561C27.7606 29.1398 27.5197 28.8988 27.5197 28.6039V27.1188C27.5197 26.8234 27.7606 26.5828 28.0561 26.5828ZM13.6459 20.5951H11.4995H10.964V15.8444C10.964 15.506 11.24 15.2292 11.5784 15.2292H13.0307C13.3691 15.2292 13.6459 15.5056 13.6459 15.8444V20.5951ZM14.0622 24.0826H17.8788C18.797 24.0826 19.5477 23.3314 19.5477 22.4133V21.9362H15.2554H13.1086V23.1286C13.1086 23.6534 13.5374 24.0826 14.0622 24.0826ZM14.7957 28.0524H15.7156C16.0527 28.0524 16.3286 27.7765 16.3286 27.4394V25.4246H14.1827V27.4394C14.1827 27.7765 14.4582 28.0524 14.7957 28.0524Z"
          fill="currentColor"/>
</svg>
