<svg width="45" height="45" viewBox="0 0 45 45" fill="none" xmlns="http://www.w3.org/2000/svg">
    <path fill-rule="evenodd" clip-rule="evenodd"
          d="M29.5637 28.1817H32.4129C32.936 28.1817 33.3634 27.7548 33.3634 27.2326V24.8005C33.662 24.781 36.2131 24.9028 36.2131 21.5323V20.5818H30.9885V15.7926C30.9885 15.1335 30.4491 14.5936 29.79 14.5936H26.962C26.3043 14.5936 25.7635 15.1339 25.7635 15.7926V21.7692H27.6631V22.9571C27.6631 24.1685 28.5007 24.4993 28.6141 24.6017V27.2326C28.6141 27.7543 29.0406 28.1817 29.5637 28.1817ZM12.4376 36.2011C12.7436 36.2596 13.0302 36.5453 13.2344 36.8084L15.2199 39.3733C15.6664 39.9504 15.5592 40.7862 14.983 41.2326H14.9825C14.4059 41.6786 13.5701 41.5723 13.1241 40.9957L11.5034 38.902H7.64789C6.1845 38.902 4.9873 37.7053 4.9873 36.2414V5.91028C4.9873 4.44645 6.1845 3.24969 7.64789 3.24969H20.9512V3.25368H24.0472V3.24969H37.3505C38.8139 3.24969 40.0111 4.44645 40.0111 5.91028V36.2414C40.0111 37.7053 38.8108 38.9197 37.3505 38.902C36.5661 38.8927 35.0137 38.9025 34.3928 38.8546C33.8196 38.6992 33.3949 38.173 33.3949 37.552V37.5511C33.3949 36.5581 34.2364 36.2467 35.0939 36.2011C36.3332 36.1351 37.3505 35.1864 37.3505 33.9445V8.20722C37.3505 6.9653 36.3354 5.95058 35.0939 5.95058H24.2221V35.8933C24.6341 36.3344 25.2214 36.6113 25.8685 36.6113H26.2432C26.5492 36.6697 26.8358 36.955 27.04 37.218L29.0255 39.783C29.4716 40.3601 29.3648 41.1959 28.7886 41.6423H28.7881C28.06 41.6423 27.3438 42.0051 26.9297 41.4054L25.1997 38.9047C24.1655 38.9047 23.6388 38.8794 22.2007 38.9038L20.9512 38.8546C20.3781 38.6992 19.9533 38.173 19.9533 37.552V37.5511C19.9533 36.9302 20.3781 36.4044 20.9512 36.2485V33.184V5.95058H9.90453C8.66304 5.95058 7.64789 6.9653 7.64789 8.20722V33.9445C7.64789 35.1864 8.66304 36.2011 9.90453 36.2011H12.4376ZM13.0643 28.1817H15.914C16.4366 28.1817 16.864 27.7548 16.864 27.2326V24.8005C17.1626 24.781 19.7137 24.9028 19.7137 21.5323V20.5818H14.4891V15.7926C14.4891 15.1335 13.9497 14.5936 13.2906 14.5936H10.463C9.80487 14.5936 9.26452 15.1339 9.26452 15.7926V21.7692H11.1637V22.9571C11.1637 24.1685 12.0013 24.4993 12.1147 24.6017V27.2326C12.1147 27.7543 12.5412 28.1817 13.0643 28.1817ZM13.0643 20.5818H11.1637H10.6898V16.3768C10.6898 16.0769 10.9343 15.8315 11.2342 15.8315H12.5195C12.8189 15.8315 13.0643 16.076 13.0643 16.3768V20.5818ZM13.4323 23.6689H16.8113C17.6241 23.6689 18.2889 23.0045 18.2889 22.1913V21.7692H14.4891H12.5886V22.8251C12.5886 23.2893 12.9682 23.6689 13.4323 23.6689ZM14.0816 27.1834H14.8962C15.1947 27.1834 15.4387 26.9398 15.4387 26.6413V24.8577H13.5395V26.6413C13.5395 26.9398 13.7831 27.1834 14.0816 27.1834ZM29.5637 20.5818H27.6631H27.1892V16.3768C27.1892 16.0769 27.4337 15.8315 27.7336 15.8315H29.0185C29.3183 15.8315 29.5637 16.076 29.5637 16.3768V20.5818ZM29.9317 23.6689H33.3107C34.1235 23.6689 34.7883 23.0045 34.7883 22.1913V21.7692H30.9885H29.0876V22.8251C29.0876 23.2893 29.4676 23.6689 29.9317 23.6689ZM30.5811 27.1834H31.3956C31.6941 27.1834 31.9381 26.9398 31.9381 26.6413V24.8577H30.0385V26.6413C30.0385 26.9398 30.2825 27.1834 30.5811 27.1834Z"
          fill="currentColor"/>
</svg>
