<svg width="45" height="45" viewBox="0 0 45 45" fill="none" xmlns="http://www.w3.org/2000/svg">
    <path fill-rule="evenodd" clip-rule="evenodd"
          d="M32.7256 28.8709H37.3961V8.3312C37.3961 7.08972 36.3814 6.075 35.1399 6.075H24.1362V6.07633V28.8709H27.6839C28.3461 28.8709 28.8842 29.4777 28.8842 30.2204V30.2213C28.8842 30.9636 28.3461 31.5709 27.6839 31.5709H17.3175C16.6554 31.5709 16.1159 30.9636 16.1159 30.2213V30.2204C16.1159 29.4777 16.6554 28.8709 17.3175 28.8709H21.4362V6.07633V6.075H9.86019C8.6187 6.075 7.60398 7.08972 7.60398 8.3312V28.8709H12.3241C12.655 28.8709 12.9238 29.4777 12.9238 30.2204V30.2213C12.9238 30.9636 12.655 31.5709 12.3241 31.5709H7.60398V34.0623C7.60398 35.3037 8.6187 36.3185 9.86019 36.3185H12.3923V36.4372C12.6984 36.4956 12.9849 36.6617 13.1891 36.9257L15.1743 39.4897C15.6203 40.0668 15.5135 40.9026 14.9373 41.3486H14.9364C14.3606 41.7946 13.5249 41.6883 13.0784 41.1117L11.4587 39.0185H7.60398C6.14104 39.0185 4.94385 37.8221 4.94385 36.3588V6.0347C4.94385 4.57131 6.14104 3.375 7.60398 3.375H37.3961C38.8591 3.375 40.0562 4.57131 40.0562 6.0347V36.3588C40.0562 37.8221 38.8591 39.0185 37.3961 39.0185H32.9205H23.0324H21.2559C20.5131 39.0185 19.9063 38.4117 19.9063 37.6689V37.6685C19.9063 36.9257 20.5131 36.3185 21.2559 36.3185H23.0324H32.9205H35.1399C36.3814 36.3185 37.3961 35.3037 37.3961 34.0623V31.5709H32.7256C32.3682 31.5709 32.0763 30.9636 32.0763 30.2213V30.2204C32.0763 29.4777 32.3682 28.8709 32.7256 28.8709Z"
          fill="currentColor"/>
</svg>
