<svg width="45" height="45" viewBox="0 0 45 45" fill="none" xmlns="http://www.w3.org/2000/svg">
    <path fill-rule="evenodd" clip-rule="evenodd"
          d="M28.1073 23.4966H31.0124V20.3448H7.60398V34.0623C7.60398 35.3037 8.6187 36.3185 9.86019 36.3185H12.3923V36.4372C12.6984 36.4956 12.9849 36.6617 13.1891 36.9257L15.1743 39.4897C15.6203 40.0668 15.5135 40.9026 14.9373 41.3486H14.9364C14.3606 41.7946 13.5249 41.6883 13.0784 41.1117L11.4587 39.0185H7.60398C6.14104 39.0185 4.94385 37.8221 4.94385 36.3588V6.0347C4.94385 4.57131 6.14104 3.375 7.60398 3.375H37.3961C38.8591 3.375 40.0562 4.57131 40.0562 6.0347V36.3588C40.0562 37.8221 38.8591 39.0185 37.3961 39.0185H32.9205H23.0324H21.2559C20.5131 39.0185 19.9063 38.4117 19.9063 37.6689V37.6685C19.9063 36.9257 20.5131 36.3185 21.2559 36.3185H21.9686V31.8694V30.7395V30.5203C21.9686 29.7771 22.5762 29.1694 23.3194 29.1694H26.7564V26.1966V24.874V24.8474L26.7569 24.8395C26.7613 24.0998 27.3668 23.4966 28.1073 23.4966ZM33.7124 20.3448V24.8457C33.7124 25.5858 33.1105 26.1904 32.3713 26.1961L32.3615 26.1966H32.3367H31.0124H29.4564V30.3994C29.4564 31.143 28.8488 31.7507 28.1056 31.7507H28.1016C27.9328 31.8264 27.7455 31.8694 27.5488 31.8694H24.6686V36.3185H32.9205H35.1399C36.3814 36.3185 37.3961 35.3037 37.3961 34.0623V20.3448H33.7124ZM37.3961 17.6448V8.3312C37.3961 7.08972 36.3814 6.075 35.1399 6.075H9.86019C8.6187 6.075 7.60398 7.08972 7.60398 8.3312V17.6448H37.3961Z"
          fill="currentColor"/>
</svg>
