<svg width="45" height="45" viewBox="0 0 45 45" fill="none" xmlns="http://www.w3.org/2000/svg">
    <path fill-rule="evenodd" clip-rule="evenodd"
          d="M13.0441 41.3327L11.0031 38.952H7.54532C6.07662 38.952 4.875 37.7504 4.875 36.2821V5.8389C4.875 4.36976 6.07662 3.16858 7.54532 3.16858H37.4544C38.9231 3.16858 40.1247 4.36976 40.1247 5.8389V36.2821C40.1247 37.7486 38.9213 38.952 37.4544 38.952H23.1749L23.1753 38.8993C23.0451 38.9338 22.9078 38.952 22.7674 38.952H22.766C22.2647 38.952 21.8147 38.7181 21.521 38.3549C21.2982 38.1304 21.1645 37.8376 21.1645 37.5178V37.5165L21.1671 37.4434L21.1645 37.3517V32.0089H17.1627C16.2813 32.0089 15.5607 31.2883 15.5607 30.4078V30.4073C15.5607 29.5255 16.2813 28.8048 17.1627 28.8048H21.1645V6.10377C21.1645 6.02759 21.1702 5.95362 21.1804 5.88009H9.81171C8.56447 5.88009 7.54577 6.89924 7.54577 8.14604V28.8048H11.2893C12.1702 28.8048 12.89 29.5255 12.89 30.4073V30.4078C12.89 31.2883 12.1702 32.0089 11.2893 32.0089H7.54577V33.975C7.54577 35.2213 8.56447 36.2409 9.81171 36.2409H10.9894C11.5674 35.942 12.2978 36.0669 12.7367 36.5789L15.2192 39.4751C15.7308 40.0726 15.6595 40.9783 15.062 41.4894L15.0607 41.4899C14.4627 42.0001 13.5557 41.9301 13.0441 41.3327ZM37.4539 19.9333H24.3689V6.10377C24.3689 6.02759 24.3632 5.95362 24.353 5.88009H35.188C36.4352 5.88009 37.4539 6.89924 37.4539 8.14604V19.9333ZM24.3689 22.5H37.4539V33.975C37.4539 35.2213 36.4352 36.2409 35.188 36.2409H27.2H24.3689V22.5Z"
          fill="currentColor"/>
</svg>
