<svg width="45" height="45" viewBox="0 0 45 45" fill="none" xmlns="http://www.w3.org/2000/svg">
    <path fill-rule="evenodd" clip-rule="evenodd"
          d="M7.54532 3.16815H37.4544C38.9235 3.16815 40.1247 4.36933 40.1247 5.83848V36.2812C40.1247 37.7491 38.9222 38.9516 37.4544 38.9516H21.1649H21.1636H20.8974L20.9009 38.9294C20.1436 38.8027 19.562 38.1415 19.562 37.35V32.0089H18.4937C17.6123 32.0089 16.8921 31.2883 16.8921 30.4073V30.406C16.8921 29.5246 17.6123 28.8044 18.4937 28.8044H21.1649C22.0463 28.8044 22.7665 29.5246 22.7665 30.406V30.4073C22.7665 30.4521 22.7656 30.4963 22.7616 30.5402C22.7656 30.5845 22.7665 30.6288 22.7665 30.6735V36.2405H35.188C36.4352 36.2405 37.4539 35.2209 37.4539 33.9745V8.14517C37.4539 6.89881 36.4352 5.87922 35.188 5.87922H9.81171C8.56447 5.87922 7.54577 6.89881 7.54577 8.14517V28.8044H12.8869C13.7683 28.8044 14.4884 29.5246 14.4884 30.406V30.4073C14.4884 31.2883 13.7683 32.0089 12.8869 32.0089H7.54577V33.9745C7.54577 35.2209 8.56447 36.2405 9.81171 36.2405H10.9899C11.5665 35.9415 12.2978 36.0664 12.7367 36.5784L15.2184 39.4746C15.7299 40.0717 15.6595 40.9779 15.0611 41.4886L15.0607 41.4895C14.4627 42.0001 13.5557 41.9297 13.0441 41.3322L11.0031 38.9516H7.54532C6.07618 38.9516 4.875 37.7504 4.875 36.2812V5.83848C4.875 4.36933 6.07618 3.16815 7.54532 3.16815Z"
          fill="currentColor"/>
</svg>
