<svg width="45" height="45" viewBox="0 0 45 45" fill="none" xmlns="http://www.w3.org/2000/svg">
    <path fill-rule="evenodd" clip-rule="evenodd"
          d="M12.9616 41.497L10.9029 39.0955H7.41455C5.93256 39.0955 4.72119 37.8842 4.72119 36.4022V5.69276C4.72119 4.21033 5.93256 2.99896 7.41455 2.99896H37.5858C39.0678 2.99896 40.2792 4.21033 40.2792 5.69276V36.4022C40.2792 37.8815 39.0651 39.0955 37.5858 39.0955H23.1809L23.1818 39.0419C23.0498 39.0769 22.9121 39.0955 22.7699 39.0955H22.7686C22.2628 39.0955 21.8092 38.8594 21.5125 38.4932C21.2888 38.2664 21.1533 37.9714 21.1533 37.6485V37.6472L21.1555 37.5737L21.1533 37.4811V32.0922H17.1161C16.2272 32.0922 15.5004 31.3654 15.5004 30.4764V30.4751C15.5004 29.5862 16.2272 28.8593 17.1161 28.8593H21.1533V5.95984C21.1533 5.88277 21.1586 5.80836 21.1688 5.73395H9.70087C8.44299 5.73395 7.41543 6.7624 7.41543 8.01983V28.8593H11.1908C12.0798 28.8593 12.8061 29.5862 12.8061 30.4751V30.4764C12.8061 31.3654 12.0798 32.0922 11.1908 32.0922H7.41543V34.0751C7.41543 35.3325 8.44299 36.3605 9.70087 36.3605H10.8896C11.4712 36.0589 12.2086 36.1851 12.6516 36.7016L15.1549 39.623C15.6709 40.2258 15.5996 41.1396 14.9963 41.6551L14.9959 41.6556C14.3926 42.1711 13.4776 42.0998 12.9616 41.497ZM27.2416 36.3605H35.2995C36.5574 36.3605 37.5849 35.3325 37.5849 34.0751V8.01983C37.5849 6.7624 36.5574 5.73395 35.2995 5.73395H24.3697C24.3799 5.80836 24.3857 5.88277 24.3857 5.95984V36.3605H27.2416Z"
          fill="currentColor"/>
</svg>
