<svg width="25" height="25" viewBox="0 0 25 25" fill="none" xmlns="http://www.w3.org/2000/svg">
<path d="M16.1133 11.7188V13.6719C16.1133 14.2112 15.6761 14.6484 15.1367 14.6484V15.625H13.1836V14.6484C12.6442 14.6484 12.207 14.2112 12.207 13.6719V11.7188H16.1133Z" fill="#D5DCED"/>
<path d="M16.1133 11.7188V13.6719C16.1133 14.2112 15.6761 14.6484 15.1367 14.6484V15.1367H13.6719V14.6484C14.2112 14.6484 14.6484 14.2112 14.6484 13.6719V11.7188H16.1133Z" fill="#AFB9D2"/>
<path d="M22.8271 6.83594V8.30078C22.8271 8.77192 22.4438 9.15527 21.9727 9.15527H18.0664C17.5953 9.15527 17.2119 8.77192 17.2119 8.30078V6.83594C17.2119 6.63369 17.3758 6.46973 17.5781 6.46973C17.7804 6.46973 17.9443 6.63369 17.9443 6.83594V8.30078C17.9443 8.36807 17.9991 8.42285 18.0664 8.42285H21.9727C22.04 8.42285 22.0947 8.36807 22.0947 8.30078V6.83594C22.0947 6.63369 22.2586 6.46973 22.4609 6.46973C22.6632 6.46973 22.8271 6.63369 22.8271 6.83594ZM16.2354 11.3525H14.5264V11.2305C14.5264 11.0282 14.3625 10.8643 14.1602 10.8643C13.9579 10.8643 13.7939 11.0282 13.7939 11.2305V11.3525H12.085C11.8827 11.3525 11.7188 11.5165 11.7188 11.7188C11.7188 11.921 11.8827 12.085 12.085 12.085H16.2354C16.4376 12.085 16.6016 11.921 16.6016 11.7188C16.6016 11.5165 16.4376 11.3525 16.2354 11.3525Z" fill="#8A90A7"/>
<path d="M8.05664 15.9994H1.70898C1.57417 15.9994 1.46484 15.89 1.46484 15.7552V6.5918C1.46484 6.45698 1.57417 6.34766 1.70898 6.34766H8.05664C8.19145 6.34766 8.30078 6.45698 8.30078 6.5918V15.7552C8.30078 15.89 8.19145 15.9994 8.05664 15.9994Z" fill="#B16F52"/>
<path d="M23.5352 15.3809V23.6816C23.5352 23.8165 23.4258 23.9258 23.291 23.9258H1.70898C1.57417 23.9258 1.46484 23.8165 1.46484 23.6816V15.3809C1.46484 15.246 1.57417 15.1367 1.70898 15.1367H23.291C23.4258 15.1367 23.5352 15.246 23.5352 15.3809ZM23.291 0H1.70898C1.57417 0 1.46484 0.109326 1.46484 0.244141V6.5918C1.46484 6.72661 1.57417 6.83594 1.70898 6.83594H23.291C23.4258 6.83594 23.5352 6.72661 23.5352 6.5918V0.244141C23.5352 0.109326 23.4258 0 23.291 0Z" fill="#EBC9A0"/>
<path d="M23.5358 15.3809V23.6816C23.5358 23.8165 23.4265 23.9258 23.2917 23.9258H21.5664C21.7012 23.9258 21.8105 23.8165 21.8105 23.6816V15.3809C21.8105 15.246 21.7012 15.1367 21.5664 15.1367H23.2917C23.4265 15.1367 23.5358 15.246 23.5358 15.3809ZM23.2917 0H21.5664C21.7012 0 21.8105 0.109326 21.8105 0.244141V6.5918C21.8105 6.72661 21.7012 6.83594 21.5664 6.83594H23.2917C23.4265 6.83594 23.5358 6.72661 23.5358 6.5918V0.244141C23.5358 0.109326 23.4265 0 23.2917 0Z" fill="#E1B894"/>
<path d="M7.93359 0H8.66602V6.83594H7.93359V0ZM16.332 0V6.83594H17.0645V0H16.332ZM12.499 15.7471C12.2968 15.7471 12.1328 15.911 12.1328 16.1133V23.4375C12.1328 23.6397 12.2968 23.8037 12.499 23.8037C12.7013 23.8037 12.8652 23.6397 12.8652 23.4375V16.1133C12.8652 15.911 12.7013 15.7471 12.499 15.7471Z" fill="#D7AF87"/>
<path d="M20.9961 12.207H19.043C18.7733 12.207 18.5547 11.9884 18.5547 11.7188V8.78906C18.5547 8.51938 18.7733 8.30078 19.043 8.30078H20.9961C21.2658 8.30078 21.4844 8.51938 21.4844 8.78906V11.7188C21.4844 11.9884 21.2658 12.207 20.9961 12.207Z" fill="#FF5050"/>
<path d="M21.4844 8.78906V11.7188C21.4844 11.9884 21.2658 12.207 20.9961 12.207H19.043C18.7733 12.207 18.5547 11.9884 18.5547 11.7188V11.1468C18.7075 11.2008 18.8717 11.2305 19.043 11.2305C19.852 11.2305 20.5078 10.5747 20.5078 9.76562V8.30078H20.9961C21.2658 8.30078 21.4844 8.51938 21.4844 8.78906Z" fill="#E95050"/>
<path d="M5.37109 10.0096H4.39453C3.72036 10.0096 3.17383 9.46302 3.17383 8.78885C3.17383 8.65403 3.28315 8.54471 3.41797 8.54471H6.34766C6.48247 8.54471 6.5918 8.65403 6.5918 8.78885C6.5918 9.46302 6.04526 10.0096 5.37109 10.0096Z" fill="#F7C295"/>
<path d="M6.5918 12.9395C6.5918 13.8833 5.82666 14.6484 4.88281 14.6484C3.93896 14.6484 3.17383 13.8833 3.17383 12.9395C3.17383 12.8046 3.28315 12.6953 3.41797 12.6953H6.34766C6.48247 12.6953 6.5918 12.8046 6.5918 12.9395ZM6.34766 9.76562H3.41797C3.28315 9.76562 3.17383 9.87495 3.17383 10.0098C3.17383 10.6839 3.72036 11.2305 4.39453 11.2305H5.37109C6.04526 11.2305 6.5918 10.6839 6.5918 10.0098C6.5918 9.87495 6.48247 9.76562 6.34766 9.76562Z" fill="#F7A676"/>
<path d="M8.30078 10.8643V11.5967H1.46484V10.8643H8.30078Z" fill="#EBC9A0"/>
<path d="M25 0.244141V1.70898C25 1.8438 24.8907 1.95312 24.7559 1.95312H0.244141C0.109326 1.95312 0 1.8438 0 1.70898V0.244141C0 0.109326 0.109326 0 0.244141 0H24.7559C24.8907 0 25 0.109326 25 0.244141ZM24.7559 14.6484H0.244141C0.109326 14.6484 0 14.7578 0 14.8926V16.3574C0 16.4922 0.109326 16.6016 0.244141 16.6016H24.7559C24.8907 16.6016 25 16.4922 25 16.3574V14.8926C25 14.7578 24.8907 14.6484 24.7559 14.6484ZM24.7559 23.0469H0.244141C0.109326 23.0469 0 23.1562 0 23.291V24.7559C0 24.8907 0.109326 25 0.244141 25H24.7559C24.8907 25 25 24.8907 25 24.7559V23.291C25 23.1562 24.8907 23.0469 24.7559 23.0469Z" fill="#D7AF87"/>
<path d="M25 0.244141V1.70898C25 1.8438 24.8907 1.95312 24.7559 1.95312H23.291C23.4258 1.95312 23.5352 1.8438 23.5352 1.70898V0.244141C23.5352 0.109326 23.4258 0 23.291 0H24.7559C24.8907 0 25 0.109326 25 0.244141ZM24.7559 14.6484H23.291C23.4258 14.6484 23.5352 14.7578 23.5352 14.8926V16.3574C23.5352 16.4922 23.4258 16.6016 23.291 16.6016H24.7559C24.8907 16.6016 25 16.4922 25 16.3574V14.8926C25 14.7578 24.8907 14.6484 24.7559 14.6484ZM24.7559 23.0469H23.291C23.4258 23.0469 23.5352 23.1562 23.5352 23.291V24.7559C23.5352 24.8907 23.4258 25 23.291 25H24.7559C24.8907 25 25 24.8907 25 24.7559V23.291C25 23.1562 24.8907 23.0469 24.7559 23.0469Z" fill="#C49D7A"/>
<path d="M11.1074 18.5547V20.5078C11.1074 20.7101 10.9435 20.874 10.7412 20.874C10.539 20.874 10.375 20.7101 10.375 20.5078V18.5547C10.375 18.3524 10.539 18.1885 10.7412 18.1885C10.9435 18.1885 11.1074 18.3524 11.1074 18.5547ZM14.1592 18.1885C13.9569 18.1885 13.793 18.3524 13.793 18.5547V20.5078C13.793 20.7101 13.9569 20.874 14.1592 20.874C14.3615 20.874 14.5254 20.7101 14.5254 20.5078V18.5547C14.5254 18.3524 14.3615 18.1885 14.1592 18.1885ZM14.4521 5.00488H10.5459C10.3437 5.00488 10.1797 5.16885 10.1797 5.37109C10.1797 5.57334 10.3437 5.7373 10.5459 5.7373H14.4521C14.6544 5.7373 14.8184 5.57334 14.8184 5.37109C14.8184 5.16885 14.6544 5.00488 14.4521 5.00488ZM5.8584 5.00488H3.90527C3.70303 5.00488 3.53906 5.16885 3.53906 5.37109C3.53906 5.57334 3.70303 5.7373 3.90527 5.7373H5.8584C6.06064 5.7373 6.22461 5.57334 6.22461 5.37109C6.22461 5.16885 6.06064 5.00488 5.8584 5.00488ZM20.9951 5.00488H19.042C18.8397 5.00488 18.6758 5.16885 18.6758 5.37109C18.6758 5.57334 18.8397 5.7373 19.042 5.7373H20.9951C21.1974 5.7373 21.3613 5.57334 21.3613 5.37109C21.3613 5.16885 21.1974 5.00488 20.9951 5.00488Z" fill="#57676E"/>
</svg>
