<svg width="35" height="36" viewBox="0 0 35 36" fill="none" xmlns="http://www.w3.org/2000/svg">
<g clip-path="url(#clip0)">
<path d="M27.986 33.7219H17.873V7.42383H28.934V29.399L27.986 30.8437V33.7219Z" fill="#EB8D00"/>
<path d="M19.6222 3.39453H17.8734L16.4287 14.9445L17.8736 33.3782L19.6222 33.1328V3.39453Z" fill="#FDAE02"/>
<path d="M4.05875 0.505859V3.39731H2.40967V33.1356L11.7325 34.2423L17.8726 33.381V0.505859H4.05875Z" fill="#FDCB02"/>
<path d="M7.46436 7.44531H9.49583V10.3347H7.46436V7.44531Z" fill="#F3FFFB"/>
<path d="M12.5195 7.44531H14.551V10.3347H12.5195V7.44531Z" fill="#F3FFFB"/>
<path d="M7.46436 13.2324H9.49583V16.1218H7.46436V13.2324Z" fill="#F3FFFB"/>
<path d="M12.5195 13.2324H14.551V16.1218H12.5195V13.2324Z" fill="#F3FFFB"/>
<path d="M7.46436 19H9.49583V21.8893H7.46436V19Z" fill="#F3FFFB"/>
<path d="M12.5195 19H14.551V21.8893H12.5195V19Z" fill="#F3FFFB"/>
<path d="M7.46436 24.7754H9.49583V27.6647H7.46436V24.7754Z" fill="#F3FFFB"/>
<path d="M12.5195 24.7754H14.551V27.6647H12.5195V24.7754Z" fill="#F3FFFB"/>
<path d="M22.228 13.2227H24.2595V16.112H22.228V13.2227Z" fill="#FFD27B"/>
<path d="M22.228 19.0098H24.2595V21.8991H22.228V19.0098Z" fill="#FFD27B"/>
<path d="M26.9053 29.0527H28.937V34.1092H26.9053V29.0527Z" fill="#8F4D24"/>
<path d="M27.9221 31.4593C25.4763 31.4593 23.4863 29.4693 23.4863 27.0234C23.4863 24.5776 25.4763 22.5879 27.9221 22.5879C30.368 22.5879 32.3577 24.5776 32.3577 27.0234C32.3577 29.4693 30.368 31.4593 27.9221 31.4593Z" fill="#A8D32A"/>
<path d="M32.3203 33.1367H17.8731L17.1509 34.4574L17.8731 35.1685H32.3203V33.1367Z" fill="#8D9CA8"/>
<path d="M2.40967 33.1367H17.8724V35.1685H2.40967V33.1367Z" fill="#AAB8C7"/>
</g>
<defs>
<clipPath id="clip0">
<rect width="34.6615" height="34.6615" fill="white" transform="translate(0.0400391 0.505859)"/>
</clipPath>
</defs>
</svg>
