<svg width="36" height="36" viewBox="0 0 36 36" fill="none" xmlns="http://www.w3.org/2000/svg">
<g clip-path="url(#clip0)">
<path d="M30.582 5.86914H26.6104V12.8014H30.582V5.86914Z" fill="#F05540"/>
<path d="M32.0978 2.33008H25.0933V6.08509H32.0978V2.33008Z" fill="#F3705A"/>
<path d="M3.71973 19.5871V35.5458H32.0266V19.5871C26.4663 14.0268 23.3612 10.9217 17.8731 5.43359C12.3851 10.9939 9.27998 14.099 3.71973 19.5871Z" fill="#FFD15C"/>
<path d="M32.0988 19.5871C26.5386 14.0268 23.4334 10.9217 17.9454 5.43359C15.1291 8.17761 12.9628 10.3439 10.7964 12.5103C8.63008 14.6766 6.46374 16.843 3.71973 19.587V22.8365C9.27998 17.2762 12.3851 14.1711 17.8732 8.68304C23.4334 14.2433 26.5386 17.3484 32.0266 22.8365V23.2698V19.587H32.0988V19.5871Z" fill="#F7B64C"/>
<path d="M15.3451 35.5471H6.82422V27.1706C6.82422 24.7876 8.77393 22.9102 11.0847 22.9102C13.4677 22.9102 15.3451 24.8599 15.3451 27.1706V35.5471Z" fill="#415A6B"/>
<path d="M28.9927 22.9102H17.8721V32.6587H28.9927V22.9102Z" fill="#344A5E"/>
<path d="M22.8555 24.0625H19.0283V31.5003H22.8555V24.0625Z" fill="#8AD7F8"/>
<path d="M27.8389 24.0625H24.0117V31.5003H27.8389V24.0625Z" fill="#8AD7F8"/>
<path d="M34.6976 16.6268L19.6055 1.53467C18.7389 0.668131 17.2225 0.668131 16.3559 1.53467L1.33594 16.6268C0.469401 17.4934 0.469401 19.0098 1.33594 19.8763C2.20248 20.7429 3.71891 20.7429 4.58545 19.8763L18.0168 6.44502L31.4481 19.8763C32.3146 20.7429 33.8311 20.7429 34.6976 19.8763C35.5642 18.9376 35.5642 17.4934 34.6976 16.6268Z" fill="#F3705A"/>
</g>
<defs>
<clipPath id="clip0">
<rect width="34.6615" height="34.6615" fill="white" transform="translate(0.686035 0.884766)"/>
</clipPath>
</defs>
</svg>
