<svg width="36" height="35" viewBox="0 0 36 35" fill="none" xmlns="http://www.w3.org/2000/svg">
<g clip-path="url(#clip0)">
<path d="M32.2445 19.043H3.78917C3.22795 19.043 2.77295 19.4993 2.77295 20.0622V33.68C2.77295 34.2429 3.22795 34.6992 3.78917 34.6992H32.2445C32.8057 34.6992 33.2607 34.2429 33.2607 33.68V20.0622C33.2607 19.4993 32.8057 19.043 32.2445 19.043Z" fill="#127793"/>
<path d="M32.2443 19.043H18.0166V34.6992H32.2443C32.8055 34.6992 33.2605 34.2429 33.2605 33.68V20.0622C33.2605 19.4993 32.8055 19.043 32.2443 19.043Z" fill="#0D5E7B"/>
<path d="M20.0481 17.6445V27.0004C19.4554 26.639 18.7589 26.4303 18.0158 26.4303C17.2726 26.4303 16.5762 26.639 15.9834 27.0004V17.6445H20.0481Z" fill="#0D5E7B"/>
<path d="M18.0166 17.6445V26.4303C18.7598 26.4303 19.4562 26.639 20.049 27.0004V17.6445H18.0166Z" fill="#04445D"/>
<path d="M11.9193 18.7324H7.85449V34.6998H11.9193V18.7324Z" fill="#0D5E7B"/>
<path d="M28.1791 18.4023H24.1143V34.6989H28.1791V18.4023Z" fill="#04445D"/>
<path d="M35.3282 19.8672L33.0391 8.04902C32.9795 7.7414 32.7821 7.47833 32.5039 7.33575L18.4785 0.14871C18.1882 -9.0789e-05 17.8442 -9.0789e-05 17.5539 0.14871L3.52844 7.33582C3.25027 7.47839 3.05279 7.74147 2.99329 8.04909L0.704206 19.8672C0.646325 20.1659 0.724651 20.475 0.917659 20.7099C1.11073 20.9447 1.39832 21.0807 1.70174 21.0807H34.3307C34.6341 21.0807 34.9217 20.9447 35.1147 20.7099C35.3077 20.475 35.3861 20.1659 35.3282 19.8672Z" fill="#FFD74A"/>
<path d="M35.1153 20.7112C34.9223 20.9463 34.635 21.0822 34.3315 21.0822H1.70207C1.39858 21.0822 1.11133 20.9463 0.918257 20.7112C0.725182 20.4768 0.646584 20.1676 0.704872 19.8686L1.50771 15.7246H34.526L35.3288 19.8686C35.3869 20.1676 35.3084 20.4768 35.1153 20.7112Z" fill="#FAC004"/>
<path d="M18.0173 6.25977C16.3363 6.25977 14.9688 7.6314 14.9688 9.31735C14.9688 11.0033 16.3363 12.3749 18.0173 12.3749C19.6983 12.3749 21.0659 11.0033 21.0659 9.31735C21.0659 7.6314 19.6983 6.25977 18.0173 6.25977Z" fill="#FAC004"/>
<path d="M21.9379 34.6972V25.7757C21.9379 23.6066 20.1783 21.8418 18.0156 21.8418C15.8528 21.8418 14.0933 23.6065 14.0933 25.7757V34.6972H21.9379Z" fill="#EBE1E2"/>
<path d="M35.3286 19.8672L33.0395 8.04906C32.9799 7.74144 32.7825 7.47836 32.5044 7.33579L18.4789 0.148744C18.3338 0.0743434 18.1752 0.0371094 18.0166 0.0371094V21.0808H34.3311C34.6346 21.0808 34.9221 20.9448 35.1152 20.7099C35.3082 20.4751 35.3865 20.166 35.3286 19.8672Z" fill="#FAC004"/>
<path d="M35.3285 19.8686L34.5257 15.7246H18.0166V21.0822H34.3312C34.6347 21.0822 34.9219 20.9463 35.115 20.7112C35.3082 20.4768 35.3867 20.1676 35.3285 19.8686Z" fill="#F49F11"/>
<path d="M18.0166 6.25977V12.375C19.6976 12.375 21.0652 11.0033 21.0652 9.31736C21.0652 7.6314 19.6976 6.25977 18.0166 6.25977Z" fill="#F49F11"/>
<path d="M21.9389 25.7776C21.9389 23.6084 20.1794 21.8438 18.0166 21.8438V34.6992H21.9389V25.7776Z" fill="#D9D2CC"/>
</g>
<defs>
<clipPath id="clip0">
<rect width="34.6615" height="34.6615" fill="white" transform="translate(0.686035 0.0371094)"/>
</clipPath>
</defs>
</svg>
