<svg width="35" height="35" viewBox="0 0 35 35" fill="none" xmlns="http://www.w3.org/2000/svg">
<g clip-path="url(#clip0)">
<path d="M25.4581 2.63477H9.28271V33.8301H25.4581V2.63477Z" fill="#4398D1"/>
<path d="M9.28271 25.1679V33.8333H25.4581V7.19531L9.28271 25.1679Z" fill="#3F8FC4"/>
<path d="M23.1481 0.326172H11.5942V2.63691H23.1481V0.326172Z" fill="#4398D1"/>
<path d="M23.1481 1.48242H11.5942V2.63783H23.1481V1.48242Z" fill="#3F8FC4"/>
<path d="M13.905 5.52539H11.5942V7.83613H13.905V5.52539Z" fill="#87CED9"/>
<path d="M18.5276 5.52539H16.2168V7.83613H18.5276V5.52539Z" fill="#87CED9"/>
<path d="M23.1477 5.52539H20.8369V7.83613H23.1477V5.52539Z" fill="#87CED9"/>
<path d="M13.905 10.1484H11.5942V12.4592H13.905V10.1484Z" fill="#87CED9"/>
<path d="M18.5276 10.1484H16.2168V12.4592H18.5276V10.1484Z" fill="#87CED9"/>
<path d="M23.1477 10.1484H20.8369V12.4592H23.1477V10.1484Z" fill="#87CED9"/>
<path d="M13.905 14.7676H11.5942V17.0783H13.905V14.7676Z" fill="#87CED9"/>
<path d="M18.5276 14.7676H16.2168V17.0783H18.5276V14.7676Z" fill="#87CED9"/>
<path d="M23.1477 14.7676H20.8369V17.0783H23.1477V14.7676Z" fill="#87CED9"/>
<path d="M13.905 19.3906H11.5942V21.7014H13.905V19.3906Z" fill="#87CED9"/>
<path d="M18.5276 19.3906H16.2168V21.7014H18.5276V19.3906Z" fill="#87CED9"/>
<path d="M23.1477 19.3906H20.8369V21.7014H23.1477V19.3906Z" fill="#87CED9"/>
<path d="M13.905 24.0117H11.5942V26.3225H13.905V24.0117Z" fill="#87CED9"/>
<path d="M18.5276 24.0117H16.2168V26.3225H18.5276V24.0117Z" fill="#87CED9"/>
<path d="M23.1477 24.0117H20.8369V26.3225H23.1477V24.0117Z" fill="#87CED9"/>
<path d="M20.8375 29.2109H13.9053V33.8325H20.8375V29.2109Z" fill="#87CED9"/>
<path d="M17.9488 29.2109H16.7935V33.8325H17.9488V29.2109Z" fill="#61ACC9"/>
<path d="M5.70084 24.7342C5.84009 24.3119 5.85505 23.859 5.74532 23.4286C5.5362 22.6054 4.88805 21.9653 4.06193 21.7666C2.82048 21.4616 1.56691 22.2207 1.26187 23.4621C1.21739 23.6423 1.19484 23.8272 1.19484 24.0126C1.19484 24.2172 1.22199 24.4205 1.27574 24.6175C1.53455 25.4765 1.43693 26.4037 1.00421 27.1899C0.206383 28.5718 0.680135 30.3378 2.06138 31.1356C3.44263 31.9334 5.20982 31.4597 6.00704 30.0784C6.50557 29.2148 6.52351 28.1547 6.05443 27.2749C5.59333 26.5123 5.46511 25.5937 5.70084 24.7342Z" fill="#88B337"/>
<path d="M4.08412 24.0117H2.92871V34.4102H4.08412V24.0117Z" fill="#79A125"/>
<path d="M33.4303 24.7342C33.5696 24.3119 33.5846 23.859 33.4748 23.4286C33.2657 22.6054 32.6175 21.9653 31.7914 21.7666C30.55 21.4616 29.2964 22.2207 28.9914 23.4621C28.9469 23.6423 28.9243 23.8272 28.9243 24.0126C28.9243 24.2172 28.9515 24.4205 29.0052 24.6175C29.2646 25.4771 29.167 26.4054 28.7337 27.1922C27.9359 28.5741 28.4096 30.3401 29.7909 31.1379C31.1721 31.9357 32.9387 31.462 33.7365 30.0807C34.2351 29.2171 34.253 28.157 33.7839 27.2772C33.3223 26.514 33.1941 25.5943 33.4303 24.7342Z" fill="#88B337"/>
<path d="M31.8141 24.0117H30.6587V34.4102H31.8141V24.0117Z" fill="#79A125"/>
<path d="M34.7015 33.2539H0.0400391V34.4093H34.7015V33.2539Z" fill="#E0D2C1"/>
</g>
<defs>
<clipPath id="clip0">
<rect width="34.6615" height="34.6615" fill="white" transform="translate(0.0400391 0.0371094)"/>
</clipPath>
</defs>
</svg>
