<svg viewBox="0 0 1440 173" fill="none" xmlns="http://www.w3.org/2000/svg">
    <path fill-rule="evenodd" clip-rule="evenodd"
          d="M0 43L60 72C120 101 240 158 360 166C480 173 600 130 720 130C840 130 960 173 1080 173C1200 173 1320 130 1380 108L1440 86V0H1380C1320 0 1200 0 1080 0C960 0 840 0 720 0C600 0 480 0 360 0C240 0 120 0 60 0H0V43Z"
          fill="#0099FF"></path>
    <path fill-rule="evenodd" clip-rule="evenodd"
          d="M0 43L60 72C120 101 240 158 360 166C480 173 600 130 720 130C840 130 960 173 1080 173C1200 173 1320 130 1380 108L1440 86V0H1380C1320 0 1200 0 1080 0C960 0 840 0 720 0C600 0 480 0 360 0C240 0 120 0 60 0H0V43Z"
          fill="rgb(82, 172,220)"></path>
    <path fill-rule="evenodd" clip-rule="evenodd"
          d="M0 43L60 72C120 101 240 158 360 166C480 173 600 130 720 130C840 130 960 173 1080 173C1200 173 1320 130 1380 108L1440 86V0H1380C1320 0 1200 0 1080 0C960 0 840 0 720 0C600 0 480 0 360 0C240 0 120 0 60 0H0V43Z"
    ></path>
</svg>