<svg width="19" height="20" fill="none" xmlns="http://www.w3.org/2000/svg">
    <mask id="a" maskUnits="userSpaceOnUse" x="0" y="0" width="19" height="20">
        <path fill-rule="evenodd" clip-rule="evenodd" d="M0 .598h18.068v18.83H0V.598z" fill="#fff"/>
    </mask>
    <g mask="url(#a)">
        <path fill-rule="evenodd" clip-rule="evenodd"
              d="M16.087 12.245c-.29 1.159-1.783 2.6-2.968 2.866a21.6 21.6 0 01-4.68.381.11.11 0 00-.082.034l-1.455 1.506-1.548 1.602a.181.181 0 01-.312-.126v-3.286c0-.054-.039-.1-.091-.11l-.001-.001c-1.186-.266-2.677-1.707-2.969-2.866a15.882 15.882 0 010-6.76c.292-1.159 1.783-2.6 2.969-2.866 2.71-.52 5.459-.52 8.169 0 1.186.266 2.677 1.707 2.968 2.866a15.866 15.866 0 010 6.76zm1.577-7.12l-.005-.022c-.436-1.777-2.401-3.683-4.206-4.08l-.02-.004a23.182 23.182 0 00-8.797 0l-.021.004C2.81 1.42.845 3.326.409 5.103l-.005.022a17.501 17.501 0 000 7.479l.005.021c.418 1.701 2.237 3.52 3.974 4.02v1.984c0 .717.868 1.07 1.36.552l1.994-2.089a23.016 23.016 0 005.696-.383l.02-.004c1.805-.396 3.77-2.303 4.206-4.08l.005-.021a17.501 17.501 0 000-7.48z"
              fill="#868E95"/>
    </g>
    <path fill-rule="evenodd" clip-rule="evenodd"
          d="M11.925 14.153c-.185-.056-.362-.094-.526-.161-1.7-.699-3.264-1.6-4.503-2.981-.705-.785-1.256-1.672-1.723-2.61-.22-.446-.407-.909-.597-1.368-.173-.42.082-.852.35-1.168.253-.296.577-.523.928-.69.274-.13.545-.055.745.175.433.498.83 1.02 1.152 1.597.198.355.144.789-.215 1.03-.087.059-.167.128-.248.194a.806.806 0 00-.187.195.53.53 0 00-.036.47c.442 1.205 1.188 2.141 2.412 2.646.195.08.392.174.618.148.378-.044.5-.454.765-.669.258-.21.59-.212.868-.037.279.175.549.362.818.552.263.186.526.368.769.58.234.204.314.472.183.749-.241.507-.592.929-1.098 1.198-.143.076-.314.1-.475.15.161-.05-.185-.056 0 0zM9.406 4.36c2.025.064 3.689 1.564 4.045 3.798.061.38.083.77.11 1.156.011.163-.071.317-.229.32-.162.002-.235-.15-.246-.312-.02-.322-.035-.645-.075-.964-.21-1.684-1.412-3.077-2.914-3.375-.226-.045-.457-.057-.686-.084-.145-.017-.334-.027-.366-.228a.267.267 0 01.244-.31c.039-.003.078 0 .117 0-.04 0 2.025.063 0 0z"
          fill="#868E95"/>
    <path fill-rule="evenodd" clip-rule="evenodd"
          d="M12.055 8.52c-.003.03-.005.099-.02.165-.052.238-.355.268-.425.027a.85.85 0 01-.024-.23c0-.502-.092-1.004-.304-1.441-.218-.45-.552-.828-.943-1.057a2.4 2.4 0 00-.751-.275c-.113-.022-.228-.036-.342-.055-.138-.023-.211-.128-.205-.29.006-.152.1-.261.238-.252.457.03.897.149 1.303.405.824.521 1.295 1.345 1.433 2.444.006.05.016.099.02.149l.02.41c-.008-.163-.003.03 0 0z"
          fill="#868E95"/>
    <path fill-rule="evenodd" clip-rule="evenodd"
          d="M11.135 8.879c-.15.004-.232-.118-.247-.318-.01-.14-.02-.282-.042-.418-.046-.268-.144-.516-.3-.68a.716.716 0 00-.243-.171c-.11-.046-.225-.034-.336-.073-.12-.042-.186-.183-.167-.346.017-.149.117-.265.228-.253.7.073 1.199.597 1.27 1.791.005.084.01.173-.002.254-.022.138-.092.207-.161.214.069-.007-.15.004 0 0z"
          fill="#868E95"/>
</svg>
