<svg width="37" height="37" viewBox="0 0 37 37" fill="none" xmlns="http://www.w3.org/2000/svg">
<g clip-path="url(#clip0)">
<path d="M21.7174 37H1.20655C0.540186 37 0 36.4598 0 35.7935V1.20655C0 0.540186 0.540186 0 1.20655 0H20.5109C21.1772 0 21.7174 0.540186 21.7174 1.20655V37Z" fill="#E7ECFD"/>
<path d="M20.5115 0H10.8594V37H21.7181V1.20655C21.7181 0.540186 21.1779 0 20.5115 0Z" fill="#DAE0F0"/>
<path d="M35.3926 37H21.7188V5.63043H35.7948C36.4611 5.63043 37.0014 6.17062 37.0014 6.83698V35.4418L35.3926 37Z" fill="#B8BDC9"/>
<path d="M6.03467 9.65215C5.3686 9.65215 4.82812 9.11168 4.82812 8.44561V6.83698C4.82812 6.17091 5.3686 5.63043 6.03467 5.63043C6.70074 5.63043 7.24122 6.17091 7.24122 6.83698V8.44568C7.24122 9.11175 6.70074 9.65215 6.03467 9.65215Z" fill="#95D3FC"/>
<path d="M6.03467 16.8912C5.3686 16.8912 4.82812 16.3508 4.82812 15.6847V13.2717C4.82812 12.6056 5.3686 12.0651 6.03467 12.0651C6.70074 12.0651 7.24122 12.6056 7.24122 13.2717V15.6847C7.24122 16.3508 6.70074 16.8912 6.03467 16.8912Z" fill="#95D3FC"/>
<path d="M15.6831 9.65215C15.017 9.65215 14.4766 9.11168 14.4766 8.44561V6.83698C14.4766 6.17091 15.017 5.63043 15.6831 5.63043C16.3492 5.63043 16.8897 6.17091 16.8897 6.83698V8.44568C16.8897 9.11175 16.3493 9.65215 15.6831 9.65215Z" fill="#5AAAE7"/>
<path d="M15.6831 16.8912C15.017 16.8912 14.4766 16.3508 14.4766 15.6847V13.2717C14.4766 12.6056 15.017 12.0651 15.6831 12.0651C16.3492 12.0651 16.8897 12.6056 16.8897 13.2717V15.6847C16.8897 16.3508 16.3493 16.8912 15.6831 16.8912Z" fill="#5AAAE7"/>
<path d="M15.6831 25.1406C15.017 25.1406 14.4766 24.6002 14.4766 23.9341V20.5109C14.4766 19.8448 15.017 19.3043 15.6831 19.3043C16.3492 19.3043 16.8897 19.8448 16.8897 20.5109V23.9341C16.8897 24.6002 16.3493 25.1406 15.6831 25.1406Z" fill="#5AAAE7"/>
<path d="M30.9659 12.8696H25.3355C24.6694 12.8696 24.1289 12.3291 24.1289 11.663C24.1289 10.997 24.6694 10.4565 25.3355 10.4565H30.9659C31.632 10.4565 32.1724 10.997 32.1724 11.663C32.1724 12.3291 31.632 12.8696 30.9659 12.8696Z" fill="#5AAAE7"/>
<path d="M30.9659 17.6957H25.3355C24.6694 17.6957 24.1289 17.1552 24.1289 16.4891C24.1289 15.8231 24.6694 15.2826 25.3355 15.2826H30.9659C31.632 15.2826 32.1724 15.8231 32.1724 16.4891C32.1724 17.1552 31.632 17.6957 30.9659 17.6957Z" fill="#5AAAE7"/>
<path d="M30.9659 22.5217H25.3355C24.6694 22.5217 24.1289 21.9813 24.1289 21.3152C24.1289 20.6491 24.6694 20.1086 25.3355 20.1086H30.9659C31.632 20.1086 32.1724 20.6491 32.1724 21.3152C32.1724 21.9813 31.632 22.5217 30.9659 22.5217Z" fill="#5AAAE7"/>
<path d="M6.03467 24.1304C5.3686 24.1304 4.82812 23.59 4.82812 22.9239V20.5109C4.82812 19.8448 5.3686 19.3043 6.03467 19.3043C6.70074 19.3043 7.24122 19.8448 7.24122 20.5109V22.9239C7.24122 23.59 6.70074 24.1304 6.03467 24.1304Z" fill="#95D3FC"/>
<path d="M6.03467 31.3696C5.3686 31.3696 4.82812 30.8291 4.82812 30.163V27.75C4.82812 27.0839 5.3686 26.5435 6.03467 26.5435C6.70074 26.5435 7.24122 27.0839 7.24122 27.75V30.163C7.24122 30.8291 6.70074 31.3696 6.03467 31.3696Z" fill="#95D3FC"/>
<path d="M10.8589 32.386C10.1928 32.386 9.65234 31.8455 9.65234 31.1794V27.75C9.65234 27.0839 10.1928 26.5435 10.8589 26.5435C11.525 26.5435 12.0654 27.0839 12.0654 27.75V31.1795C12.0654 31.8456 11.525 32.386 10.8589 32.386Z" fill="#95D3FC"/>
<path d="M12.0659 31.1795V27.75C12.0659 27.0839 11.5254 26.5435 10.8594 26.5435V32.386C11.5254 32.386 12.0659 31.8456 12.0659 31.1795Z" fill="#5AAAE7"/>
<path d="M10.8589 25.1469C10.1928 25.1469 9.65234 24.6064 9.65234 23.9404V20.5109C9.65234 19.8448 10.1928 19.3043 10.8589 19.3043C11.525 19.3043 12.0654 19.8448 12.0654 20.5109V23.9404C12.0654 24.6064 11.525 25.1469 10.8589 25.1469Z" fill="#95D3FC"/>
<path d="M12.0659 23.9404V20.5109C12.0659 19.8448 11.5254 19.3043 10.8594 19.3043V25.1469C11.5254 25.1469 12.0659 24.6064 12.0659 23.9404Z" fill="#5AAAE7"/>
<path d="M10.8589 16.8912C10.1928 16.8912 9.65234 16.3508 9.65234 15.6847V13.2717C9.65234 12.6056 10.1928 12.0651 10.8589 12.0651C11.525 12.0651 12.0654 12.6056 12.0654 13.2717V15.6847C12.0654 16.3508 11.525 16.8912 10.8589 16.8912Z" fill="#95D3FC"/>
<path d="M12.0659 15.6847V13.2717C12.0659 12.6056 11.5254 12.0651 10.8594 12.0651V16.8912C11.5254 16.8912 12.0659 16.3508 12.0659 15.6847Z" fill="#5AAAE7"/>
<path d="M10.8589 9.65215C10.1928 9.65215 9.65234 9.11168 9.65234 8.44561V6.83698C9.65234 6.17091 10.1928 5.63043 10.8589 5.63043C11.525 5.63043 12.0654 6.17091 12.0654 6.83698V8.44568C12.0654 9.11175 11.525 9.65215 10.8589 9.65215Z" fill="#95D3FC"/>
<path d="M12.0659 8.44568V6.83698C12.0659 6.17091 11.5254 5.63043 10.8594 5.63043V9.65215C11.5254 9.65215 12.0659 9.11175 12.0659 8.44568Z" fill="#5AAAE7"/>
<path d="M37.0022 34.5789V35.7935C37.0022 36.453 36.5357 37 35.6026 37H9.45333C8.93858 37 8.46401 36.6783 8.30308 36.1635C7.78024 34.5548 8.08592 32.9702 8.96265 31.7476C9.98419 30.356 11.7376 29.5678 13.5072 29.801C14.4483 28.136 16.3868 27.1226 18.3333 27.388C19.1216 26.0206 20.3844 25.2323 21.7196 25.0072C21.9851 24.9589 22.2585 24.9348 22.5239 24.9348C24.1568 24.9348 25.7896 25.7552 26.7146 27.388C28.6612 27.1226 30.5996 28.136 31.5407 29.801C32.6025 29.6563 33.6803 29.8895 34.5892 30.4123C36.1898 31.3454 37.0022 32.9541 37.0022 34.5789Z" fill="#96CA3F"/>
<path d="M37.0013 34.5789V35.7935C37.0013 36.453 36.5348 37 35.6018 37H21.7188V25.0072C21.9842 24.9589 22.2576 24.9348 22.5231 24.9348C24.1559 24.9348 25.7887 25.7552 26.7137 27.388C28.6603 27.1226 30.5987 28.136 31.5399 29.801C32.6016 29.6563 33.6794 29.8895 34.5883 30.4123C36.1889 31.3454 37.0013 32.9541 37.0013 34.5789Z" fill="#86B639"/>
</g>
<defs>
<clipPath id="clip0">
<rect width="37" height="37" fill="white"/>
</clipPath>
</defs>
</svg>
