<svg width="37" height="37" viewBox="0 0 37 37" fill="none" xmlns="http://www.w3.org/2000/svg">
<g clip-path="url(#clip0)">
<path d="M28.6084 14.4327H0V23.0499H28.6084V14.4327Z" fill="#FAB03C"/>
<path d="M26.1675 19.9516V22.1232H25.0508V19.9516C25.0508 19.6434 25.3009 19.3933 25.6091 19.3933C25.9173 19.3933 26.1675 19.6434 26.1675 19.9516Z" fill="#6D6D6D"/>
<path d="M22.187 20.6775V22.1232H21.0703V20.6775C21.0703 20.3693 21.3204 20.1191 21.6286 20.1191C21.9369 20.1191 22.187 20.3693 22.187 20.6775Z" fill="#6D6D6D"/>
<path d="M18.2769 21.1241V22.1232H17.1602V21.1241C17.1602 21.0787 17.1654 21.034 17.1766 20.9924C17.2354 20.7475 17.4557 20.5658 17.7186 20.5658C18.0015 20.5658 18.2352 20.7764 18.2717 21.0497C18.2754 21.0742 18.2769 21.0988 18.2769 21.1241Z" fill="#6D6D6D"/>
<path d="M7.03744 18.8169C7.03072 18.8288 7.0248 18.8467 7.02328 18.8608C7.02696 18.8631 7.03217 18.8653 7.03817 18.8675C10.6183 20.2962 15.2012 21.0823 19.9428 21.0823C22.9876 21.0823 25.9395 20.7637 28.6084 20.1607V23.0499H0V14.4327H28.6084V16.2627C27.8155 16.999 26.4971 17.6288 24.6612 18.1469C21.8836 18.9308 18.2052 19.3626 14.3042 19.3626C11.7604 19.3626 9.2552 19.175 7.0605 18.8199C7.05009 18.8176 7.04265 18.8176 7.03744 18.8169Z" fill="#FD8F3E"/>
<path d="M18.2717 21.0497C18.2754 21.0743 18.2769 21.0989 18.2769 21.1242V22.1232H17.1602V21.1242C17.1602 21.0788 17.1654 21.0341 17.1766 20.9924C17.5399 21.0162 17.9047 21.0356 18.2717 21.0497Z" fill="#565656"/>
<path d="M21.0703 21.0676C21.4448 21.0579 21.817 21.0437 22.187 21.0244V22.1231H21.0703V21.0676Z" fill="#565656"/>
<path d="M26.1675 20.6209V22.1232H25.0508V20.775C25.4267 20.7288 25.7989 20.6775 26.1675 20.6209Z" fill="#565656"/>
<path d="M37 21.4196V26.0785C37 26.8654 36.5809 27.5912 35.9019 27.9896C34.2752 28.944 32.263 29.7503 29.9752 30.3548C28.5615 30.7292 27.0427 31.027 25.4436 31.2355C25.0759 31.2839 24.7036 31.327 24.3269 31.3658C22.9146 31.5102 21.4481 31.5861 19.9428 31.5861H19.8825C19.508 31.5854 19.1358 31.5802 18.7658 31.5697C17.2329 31.5295 15.7447 31.4096 14.3213 31.2191C13.9439 31.1692 13.5716 31.114 13.2046 31.0538C11.6249 30.7954 10.1344 30.4493 8.76011 30.0272C8.37898 29.9103 8.00595 29.7875 7.64339 29.6587C5.92961 29.0535 4.42808 28.3239 3.19891 27.499C2.7969 27.2287 2.42393 26.9488 2.08219 26.6592C1.24991 25.9542 0.603707 25.1948 0.17416 24.3953C0.0588242 24.1802 0 23.9397 0 23.6955V14.4328C0 13.462 1.215 12.5709 3.23988 11.8741C5.86342 10.9718 9.84554 10.3964 14.3042 10.3964C18.7636 10.3964 22.7465 10.9718 25.3692 11.8748C27.3942 12.5709 28.6084 13.462 28.6084 14.4328C28.6084 16.6625 22.2045 18.4693 14.3042 18.4693C11.7201 18.4693 9.29618 18.2765 7.20344 17.9378C6.12025 17.7628 5.68846 19.2912 6.70762 19.6977C10.2684 21.1181 14.8908 21.9758 19.9428 21.9758C23.5907 21.9758 27.0137 21.5284 29.9752 20.7452C31.3979 20.3692 32.7141 19.9151 33.8971 19.3962C35.3599 18.7545 37 19.8228 37 21.4196Z" fill="#F6CB43"/>
<path d="M25.3675 11.8747V13.4783C25.3675 14.6598 24.1399 15.5754 21.7181 16.2008C19.7259 16.7153 17.0928 16.9989 14.3025 16.9989C11.5123 16.9989 8.87905 16.7153 6.8869 16.2008C4.46586 15.5754 3.23828 14.6598 3.23828 13.4783V11.874C5.86181 10.9717 9.84394 10.3962 14.3026 10.3962C18.7619 10.3962 22.7448 10.9717 25.3675 11.8747Z" fill="#FAB03C"/>
<path d="M36.9975 21.4196V26.0785C36.9975 26.8654 36.5783 27.5913 35.8994 27.9896C34.2727 28.944 32.2604 29.7503 29.9727 30.3548V20.7452C31.3953 20.3693 32.7115 19.9151 33.8945 19.3962C35.3574 18.7545 36.9975 19.8228 36.9975 21.4196Z" fill="#FAB03C"/>
<path d="M37.0025 21.4193V26.0781C37.0025 26.8666 36.581 27.5925 35.9008 27.9914C34.4897 28.8188 32.7897 29.5342 30.8711 30.1044V20.4948C31.957 20.1721 32.9729 19.8027 33.906 19.393C35.3659 18.752 37.0025 19.8249 37.0025 21.4193Z" fill="#82807F"/>
<path d="M33.9329 26.0367C34.4826 26.0367 34.9283 25.2151 34.9283 24.2015C34.9283 23.188 34.4826 22.3663 33.9329 22.3663C33.3831 22.3663 32.9375 23.188 32.9375 24.2015C32.9375 25.2151 33.3831 26.0367 33.9329 26.0367Z" fill="#565656"/>
<path d="M6.70781 19.6428C6.63981 19.6428 6.5708 19.6303 6.50374 19.6039C6.38385 19.5569 3.55277 18.4268 2.17763 16.3887C2.00513 16.1331 2.07248 15.786 2.32808 15.6135C2.58361 15.441 2.93078 15.5084 3.1032 15.7641C4.28641 17.5177 6.88602 18.5543 6.91211 18.5646C7.19915 18.6775 7.34035 19.0016 7.22755 19.2885C7.14119 19.5084 6.93061 19.6428 6.70781 19.6428Z" fill="#FD8F3E"/>
<path d="M24.4753 8.04083V13.4784C24.4753 14.0695 23.7204 14.6152 22.4451 15.0529C22.1079 15.1698 21.7342 15.2785 21.3284 15.3782C20.5452 15.5718 19.6437 15.7326 18.6536 15.854C18.2925 15.8979 17.9203 15.9366 17.5369 15.9701C16.6896 16.0431 15.7926 16.0885 14.862 16.1011C14.6774 16.1041 14.4913 16.1056 14.3037 16.1056C14.1161 16.1056 13.9299 16.1041 13.7454 16.1011C12.8148 16.0885 11.9177 16.043 11.0705 15.9701C10.6879 15.9366 10.3149 15.8979 9.95381 15.854C8.9637 15.7326 8.06211 15.5711 7.27897 15.3775C6.87327 15.2785 6.49951 15.1698 6.16225 15.0529C4.8877 14.6144 4.13281 14.0694 4.13281 13.4784V8.04083H24.4753Z" fill="#F6CB43"/>
<path d="M14.3041 10.6684C19.9215 10.6684 24.4753 9.49212 24.4753 8.04111C24.4753 6.5901 19.9215 5.41382 14.3041 5.41382C8.68663 5.41382 4.13281 6.5901 4.13281 8.04111C4.13281 9.49212 8.68663 10.6684 14.3041 10.6684Z" fill="#F8E98E"/>
<path d="M14.3063 9.15619C17.992 9.15619 20.9798 8.71562 20.9798 8.17215C20.9798 7.62868 17.992 7.18811 14.3063 7.18811C10.6206 7.18811 7.63281 7.62868 7.63281 8.17215C7.63281 8.71562 10.6206 9.15619 14.3063 9.15619Z" fill="#FAB03C"/>
<path d="M3.19875 22.0479V27.4989C2.79674 27.2287 2.42378 26.9488 2.08203 26.6592V22.048C2.08203 21.7398 2.33142 21.4897 2.64036 21.4897C2.94857 21.4896 3.19875 21.7397 3.19875 22.0479Z" fill="#82807F"/>
<path d="M8.76125 24.6537V30.0273C8.38012 29.9105 8.00709 29.7876 7.64453 29.6588V24.6538C7.64453 24.3456 7.89392 24.0955 8.20286 24.0955C8.51114 24.0953 8.76125 24.3455 8.76125 24.6537Z" fill="#82807F"/>
<path d="M14.3198 25.9193V31.2192C13.9424 31.1693 13.5702 31.1142 13.2031 31.0539V25.9193C13.2031 25.6111 13.4532 25.361 13.7614 25.361C14.0697 25.361 14.3198 25.6111 14.3198 25.9193Z" fill="#82807F"/>
<path d="M19.8823 26.4366V31.5861C19.5079 31.5853 19.1356 31.5801 18.7656 31.5697V26.4366C18.7656 26.1283 19.0157 25.8782 19.3239 25.8782C19.6322 25.8782 19.8823 26.1283 19.8823 26.4366Z" fill="#82807F"/>
<path d="M25.4409 26.2133V31.2355C25.0732 31.2839 24.7009 31.327 24.3242 31.3658V26.2133C24.3242 25.9051 24.5743 25.655 24.8825 25.655C25.1908 25.655 25.4409 25.9051 25.4409 26.2133Z" fill="#82807F"/>
<path d="M7.28078 12.5233V15.3776C6.87508 15.2786 6.50133 15.1699 6.16406 15.053V12.5232C6.16406 12.215 6.41417 11.9649 6.72239 11.9649C7.03139 11.965 7.28078 12.2151 7.28078 12.5233Z" fill="#82807F"/>
<path d="M11.0738 13.3072V15.9702C10.6911 15.9367 10.3181 15.898 9.95703 15.8541V13.3072C9.95703 12.9983 10.2072 12.7489 10.5154 12.7489C10.8236 12.7488 11.0738 12.9982 11.0738 13.3072Z" fill="#82807F"/>
<path d="M14.8627 13.6139V16.1012C14.6781 16.1041 14.492 16.1056 14.3044 16.1056C14.1168 16.1056 13.9307 16.1041 13.7461 16.1012V13.6139C13.7461 13.3057 13.9962 13.0556 14.3044 13.0556C14.6126 13.0556 14.8627 13.3057 14.8627 13.6139Z" fill="#82807F"/>
<path d="M18.6558 13.6839V15.8541C18.2947 15.898 17.9225 15.9367 17.5391 15.9702V13.6839C17.5391 13.3757 17.7892 13.1256 18.0974 13.1256C18.4056 13.1256 18.6558 13.3757 18.6558 13.6839Z" fill="#82807F"/>
<path d="M22.4488 13.2774V15.053C22.1115 15.1699 21.7378 15.2785 21.332 15.3783V13.2774C21.332 12.9685 21.5821 12.7191 21.8904 12.7191C22.1986 12.719 22.4488 12.9684 22.4488 13.2774Z" fill="#82807F"/>
</g>
<defs>
<clipPath id="clip0">
<rect width="37" height="37" fill="white"/>
</clipPath>
</defs>
</svg>
