<svg width="37" height="37" viewBox="0 0 37 37" fill="none" xmlns="http://www.w3.org/2000/svg">
<path d="M18.4969 0H18.2138L12.1289 12.3334H18.4969L19.2196 6.46777L18.4969 0Z" fill="#FF7037"/>
<path d="M18.4998 12.3336H12.1318L6.04688 24.6669H18.4998L19.2225 18.6809L18.4998 12.3336Z" fill="#FFE377"/>
<path d="M6.04704 24.6664L0 36.923V36.9997H18.5L19.2227 30.4597L18.5 24.6664H6.04704Z" fill="#9DE1F7"/>
<path d="M30.953 24.6664H18.5V36.9997H37V36.923L30.953 24.6664Z" fill="#2FBFEF"/>
<path d="M18.5 24.6669H30.953L24.868 12.3336H18.5V24.6669Z" fill="#FFB555"/>
<path d="M24.868 12.3334L18.7831 0H18.5V12.3334H24.868Z" fill="#FF4C04"/>
<path d="M18.5 25.7504H0V23.5824H18.5L19.2227 24.6664L18.5 25.7504Z" fill="#607882"/>
<path d="M18.5 13.4176H0V11.2496H18.5L19.2227 12.3336L18.5 13.4176Z" fill="#607882"/>
<path d="M18.5 11.2496H37V13.4176H18.5V11.2496Z" fill="#495959"/>
<path d="M18.5 23.5824H37V25.7504H18.5V23.5824Z" fill="#495959"/>
</svg>
