<svg width="37" height="37" viewBox="0 0 37 37" fill="none" xmlns="http://www.w3.org/2000/svg">
<g clip-path="url(#clip0)">
<path d="M5.78349 8.54254H11.1794C11.3946 8.54254 11.5691 8.36809 11.5691 8.15288V3.82923C11.5691 3.61402 11.3946 3.43958 11.1794 3.43958H0.393562C0.178355 3.43958 0.00390625 3.61402 0.00390625 3.82923V8.15288C0.00390625 8.36809 0.178355 8.54254 0.393562 8.54254H5.78349Z" fill="#FFA227"/>
<path d="M23.8943 3.43945H13.1084C12.8932 3.43945 12.7188 3.6139 12.7188 3.82911V8.15276C12.7188 8.36797 12.8932 8.54242 13.1084 8.54242H18.4983H23.8943C24.1095 8.54242 24.284 8.36797 24.284 8.15276V3.82911C24.284 3.6139 24.1095 3.43945 23.8943 3.43945Z" fill="#C7AC91"/>
<path d="M5.2071 14.4073V10.0836C5.2071 9.86842 5.03265 9.69397 4.81744 9.69397H0.389656C0.174449 9.69397 0 9.86842 0 10.0836V14.4073C0 14.6225 0.174449 14.7969 0.389656 14.7969H4.81744C5.03265 14.7969 5.2071 14.6225 5.2071 14.4073Z" fill="#C7AC91"/>
<path d="M17.925 14.4074V10.0837C17.925 9.86854 17.7505 9.69409 17.5353 9.69409H12.1454H12.145H6.74903C6.53382 9.69409 6.35938 9.86854 6.35938 10.0837V14.4074C6.35938 14.6226 6.53382 14.7971 6.74903 14.7971H12.145H12.1454H17.5353C17.7505 14.7971 17.925 14.6226 17.925 14.4074Z" fill="#FFA227"/>
<path d="M30.6399 14.4074V10.0837C30.6399 9.86854 30.4654 9.69409 30.2502 9.69409H24.8599H19.4639C19.2487 9.69409 19.0742 9.86854 19.0742 10.0837V14.4074C19.0742 14.6226 19.2487 14.7971 19.4639 14.7971H24.857H24.8598H30.2502C30.4654 14.7971 30.6399 14.6226 30.6399 14.4074Z" fill="#C7AC91"/>
<path d="M0.00390625 20.6618C0.00390625 20.877 0.178355 21.0515 0.393562 21.0515H5.78357H5.78393H11.1795C11.3947 21.0515 11.5692 20.877 11.5692 20.6618V16.3381C11.5692 16.1229 11.3947 15.9485 11.1795 15.9485H5.78357H0.393635C0.178428 15.9485 0.00397852 16.1229 0.00397852 16.3381L0.00390625 20.6618Z" fill="#FFA227"/>
<path d="M12.7227 20.6618C12.7227 20.877 12.8971 21.0515 13.1123 21.0515H18.5023H18.5027H23.8954C24.1106 21.0515 24.2851 20.877 24.2851 20.6618V16.3381C24.2851 16.1229 24.1106 15.9485 23.8954 15.9485H18.5023H13.1124C12.8972 15.9485 12.7227 16.1229 12.7227 16.3381V20.6618H12.7227Z" fill="#C7AC91"/>
<path d="M37.0003 16.3381C37.0003 16.1229 36.8258 15.9485 36.6106 15.9485H31.2175H25.8272C25.6119 15.9485 25.4375 16.1229 25.4375 16.3381V20.6618C25.4375 20.877 25.6119 21.0515 25.8272 21.0515H31.2175H36.6106C36.8258 21.0515 37.0003 20.877 37.0003 20.6618V16.3381Z" fill="#FFA227"/>
<path d="M5.2071 26.9164V22.5928C5.2071 22.3776 5.03265 22.2031 4.81744 22.2031H0.389656C0.174449 22.2031 0 22.3776 0 22.5928V26.9164C0 27.1316 0.174449 27.3061 0.389656 27.3061H4.81744C5.03265 27.3062 5.2071 27.1316 5.2071 26.9164Z" fill="#C7AC91"/>
<path d="M6.35938 22.5928V26.9164C6.35938 27.1316 6.53382 27.3061 6.74903 27.3061H12.1446H12.145H17.535C17.7502 27.3061 17.9246 27.1316 17.9246 26.9164V22.5928C17.9246 22.3776 17.7502 22.2031 17.535 22.2031H12.145H12.1446H6.7491C6.5339 22.2031 6.35938 22.3776 6.35938 22.5928Z" fill="#FFA227"/>
<path d="M19.0742 22.5928V26.9164C19.0742 27.1316 19.2487 27.3061 19.4639 27.3061H24.8566H24.8594H30.2498C30.465 27.3061 30.6395 27.1316 30.6395 26.9164V22.5928C30.6395 22.3776 30.465 22.2031 30.2498 22.2031H24.8594H24.8566H19.4639C19.2487 22.2031 19.0742 22.3776 19.0742 22.5928Z" fill="#C7AC91"/>
<path d="M0.00390625 28.8472V33.1708C0.00390625 33.386 0.178355 33.5605 0.393562 33.5605H11.1795C11.3947 33.5605 11.5692 33.386 11.5692 33.1708V28.8472C11.5692 28.632 11.3947 28.4575 11.1795 28.4575H5.78393H5.78357H0.393635C0.178355 28.4574 0.00390625 28.6319 0.00390625 28.8472Z" fill="#FFA227"/>
<path d="M12.7227 28.8472V33.1708C12.7227 33.386 12.8971 33.5605 13.1123 33.5605H23.8954C24.1106 33.5605 24.2851 33.386 24.2851 33.1708V28.8472C24.2851 28.632 24.1106 28.4575 23.8954 28.4575H18.5027H18.5023H13.1124C12.8972 28.4574 12.7227 28.6319 12.7227 28.8472Z" fill="#C7AC91"/>
<path d="M25.8272 33.5605H36.6106C36.8258 33.5605 37.0003 33.386 37.0003 33.1708V28.8472C37.0003 28.632 36.8258 28.4575 36.6106 28.4575H31.2175H25.8272C25.6119 28.4575 25.4375 28.632 25.4375 28.8472V33.1708C25.4375 33.386 25.6119 33.5605 25.8272 33.5605Z" fill="#FFA227"/>
<path d="M24.2709 20.747V16.253C24.2319 16.0789 24.0771 15.9485 23.8912 15.9485H22.0703V21.0515H23.8912C24.0771 21.0515 24.2319 20.9211 24.2709 20.747Z" fill="#AF9177"/>
<path d="M23.8929 3.43945H22.082V8.54249H23.8929C24.1081 8.54249 24.2826 8.36804 24.2826 8.15283V3.82918C24.2826 3.6139 24.1081 3.43945 23.8929 3.43945Z" fill="#AF9177"/>
<path d="M11.178 3.43945H9.36719V8.54249H11.178C11.3932 8.54249 11.5677 8.36804 11.5677 8.15283V3.82918C11.5677 3.6139 11.3932 3.43945 11.178 3.43945Z" fill="#F78B0B"/>
<path d="M11.178 28.4574H9.36719V33.5604H11.178C11.3932 33.5604 11.5677 33.386 11.5677 33.1708V28.8471C11.5677 28.6318 11.3932 28.4574 11.178 28.4574Z" fill="#F78B0B"/>
<path d="M17.5335 9.69397H15.7227V14.797H17.5335C17.7487 14.797 17.9231 14.6226 17.9231 14.4074V10.0837C17.9231 9.86842 17.7487 9.69397 17.5335 9.69397Z" fill="#F78B0B"/>
<path d="M17.5335 22.2029H15.7227V27.3059H17.5335C17.7487 27.3059 17.9231 27.1315 17.9231 26.9163V22.5926C17.9231 22.3774 17.7487 22.2029 17.5335 22.2029Z" fill="#F78B0B"/>
<path d="M11.178 15.9485H9.36719V21.0515H11.178C11.3932 21.0515 11.5677 20.8771 11.5677 20.6619V16.3382C11.5677 16.1229 11.3932 15.9485 11.178 15.9485Z" fill="#F78B0B"/>
<path d="M36.6078 15.9485H34.7969V21.0515H36.6078C36.823 21.0515 36.9974 20.8771 36.9974 20.6619V16.3382C36.9974 16.1229 36.823 15.9485 36.6078 15.9485Z" fill="#F78B0B"/>
<path d="M36.6078 28.4574H34.7969V33.5604H36.6078C36.823 33.5604 36.9974 33.386 36.9974 33.1708V28.8471C36.9974 28.6318 36.823 28.4574 36.6078 28.4574Z" fill="#F78B0B"/>
<path d="M30.2523 9.69397H28.4414V14.797H30.2523C30.4675 14.797 30.642 14.6226 30.642 14.4074V10.0837C30.642 9.86842 30.4675 9.69397 30.2523 9.69397Z" fill="#AF9177"/>
<path d="M30.2523 22.2029H28.4414V27.3059H30.2523C30.4675 27.3059 30.642 27.1315 30.642 26.9163V22.5926C30.642 22.3774 30.4675 22.2029 30.2523 22.2029Z" fill="#AF9177"/>
<path d="M4.81865 22.2029H3.00781V27.3059H4.81865C5.03385 27.3059 5.2083 27.1315 5.2083 26.9163V22.5926C5.2083 22.3774 5.03385 22.2029 4.81865 22.2029Z" fill="#AF9177"/>
<path d="M4.81865 9.69397H3.00781V14.797H4.81865C5.03385 14.797 5.2083 14.6226 5.2083 14.4074V10.0837C5.2083 9.86842 5.03385 9.69397 4.81865 9.69397Z" fill="#AF9177"/>
<path d="M23.8929 28.4574H22.082V33.5604H23.8929C24.1081 33.5604 24.2826 33.386 24.2826 33.1708V28.8471C24.2827 28.6318 24.1081 28.4574 23.8929 28.4574Z" fill="#AF9177"/>
</g>
<defs>
<clipPath id="clip0">
<rect width="37" height="37" fill="white"/>
</clipPath>
</defs>
</svg>
