<svg width="37" height="37" viewBox="0 0 37 37" fill="none" xmlns="http://www.w3.org/2000/svg">
<g clip-path="url(#clip0)">
<path d="M29.8304 35.4579H19.0352V7.3855H30.8424V30.8433L29.8304 32.3855V35.4579Z" fill="#EB8D00"/>
<path d="M20.9011 3.08655H19.0343L17.4922 15.4157L19.0346 35.0932L20.9011 34.8312V3.08655Z" fill="#FDAE02"/>
<path d="M4.2916 0V3.08653H2.53125V34.8312L12.483 36.0126L19.0375 35.0931V0H4.2916Z" fill="#FDCB02"/>
<path d="M7.92578 7.40979H10.0943V10.4941H7.92578V7.40979Z" fill="#F3FFFB"/>
<path d="M13.3242 7.40979H15.4928V10.4941H13.3242V7.40979Z" fill="#F3FFFB"/>
<path d="M7.92578 13.5784H10.0943V16.6626H7.92578V13.5784Z" fill="#F3FFFB"/>
<path d="M13.3242 13.5784H15.4928V16.6626H13.3242V13.5784Z" fill="#F3FFFB"/>
<path d="M7.92578 19.7472H10.0943V22.8315H7.92578V19.7472Z" fill="#F3FFFB"/>
<path d="M13.3242 19.7472H15.4928V22.8315H13.3242V19.7472Z" fill="#F3FFFB"/>
<path d="M7.92578 25.9157H10.0943V29H7.92578V25.9157Z" fill="#F3FFFB"/>
<path d="M13.3242 25.9157H15.4928V29H13.3242V25.9157Z" fill="#F3FFFB"/>
<path d="M23.6875 13.5783H25.856V16.6626H23.6875V13.5783Z" fill="#FFD27B"/>
<path d="M23.6875 19.7471H25.856V22.8314H23.6875V19.7471Z" fill="#FFD27B"/>
<path d="M28.6797 30.4698H30.8485V35.8675H28.6797V30.4698Z" fill="#8F4D24"/>
<path d="M29.7663 33.0483C27.1555 33.0483 25.0312 30.9241 25.0312 28.3132C25.0312 25.7023 27.1555 23.5784 29.7663 23.5784C32.3772 23.5784 34.5012 25.7023 34.5012 28.3132C34.5012 30.9241 32.3772 33.0483 29.7663 33.0483Z" fill="#A8D32A"/>
<path d="M34.4585 34.8312H19.0366L18.2656 36.2409L19.0366 37H34.4585V34.8312Z" fill="#8D9CA8"/>
<path d="M2.53125 34.8312H19.0372V37H2.53125V34.8312Z" fill="#AAB8C7"/>
</g>
<defs>
<clipPath id="clip0">
<rect width="37" height="37" fill="white"/>
</clipPath>
</defs>
</svg>
