<svg width="37" height="37" viewBox="0 0 37 37" fill="none" xmlns="http://www.w3.org/2000/svg">
<g clip-path="url(#clip0)">
<path d="M5.85143 5.4295C5.55164 5.4295 5.30859 5.18645 5.30859 4.88666V1.43202C5.30859 1.13223 5.55164 0.889465 5.85143 0.889465C6.15094 0.889465 6.39399 1.13223 6.39399 1.43202V4.88666C6.39399 5.18645 6.15094 5.4295 5.85143 5.4295Z" fill="#C9F0FF"/>
<path d="M8.17139 3.56134H2.87511C2.66989 3.56134 2.50391 3.72761 2.50391 3.93255V8.04689H8.5426V3.93255C8.5426 3.72761 8.37662 3.56134 8.17139 3.56134Z" fill="#FFAA00"/>
<path d="M8.54035 3.93255V8.04689H7.23449V3.93255C7.23449 3.72761 7.06822 3.56134 6.86328 3.56134H8.16914C8.37408 3.56134 8.54035 3.72761 8.54035 3.93255Z" fill="#FF9500"/>
<path d="M9.51963 7.0188H1.52355C1.31861 7.0188 1.15234 7.18507 1.15234 7.39001V11.2636H9.89084V7.39001C9.89084 7.18507 9.72457 7.0188 9.51963 7.0188Z" fill="#FFCD6B"/>
<path d="M9.8913 7.3897V11.2635H8.58996V7.3897C8.58996 7.18476 8.42369 7.01849 8.21875 7.01849H9.5201C9.72504 7.01849 9.8913 7.18476 9.8913 7.3897Z" fill="#FFC143"/>
<path d="M25.44 0.120246C25.2934 -0.0395289 25.0411 -0.0400936 24.894 0.119117L21.1328 4.18886V5.28385H29.171V4.18886L25.44 0.120246Z" fill="#EA4444"/>
<path d="M11.0442 36.9441H0V10.8351C0 10.6301 0.166267 10.4639 0.371208 10.4639H10.673C10.8782 10.4639 11.0442 10.6301 11.0442 10.8351V36.9441Z" fill="#FFAA00"/>
<path d="M6.01794 12.2919H2.84193C2.54298 12.2919 2.30078 12.5341 2.30078 12.8331C2.30078 13.132 2.54298 13.3742 2.84193 13.3742H6.01794C6.31689 13.3742 6.55909 13.132 6.55909 12.8331C6.55909 12.5341 6.31689 12.2919 6.01794 12.2919Z" fill="#FFCD6B"/>
<path d="M6.01794 15.0355H2.84193C2.54298 15.0355 2.30078 15.2777 2.30078 15.5766C2.30078 15.8755 2.54298 16.1178 2.84193 16.1178H6.01794C6.31689 16.1178 6.55909 15.8755 6.55909 15.5766C6.55909 15.2777 6.31689 15.0355 6.01794 15.0355Z" fill="#FFCD6B"/>
<path d="M6.01794 17.7791H2.84193C2.54298 17.7791 2.30078 18.0213 2.30078 18.3202C2.30078 18.6191 2.54298 18.8613 2.84193 18.8613H6.01794C6.31689 18.8613 6.55909 18.6191 6.55909 18.3202C6.55909 18.0213 6.31689 17.7791 6.01794 17.7791Z" fill="#FFCD6B"/>
<path d="M6.01794 20.6849H2.84193C2.54298 20.6849 2.30078 20.9271 2.30078 21.2261C2.30078 21.525 2.54298 21.7672 2.84193 21.7672H6.01794C6.31689 21.7672 6.55909 21.525 6.55909 21.2261C6.55909 20.9271 6.31689 20.6849 6.01794 20.6849Z" fill="#FFCD6B"/>
<path d="M6.01794 23.4285H2.84193C2.54298 23.4285 2.30078 23.671 2.30078 23.9699C2.30078 24.2688 2.54298 24.511 2.84193 24.511H6.01794C6.31689 24.511 6.55909 24.2688 6.55909 23.9699C6.55909 23.671 6.31689 23.4285 6.01794 23.4285Z" fill="#FFCD6B"/>
<path d="M6.01794 26.172H2.84193C2.54298 26.172 2.30078 26.4142 2.30078 26.7131C2.30078 27.0121 2.54298 27.2543 2.84193 27.2543H6.01794C6.31689 27.2543 6.55909 27.0121 6.55909 26.7131C6.55909 26.4145 6.31689 26.172 6.01794 26.172Z" fill="#FFCD6B"/>
<path d="M6.01794 28.8343H2.84193C2.54298 28.8343 2.30078 29.0765 2.30078 29.3754C2.30078 29.6744 2.54298 29.9166 2.84193 29.9166H6.01794C6.31689 29.9166 6.55909 29.6744 6.55909 29.3754C6.55909 29.0765 6.31689 28.8343 6.01794 28.8343Z" fill="#FFCD6B"/>
<path d="M11.0455 10.8351V36.9439H9.37121V10.8351C9.37121 10.6301 9.20494 10.4639 9 10.4639H10.6742C10.8789 10.4639 11.0455 10.6301 11.0455 10.8351Z" fill="#FF9500"/>
<path d="M37 36.9441H29.1719V6.17926H36.4061C36.7341 6.17926 37 6.44518 37 6.77319V36.9441Z" fill="#C9F0FF"/>
<path d="M37.0014 36.9441H35.3672V6.17926H36.4074C36.7354 6.17926 37.0014 6.44518 37.0014 6.77319V36.9441Z" fill="#9AE7FD"/>
<path d="M30.2798 17.5202V36.9438H28.5821V17.5202C28.5821 17.3155 28.4159 17.149 28.2109 17.149H29.9086C30.1138 17.149 30.2798 17.3155 30.2798 17.5202Z" fill="#D93131"/>
<path d="M29.2026 18.3382H21.1328V4.18884H29.2026V18.3382Z" fill="#FAB2B2"/>
<path d="M29.2024 18.3382H27.6055V4.18884H29.2024V18.3382Z" fill="#F89696"/>
<path d="M29.173 4.18859L27.6071 4.18888L24.4297 0.62443L24.896 0.1197C25.0431 -0.0400752 25.2955 -0.0400752 25.4423 0.120264L29.173 4.18859Z" fill="#D93131"/>
<path d="M34.2525 8.95786H32.6934C32.386 8.95786 32.1367 8.7086 32.1367 8.40119C32.1367 8.0935 32.386 7.84424 32.6934 7.84424H34.2525C34.5602 7.84424 34.8094 8.0935 34.8094 8.40119C34.8094 8.7086 34.5602 8.95786 34.2525 8.95786Z" fill="#0573CF"/>
<path d="M34.2525 12.5152H32.6934C32.386 12.5152 32.1367 12.266 32.1367 11.9583C32.1367 11.6509 32.386 11.4016 32.6934 11.4016H34.2525C34.5602 11.4016 34.8094 11.6509 34.8094 11.9583C34.8094 12.266 34.5602 12.5152 34.2525 12.5152Z" fill="#0573CF"/>
<path d="M34.2525 16.0723H32.6934C32.386 16.0723 32.1367 15.823 32.1367 15.5154C32.1367 15.2079 32.386 14.9587 32.6934 14.9587H34.2525C34.5602 14.9587 34.8094 15.2079 34.8094 15.5154C34.8094 15.823 34.5602 16.0723 34.2525 16.0723Z" fill="#0573CF"/>
<path d="M34.2525 19.6294H32.6934C32.386 19.6294 32.1367 19.3802 32.1367 19.0725C32.1367 18.7651 32.386 18.5158 32.6934 18.5158H34.2525C34.5602 18.5158 34.8094 18.7651 34.8094 19.0725C34.8094 19.3802 34.5602 19.6294 34.2525 19.6294Z" fill="#0573CF"/>
<path d="M34.2525 23.1866H32.6934C32.386 23.1866 32.1367 22.9373 32.1367 22.6299C32.1367 22.3222 32.386 22.0729 32.6934 22.0729H34.2525C34.5602 22.0729 34.8094 22.3222 34.8094 22.6299C34.8094 22.9373 34.5602 23.1866 34.2525 23.1866Z" fill="#0573CF"/>
<path d="M34.2525 26.7436H32.6934C32.386 26.7436 32.1367 26.4944 32.1367 26.187C32.1367 25.8793 32.386 25.63 32.6934 25.63H34.2525C34.5602 25.63 34.8094 25.8793 34.8094 26.187C34.8094 26.4944 34.5602 26.7436 34.2525 26.7436Z" fill="#0573CF"/>
<path d="M34.2525 30.301H32.6934C32.386 30.301 32.1367 30.0517 32.1367 29.744C32.1367 29.4366 32.386 29.1874 32.6934 29.1874H34.2525C34.5602 29.1874 34.8094 29.4366 34.8094 29.744C34.8094 30.0517 34.5602 30.301 34.2525 30.301Z" fill="#0573CF"/>
<path d="M5.02344 36.9438V20.9003C5.02344 20.5878 5.30629 20.3513 5.61398 20.4069L16.6528 22.3962C16.8917 22.4391 17.0653 22.6468 17.0653 22.8896V36.9438H5.02344Z" fill="#0573CF"/>
<path d="M17.0668 22.8901V36.9441H15.8439V22.5491C15.8439 22.4294 15.8016 22.3182 15.7305 22.2313L16.6541 22.3964C16.8929 22.4396 17.0668 22.6474 17.0668 22.8901Z" fill="#005AAF"/>
<path d="M13.9136 36.9441H8.17578V31.2681C8.17578 29.7599 9.39837 28.5373 10.9066 28.5373H11.1827C12.691 28.5373 13.9136 29.7599 13.9136 31.2681V36.9441Z" fill="#C9F0FF"/>
<path d="M13.9136 31.2684V36.9438H12.7999V31.2684C12.7999 29.9024 11.797 28.771 10.4883 28.5692C10.6249 28.5483 10.7644 28.5373 10.9069 28.5373H11.1833C12.691 28.5373 13.9136 29.7599 13.9136 31.2684Z" fill="#9AE7FD"/>
<path d="M16.6802 4.51633C17.3083 4.51633 17.8178 4.00708 17.8178 3.37871C17.8178 2.75062 17.3083 2.24109 16.6802 2.24109C16.6048 2.24109 16.5314 2.24899 16.46 2.26283C16.4405 1.05548 15.4562 0.0821533 14.2438 0.0821533C13.0195 0.0821533 12.0267 1.07496 12.0267 2.29952C12.0267 2.43813 12.0402 2.57362 12.0645 2.70545C11.8573 2.42429 11.5251 2.24137 11.1493 2.24137C10.521 2.24137 10.0117 2.75062 10.0117 3.37899C10.0117 4.00708 10.521 4.51661 11.1493 4.51661H16.6802V4.51633Z" fill="#83AFE4"/>
<path d="M17.8173 3.37897C17.8173 3.89499 17.4738 4.33056 17.0024 4.46944C17.0165 4.39718 17.0235 4.3235 17.0235 4.24728C17.0235 3.76175 16.704 3.31828 16.2427 3.16612C16.0011 3.08624 15.8052 3.16725 15.6581 2.93069C15.5528 2.76076 15.5802 2.52279 15.5062 2.3393C15.3964 2.06605 15.2313 1.81594 15.0241 1.60677C14.6103 1.18898 14.0378 0.950165 13.4498 0.950165C13.0156 0.950165 12.6108 1.07494 12.2695 1.29089C12.6354 0.573311 13.3823 0.0818481 14.2433 0.0818481C15.4554 0.0818481 16.4403 1.05518 16.4592 2.26308C16.5307 2.24869 16.6046 2.24078 16.68 2.24078C17.3078 2.24078 17.8173 2.75031 17.8173 3.37897Z" fill="#5290D9"/>
<path d="M13.9292 15.8869C13.4852 15.8869 13.125 15.5267 13.125 15.0826C13.125 14.6383 13.4852 14.2784 13.9292 14.2784C13.9826 14.2784 14.0345 14.2838 14.0848 14.2936C14.0986 13.44 14.7947 12.7521 15.6515 12.7521C16.5173 12.7521 17.219 13.4538 17.219 14.3193C17.219 14.4176 17.2094 14.5133 17.1922 14.6064C17.3387 14.4077 17.5736 14.2784 17.8392 14.2784C18.2835 14.2784 18.6434 14.6383 18.6434 15.0826C18.6434 15.5267 18.2835 15.8869 17.8392 15.8869H13.9292Z" fill="#83AFE4"/>
<path d="M18.6387 14.9931C18.672 15.2988 18.5261 15.6003 18.2664 15.7646C18.3305 15.7239 18.193 15.4738 18.1653 15.4365C18.0939 15.3403 17.9934 15.2663 17.8856 15.2158C17.7114 15.1345 17.5381 15.1526 17.3532 15.1901C17.2431 15.2127 17.1319 15.231 17.019 15.222C16.8406 15.2076 16.6582 15.1286 16.5614 14.9778C16.3663 14.6735 16.5495 14.2622 16.3415 13.9568C16.1628 13.6945 15.8119 13.5286 15.5076 13.4825C14.9653 13.4004 14.4648 13.5972 14.1289 13.9506C14.3115 13.1892 15.0509 12.645 15.8924 12.77C16.6842 12.888 17.2448 13.5732 17.218 14.3732C17.2151 14.4528 17.2064 14.5307 17.1923 14.6066C17.3591 14.3808 17.64 14.2444 17.9499 14.2862C18.3107 14.3345 18.5992 14.6312 18.6387 14.9931Z" fill="#5290D9"/>
<path d="M30.2797 36.9441H20.0586V17.5204C20.0586 17.3155 20.2246 17.1492 20.4298 17.1492H29.9087C30.1137 17.1492 30.2799 17.3155 30.2799 17.5204V36.9441H30.2797Z" fill="#EA4444"/>
<path d="M27.2166 36.9441H23.4727V32.86C23.4727 32.6548 23.6389 32.4888 23.8439 32.4888H26.8454C27.0507 32.4888 27.2166 32.6548 27.2166 32.86V36.9441Z" fill="#ECECF1"/>
<path d="M27.215 32.86V36.9438H25.8832V32.86C25.8832 32.655 25.7169 32.4888 25.5117 32.4888H26.8438C27.0488 32.4888 27.215 32.655 27.215 32.86Z" fill="#D3D3D8"/>
<path d="M27.1583 8.57672C26.8594 8.57672 26.6172 8.33452 26.6172 8.03558V7.11955C26.6172 6.82061 26.8594 6.57812 27.1583 6.57812C27.4573 6.57812 27.6995 6.82061 27.6995 7.11955V8.03558C27.6995 8.33452 27.457 8.57672 27.1583 8.57672Z" fill="#EA4444"/>
<path d="M27.1583 11.6664C26.8594 11.6664 26.6172 11.4242 26.6172 11.1252V10.2089C26.6172 9.90999 26.8594 9.66779 27.1583 9.66779C27.4573 9.66779 27.6995 9.90999 27.6995 10.2089V11.1252C27.6995 11.4242 27.457 11.6664 27.1583 11.6664Z" fill="#EA4444"/>
<path d="M27.1583 14.7558C26.8594 14.7558 26.6172 14.5136 26.6172 14.2146V13.2986C26.6172 12.9996 26.8594 12.7574 27.1583 12.7574C27.4573 12.7574 27.6995 12.9996 27.6995 13.2986V14.2146C27.6995 14.5136 27.457 14.7558 27.1583 14.7558Z" fill="#EA4444"/>
<path d="M24.9826 8.57672C24.6836 8.57672 24.4414 8.33452 24.4414 8.03558V7.11955C24.4414 6.82061 24.6836 6.57812 24.9826 6.57812C25.2815 6.57812 25.5237 6.82061 25.5237 7.11955V8.03558C25.5237 8.33452 25.2815 8.57672 24.9826 8.57672Z" fill="#EA4444"/>
<path d="M24.9826 11.6664C24.6836 11.6664 24.4414 11.4242 24.4414 11.1252V10.2089C24.4414 9.90999 24.6836 9.66779 24.9826 9.66779C25.2815 9.66779 25.5237 9.90999 25.5237 10.2089V11.1252C25.5237 11.4242 25.2815 11.6664 24.9826 11.6664Z" fill="#EA4444"/>
<path d="M24.9826 14.7558C24.6836 14.7558 24.4414 14.5136 24.4414 14.2146V13.2986C24.4414 12.9996 24.6836 12.7574 24.9826 12.7574C25.2815 12.7574 25.5237 12.9996 25.5237 13.2986V14.2146C25.5237 14.5136 25.2815 14.7558 24.9826 14.7558Z" fill="#EA4444"/>
<path d="M22.8029 8.57672C22.5039 8.57672 22.2617 8.33452 22.2617 8.03558V7.11955C22.2617 6.82061 22.5039 6.57812 22.8029 6.57812C23.1018 6.57812 23.344 6.82061 23.344 7.11955V8.03558C23.344 8.33452 23.1018 8.57672 22.8029 8.57672Z" fill="#EA4444"/>
<path d="M22.8029 11.6664C22.5039 11.6664 22.2617 11.4242 22.2617 11.1252V10.2089C22.2617 9.90999 22.5039 9.66779 22.8029 9.66779C23.1018 9.66779 23.344 9.90999 23.344 10.2089V11.1252C23.344 11.4242 23.1018 11.6664 22.8029 11.6664Z" fill="#EA4444"/>
<path d="M22.8029 14.7558C22.5039 14.7558 22.2617 14.5136 22.2617 14.2146V13.2986C22.2617 12.9996 22.5039 12.7574 22.8029 12.7574C23.1018 12.7574 23.344 12.9996 23.344 13.2986V14.2146C23.344 14.5136 23.1018 14.7558 22.8029 14.7558Z" fill="#EA4444"/>
<path d="M27.1427 20.7504C26.8438 20.7504 26.6016 20.5082 26.6016 20.2093V18.996C26.6016 18.697 26.8438 18.4548 27.1427 18.4548C27.4417 18.4548 27.6839 18.697 27.6839 18.996V20.2093C27.6839 20.5082 27.4417 20.7504 27.1427 20.7504Z" fill="#FAB2B2"/>
<path d="M27.1427 24.1347C26.8438 24.1347 26.6016 23.8925 26.6016 23.5936V22.3803C26.6016 22.0817 26.8438 21.8392 27.1427 21.8392C27.4417 21.8392 27.6839 22.0814 27.6839 22.3803V23.5936C27.6839 23.8925 27.4417 24.1347 27.1427 24.1347Z" fill="#FAB2B2"/>
<path d="M27.1427 27.4494C26.8438 27.4494 26.6016 27.2072 26.6016 26.9082V25.695C26.6016 25.3963 26.8438 25.1538 27.1427 25.1538C27.4417 25.1538 27.6839 25.396 27.6839 25.695V26.9082C27.6839 27.2072 27.4417 27.4494 27.1427 27.4494Z" fill="#FAB2B2"/>
<path d="M27.1427 30.8159C26.8438 30.8159 26.6016 30.5737 26.6016 30.2748V29.0615C26.6016 28.7626 26.8438 28.5204 27.1427 28.5204C27.4417 28.5204 27.6839 28.7626 27.6839 29.0615V30.2748C27.6839 30.5737 27.4417 30.8159 27.1427 30.8159Z" fill="#FAB2B2"/>
<path d="M24.9669 20.7504C24.668 20.7504 24.4258 20.5082 24.4258 20.2093V18.996C24.4258 18.697 24.668 18.4548 24.9669 18.4548C25.2656 18.4548 25.5081 18.697 25.5081 18.996V20.2093C25.5081 20.5082 25.2659 20.7504 24.9669 20.7504Z" fill="#FAB2B2"/>
<path d="M24.9669 24.1347C24.668 24.1347 24.4258 23.8925 24.4258 23.5936V22.3803C24.4258 22.0817 24.668 21.8392 24.9669 21.8392C25.2656 21.8392 25.5081 22.0814 25.5081 22.3803V23.5936C25.5081 23.8925 25.2659 24.1347 24.9669 24.1347Z" fill="#FAB2B2"/>
<path d="M24.9669 27.4494C24.668 27.4494 24.4258 27.2072 24.4258 26.9082V25.695C24.4258 25.3963 24.668 25.1538 24.9669 25.1538C25.2656 25.1538 25.5081 25.396 25.5081 25.695V26.9082C25.5081 27.2072 25.2659 27.4494 24.9669 27.4494Z" fill="#FAB2B2"/>
<path d="M24.9669 30.8159C24.668 30.8159 24.4258 30.5737 24.4258 30.2748V29.0615C24.4258 28.7626 24.668 28.5204 24.9669 28.5204C25.2656 28.5204 25.5081 28.7626 25.5081 29.0615V30.2748C25.5081 30.5737 25.2659 30.8159 24.9669 30.8159Z" fill="#FAB2B2"/>
<path d="M22.8146 20.7504C22.5156 20.7504 22.2734 20.5082 22.2734 20.2093V18.996C22.2734 18.697 22.5156 18.4548 22.8146 18.4548C23.1135 18.4548 23.3557 18.697 23.3557 18.996V20.2093C23.3557 20.5082 23.1135 20.7504 22.8146 20.7504Z" fill="#FAB2B2"/>
<path d="M22.8146 24.1347C22.5156 24.1347 22.2734 23.8925 22.2734 23.5936V22.3803C22.2734 22.0817 22.5156 21.8392 22.8146 21.8392C23.1135 21.8392 23.3557 22.0814 23.3557 22.3803V23.5936C23.3557 23.8925 23.1135 24.1347 22.8146 24.1347Z" fill="#FAB2B2"/>
<path d="M22.8146 27.4494C22.5156 27.4494 22.2734 27.2072 22.2734 26.9082V25.695C22.2734 25.3963 22.5156 25.1538 22.8146 25.1538C23.1135 25.1538 23.3557 25.396 23.3557 25.695V26.9082C23.3557 27.2072 23.1135 27.4494 22.8146 27.4494Z" fill="#FAB2B2"/>
<path d="M22.8146 30.8159C22.5156 30.8159 22.2734 30.5737 22.2734 30.2748V29.0615C22.2734 28.7626 22.5156 28.5204 22.8146 28.5204C23.1135 28.5204 23.3557 28.7626 23.3557 29.0615V30.2748C23.3557 30.5737 23.1135 30.8159 22.8146 30.8159Z" fill="#FAB2B2"/>
<path d="M8.72083 24.4749C8.42189 24.4749 8.17969 24.2327 8.17969 23.9337V23.1707C8.17969 22.8718 8.42189 22.6296 8.72083 22.6296C9.01978 22.6296 9.26198 22.8718 9.26198 23.1707V23.9337C9.26198 24.2327 9.01978 24.4749 8.72083 24.4749Z" fill="#C9F0FF"/>
<path d="M11.2524 24.4749C10.9534 24.4749 10.7109 24.2327 10.7109 23.9337V23.1707C10.7109 22.8718 10.9534 22.6296 11.2524 22.6296C11.551 22.6296 11.7935 22.8718 11.7935 23.1707V23.9337C11.7935 24.2327 11.551 24.4749 11.2524 24.4749Z" fill="#C9F0FF"/>
<path d="M13.7872 24.4749C13.4883 24.4749 13.2461 24.2327 13.2461 23.9337V23.1707C13.2461 22.8718 13.4883 22.6296 13.7872 22.6296C14.0862 22.6296 14.3284 22.8718 14.3284 23.1707V23.9337C14.3284 24.2327 14.0862 24.4749 13.7872 24.4749Z" fill="#C9F0FF"/>
<path d="M8.72083 27.3968C8.42189 27.3968 8.17969 27.1546 8.17969 26.8557V26.0927C8.17969 25.794 8.42189 25.5515 8.72083 25.5515C9.01978 25.5515 9.26198 25.7937 9.26198 26.0927V26.8557C9.26198 27.1546 9.01978 27.3968 8.72083 27.3968Z" fill="#C9F0FF"/>
<path d="M11.2524 27.3968C10.9534 27.3968 10.7109 27.1546 10.7109 26.8557V26.0927C10.7109 25.794 10.9534 25.5515 11.2524 25.5515C11.551 25.5515 11.7935 25.7937 11.7935 26.0927V26.8557C11.7935 27.1546 11.551 27.3968 11.2524 27.3968Z" fill="#C9F0FF"/>
<path d="M13.7872 27.3968C13.4883 27.3968 13.2461 27.1546 13.2461 26.8557V26.0927C13.2461 25.794 13.4883 25.5515 13.7872 25.5515C14.0862 25.5515 14.3284 25.7937 14.3284 26.0927V26.8557C14.3284 27.1546 14.0862 27.3968 13.7872 27.3968Z" fill="#C9F0FF"/>
<path d="M8.934 12.2919H8.11536C7.8167 12.2919 7.57422 12.5341 7.57422 12.8331C7.57422 13.132 7.8167 13.3742 8.11536 13.3742H8.934C9.23294 13.3742 9.47514 13.132 9.47514 12.8331C9.47514 12.5341 9.23294 12.2919 8.934 12.2919Z" fill="#FFCD6B"/>
<path d="M8.934 15.0355H8.11536C7.8167 15.0355 7.57422 15.2777 7.57422 15.5766C7.57422 15.8755 7.8167 16.1178 8.11536 16.1178H8.934C9.23294 16.1178 9.47514 15.8755 9.47514 15.5766C9.47514 15.2777 9.23294 15.0355 8.934 15.0355Z" fill="#FFCD6B"/>
<path d="M8.934 17.7791H8.11536C7.8167 17.7791 7.57422 18.0213 7.57422 18.3202C7.57422 18.6191 7.8167 18.8613 8.11536 18.8613H8.934C9.23294 18.8613 9.47514 18.6191 9.47514 18.3202C9.47514 18.0213 9.23294 17.7791 8.934 17.7791Z" fill="#FFCD6B"/>
</g>
<defs>
<clipPath id="clip0">
<rect width="37" height="37" fill="white"/>
</clipPath>
</defs>
</svg>
