<svg width="37" height="37" viewBox="0 0 37 37" fill="none" xmlns="http://www.w3.org/2000/svg">
<path d="M35.8438 28.9048C36.1617 28.9048 36.4219 29.1649 36.4219 29.4829V31.2184C36.4219 31.5364 36.1617 31.7966 35.8438 31.7966H1.15625C0.838281 31.7966 0.578125 31.5364 0.578125 31.2184V29.4829C0.578125 29.1649 0.838281 28.9048 1.15625 28.9048H35.8438Z" fill="#E6E9ED"/>
<path d="M0.578125 24.2812H36.4219V30.0625H0.578125V24.2812Z" fill="#CCD1D9"/>
<path d="M34.6875 18.5C35.6472 18.5 36.4219 19.2816 36.4219 20.2402V24.2812H0.578125V20.2402C0.578125 19.2816 1.35281 18.5058 2.3125 18.5058V18.5H34.6875Z" fill="#4A89DC"/>
<path d="M27.75 18.5V18.5058V21.39L27.1719 21.9745H9.82812L9.25 21.39V18.5058V18.5C9.25578 17.8641 9.76453 17.3495 10.4062 17.3495H12.7188C13.9964 17.3495 15.0312 16.3153 15.0312 15.037V8.67188C15.0312 6.75886 16.5864 5.20312 18.5 5.20312C20.4136 5.20312 21.9688 6.75886 21.9688 8.67188V15.037C21.9688 16.3153 23.0036 17.3495 24.2812 17.3495H26.5938C27.2355 17.3495 27.7442 17.8641 27.75 18.5ZM19.6562 8.67188C19.6562 8.03594 19.1359 7.51563 18.5 7.51563C17.8641 7.51563 17.3438 8.03594 17.3438 8.67188C17.3438 9.31417 17.8641 9.82813 18.5 9.82813C19.1359 9.82813 19.6562 9.31417 19.6562 8.67188Z" fill="#5D9CEC"/>
<path d="M9.82812 21.9688C10.1474 21.9688 10.4062 21.7099 10.4062 21.3906C10.4062 21.0713 10.1474 20.8125 9.82812 20.8125C9.50884 20.8125 9.25 21.0713 9.25 21.3906C9.25 21.7099 9.50884 21.9688 9.82812 21.9688Z" fill="#5D9CEC"/>
<path d="M27.1719 21.9688C27.4912 21.9688 27.75 21.7099 27.75 21.3906C27.75 21.0713 27.4912 20.8125 27.1719 20.8125C26.8526 20.8125 26.5938 21.0713 26.5938 21.3906C26.5938 21.7099 26.8526 21.9688 27.1719 21.9688Z" fill="#5D9CEC"/>
</svg>
