<svg width="37" height="37" viewBox="0 0 37 37" fill="none" xmlns="http://www.w3.org/2000/svg">
<path d="M3.82754 11.4829H1.27594C0.572197 11.4849 0.00197602 12.0548 0 12.7586V32.5345C0.00197602 33.2383 0.572197 33.8082 1.27594 33.8104H35.7241C36.4278 33.8082 36.998 33.2383 37 32.5345V12.7586C36.998 12.0548 36.4278 11.4849 35.7241 11.4829H3.82754Z" fill="#BDC3C7"/>
<path d="M4.84159 11.4829H2.46585C1.78667 11.5097 1.25625 12.0794 1.27799 12.7586V32.5345C1.25625 33.2137 1.78667 33.7833 2.46585 33.8104H34.5382C35.2174 33.7833 35.7478 33.2137 35.7261 32.5345V12.7586C35.7478 12.0794 35.2174 11.5097 34.5382 11.4829H4.84159Z" fill="#E6E7E8"/>
<path d="M3.18875 31.8965C2.83646 31.8965 2.55078 31.6109 2.55078 31.2586V15.3105C2.55078 14.9582 2.83646 14.6725 3.18875 14.6725C3.54105 14.6725 3.82672 14.9582 3.82672 15.3105V31.2586C3.82672 31.6109 3.54105 31.8965 3.18875 31.8965Z" fill="#BDC3C7"/>
<path d="M5.73953 31.8965C5.38724 31.8965 5.10156 31.6109 5.10156 31.2586V15.3105C5.10156 14.9582 5.38724 14.6725 5.73953 14.6725C6.09183 14.6725 6.3775 14.9582 6.3775 15.3105V31.2586C6.3775 31.6109 6.09183 31.8965 5.73953 31.8965Z" fill="#BDC3C7"/>
<path d="M8.29031 31.8965C7.93802 31.8965 7.65234 31.6109 7.65234 31.2586V15.3105C7.65234 14.9582 7.93802 14.6725 8.29031 14.6725C8.64261 14.6725 8.92828 14.9582 8.92828 15.3105V31.2586C8.92828 31.6109 8.64261 31.8965 8.29031 31.8965Z" fill="#BDC3C7"/>
<path d="M10.845 31.8965C10.4927 31.8965 10.207 31.6109 10.207 31.2586V15.3105C10.207 14.9582 10.4927 14.6725 10.845 14.6725C11.1973 14.6725 11.483 14.9582 11.483 15.3105V31.2586C11.483 31.6109 11.1973 31.8965 10.845 31.8965Z" fill="#BDC3C7"/>
<path d="M13.3958 31.8965C13.0435 31.8965 12.7578 31.6109 12.7578 31.2586V15.3105C12.7578 14.9582 13.0435 14.6725 13.3958 14.6725C13.7481 14.6725 14.0338 14.9582 14.0338 15.3105V31.2586C14.0338 31.6109 13.7481 31.8965 13.3958 31.8965Z" fill="#BDC3C7"/>
<path d="M15.9466 31.8965C15.594 31.8965 15.3086 31.6109 15.3086 31.2586V15.3105C15.3086 14.9582 15.594 14.6725 15.9466 14.6725C16.2989 14.6725 16.5843 14.9582 16.5843 15.3105V31.2586C16.5843 31.6109 16.2989 31.8965 15.9466 31.8965Z" fill="#BDC3C7"/>
<path d="M18.4973 31.8965C18.1451 31.8965 17.8594 31.6109 17.8594 31.2586V15.3105C17.8594 14.9582 18.1451 14.6725 18.4973 14.6725C18.8496 14.6725 19.1353 14.9582 19.1353 15.3105V31.2586C19.1353 31.6109 18.8496 31.8965 18.4973 31.8965Z" fill="#BDC3C7"/>
<path d="M21.0518 31.8965C20.6995 31.8965 20.4141 31.6109 20.4141 31.2586V15.3105C20.4141 14.9582 20.6995 14.6725 21.0518 14.6725C21.4043 14.6725 21.6897 14.9582 21.6897 15.3105V31.2586C21.6897 31.6109 21.4043 31.8965 21.0518 31.8965Z" fill="#BDC3C7"/>
<path d="M23.6028 31.8965C23.2505 31.8965 22.9648 31.6109 22.9648 31.2586V15.3105C22.9648 14.9582 23.2505 14.6725 23.6028 14.6725C23.9551 14.6725 24.2408 14.9582 24.2408 15.3105V31.2586C24.2408 31.6109 23.9551 31.8965 23.6028 31.8965Z" fill="#BDC3C7"/>
<path d="M26.1536 31.8965C25.8013 31.8965 25.5156 31.6109 25.5156 31.2586V15.3105C25.5156 14.9582 25.8013 14.6725 26.1536 14.6725C26.5059 14.6725 26.7916 14.9582 26.7916 15.3105V31.2586C26.7916 31.6109 26.5059 31.8965 26.1536 31.8965Z" fill="#BDC3C7"/>
<path d="M28.7044 31.8965C28.3521 31.8965 28.0664 31.6109 28.0664 31.2586V15.3105C28.0664 14.9582 28.3521 14.6725 28.7044 14.6725C29.0567 14.6725 29.3423 14.9582 29.3423 15.3105V31.2586C29.3423 31.6109 29.0567 31.8965 28.7044 31.8965Z" fill="#BDC3C7"/>
<path d="M31.2591 31.8965C30.9068 31.8965 30.6211 31.6109 30.6211 31.2586V15.3105C30.6211 14.9582 30.9068 14.6725 31.2591 14.6725C31.6114 14.6725 31.897 14.9582 31.897 15.3105V31.2586C31.897 31.6109 31.6114 31.8965 31.2591 31.8965Z" fill="#BDC3C7"/>
<path d="M33.8098 31.8965C33.4576 31.8965 33.1719 31.6109 33.1719 31.2586V15.3105C33.1719 14.9582 33.4576 14.6725 33.8098 14.6725C34.1621 14.6725 34.4478 14.9582 34.4478 15.3105V31.2586C34.4478 31.6109 34.1621 31.8965 33.8098 31.8965Z" fill="#BDC3C7"/>
<path d="M2.55078 33.8104H5.10266V35.7241C5.10266 36.4286 4.53131 37 3.82672 37C3.12213 37 2.55078 36.4286 2.55078 35.7241V33.8104Z" fill="#95A5A5"/>
<path d="M31.8984 33.8104H34.4503V35.7241C34.4503 36.4286 33.879 37 33.1744 37C32.4698 37 31.8984 36.4286 31.8984 35.7241V33.8104Z" fill="#95A5A5"/>
<path d="M3.75957 5.10348H2.57142C2.30804 5.09416 2.07318 4.93495 1.96761 4.69331C1.86203 4.45196 1.90409 4.17136 2.07629 3.9715L5.24525 0.235146C5.36635 0.08638 5.54842 0 5.74038 0C5.93234 0 6.11413 0.08638 6.23551 0.235146L9.40447 3.9715C9.57639 4.17136 9.61873 4.45196 9.51315 4.69331C9.40758 4.93495 9.17271 5.09416 8.90934 5.10348H7.65401V12.1206C7.65316 12.4726 7.36805 12.7577 7.01604 12.7586H4.46444C4.11243 12.7577 3.8276 12.4726 3.82647 12.1206V5.10348H3.75957Z" fill="#E64C3C"/>
<path d="M29.2793 5.10348H28.0909C27.8275 5.09416 27.5926 4.93495 27.4871 4.69331C27.3815 4.45196 27.4238 4.17136 27.5957 3.9715L30.7647 0.235146C30.8861 0.08638 31.0679 0 31.2598 0C31.4518 0 31.6339 0.08638 31.755 0.235146L34.9239 3.9715C35.0961 4.17136 35.1382 4.45196 35.0326 4.69331C34.927 4.93495 34.6922 5.09416 34.4288 5.10348H33.1737V12.1206C33.1726 12.4726 32.8878 12.7577 32.5358 12.7586H29.9842C29.6322 12.7577 29.3471 12.4726 29.3462 12.1206V5.10348H29.2793Z" fill="#E64C3C"/>
<path d="M13.3963 9.56898C13.14 9.56898 12.9085 9.41541 12.8085 9.17914C12.7089 8.94286 12.7603 8.66989 12.939 8.48612C13.2619 8.06693 13.4242 7.54582 13.3963 7.0171C13.4248 6.48809 13.2622 5.96642 12.9378 5.54723C12.3755 4.89373 12.0834 4.05082 12.1203 3.18956C12.0831 2.32491 12.3783 1.47862 12.9452 0.824838C13.1055 0.659135 13.3426 0.592515 13.5656 0.650949C13.7886 0.709382 13.9628 0.883554 14.0213 1.10656C14.0797 1.32957 14.0131 1.56669 13.8474 1.72675C13.5284 2.14566 13.3686 2.66394 13.3963 3.18956C13.3678 3.71885 13.5306 4.24052 13.8547 4.65943C14.417 5.31293 14.7092 6.15612 14.6722 7.0171C14.7095 7.88203 14.4145 8.72804 13.8474 9.3821C13.728 9.50179 13.5656 9.56926 13.3963 9.56898Z" fill="#C03A2B"/>
<path d="M18.4978 9.56898C18.2415 9.56898 18.01 9.41541 17.9101 9.17914C17.8105 8.94286 17.8618 8.66989 18.0405 8.48612C18.3635 8.06693 18.5258 7.54582 18.4978 7.0171C18.5263 6.48809 18.3637 5.96642 18.0394 5.54723C17.4771 4.89373 17.1849 4.05082 17.2219 3.18956C17.1846 2.32491 17.4796 1.47862 18.0467 0.824838C18.2071 0.659135 18.4442 0.592515 18.6672 0.650949C18.8902 0.709382 19.0644 0.883554 19.1228 1.10656C19.1813 1.32957 19.1146 1.56669 18.9489 1.72675C18.6299 2.14566 18.4702 2.66394 18.4978 3.18956C18.4693 3.71885 18.6319 4.24052 18.9563 4.65943C19.5186 5.31293 19.8108 6.15612 19.7738 7.0171C19.811 7.88203 19.516 8.72804 18.9489 9.3821C18.8292 9.50179 18.6669 9.56926 18.4978 9.56898Z" fill="#C03A2B"/>
<path d="M23.6033 9.56898C23.347 9.56898 23.1152 9.41541 23.0156 9.17914C22.9159 8.94286 22.9673 8.66989 23.146 8.48612C23.4689 8.06693 23.6312 7.54582 23.6033 7.0171C23.6318 6.48809 23.4689 5.96642 23.1449 5.54723C22.5826 4.89373 22.2904 4.05082 22.3274 3.18956C22.2901 2.32491 22.5851 1.47862 23.1522 0.824838C23.3125 0.659135 23.5497 0.592515 23.7727 0.650949C23.9957 0.709382 24.1699 0.883554 24.2283 1.10656C24.2867 1.32957 24.2201 1.56669 24.0544 1.72675C23.7354 2.14566 23.5756 2.66394 23.6033 3.18956C23.5748 3.71885 23.7374 4.24052 24.0617 4.65943C24.6241 5.31293 24.9162 6.15612 24.8792 7.0171C24.9165 7.88203 24.6212 8.72804 24.0544 9.3821C23.9347 9.50179 23.7724 9.56926 23.6033 9.56898Z" fill="#C03A2B"/>
</svg>
