<svg width="37" height="37" viewBox="0 0 37 37" fill="none" xmlns="http://www.w3.org/2000/svg">
<path d="M34.4713 0.540547C34.2776 0.205957 33.9199 0 33.5333 0H3.4708C3.08418 0 2.72646 0.205957 2.53279 0.540547L0.460938 4.11914L0.473945 5.83256H36.5432V4.11914L34.4713 0.540547Z" fill="#FFB454"/>
<path d="M36.5411 4.11914V5.83256H18.5V0H33.5312C33.9179 0 34.2756 0.205957 34.4693 0.540547L36.5411 4.11914Z" fill="#FF8659"/>
<path d="M1.08594 5.20312H35.918V37H1.08594V5.20312Z" fill="#F9F9F9"/>
<path d="M18.5 5.20312H35.916V37H18.5V5.20312Z" fill="#E2DFF4"/>
<path d="M37 5.20312V37H34.832V6.28711H2.16797V37H0V5.20312C0 5.01523 0.048418 4.82734 0.145977 4.65969L0.458887 4.11914H36.5411L36.854 4.65969C36.9516 4.82734 37 5.01523 37 5.20312Z" fill="#08475E"/>
<path d="M37 5.20312V37H34.832V6.28711H18.5V4.11914H36.5411L36.854 4.65969C36.9516 4.82734 37 5.01523 37 5.20312Z" fill="#05303D"/>
<path d="M30.0186 22.5469H7.00781L8.90984 14.9388C9.15121 13.974 10.0184 13.2969 11.0128 13.2969H26.0137C27.0088 13.2969 27.876 13.974 28.1166 14.9388L30.0186 22.5469Z" fill="#BCFBFF"/>
<path d="M30.0206 22.5469H18.5V13.2969H26.0156C27.0107 13.2969 27.8779 13.974 28.1186 14.9388L30.0206 22.5469Z" fill="#ACCEFF"/>
<path d="M23.591 12.9991L22.4347 8.95227C22.3018 8.48687 21.8769 8.16602 21.3927 8.16602H15.6114C15.1272 8.16602 14.7023 8.48687 14.5693 8.95227L13.4131 12.9991C13.3191 13.3265 13.3849 13.6784 13.5894 13.9494C13.7947 14.2212 14.1148 14.3809 14.4552 14.3809H22.5489C22.8893 14.3809 23.2094 14.2212 23.4147 13.9494C23.6192 13.6784 23.6849 13.3265 23.591 12.9991Z" fill="#FFB454"/>
<path d="M23.4126 13.9494C23.2074 14.2212 22.8872 14.3809 22.5469 14.3809H18.5V8.16602H21.3906C21.8748 8.16602 22.2997 8.48687 22.4327 8.95227L23.5889 12.9991C23.6829 13.3265 23.6171 13.6784 23.4126 13.9494Z" fill="#FF8659"/>
<path d="M9.24805 37H5.20117C4.60252 37 4.11719 36.5147 4.11719 35.916V28.3281C4.11719 27.7295 4.60252 27.2441 5.20117 27.2441H9.24805C9.8467 27.2441 10.332 27.7295 10.332 28.3281V35.916C10.332 36.5147 9.8467 37 9.24805 37Z" fill="#0A789B"/>
<path d="M31.7949 37H27.748C27.1494 37 26.6641 36.5147 26.6641 35.916V28.3281C26.6641 27.7295 27.1494 27.2441 27.748 27.2441H31.7949C32.3936 27.2441 32.8789 27.7295 32.8789 28.3281V35.916C32.8789 36.5147 32.3936 37 31.7949 37Z" fill="#08475E"/>
<path d="M8.01953 19.584H5.20117C4.60252 19.584 4.11719 19.0986 4.11719 18.5C4.11719 17.9014 4.60252 17.416 5.20117 17.416H8.01953C8.61818 17.416 9.10352 17.9014 9.10352 18.5C9.10352 19.0986 8.61818 19.584 8.01953 19.584Z" fill="#0A789B"/>
<path d="M31.7976 19.584H29.0098C28.4111 19.584 27.9258 19.0986 27.9258 18.5C27.9258 17.9014 28.4111 17.416 29.0098 17.416H31.7976C32.3962 17.416 32.8815 17.9014 32.8815 18.5C32.8815 19.0986 32.3962 19.584 31.7976 19.584Z" fill="#08475E"/>
<path d="M16.1855 24.209H9.24805C8.6494 24.209 8.16406 23.7236 8.16406 23.125V21.9688C8.16406 19.4584 10.2064 17.416 12.7168 17.416C15.2272 17.416 17.2695 19.4584 17.2695 21.9688V23.125C17.2695 23.7236 16.7842 24.209 16.1855 24.209ZM10.332 22.041H15.1016V21.9688C15.1016 20.6538 14.0317 19.584 12.7168 19.584C11.4019 19.584 10.332 20.6538 10.332 21.9688V22.041Z" fill="#0A789B"/>
<path d="M30.9379 21.7541L29.1688 14.6757C28.806 13.2261 27.5088 12.2129 26.0137 12.2129H11.0128C9.51832 12.2129 8.22043 13.2261 7.85838 14.6764L6.09654 21.7223C4.93379 22.2188 4.11719 23.3729 4.11719 24.7148V28.3281L10.332 32.8809H26.6641L32.8789 28.3281V24.8594C32.8789 23.495 32.0681 22.2882 30.9379 21.7541ZM8.39604 21.4629L9.96131 15.2018C10.082 14.7183 10.5149 14.3809 11.0128 14.3809H26.0137C26.5123 14.3809 26.9445 14.7183 27.0651 15.2018L28.6304 21.4629H8.39604Z" fill="#FFDD54"/>
<path d="M32.8809 24.8594V28.3281L26.666 32.8809H18.5V21.4629H28.6324L27.0671 15.2018C26.9464 14.7183 26.5143 14.3809 26.0156 14.3809H18.5V12.2129H26.0156C27.5108 12.2129 28.808 13.2261 29.1707 14.6757L30.9398 21.7541C32.07 22.2882 32.8809 23.495 32.8809 24.8594Z" fill="#FFB454"/>
<path d="M10.9824 28.2559H9.82617C9.22752 28.2559 8.74219 27.7705 8.74219 27.1719C8.74219 26.5732 9.22752 26.0879 9.82617 26.0879H10.9824C11.5811 26.0879 12.0664 26.5732 12.0664 27.1719C12.0664 27.7705 11.5811 28.2559 10.9824 28.2559Z" fill="#FFB454"/>
<path d="M27.1699 28.2559H26.0137C25.415 28.2559 24.9297 27.7705 24.9297 27.1719C24.9297 26.5732 25.415 26.0879 26.0137 26.0879H27.1699C27.7686 26.0879 28.2539 26.5732 28.2539 27.1719C28.2539 27.7705 27.7686 28.2559 27.1699 28.2559Z" fill="#FF8659"/>
<path d="M22.4436 29.2213C22.3229 28.7386 21.8893 28.4004 21.3921 28.4004H15.6109C15.1137 28.4004 14.6801 28.7386 14.5594 29.2213L13.6445 32.8809H23.3585L22.4436 29.2213Z" fill="#0A789B"/>
<path d="M22.4421 29.2213L23.357 32.8809H18.5V28.4004H21.3906C21.8878 28.4004 22.3214 28.7386 22.4421 29.2213Z" fill="#08475E"/>
</svg>
