<svg width="37" height="37" viewBox="0 0 37 37" fill="none" xmlns="http://www.w3.org/2000/svg">
<g clip-path="url(#clip0)">
<path d="M9.11596 2.78447C9.43354 4.18969 11.1386 4.74354 12.2211 3.79336C12.4041 3.63274 12.6782 3.83175 12.5819 4.05532C12.0125 5.37869 13.0663 6.82908 14.5009 6.69669C14.7434 6.67439 14.8481 6.9962 14.6386 7.12069C13.4002 7.85689 13.4002 9.6497 14.6386 10.3856C14.8481 10.5101 14.7434 10.8319 14.5009 10.8096C13.0663 10.6772 12.0125 12.1276 12.5819 13.451C12.6782 13.6748 12.4041 13.8736 12.2211 13.7129C11.1386 12.7628 9.43326 13.3169 9.11596 14.7218C9.06233 14.9595 8.72387 14.9595 8.67023 14.7218C8.35294 13.3166 6.64792 12.7628 5.56507 13.7129C5.38215 13.8736 5.10805 13.6748 5.20431 13.451C5.77368 12.1276 4.7199 10.6772 3.28531 10.8096C3.04283 10.8319 2.9381 10.5101 3.14756 10.3856C4.38595 9.6497 4.38595 7.85689 3.14756 7.12069C2.93838 6.9962 3.04283 6.67439 3.28531 6.69669C4.7199 6.82908 5.77368 5.37869 5.20431 4.05532C5.10805 3.83175 5.38215 3.63274 5.56507 3.79336C6.64792 4.74354 8.35294 4.18969 8.67023 2.78447C8.72387 2.54678 9.06233 2.54678 9.11596 2.78447Z" fill="#FD8F31"/>
<path d="M14.6397 10.3856C13.4013 9.6497 13.4013 7.85689 14.6397 7.12069C14.8492 6.99648 14.7445 6.67439 14.502 6.69697C13.0677 6.82936 12.0139 5.37869 12.583 4.05532C12.6792 3.83175 12.4054 3.63274 12.2222 3.79336C11.1397 4.74382 9.43463 4.18969 9.11706 2.78447C9.06342 2.54678 8.72496 2.54678 8.67133 2.78447C8.55389 3.30416 8.24677 3.7067 7.85156 3.96076C9.2534 5.08737 10.1514 6.81497 10.1514 8.75344C10.1514 10.6916 9.2534 12.4195 7.85156 13.5461C8.24677 13.7999 8.55389 14.2027 8.67133 14.7221C8.72496 14.9598 9.06371 14.9598 9.11706 14.7221C9.43463 13.3169 11.1397 12.7631 12.2222 13.7132C12.4054 13.8739 12.6792 13.6751 12.583 13.4513C12.0139 12.1279 13.0677 10.6775 14.502 10.8099C14.7445 10.8322 14.8492 10.5101 14.6397 10.3856Z" fill="#FF7F1F"/>
<path d="M11.4113 8.7532C11.4113 10.1452 10.283 11.2732 8.89108 11.2732C7.4994 11.2732 6.37109 10.1452 6.37109 8.7532C6.37109 7.36152 7.4994 6.23322 8.89108 6.23322C10.283 6.23322 11.4113 7.36152 11.4113 8.7532Z" fill="#FCCF3F"/>
<path d="M27.1744 22.7894V4.49204C27.1744 2.01102 25.1631 0 22.6823 0C20.2013 0 18.1903 2.01102 18.1903 4.49204V22.7894C16.1804 24.2033 14.8672 26.5407 14.8672 29.1849C14.8672 33.501 18.3661 37 22.6823 37C26.9985 37 30.4975 33.501 30.4975 29.1849C30.4975 26.5407 29.184 24.2033 27.1744 22.7894Z" fill="#D8D8D8"/>
<path d="M22.6825 34.4405C19.7063 34.4405 17.2852 32.0191 17.2852 29.0432C17.2852 26.7832 18.6895 24.771 20.7968 23.986V4.49207C20.7968 3.45212 21.6425 2.60638 22.6825 2.60638C23.7222 2.60638 24.5682 3.45212 24.5682 4.49207V23.986C26.6752 24.7708 28.0798 26.7829 28.0798 29.0429C28.0798 32.0191 25.6587 34.4405 22.6825 34.4405Z" fill="#F3E8D7"/>
<path d="M20.7968 7.93988V23.986C18.6895 24.7707 17.2852 26.7829 17.2852 29.0429C17.2852 32.019 19.7063 34.4402 22.6825 34.4402C25.6587 34.4402 28.0798 32.019 28.0798 29.0429C28.0798 26.7829 26.6752 24.7707 24.5682 23.986V7.93988H20.7968Z" fill="#FC4E51"/>
<path d="M33.3953 13.0237H30.156C29.8475 13.0237 29.5977 12.7735 29.5977 12.4653C29.5977 12.157 29.8475 11.9069 30.156 11.9069H33.3953C33.7035 11.9069 33.9536 12.157 33.9536 12.4653C33.9536 12.7735 33.7035 13.0237 33.3953 13.0237Z" fill="#0D6E9A"/>
<path d="M31.6267 8.49826H30.156C29.8475 8.49826 29.5977 8.24815 29.5977 7.9399C29.5977 7.63164 29.8475 7.38153 30.156 7.38153H31.6267C31.935 7.38153 32.1851 7.63164 32.1851 7.9399C32.1851 8.24815 31.935 8.49826 31.6267 8.49826Z" fill="#0D6E9A"/>
<path d="M32.1478 3.97293H30.156C29.8475 3.97293 29.5977 3.72282 29.5977 3.41457C29.5977 3.10631 29.8475 2.8562 30.156 2.8562H32.1478C32.4564 2.8562 32.7062 3.10631 32.7062 3.41457C32.7062 3.72282 32.4564 3.97293 32.1478 3.97293Z" fill="#0D6E9A"/>
<path d="M32.1478 22.0744H30.156C29.8475 22.0744 29.5977 21.8243 29.5977 21.516C29.5977 21.2075 29.8475 20.9576 30.156 20.9576H32.1478C32.4564 20.9576 32.7062 21.2075 32.7062 21.516C32.7062 21.8243 32.4564 22.0744 32.1478 22.0744Z" fill="#0D6E9A"/>
<path d="M31.6267 17.549H30.156C29.8475 17.549 29.5977 17.2989 29.5977 16.9906C29.5977 16.6824 29.8475 16.4323 30.156 16.4323H31.6267C31.935 16.4323 32.1851 16.6824 32.1851 16.9906C32.1851 17.2989 31.935 17.549 31.6267 17.549Z" fill="#0D6E9A"/>
<path d="M24.5676 23.986V7.93988H20.7963V23.986C20.7963 23.986 23.4032 25.1956 23.4032 29.0429C23.4032 31.182 22.1524 33.0344 20.3438 33.9072C21.0514 34.2488 21.8447 34.4402 22.6817 34.4402C25.6578 34.4402 28.0793 32.019 28.0793 29.0429C28.0793 26.7829 26.6746 24.771 24.5676 23.986Z" fill="#E5394B"/>
</g>
<defs>
<clipPath id="clip0">
<rect width="37" height="37" fill="white"/>
</clipPath>
</defs>
</svg>
