<svg width="37" height="37" viewBox="0 0 37 37" fill="none" xmlns="http://www.w3.org/2000/svg">
<g clip-path="url(#clip0)">
<path d="M35.7242 20.4138V16.5862C36.4279 16.5841 36.998 16.0141 37 15.3103V11.4827C36.998 10.7789 36.4279 10.2089 35.7242 10.2069V6.37932C36.4279 6.37722 36.998 5.80727 37 5.10347V1.27585C36.998 0.572055 36.4279 0.00202344 35.7242 0H29.9828C29.279 0.00202344 28.709 0.572055 28.7069 1.27585H24.8793C24.8772 0.572055 24.3073 0.00202344 23.6035 0H1.27585C0.572055 0.00202344 0.00202344 0.572055 0 1.27585V5.10347C0.0020957 5.80727 0.572055 6.3773 1.27585 6.37932V10.2069C0.572055 10.209 0.00202344 10.779 0 11.4828V15.3104C0.0020957 16.0142 0.572055 16.5842 1.27585 16.5863V20.4139C0.572055 20.4158 0.00202344 20.9859 0 21.6897V25.5173C0.0020957 26.2211 0.572055 26.791 1.27585 26.7931V30.6208C0.572055 30.6228 0.00202344 31.1927 0 31.8965V35.7242C0.0020957 36.4279 0.572055 36.998 1.27585 37H7.01721C7.721 36.9979 8.29104 36.4279 8.29306 35.7242H12.1207C12.1228 36.4279 12.6927 36.998 13.3965 37H35.7242C36.4279 36.9979 36.998 36.4279 37 35.7242V31.8965C36.998 31.1927 36.4279 30.6227 35.7242 30.6207V26.7931C36.4279 26.791 36.998 26.221 37 25.5172V21.6896C36.998 20.9859 36.4279 20.4158 35.7242 20.4138Z" fill="#FCCC88"/>
<path d="M1.27585 0H23.6035C24.3081 0 24.8793 0.571187 24.8793 1.27585V5.10347C24.8793 5.80813 24.3081 6.37932 23.6035 6.37932H1.27585C0.571187 6.37932 0 5.80806 0 5.10347V1.27585C0 0.571187 0.571187 0 1.27585 0Z" fill="#CD4F38"/>
<path d="M29.9829 0H35.7242C36.4288 0 37.0001 0.571187 37.0001 1.27585V5.10347C37.0001 5.80813 36.4288 6.37932 35.7242 6.37932H29.9829C29.2782 6.37932 28.707 5.80813 28.707 5.10347V1.27585C28.707 0.571187 29.2782 0 29.9829 0Z" fill="#DC6C33"/>
<path d="M13.3969 30.621H35.7246C36.4292 30.621 37.0004 31.1923 37.0004 31.8969V35.7245C37.0004 36.4292 36.4292 37.0004 35.7246 37.0004H13.3969C12.6923 37.0004 12.1211 36.4291 12.1211 35.7245V31.8969C12.1211 31.1923 12.6924 30.621 13.3969 30.621Z" fill="#CD4F38"/>
<path d="M1.27585 30.621H7.01721C7.72187 30.621 8.29306 31.1923 8.29306 31.8969V35.7245C8.29306 36.4292 7.72187 37.0004 7.01721 37.0004H1.27585C0.571187 37.0004 0 36.4291 0 35.7245V31.8969C0 31.1923 0.571187 30.621 1.27585 30.621Z" fill="#DC6C33"/>
<path d="M1.27585 20.4135H23.6035C24.3081 20.4135 24.8793 20.9847 24.8793 21.6893V25.5169C24.8793 26.2216 24.3081 26.7928 23.6035 26.7928H1.27585C0.571187 26.7928 0 26.2215 0 25.5169V21.6892C0 20.9846 0.571187 20.4135 1.27585 20.4135Z" fill="#DC6C33"/>
<path d="M29.9829 20.4135H35.7242C36.4289 20.4135 37.0001 20.9847 37.0001 21.6893V25.5169C37.0001 26.2216 36.4288 26.7928 35.7242 26.7928H29.9829C29.2782 26.7928 28.707 26.2216 28.707 25.5169V21.6893C28.707 20.9846 29.2782 20.4135 29.9829 20.4135Z" fill="#CD4F38"/>
<path d="M13.3969 10.2067H35.7246C36.4292 10.2067 37.0004 10.7779 37.0004 11.4825V15.3101C37.0004 16.0148 36.4292 16.586 35.7246 16.586H13.3969C12.6923 16.586 12.1211 16.0148 12.1211 15.3101V11.4825C12.1211 10.7779 12.6924 10.2067 13.3969 10.2067Z" fill="#ED634C"/>
<path d="M1.27585 10.2067H7.01721C7.72187 10.2067 8.29306 10.7779 8.29306 11.4825V15.3101C8.29306 16.0148 7.72187 16.586 7.01721 16.586H1.27585C0.571187 16.586 0 16.0148 0 15.3101V11.4825C0 10.7779 0.571187 10.2067 1.27585 10.2067Z" fill="#EC9130"/>
<path d="M1.27585 0H23.6035C24.3081 0 24.8793 0.571187 24.8793 1.27585V5.10347C24.8793 5.80813 24.3081 6.37932 23.6035 6.37932H1.27585C0.571187 6.37932 0 5.80806 0 5.10347V1.27585C0 0.571187 0.571187 0 1.27585 0Z" fill="#CD4F38"/>
<path d="M29.9829 0H35.7242C36.4288 0 37.0001 0.571187 37.0001 1.27585V5.10347C37.0001 5.80813 36.4288 6.37932 35.7242 6.37932H29.9829C29.2782 6.37932 28.707 5.80813 28.707 5.10347V1.27585C28.707 0.571187 29.2782 0 29.9829 0Z" fill="#EC9130"/>
<path d="M13.3969 30.621H35.7246C36.4292 30.621 37.0004 31.1923 37.0004 31.8969V35.7245C37.0004 36.4292 36.4292 37.0004 35.7246 37.0004H13.3969C12.6923 37.0004 12.1211 36.4291 12.1211 35.7245V31.8969C12.1211 31.1923 12.6924 30.621 13.3969 30.621Z" fill="#CD4F38"/>
<path d="M1.27585 30.621H7.01721C7.72187 30.621 8.29306 31.1923 8.29306 31.8969V35.7245C8.29306 36.4292 7.72187 37.0004 7.01721 37.0004H1.27585C0.571187 37.0004 0 36.4291 0 35.7245V31.8969C0 31.1923 0.571187 30.621 1.27585 30.621Z" fill="#DC6C33"/>
<path d="M1.27585 20.4135H23.6035C24.3081 20.4135 24.8793 20.9847 24.8793 21.6893V25.5169C24.8793 26.2216 24.3081 26.7928 23.6035 26.7928H1.27585C0.571187 26.7928 0 26.2215 0 25.5169V21.6892C0 20.9846 0.571187 20.4135 1.27585 20.4135Z" fill="#DC6C33"/>
<path d="M29.9829 20.4135H35.7242C36.4289 20.4135 37.0001 20.9847 37.0001 21.6893V25.5169C37.0001 26.2216 36.4288 26.7928 35.7242 26.7928H29.9829C29.2782 26.7928 28.707 26.2216 28.707 25.5169V21.6893C28.707 20.9846 29.2782 20.4135 29.9829 20.4135Z" fill="#CD4F38"/>
<path d="M13.3969 10.2067H35.7246C36.4292 10.2067 37.0004 10.7779 37.0004 11.4825V15.3101C37.0004 16.0148 36.4292 16.586 35.7246 16.586H13.3969C12.6923 16.586 12.1211 16.0148 12.1211 15.3101V11.4825C12.1211 10.7779 12.6924 10.2067 13.3969 10.2067Z" fill="#DC6C33"/>
<path d="M1.27585 10.2067H7.01721C7.72187 10.2067 8.29306 10.7779 8.29306 11.4825V15.3101C8.29306 16.0148 7.72187 16.586 7.01721 16.586H1.27585C0.571187 16.586 0 16.0148 0 15.3101V11.4825C0 10.7779 0.571187 10.2067 1.27585 10.2067Z" fill="#EC9130"/>
</g>
<defs>
<clipPath id="clip0">
<rect width="37" height="37" fill="white"/>
</clipPath>
</defs>
</svg>
