<svg width="37" height="37" viewBox="0 0 37 37" fill="none" xmlns="http://www.w3.org/2000/svg">
<g clip-path="url(#clip0)">
<path d="M35.39 14.4783H25.7378C25.0717 14.4783 24.5312 13.9383 24.5312 13.2718V8.44574C24.5312 7.77924 25.0717 7.2392 25.7378 7.2392H35.39C36.056 7.2392 36.5965 7.77924 36.5965 8.44574V13.2719C36.5965 13.9383 36.056 14.4783 35.39 14.4783Z" fill="#AEB3BF"/>
<path d="M8.84907 19.3044H4.02295C3.35688 19.3044 2.81641 18.7643 2.81641 18.0978V10.8588C2.81641 8.86286 4.44007 7.2392 6.43597 7.2392H16.0881C16.7542 7.2392 17.2947 7.77924 17.2947 8.44574V13.2719C17.2947 13.9384 16.7542 14.4784 16.0881 14.4784H10.0555V18.098C10.0555 18.7643 9.51514 19.3044 8.84907 19.3044Z" fill="#C4C9D6"/>
<path d="M8.84669 19.3044C9.51276 19.3044 10.0532 18.7643 10.0532 18.0978V14.4783H16.0858C16.7519 14.4783 17.2924 13.9382 17.2924 13.2717V8.44574C17.2924 7.77924 16.7519 7.2392 16.0858 7.2392H6.43359V19.3044H8.84669Z" fill="#AEB3BF"/>
<path d="M35.3901 19.3043C34.7241 19.3043 34.1836 18.7643 34.1836 18.0978V3.61957C34.1836 2.95307 34.7241 2.41302 35.3901 2.41302C36.0562 2.41302 36.5967 2.95307 36.5967 3.61957V18.0978C36.5967 18.7643 36.0562 19.3043 35.3901 19.3043Z" fill="#6C5B52"/>
<path d="M23.3256 7.23914H18.4995C17.8334 7.23914 17.293 6.6991 17.293 6.03259V1.20655C17.293 0.540041 17.8334 0 18.4995 0H23.3256C23.9917 0 24.5322 0.540041 24.5322 1.20655V6.03266C24.5321 6.6991 23.9917 7.23914 23.3256 7.23914Z" fill="#AEB3BF"/>
<path d="M12.1298 28.9807C12.1057 28.8922 12.0654 28.7957 12.0252 28.7072C11.808 28.2005 11.4944 27.6857 11.0599 27.0985C11.0519 27.0744 11.0358 27.0583 11.0197 27.0342C10.336 26.0851 9.36277 24.9429 8.05975 23.3262C7.84259 23.0527 7.60925 22.7712 7.37598 22.4736C7.14277 22.184 6.78882 22.0473 6.43501 22.0473C6.08119 22.0473 5.72716 22.184 5.49403 22.4736C5.12396 22.9401 4.7781 23.3664 4.45645 23.7686C3.32231 25.1682 2.47774 26.1897 1.85033 27.0343C1.83421 27.0664 1.80198 27.1067 1.77785 27.1388C1.44008 27.6134 1.17457 28.0317 0.965437 28.4338C0.933279 28.4982 0.901121 28.5706 0.877057 28.635C0.530977 29.3669 0.402344 30.0587 0.402344 30.9675C0.402344 34.2975 3.10493 37.0001 6.43493 37.0001C9.76493 37.0001 12.4675 34.2975 12.4675 30.9675C12.4676 30.2193 12.371 29.592 12.1298 28.9807Z" fill="#7C84E8"/>
<path d="M12.4662 30.9674C12.4662 34.2974 9.7636 37 6.43359 37V22.0472C6.78741 22.0472 7.14144 22.1839 7.37457 22.4735C7.60784 22.7711 7.84119 23.0526 8.05834 23.3261C9.36137 24.9428 10.3346 26.0849 11.0183 27.0341C11.0344 27.0582 11.0504 27.0743 11.0585 27.0984L11.1551 27.211C11.5171 27.6615 11.8065 28.1681 12.0238 28.7071C12.064 28.7956 12.1043 28.8921 12.1284 28.9806C12.3696 29.592 12.4662 30.2193 12.4662 30.9674Z" fill="#515BE0"/>
<path d="M23.3271 0H20.9141V7.23914H23.3271C23.9932 7.23914 24.5336 6.6991 24.5336 6.03259V1.20655C24.5336 0.540041 23.9932 0 23.3271 0Z" fill="#AEB3BF"/>
<path d="M28.1536 2.41297H13.6753C13.009 2.41297 12.4688 1.87279 12.4688 1.20642C12.4688 0.540136 13.0089 -0.00012207 13.6753 -0.00012207H28.1536C28.8199 -0.00012207 29.3601 0.540063 29.3601 1.20642C29.3601 1.87279 28.8199 2.41297 28.1536 2.41297Z" fill="#7C84E8"/>
<path d="M28.1532 0H20.9141V2.41302H28.1532C28.8195 2.41302 29.3597 1.87284 29.3597 1.20647C29.3597 0.540113 28.8196 0 28.1532 0Z" fill="#515BE0"/>
<path d="M23.3285 16.8913H18.5024C16.5065 16.8913 14.8828 15.2677 14.8828 13.2718V8.44574C14.8828 6.44984 16.5065 4.82617 18.5024 4.82617H23.3285C25.3244 4.82617 26.9481 6.44984 26.9481 8.44574V13.2719C26.9481 15.2677 25.3244 16.8913 23.3285 16.8913Z" fill="#DBE1F1"/>
<path d="M23.3271 4.82617H20.9141V16.8914H23.3271C25.323 16.8914 26.9467 15.2678 26.9467 13.2719V8.44574C26.9467 6.44976 25.323 4.82617 23.3271 4.82617Z" fill="#D0D5E5"/>
</g>
<defs>
<clipPath id="clip0">
<rect width="37" height="37" fill="white"/>
</clipPath>
</defs>
</svg>
