<svg width="37" height="37" viewBox="0 0 37 37" fill="none" xmlns="http://www.w3.org/2000/svg">
<g clip-path="url(#clip0)">
<path d="M36.9981 9.56947C36.9951 8.54251 36.182 7.70109 35.1558 7.66273C35.092 7.52941 35.0282 7.39226 34.9599 7.26212C35.8105 6.64191 35.9973 5.44956 35.377 4.59897C34.7568 3.74839 33.5644 3.56164 32.7138 4.18193C32.6735 4.21136 32.6343 4.24229 32.5964 4.27483C32.5078 4.19445 32.4223 4.11088 32.3311 4.0337C32.4626 3.77199 32.5316 3.48325 32.5327 3.19037C32.535 2.13557 31.6818 1.27852 30.627 1.27613C30.0084 1.27478 29.4275 1.573 29.0681 2.07656C28.7351 1.94603 28.3949 1.83056 28.0474 1.73017C27.9523 0.683745 27.0269 -0.0872598 25.9807 0.00794959C25.2271 0.0765259 24.5858 0.585107 24.3475 1.30332C24.0662 1.31608 23.7862 1.33267 23.5106 1.36712C23.2067 0.357768 22.1422 -0.214206 21.1327 0.0896829C20.3274 0.332092 19.7756 1.07327 19.7743 1.91445C19.7768 2.09402 19.8049 2.27232 19.8578 2.44392L19.8304 2.45732C19.0715 1.72172 17.8599 1.74054 17.1243 2.4995C16.779 2.8557 16.5856 3.33214 16.5847 3.82821C16.5847 3.86967 16.5943 3.90858 16.5968 3.94941C16.3889 3.87119 16.1688 3.8302 15.9468 3.82821C14.8933 3.82462 14.0365 4.67568 14.0329 5.72912C14.0321 5.97751 14.0798 6.22375 14.1734 6.45388C13.1583 6.7222 12.553 7.76265 12.8214 8.77766C12.9553 9.28393 13.2921 9.71261 13.7523 9.96243C13.5188 10.8764 13.3988 11.8157 13.3951 12.7591H36.3602C36.3557 12.2024 36.311 11.6469 36.2262 11.0967C36.7108 10.7385 36.9971 10.172 36.9981 9.56947Z" fill="#FFD884"/>
<path d="M34.2014 36.9999H15.5551L12.7578 12.759H36.9987L34.2014 36.9999Z" fill="#E3472C"/>
<path d="M22.9639 36.9999L22.326 12.759H17.2227L19.1364 36.9999H22.9639Z" fill="#F6F6E7"/>
<path d="M22.8242 31.6753L22.9646 37H26.7921L26.8616 34.3647C25.4347 33.5963 24.0831 32.6959 22.8242 31.6753Z" fill="#DD1C4B"/>
<path d="M13.9386 17.6302L12.7578 12.759L15.5551 36.9999H19.137L18.3473 26.9954C16.2629 24.2019 14.7633 21.0166 13.9386 17.6302Z" fill="#DD1C4B"/>
<path d="M30.6957 36.0526L30.6211 36.9999H34.203C33.0133 36.7661 31.8414 36.4495 30.6957 36.0526Z" fill="#DD1C4B"/>
<path d="M18.3477 26.9955L19.1374 36.9999H22.9649L22.8246 31.6752C21.143 30.308 19.639 28.7359 18.3477 26.9955Z" fill="#FFD884"/>
<path d="M32.535 12.759H27.4317L26.8633 34.3647C28.0932 35.0298 29.3749 35.5943 30.6959 36.0526L32.535 12.759Z" fill="#F6F6E7"/>
<path d="M26.8625 34.3649L26.793 37.0001H30.6205L30.6951 36.0528C29.3741 35.5944 28.0925 35.0299 26.8625 34.3649Z" fill="#FFD884"/>
<path d="M13.3951 17.8624L11.9228 37H2.10903L0.636719 17.8624" fill="#E3472C"/>
<path d="M0.636719 17.8624L2.10904 37H4.46423V17.8624H0.636719Z" fill="#DD1C4B"/>
<path d="M0 15.3108H14.0342V17.8625H0V15.3108Z" fill="#F6F6E7"/>
<path d="M0 15.3108H2.55167V17.8625H0V15.3108Z" fill="#FFD884"/>
<path d="M10.3691 24.7207C9.4711 24.4215 8.48297 24.5907 7.73573 25.1717L5.86981 26.6217C4.73504 27.5041 3.11903 27.396 2.11184 26.3703L1.21875 25.4709L1.56897 30.0179L4.81087 30.3975C5.78441 30.5387 6.76139 30.1643 7.39125 29.4087C8.14942 28.4987 9.394 28.1569 10.5107 28.552L12.5208 29.2626L12.8199 25.3713L10.3691 24.7207Z" fill="#F6F6E7"/>
<path d="M8.29294 15.3108L6.37919 7.01782H0V9.5695H4.46543L5.74127 15.3108H8.29294Z" fill="#2BB3CE"/>
<path d="M5.10335 8.29366L6.72239 15.3108H8.29294L6.37919 7.01782H0V8.29366H5.10335Z" fill="#88D0EF"/>
<path d="M4.46384 27.197C3.59364 27.3003 2.7248 26.9939 2.11184 26.3677L1.21875 25.4683L1.56897 30.0153L4.46384 30.3566V27.197Z" fill="#FFD884"/>
</g>
<defs>
<clipPath id="clip0">
<rect width="37" height="37" fill="white"/>
</clipPath>
</defs>
</svg>
