<svg width="37" height="37" viewBox="0 0 37 37" fill="none" xmlns="http://www.w3.org/2000/svg">
<path d="M19.6536 32.6641L19.6507 35.9167C19.65 36.5151 19.1651 37 18.5667 37H15.3184C14.72 37 14.2344 36.5144 14.2344 35.916V33.748L14.7365 32.6641H19.6536Z" fill="#3F4A4A"/>
<path d="M36.3495 32.6641L36.996 33.748L36.9944 35.9167C36.9937 36.5151 36.5088 37 35.9104 37H32.6621C32.0637 37 31.5781 36.5144 31.5781 35.916V32.6641H36.3495Z" fill="#2D2D2D"/>
<path d="M14.2344 30.4961V33.748H36.998V30.4961L35.9141 29.4121H15.3184L14.2344 30.4961Z" fill="#FF415B"/>
<path d="M36.999 30.4961V33.748H25.6172V29.4121H35.915L36.999 30.4961Z" fill="#D10050"/>
<path d="M36.998 26.8126C36.998 24.8477 35.8831 23.0483 34.1679 22.1537L33.0659 16.1368C32.9716 15.6219 32.5231 15.248 31.9997 15.248H19.2328C18.7094 15.248 18.2608 15.6219 18.1666 16.1368L17.0646 22.1537C15.3493 23.0483 14.2344 24.8477 14.2344 26.8126V30.4961H36.998V26.8126Z" fill="#FF6C6C"/>
<path d="M36.999 26.8127V30.4961H25.6172V15.248H32.0004C32.5243 15.248 32.9724 15.6217 33.0671 16.1369L34.1691 22.1537C35.884 23.0484 36.999 24.8478 36.999 26.8127Z" fill="#FF415B"/>
<path d="M9.79297 16.9846V28.8138C9.10464 28.5439 8.3181 28.5499 7.625 28.8434V16.9846C8.34188 17.0778 9.07537 17.0778 9.79297 16.9846Z" fill="#E1EBF0"/>
<path d="M9.79102 16.9846V28.8138C9.44631 28.6786 9.07703 28.6129 8.70703 28.6179V17.0547C9.0698 17.0547 9.43258 17.0316 9.79102 16.9846Z" fill="#CADEE5"/>
<path d="M8.70801 17.416C13.5173 17.416 17.416 13.5173 17.416 8.70801C17.416 3.89871 13.5173 0 8.70801 0C3.89871 0 0 3.89871 0 8.70801C0 13.5173 3.89871 17.416 8.70801 17.416Z" fill="#6AA9FF"/>
<path d="M17.415 8.70801C17.415 13.5093 13.5084 17.416 8.70703 17.416V0C13.5084 0 17.415 3.90668 17.415 8.70801Z" fill="#2880EA"/>
<path d="M8.70801 15.248C12.32 15.248 15.248 12.32 15.248 8.70801C15.248 5.09604 12.32 2.16797 8.70801 2.16797C5.09604 2.16797 2.16797 5.09604 2.16797 8.70801C2.16797 12.32 5.09604 15.248 8.70801 15.248Z" fill="#F3FAFF"/>
<path d="M15.2471 8.70801C15.2471 12.3141 12.3131 15.248 8.70703 15.248V2.16797C12.3131 2.16797 15.2471 5.10195 15.2471 8.70801Z" fill="#F3FAFF"/>
<path d="M9.36133 4.4082H7.19336C6.59471 4.4082 6.10938 4.89354 6.10938 5.49219V11.9961C6.10938 12.5947 6.59471 13.0801 7.19336 13.0801C7.79201 13.0801 8.27734 12.5947 8.27734 11.9961V10.9121H9.36133C11.1545 10.9121 12.6133 9.45328 12.6133 7.66016C12.6133 5.86703 11.1545 4.4082 9.36133 4.4082ZM9.36133 8.74414H8.27734V6.57617H9.36133C9.95904 6.57617 10.4453 7.06245 10.4453 7.66016C10.4453 8.25787 9.95904 8.74414 9.36133 8.74414Z" fill="#6AA9FF"/>
<path d="M9.35887 4.4082H8.70703V6.57617H9.35887C9.95723 6.57617 10.4429 7.06252 10.4429 7.66016C10.4429 8.25779 9.95723 8.74414 9.35887 8.74414H8.70703V10.9121H9.35887C11.1525 10.9121 12.6108 9.45307 12.6108 7.66016C12.6108 5.86725 11.1525 4.4082 9.35887 4.4082Z" fill="#2880EA"/>
<path d="M20.1394 17.416H31.0993L31.9067 21.8242H19.332L20.1394 17.416Z" fill="#9FCAFC"/>
<path d="M31.9043 21.8242H25.6172V17.416H31.0971L31.9043 21.8242Z" fill="#6AA9FF"/>
<path d="M17.4902 28.3281C18.0889 28.3281 18.5742 27.8428 18.5742 27.2441C18.5742 26.6455 18.0889 26.1602 17.4902 26.1602C16.8916 26.1602 16.4062 26.6455 16.4062 27.2441C16.4062 27.8428 16.8916 28.3281 17.4902 28.3281Z" fill="#FFDE55"/>
<path d="M33.748 28.3281C34.3467 28.3281 34.832 27.8428 34.832 27.2441C34.832 26.6455 34.3467 26.1602 33.748 26.1602C33.1494 26.1602 32.6641 26.6455 32.6641 27.2441C32.6641 27.8428 33.1494 28.3281 33.748 28.3281Z" fill="#F4B73B"/>
<path d="M29.4141 26.1602H21.8262C21.2275 26.1602 20.7422 26.6455 20.7422 27.2441C20.7422 27.8428 21.2275 28.3281 21.8262 28.3281H29.4141C30.0127 28.3281 30.498 27.8428 30.498 27.2441C30.498 26.6455 30.0127 26.1602 29.4141 26.1602Z" fill="#FF415B"/>
<path d="M30.4951 27.2441C30.4951 27.8425 30.0095 28.3281 29.4111 28.3281H25.6172V26.1602H29.4111C30.0095 26.1602 30.4951 26.6458 30.4951 27.2441Z" fill="#D10050"/>
<path d="M8.74414 28.2559C6.95101 28.2559 5.49219 29.7147 5.49219 31.5078V35.916C5.49219 36.5147 5.97752 37 6.57617 37H10.9121C11.5108 37 11.9961 36.5147 11.9961 35.916V31.5078C11.9961 29.7147 10.5373 28.2559 8.74414 28.2559Z" fill="#CADEE5"/>
<path d="M11.9951 31.5078V35.916C11.9951 36.5144 11.5095 37 10.9111 37H8.70703V28.2559H8.74316C10.5361 28.2559 11.9951 29.7149 11.9951 31.5078Z" fill="#B4D0D8"/>
</svg>
