<svg width="37" height="37" viewBox="0 0 37 37" fill="none" xmlns="http://www.w3.org/2000/svg">
<g clip-path="url(#clip0)">
<path d="M31.7834 9.38087C31.4955 9.38087 31.198 9.26655 30.9948 9.06326L27.9387 6.00716C27.7354 5.80387 27.6211 5.52869 27.6211 5.24078C27.6211 4.95288 27.7354 4.65536 27.9387 4.45215L30.9948 1.39496C31.4013 0.988465 32.1211 0.988465 32.5276 1.39496L35.607 4.47433C35.8103 4.67762 35.9246 4.9528 35.9246 5.24071C35.9246 5.52862 35.8103 5.80387 35.607 6.00709L32.5498 9.06319C32.3466 9.26655 32.0713 9.38087 31.7834 9.38087Z" fill="#C5C9F7"/>
<path d="M9.83474 22.5678L14.4336 27.1666L27.1684 14.4319L22.5695 9.83301L9.83474 22.5678Z" fill="#C5C9F7"/>
<path d="M5.24539 35.9174C4.96804 35.9174 4.69068 35.8115 4.47902 35.5998L1.39964 32.5214C1.19636 32.3181 1.08203 32.0429 1.08203 31.755C1.08203 31.4671 1.19636 31.1919 1.39964 30.9886L4.45683 27.9325C4.88024 27.5091 5.56625 27.5091 5.98966 27.9325L9.06803 31.0109C9.49143 31.4343 9.49143 32.1203 9.06803 32.5437L6.01191 35.5998C5.8001 35.8115 5.52275 35.9174 5.24539 35.9174Z" fill="#C5C9F7"/>
<path d="M4.47705 35.5999C4.68878 35.8117 4.96614 35.9175 5.24342 35.9175C5.52071 35.9175 5.79813 35.8117 6.0098 35.5999L9.06591 32.5438C9.48931 32.1204 9.48931 31.4344 9.06591 31.011L7.52673 29.4718L2.9375 34.061L4.47705 35.5999Z" fill="#A8AFF1"/>
<path d="M30.989 9.06331C31.1923 9.26659 31.4897 9.38092 31.7776 9.38092C32.0655 9.38092 32.3408 9.26659 32.544 9.06331L35.6012 6.0072C35.8045 5.80392 35.9188 5.52873 35.9188 5.24083C35.9188 4.95292 35.8045 4.67766 35.6012 4.47445L34.0615 2.93469L29.4609 7.53526L30.989 9.06331Z" fill="#A8AFF1"/>
<path d="M24.8637 12.1329L12.1289 24.8677L14.4281 27.1668L27.1628 14.432L24.8637 12.1329Z" fill="#A8AFF1"/>
<path d="M34.0663 16.7313L20.2695 2.93448L22.569 0.634997C23.4157 -0.211666 24.7884 -0.211666 25.635 0.634997L36.3658 11.3658C37.2125 12.2125 37.2125 13.5852 36.3658 14.4318L34.0663 16.7313Z" fill="#1689FC"/>
<path d="M30.9989 21.3302L15.6691 6.00037C15.2457 5.57704 15.2457 4.89073 15.6691 4.4674L17.202 2.93444C18.0487 2.08777 19.4214 2.08777 20.268 2.93444L34.0648 16.7313C34.9115 17.5779 34.9115 18.9506 34.0648 19.7972L32.5319 21.3302C32.1085 21.7535 31.4222 21.7535 30.9989 21.3302Z" fill="#17ACE8"/>
<path d="M2.93448 20.2687L16.7313 34.0655L14.4319 36.365C13.5852 37.2117 12.2125 37.2117 11.3659 36.365L0.634997 25.6341C-0.211666 24.7874 -0.211666 23.4148 0.634997 22.5682L2.93448 20.2687Z" fill="#1689FC"/>
<path d="M6.00171 15.6697L21.3315 30.9995C21.7549 31.4228 21.7549 32.1091 21.3315 32.5325L19.7986 34.0654C18.9519 34.9121 17.5792 34.9121 16.7326 34.0654L2.93578 20.2686C2.08912 19.422 2.08912 18.0493 2.93578 17.2027L4.46875 15.6697C4.89208 15.2463 5.57838 15.2463 6.00171 15.6697Z" fill="#17ACE8"/>
<path d="M11.3651 36.365C12.2117 37.2116 13.5844 37.2116 14.4311 36.365L16.7306 34.0655L9.83246 27.1672L6 30.9997L11.3651 36.365Z" fill="#136EF1"/>
<path d="M27.168 9.83306L34.0661 16.7313L36.3656 14.4318C37.2121 13.5852 37.2121 12.2125 36.3656 11.3659L31.0004 6.00061L27.168 9.83306Z" fill="#136EF1"/>
<path d="M16.7301 34.0655C17.5767 34.9121 18.9494 34.9121 19.7961 34.0655L21.3291 32.5324C21.7524 32.109 21.7524 31.4227 21.3291 30.9994L13.6645 23.3348L9.83203 27.1673L16.7301 34.0655Z" fill="#1689FC"/>
<path d="M30.9967 21.3303C31.42 21.7536 32.1063 21.7536 32.5296 21.3303L34.0626 19.7972C34.9092 18.9506 34.9092 17.5779 34.0626 16.7313L27.1645 9.83301L23.332 13.6655L30.9967 21.3303Z" fill="#1689FC"/>
</g>
<defs>
<clipPath id="clip0">
<rect width="37" height="37" fill="white"/>
</clipPath>
</defs>
</svg>
