<svg width="37" height="37" viewBox="0 0 37 37" fill="none" xmlns="http://www.w3.org/2000/svg">
<path d="M36.4579 37H0.541991C0.242767 37 0 36.7572 0 36.458V35.4313C0 35.1318 0.242767 34.889 0.541991 34.889H36.4579C36.7572 34.889 36.9999 35.1318 36.9999 35.4313V36.458C36.9999 36.7572 36.7572 37 36.4579 37Z" fill="#7D7D7D"/>
<path d="M0 35.4474V35.8384H36.9999V35.4474C36.9999 35.1391 36.7501 34.889 36.4416 34.889H0.558364C0.249824 34.889 0 35.1391 0 35.4474H0Z" fill="#525252"/>
<path d="M9.17969 9.39258H27.8197V34.8891H9.17969V9.39258Z" fill="#B6E5F0"/>
<path d="M28.6786 7.38269C28.9869 7.38269 29.237 7.63251 29.237 7.94106V8.83421C29.237 9.14275 28.9869 9.39258 28.6786 9.39258H8.32399C8.01573 9.39258 7.76562 9.14275 7.76562 8.83421V7.94106C7.76562 7.6328 8.01573 7.38269 8.32399 7.38269H28.6786Z" fill="#7D7D7D"/>
<path d="M25.7695 7.38269V9.39258H28.676C28.9842 9.39258 29.2343 9.14275 29.2343 8.83421V7.94106C29.2343 7.6328 28.9842 7.38269 28.676 7.38269H25.7695Z" fill="#525252"/>
<path d="M9.17999 15.1368H0.541992C0.242767 15.1368 0 14.8941 0 14.5946V13.6689C0 13.3694 0.242767 13.127 0.541992 13.127H9.17999V15.1368Z" fill="#7D7D7D"/>
<path d="M7.40625 13.127H9.17873V15.1368H7.40625V13.127Z" fill="#525252"/>
<path d="M7.40625 13.127H9.17873V15.1368H7.40625V13.127Z" fill="#525252"/>
<path d="M23.4878 34.8891H13.5117V27.0401C13.5117 26.1884 14.2022 25.4979 15.0539 25.4979H21.9456C22.7973 25.4979 23.4875 26.1884 23.4875 27.0401V34.8891H23.4878Z" fill="#5B9ED6"/>
<path d="M17.2227 25.4979H19.7785V34.8891H17.2227V25.4979Z" fill="#4D86B5"/>
<path d="M0.804688 15.1368H9.17818V34.8894H0.804688V15.1368Z" fill="#B6E5F0"/>
<path d="M7.40625 15.1368H9.17873V34.8894H7.40625V15.1368Z" fill="#9BC3CC"/>
<path d="M7.40625 15.1368H9.17873V34.8894H7.40625V15.1368Z" fill="#9BC3CC"/>
<path d="M36.1938 34.8891H27.8203V15.1368H36.1938V34.8891Z" fill="#B6E5F0"/>
<path d="M27.8203 15.1368H29.5928V34.8894H27.8203V15.1368Z" fill="#9BC3CC"/>
<path d="M13.6756 19.3685H11.8125C11.491 19.3685 11.2305 19.1077 11.2305 18.7862V13.9455C11.2305 13.624 11.491 13.3632 11.8125 13.3632H13.6756C13.9972 13.3632 14.2577 13.624 14.2577 13.9455V18.7862C14.258 19.1077 13.9972 19.3685 13.6756 19.3685Z" fill="#5B9ED6"/>
<path d="M19.4335 19.3685H17.5704C17.2488 19.3685 16.9883 19.1077 16.9883 18.7862V13.9455C16.9883 13.624 17.2488 13.3632 17.5704 13.3632H19.4335C19.755 13.3632 20.0155 13.624 20.0155 13.9455V18.7862C20.0155 19.1077 19.755 19.3685 19.4335 19.3685Z" fill="#5B9ED6"/>
<path d="M25.1913 19.3685H23.3282C23.0066 19.3685 22.7461 19.1077 22.7461 18.7862V13.9455C22.7461 13.624 23.0066 13.3632 23.3282 13.3632H25.1913C25.5128 13.3632 25.7733 13.624 25.7733 13.9455V18.7862C25.7733 19.1077 25.5128 19.3685 25.1913 19.3685Z" fill="#5B9ED6"/>
<path d="M5.92564 28.0156H4.06283C3.7413 28.0156 3.48047 27.7548 3.48047 27.4333V22.5926C3.48047 22.2711 3.7413 22.0103 4.06283 22.0103H5.92564C6.24745 22.0103 6.508 22.2711 6.508 22.5926V27.4333C6.508 27.7551 6.24745 28.0156 5.92564 28.0156Z" fill="#5B9ED6"/>
<path d="M31.0745 28.0156H32.9374C33.2589 28.0156 33.5197 27.7548 33.5197 27.4333V22.5926C33.5197 22.2711 33.2589 22.0103 32.9374 22.0103H31.0745C30.7527 22.0103 30.4922 22.2711 30.4922 22.5926V27.4333C30.4922 27.7551 30.7527 28.0156 31.0745 28.0156Z" fill="#5B9ED6"/>
<path d="M36.4419 13.127C36.7505 13.127 37.0003 13.3768 37.0003 13.6853V14.5785C37.0003 14.8867 36.7505 15.1368 36.4419 15.1368H27.8203V13.127H36.4419Z" fill="#7D7D7D"/>
<path d="M27.8203 13.127H29.5928V15.1368H27.8203V13.127Z" fill="#525252"/>
<path d="M23.698 7.38267V1.20255C23.698 0.538322 23.1596 0 22.4954 0H14.5072C13.843 0 13.3047 0.538322 13.3047 1.20255V7.38267H23.698Z" fill="#EF2D57"/>
<path d="M21.8594 0V7.38267H23.6957V1.20255C23.6957 0.538322 23.1573 0 22.4931 0H21.8594Z" fill="#D4284D"/>
<path d="M20.2135 3.13313H19.0596V1.97914C19.0596 1.6706 18.8097 1.42078 18.5012 1.42078C18.1926 1.42078 17.9428 1.6706 17.9428 1.97914V3.13313H16.7888C16.4806 3.13313 16.2305 3.38296 16.2305 3.6915C16.2305 3.99976 16.4806 4.24986 16.7888 4.24986H17.9428V5.40357C17.9428 5.71211 18.1926 5.96222 18.5012 5.96222C18.8097 5.96222 19.0596 5.71211 19.0596 5.40357V4.24958H20.2135C20.5218 4.24958 20.7719 3.99976 20.7719 3.69122C20.7719 3.38296 20.5218 3.13313 20.2135 3.13313Z" fill="white"/>
</svg>
