<svg width="37" height="37" viewBox="0 0 37 37" fill="none" xmlns="http://www.w3.org/2000/svg">
<g clip-path="url(#clip0)">
<path d="M33.5146 7.90784L34.2373 13.7012L33.5146 19.4946H31.9811C31.2688 19.4946 30.6914 18.9172 30.6914 18.205V9.19749C30.6914 8.48524 31.2688 7.90784 31.9811 7.90784H33.5146Z" fill="#7F78BD"/>
<path d="M23.1083 13.3833C23.7738 12.0844 23.2603 10.4918 21.9613 9.82628C20.6624 9.16074 19.0698 9.67424 18.4043 10.9732C17.7387 12.2722 18.2522 13.8647 19.5512 14.5303C20.8502 15.1958 22.4427 14.6823 23.1083 13.3833Z" fill="#ECB880"/>
<path d="M20.7589 9.54053C20.4692 9.54053 20.1906 9.58786 19.9297 9.674C20.9829 10.0219 21.7432 11.0134 21.7432 12.1832C21.7432 13.353 20.9829 14.3445 19.9297 14.6924C20.1906 14.7786 20.4692 14.8259 20.7589 14.8259C22.2185 14.8259 23.4016 13.6427 23.4016 12.1832C23.4017 10.7237 22.2185 9.54053 20.7589 9.54053Z" fill="#E5936A"/>
<path d="M16.0805 7.16907V15.7469H13.131V12.6568C13.131 11.4189 12.1274 10.4152 10.8894 10.4152C9.65143 10.4152 8.64867 11.4188 8.64867 12.6568V15.7469H5.69922V7.16907L10.8898 6.44641L16.0805 7.16907Z" fill="#77D1B3"/>
<path d="M14.5703 7.16907H16.0799V15.7469H14.5703V7.16907Z" fill="#61AAB8"/>
<path d="M11.1158 0.257596L17.3731 6.63164C17.5694 6.83153 17.4277 7.16908 17.1476 7.16908H4.6331C4.35292 7.16908 4.21128 6.8316 4.40756 6.63164L10.6648 0.257596C10.7886 0.13142 10.992 0.13142 11.1158 0.257596Z" fill="#E27F86"/>
<path d="M17.3749 6.63171L11.1177 0.257596C10.9939 0.13142 10.7906 0.13142 10.6666 0.257596L9.91406 1.02426L15.4187 6.63164C15.615 6.83153 15.4733 7.16908 15.1931 7.16908H17.1494C17.4295 7.16908 17.5712 6.8316 17.3749 6.63171Z" fill="#CD5668"/>
<path d="M21.303 25.9971L19.6101 35.812C19.5065 36.4125 18.9849 36.837 18.3959 36.837C18.3259 36.837 18.256 36.8304 18.1844 36.8181C17.5132 36.7029 17.0624 36.0645 17.1783 35.3924L18.799 25.9971H21.303Z" fill="#E27F86"/>
<path d="M34.7632 36.8182C34.6916 36.8305 34.6217 36.8371 34.5517 36.8371C33.9627 36.8371 33.4411 36.4126 33.3375 35.8121L31.6445 25.9972H34.1486L35.7692 35.3925C35.8853 36.0646 35.4344 36.703 34.7632 36.8182Z" fill="#E27F86"/>
<path d="M33.5156 7.38335V25.4493H35.9836V7.38335C35.9836 6.70188 35.4311 6.14941 34.7496 6.14941C34.0682 6.14941 33.5156 6.70188 33.5156 7.38335Z" fill="#ECB880"/>
<path d="M15.9453 25.5577V26.7779C15.9453 27.4397 16.4818 27.9762 17.1436 27.9762H35.8021C36.4639 27.9762 37.0004 27.4397 37.0004 26.7779V25.5577C37.0004 24.8959 36.4639 24.3594 35.8021 24.3594H17.1437C16.4818 24.3593 15.9453 24.8958 15.9453 25.5577Z" fill="#9D6C6C"/>
<path d="M35.8021 26.5618H17.1436C16.5146 26.5618 15.9998 26.0769 15.9502 25.4606C15.9476 25.4927 15.9453 25.525 15.9453 25.5577V26.7779C15.9453 27.4397 16.4818 27.9762 17.1436 27.9762H35.8021C36.4639 27.9762 37.0004 27.4397 37.0004 26.7779C37.0004 26.7779 36.9981 25.4927 36.9955 25.4606C36.9459 26.0769 36.4311 26.5618 35.8021 26.5618Z" fill="#8C5E5E"/>
<path d="M3.80878 36.8369H1.95408C1.76316 36.8369 1.61226 36.6749 1.62585 36.4845L2.99919 17.2168H6.64795L4.13506 36.5503C4.11381 36.7143 3.97412 36.8369 3.80878 36.8369Z" fill="#ECB880"/>
<path d="M23.9095 36.8369H25.7642C25.9551 36.8369 26.106 36.6749 26.0924 36.4845L24.7191 17.2168H21.0703L23.5832 36.5503C23.6045 36.7143 23.7441 36.8369 23.9095 36.8369Z" fill="#ECB880"/>
<path d="M0 15.165V18.2463C0 18.4735 0.184133 18.6577 0.411336 18.6577H27.3074C27.5345 18.6577 27.7187 18.4735 27.7187 18.2463V15.165C27.7187 14.9379 27.5346 14.7537 27.3074 14.7537H0.411336C0.184133 14.7537 0 14.9378 0 15.165H0Z" fill="#9D6C6C"/>
<path d="M27.3074 17.2432H0.411336C0.184205 17.2432 0 17.0591 0 16.8319V18.2464C0 18.4735 0.184133 18.6577 0.411336 18.6577H27.3074C27.5346 18.6577 27.7187 18.4736 27.7187 18.2464V16.8319C27.7186 17.0591 27.5345 17.2432 27.3074 17.2432Z" fill="#8C5E5E"/>
</g>
<defs>
<clipPath id="clip0">
<rect width="37" height="37" fill="white"/>
</clipPath>
</defs>
</svg>
