<svg width="37" height="37" viewBox="0 0 37 37" fill="none" xmlns="http://www.w3.org/2000/svg">
<path d="M7.83839 16.9323H7.21127C6.51854 16.9323 5.95703 17.4938 5.95703 18.1865V18.8136C5.95907 20.5445 7.36178 21.9472 9.09262 21.9492H9.71974C10.4125 21.9492 10.974 21.3877 10.974 20.695V20.0678C10.9719 18.337 9.56924 16.9343 7.83839 16.9323Z" fill="#33BC00"/>
<path d="M11.6001 16.9323H10.973C10.2803 16.9323 9.71875 17.4938 9.71875 18.1865V18.8136C9.72079 20.5445 11.1235 21.9472 12.8543 21.9492H13.4815C14.1742 21.9492 14.7357 21.3877 14.7357 20.695V20.0678C14.7337 18.337 13.3309 16.9343 11.6001 16.9323Z" fill="#79D60D"/>
<path d="M6.58448 20.6949H5.95736C5.26463 20.6949 4.70312 21.2565 4.70312 21.9492V22.5763C4.70516 24.3071 6.10787 25.7099 7.83872 25.7119H8.46584C9.15857 25.7119 9.72008 25.1504 9.72008 24.4577V23.8305C9.71804 22.0997 8.31533 20.697 6.58448 20.6949Z" fill="#025902"/>
<path d="M10.3462 20.6949H9.71908C9.02635 20.6949 8.46484 21.2565 8.46484 21.9492V22.5763C8.46688 24.3071 9.86959 25.7099 11.6004 25.7119H12.2276C12.9203 25.7119 13.4818 25.1504 13.4818 24.4577V23.8305C13.4798 22.0997 12.077 20.697 10.3462 20.6949Z" fill="#008100"/>
<path d="M14.1118 20.6949H13.4847C12.792 20.6949 12.2305 21.2565 12.2305 21.9492V22.5763C12.2325 24.3071 13.6352 25.7099 15.3661 25.7119H15.9932C16.6859 25.7119 17.2474 25.1504 17.2474 24.4577V23.8305C17.2454 22.0997 15.8427 20.697 14.1118 20.6949Z" fill="#33BC00"/>
<path d="M22.9219 16.1071L23.5492 14.226L24.739 14.6228L24.1117 16.5039L22.9219 16.1071Z" fill="#008100"/>
<path d="M25.4297 16.1043L26.057 14.2231L27.2468 14.62L26.6195 16.5011L25.4297 16.1043Z" fill="#008100"/>
<path d="M27.9414 16.1063L28.5688 14.2252L29.7586 14.622L29.1312 16.5031L27.9414 16.1063Z" fill="#008100"/>
<path d="M23.5181 15.678C22.479 15.678 21.6367 16.5203 21.6367 17.5593V20.6949H25.3994V17.5593C25.3994 16.5203 24.5571 15.678 23.5181 15.678Z" fill="#FF8800"/>
<path d="M26.0259 15.678C24.9868 15.678 24.1445 16.5203 24.1445 17.5593V20.6949H27.9072V17.5593C27.9072 16.5203 27.0649 15.678 26.0259 15.678Z" fill="#FF6536"/>
<path d="M28.5337 15.678C27.4946 15.678 26.6523 16.5203 26.6523 17.5593V20.6949H30.4151V17.5593C30.4151 16.5203 29.5728 15.678 28.5337 15.678Z" fill="#FF421D"/>
<path d="M20.3828 20.0677H31.6709V25.0847H20.3828V20.0677Z" fill="#FFA900"/>
<path d="M34.8055 25.7119H2.19531V10.661H3.44955V24.4576H33.5512V10.661H34.8055V25.7119Z" fill="#763A02"/>
<path d="M16.6211 0H20.3838V8.77966H16.6211V0Z" fill="#DE0418"/>
<path d="M12.8565 8.77966V0H10.0695L9.09375 8.77966H12.8565Z" fill="#DE0418"/>
<path d="M12.8594 0H16.6221V8.77966H12.8594V0Z" fill="#FBBF00"/>
<path d="M9.09474 8.77966L10.0705 0H7.283L5.33203 8.77966H9.09474Z" fill="#FBBF00"/>
<path d="M31.6721 8.77966L29.7211 0H26.9336L27.9094 8.77966H31.6721Z" fill="#FBBF00"/>
<path d="M7.28008 0H5.32912L1.56641 7.52542V8.77966H5.32912L7.28008 0Z" fill="#DE0418"/>
<path d="M27.9072 8.77966L26.9314 0H24.1445V8.77966H27.9072Z" fill="#DE0418"/>
<path d="M20.3828 0H24.1455V8.77966H20.3828V0Z" fill="#FBBF00"/>
<path d="M31.6697 0H29.7188L31.6697 8.77966H35.4324V7.52542L31.6697 0Z" fill="#DE0418"/>
<path d="M1.56641 8.77966V10.661C1.56641 11.7001 2.4087 12.5424 3.44776 12.5424C4.48682 12.5424 5.32912 11.7001 5.32912 10.661V8.77966H1.56641Z" fill="#FF421D"/>
<path d="M5.33203 8.77966V10.661C5.33203 11.7001 6.17433 12.5424 7.21339 12.5424C8.25244 12.5424 9.09474 11.7001 9.09474 10.661V8.77966H5.33203Z" fill="#FFDB0C"/>
<path d="M9.09375 8.77966V10.661C9.09375 11.7001 9.93605 12.5424 10.9751 12.5424C12.0142 12.5424 12.8565 11.7001 12.8565 10.661V8.77966H9.09375Z" fill="#FF421D"/>
<path d="M12.8555 8.77966V10.661C12.8555 11.7001 13.6978 12.5424 14.7368 12.5424C15.7759 12.5424 16.6182 11.7001 16.6182 10.661V8.77966H12.8555Z" fill="#FFDB0C"/>
<path d="M16.6172 8.77966V10.661C16.6172 11.7001 17.4595 12.5424 18.4985 12.5424C19.5376 12.5424 20.3799 11.7001 20.3799 10.661V8.77966H16.6172Z" fill="#FF421D"/>
<path d="M20.3828 8.77966V10.661C20.3828 11.7001 21.2251 12.5424 22.2642 12.5424C23.3032 12.5424 24.1455 11.7001 24.1455 10.661V8.77966H20.3828Z" fill="#FFDB0C"/>
<path d="M24.1445 8.77966V10.661C24.1445 11.7001 24.9868 12.5424 26.0259 12.5424C27.0649 12.5424 27.9072 11.7001 27.9072 10.661V8.77966H24.1445Z" fill="#FF421D"/>
<path d="M27.9062 8.77966V10.661C27.9062 11.7001 28.7485 12.5424 29.7876 12.5424C30.8267 12.5424 31.669 11.7001 31.669 10.661V8.77966H27.9062Z" fill="#FFDB0C"/>
<path d="M31.668 10.661C31.668 11.7001 32.5103 12.5424 33.5493 12.5424C34.5884 12.5424 35.4307 11.7001 35.4307 10.661V8.77966H31.668V10.661Z" fill="#FF421D"/>
<path d="M0.941406 24.4576H36.0601V37H0.941406V24.4576Z" fill="#FFDB0C"/>
<path d="M22.2617 21.9491H29.7871V23.2033H22.2617V21.9491Z" fill="#E47700"/>
<path d="M23.0742 28.4056L24.9557 26.524L25.8426 27.411L23.9611 29.2925L23.0742 28.4056Z" fill="#33BC00"/>
<path d="M24.1445 28.8474H26.0259V30.1016H24.1445V28.8474Z" fill="#33BC00"/>
<path d="M22.2067 27.5933H22.006C21.1777 27.5942 20.4006 27.9941 19.9183 28.6675L17.5396 31.9981C17.0336 32.7072 17.1982 33.6921 17.9072 34.1982C18.1746 34.389 18.4949 34.4916 18.8233 34.4916H18.9036C19.1483 34.4912 19.3895 34.4343 19.6085 34.3254L23.3543 32.4522C24.6212 31.8186 25.1346 30.2778 24.501 29.0109C24.0664 28.1419 23.1781 27.5932 22.2067 27.5933Z" fill="#FF6536"/>
<path d="M15.3657 28.2203H14.7386C14.0459 28.2203 13.4844 28.7818 13.4844 29.4746V30.1017C13.4871 32.525 15.4509 34.4888 17.8742 34.4915H18.5013C19.1941 34.4915 19.7556 33.93 19.7556 33.2373V32.6102C19.7528 30.1869 17.789 28.2231 15.3657 28.2203Z" fill="#79D60D"/>
</svg>
