<svg width="37" height="37" viewBox="0 0 37 37" fill="none" xmlns="http://www.w3.org/2000/svg">
<g clip-path="url(#clip0)">
<path d="M5.49219 6.57617C2.5005 6.57617 0 9.00441 0 11.9961V14.1641C0 17.1557 2.5005 19.584 5.49219 19.584C8.48387 19.584 10.9121 17.1557 10.9121 14.1641V11.9961C10.9121 9.00441 8.48387 6.57617 5.49219 6.57617Z" fill="#90E36A"/>
<path d="M10.9121 11.9961V14.1641C10.9121 17.1557 8.48387 19.584 5.49219 19.584V6.57617C8.48387 6.57617 10.9121 9.00441 10.9121 11.9961Z" fill="#56C225"/>
<path d="M4.40625 13.0801H6.57422V25.0039H4.40625V13.0801Z" fill="#725D57"/>
<path d="M5.49219 13.0801H6.57617V25.0039H5.49219V13.0801Z" fill="#53433F"/>
<path d="M18.498 2.24023C15.5064 2.24023 13.0781 4.66847 13.0781 7.66016V9.82812C13.0781 12.8198 15.5064 15.248 18.498 15.248C21.4897 15.248 23.918 12.8198 23.918 9.82812V7.66016C23.918 4.66847 21.4897 2.24023 18.498 2.24023Z" fill="#90E36A"/>
<path d="M23.9199 7.66016V9.82812C23.9199 12.8198 21.4917 15.248 18.5 15.248V2.24023C21.4917 2.24023 23.9199 4.66847 23.9199 7.66016Z" fill="#56C225"/>
<path d="M17.4141 8.74414H19.582V20.668H17.4141V8.74414Z" fill="#725D57"/>
<path d="M18.5 8.74414H19.584V20.668H18.5V8.74414Z" fill="#53433F"/>
<path d="M31.5059 6.57617C28.5142 6.57617 26.0859 9.00441 26.0859 11.9961V14.1641C26.0859 17.1557 28.5142 19.584 31.5059 19.584C34.4975 19.584 36.998 17.1557 36.998 14.1641V11.9961C36.998 9.00441 34.4975 6.57617 31.5059 6.57617Z" fill="#90E36A"/>
<path d="M37 11.9961V14.1641C37 17.1557 34.4995 19.584 31.5078 19.584V6.57617C34.4995 6.57617 37 9.00441 37 11.9961Z" fill="#56C225"/>
<path d="M30.4219 13.0801H32.5898V25.0039H30.4219V13.0801Z" fill="#725D57"/>
<path d="M31.5078 13.0801H32.5918V25.0039H31.5078V13.0801Z" fill="#53433F"/>
<path d="M36.8838 28.8549C36.708 28.5034 32.6487 20.8345 21.2753 19.7277L19.3789 31.7003L34.3805 34.7598H36.9982V29.0835L36.8838 28.8549Z" fill="#56C225"/>
<path d="M34.3929 34.7598H15.0327L6.85938 27.8005L16.1385 19.6706C16.572 19.6489 18.3713 19.584 18.5015 19.584C19.4771 19.584 20.3877 19.6489 21.2766 19.7359L21.5149 19.9309C22.5774 20.6028 24.2901 22.5757 24.3115 24.9604C24.3115 25.936 24.0298 27.2368 22.8157 28.4944C22.2737 29.0578 22.4038 29.9468 23.1191 30.272C26.5879 31.7895 31.3792 33.5891 34.3929 34.7598Z" fill="#FED2A4"/>
<path d="M34.3914 34.7598C34.3914 34.7598 24.0935 34.7598 18.5 34.7598V19.584C19.4756 19.584 20.3862 19.6489 21.2752 19.7359L21.5134 19.9309C22.576 20.6028 24.2886 22.5757 24.31 24.9604C24.31 25.936 24.0283 27.2368 22.8142 28.4944C22.2722 29.0578 22.4023 29.9468 23.1177 30.272C26.5864 31.7895 31.3777 33.5891 34.3914 34.7598Z" fill="#F6A96C"/>
<path d="M18.9553 23.7681C18.8687 24.0718 18.7168 24.3535 18.5 24.5921C18.2397 24.9604 17.8279 25.2207 17.3508 25.3291C14.0989 26.1311 12.148 27.2803 11.6709 28.7112C11.2156 30.0986 12.2778 31.6597 12.9499 32.4617L15.0312 34.7598H0V29.0796L0.108398 28.8628C0.281723 28.5376 3.73608 22.0337 13.1236 20.126C14.0774 19.9309 15.0747 19.7791 16.137 19.6707C16.7439 20.1477 17.2427 20.6028 18.3484 21.6436C18.4133 21.7085 18.4568 21.752 18.5 21.8169C18.9553 22.3589 19.1287 23.0745 18.9553 23.7681Z" fill="#90E36A"/>
<path d="M18.9553 23.7681C18.8687 24.0718 18.7168 24.3535 18.5 24.5921V21.8169C18.9553 22.3589 19.1286 23.0745 18.9553 23.7681Z" fill="#49A520"/>
</g>
<defs>
<clipPath id="clip0">
<rect width="37" height="37" fill="white"/>
</clipPath>
</defs>
</svg>
