<svg width="37" height="37" viewBox="0 0 37 37" fill="none" xmlns="http://www.w3.org/2000/svg">
<path d="M35.6436 2.51025H1.35156V35.5893H35.6436V2.51025Z" fill="#6EBEFF"/>
<path d="M15.8088 13.677H2.39844V35.5892H15.8088V13.677Z" fill="white"/>
<path d="M8.78439 14.3502H3.07031V35.5892H8.78439V14.3502Z" fill="#2D4151"/>
<path d="M15.1711 14.3502H9.45703V35.5892H15.1711V14.3502Z" fill="#2D4151"/>
<path d="M34.6998 13.677H16.5312V27.0975H34.6998V13.677Z" fill="white"/>
<path d="M25.2765 14.3502H17.1055V26.4686H25.2765V14.3502Z" fill="#2D4151"/>
<path d="M34.1203 14.3502H25.9492V26.4686H34.1203V14.3502Z" fill="#2D4151"/>
<path opacity="0.2" d="M14.7751 26.2595V35.2281H9.64453C9.64453 35.2281 14.1466 33.7878 14.7751 26.2595Z" fill="#FCFAFA"/>
<path opacity="0.2" d="M8.43134 26.2595V35.2281H3.30078C3.30078 35.2281 7.80284 33.7878 8.43134 26.2595Z" fill="#FCFAFA"/>
<path d="M8.01581 25.1649H7.53516V26.8953H8.01581V25.1649Z" fill="white"/>
<path d="M10.7072 25.1649H10.2266V26.8953H10.7072V25.1649Z" fill="white"/>
<path d="M35.1593 4.12598H2.85938V11.4218H35.1593V4.12598Z" fill="#5DB0E8"/>
<path d="M34.6983 3.6637H2.39844V10.9595H34.6983V3.6637Z" fill="white"/>
<path d="M6.14078 4.33167C4.48167 4.33167 3.13672 5.66585 3.13672 7.3117C3.13672 8.95754 4.48167 10.2917 6.14078 10.2917C7.79989 10.2917 9.14485 8.95754 9.14485 7.3117C9.14485 5.66585 7.79989 4.33167 6.14078 4.33167ZM6.85234 8.01748V9.69043H5.42932V8.01748H3.74282V6.60591H5.42932V4.93286H6.85234V6.60591H8.53884V8.01748H6.85234Z" fill="#39B54A"/>
<path d="M21.3172 15.8501C19.9793 15.8501 18.8945 16.9261 18.8945 18.2534C18.8945 19.5806 19.9792 20.6566 21.3172 20.6566C22.6551 20.6566 23.7399 19.5806 23.7399 18.2534C23.7399 16.9261 22.6552 15.8501 21.3172 15.8501ZM21.891 18.8225V20.1717H20.7434V18.8225H19.3834V17.6842H20.7434V16.335H21.891V17.6842H23.2511V18.8225H21.891Z" fill="#51697A"/>
<path d="M21.1454 22.5535C19.9951 22.5535 19.0625 23.4859 19.0625 24.6363V27.0977H23.2281V24.6363C23.2282 23.4859 22.2956 22.5535 21.1454 22.5535Z" fill="white"/>
<path d="M19.6406 26.4686V24.6362C19.6406 23.8057 20.3162 23.1301 21.1467 23.1301C21.9772 23.1301 22.6527 23.8057 22.6527 24.6362V26.4686H19.6406Z" fill="#2D4151"/>
<path d="M20.2806 25.5393C20.4399 25.5393 20.569 25.4102 20.569 25.2509C20.569 25.0916 20.4399 24.9625 20.2806 24.9625C20.1213 24.9625 19.9922 25.0916 19.9922 25.2509C19.9922 25.4102 20.1213 25.5393 20.2806 25.5393Z" fill="white"/>
<path d="M14.0751 7.44457C13.9041 7.55694 13.6843 7.6399 13.3765 7.6399H12.6145V9.01735H12.1602V5.51514H13.3716C13.6988 5.51514 13.9139 5.58349 14.0946 5.70567C14.3681 5.89129 14.5341 6.19901 14.5341 6.56536C14.5342 6.93661 14.3584 7.26384 14.0751 7.44457ZM13.8601 7.08312C13.992 6.96103 14.0702 6.7705 14.0702 6.57517C14.0702 6.35532 13.9774 6.15998 13.8211 6.03789C13.7136 5.95484 13.5768 5.906 13.3766 5.906H12.6146V7.24913H13.3766C13.5914 7.24913 13.7477 7.18569 13.8601 7.08312Z" fill="#E6E6E6"/>
<path d="M16.5122 9.01735V7.7816C16.5122 7.58136 16.4927 7.46408 16.4438 7.36151C16.3705 7.2101 16.229 7.11234 16.0188 7.11234C15.8088 7.11234 15.6477 7.21001 15.5597 7.3419C15.4963 7.43957 15.4572 7.54704 15.4572 7.76199V9.01735H15.0273V5.51514H15.4572V7.04889L15.4621 7.0538C15.6135 6.87307 15.8724 6.7705 16.1215 6.7705C16.4048 6.7705 16.6832 6.89749 16.8297 7.16127C16.903 7.30297 16.9421 7.46408 16.9421 7.74257V9.01745H16.5122V9.01735Z" fill="#E6E6E6"/>
<path d="M18.8932 7.84995V7.69364C18.8932 7.46899 18.8443 7.35171 18.7564 7.25894C18.6635 7.16128 18.5316 7.11244 18.3704 7.11244C18.1946 7.11244 17.97 7.18079 17.7598 7.33229L17.5889 7.03919C17.8381 6.85847 18.1458 6.77051 18.4242 6.77051C18.683 6.77051 18.9224 6.84376 19.0884 7.01477C19.2594 7.2004 19.3131 7.38113 19.3131 7.68884V9.01745H18.9175L18.9029 8.80741C18.7466 8.99304 18.4584 9.07119 18.2336 9.07119C17.7208 9.07119 17.418 8.73906 17.418 8.34339C17.418 7.97704 17.6964 7.62539 18.2532 7.62539C18.4731 7.6253 18.732 7.70835 18.8932 7.84995ZM18.3363 7.92811C18.0335 7.92811 17.8381 8.09422 17.8381 8.33839C17.8381 8.57775 18.0237 8.75358 18.3314 8.75358C18.6391 8.75358 18.8932 8.59727 18.8932 8.33839C18.8932 8.0747 18.5904 7.92811 18.3363 7.92811Z" fill="#E6E6E6"/>
<path d="M20.7904 7.15147C20.5316 7.15147 20.3166 7.342 20.3166 7.83044V9.01736H19.8867V6.81934H20.2921L20.3068 7.10264C20.4532 6.9024 20.6389 6.77051 20.8831 6.77051C20.9955 6.77051 21.0884 6.79492 21.2006 6.85847L21.1079 7.23453C21.0102 7.18569 20.888 7.15147 20.7904 7.15147Z" fill="#E6E6E6"/>
<path d="M23.2664 7.08312C23.4423 6.88779 23.6865 6.77051 24.004 6.77051C24.2775 6.77051 24.5803 6.89269 24.7171 7.16128C24.7856 7.30297 24.8197 7.46409 24.8197 7.74258V9.01745H24.3898V7.7816C24.3898 7.58136 24.3703 7.46409 24.3264 7.36152C24.2579 7.21011 24.1211 7.11235 23.9258 7.11235C23.7256 7.11235 23.5791 7.20031 23.4959 7.3322C23.4374 7.42986 23.3982 7.54714 23.3982 7.76199V9.01736H22.9683V7.7816C22.9683 7.58136 22.9488 7.46409 22.9049 7.36152C22.8365 7.21011 22.6997 7.11235 22.5043 7.11235C22.3041 7.11235 22.1576 7.20031 22.0744 7.3322C22.0159 7.42986 21.9768 7.54714 21.9768 7.76199V9.01736H21.5469V6.81934H21.9474L21.967 7.08803C22.0597 6.95123 22.2991 6.77051 22.6263 6.77051C22.8708 6.77051 23.115 6.87308 23.2664 7.08312Z" fill="#E6E6E6"/>
<path d="M26.7721 7.84995V7.69364C26.7721 7.46899 26.7232 7.35171 26.6353 7.25894C26.5424 7.16128 26.4105 7.11244 26.2493 7.11244C26.0735 7.11244 25.8489 7.18079 25.6387 7.33229L25.4678 7.03919C25.717 6.85847 26.0247 6.77051 26.3031 6.77051C26.5619 6.77051 26.8013 6.84376 26.9673 7.01477C27.1382 7.2004 27.192 7.38113 27.192 7.68884V9.01745H26.7964L26.7818 8.80741C26.6255 8.99304 26.3373 9.07119 26.1125 9.07119C25.5997 9.07119 25.2969 8.73906 25.2969 8.34339C25.2969 7.97704 25.5753 7.62539 26.1321 7.62539C26.352 7.6253 26.6109 7.70835 26.7721 7.84995ZM26.2152 7.92811C25.9124 7.92811 25.717 8.09422 25.717 8.33839C25.717 8.57775 25.9026 8.75358 26.2103 8.75358C26.518 8.75358 26.7721 8.59727 26.7721 8.33839C26.7721 8.0747 26.4692 7.92811 26.2152 7.92811Z" fill="#E6E6E6"/>
<path d="M28.7982 8.72913C29.0864 8.72913 29.2672 8.59724 29.4382 8.36278L29.7409 8.57283C29.5407 8.88544 29.2085 9.07107 28.808 9.07107C28.129 9.07107 27.6602 8.54841 27.6602 7.92318C27.6602 7.29304 28.1535 6.77039 28.808 6.77039C29.1841 6.77039 29.5162 6.92669 29.7214 7.20999L29.4283 7.44935C29.2916 7.26863 29.0863 7.11722 28.7981 7.11722C28.4075 7.11722 28.09 7.46406 28.09 7.92318C28.0901 8.397 28.4075 8.72913 28.7982 8.72913Z" fill="#E6E6E6"/>
<path d="M29.9297 6.81934H30.3986L31.0629 8.48008H31.0728L31.7077 6.81934H32.1228L30.8138 10.0383H30.3888L30.8333 8.98322L29.9297 6.81934Z" fill="#E6E6E6"/>
<path d="M13.7899 7.15611C13.6189 7.26849 13.3991 7.35145 13.0913 7.35145H12.3293V8.7289H11.875V5.22668H13.0864C13.4137 5.22668 13.6287 5.29503 13.8094 5.41721C14.0829 5.60284 14.2489 5.91055 14.2489 6.27691C14.249 6.64816 14.0732 6.97539 13.7899 7.15611ZM13.575 6.79466C13.7069 6.67258 13.785 6.48205 13.785 6.28671C13.785 6.06686 13.6922 5.87153 13.5359 5.74944C13.4285 5.66638 13.2917 5.61755 13.0914 5.61755H12.3294V6.96068H13.0914C13.3063 6.96068 13.4626 6.89724 13.575 6.79466Z" fill="#2D4151"/>
<path d="M16.227 8.7289V7.49315C16.227 7.29291 16.2075 7.17563 16.1587 7.07306C16.0853 6.92165 15.9438 6.82389 15.7337 6.82389C15.5236 6.82389 15.3625 6.92156 15.2746 7.05345C15.2111 7.15112 15.1721 7.25859 15.1721 7.47354V8.7289H14.7422V5.22668H15.1721V6.76044L15.177 6.76534C15.3284 6.58462 15.5873 6.48205 15.8363 6.48205C16.1196 6.48205 16.398 6.60904 16.5445 6.87282C16.6179 7.01451 16.6569 7.17563 16.6569 7.45412V8.729H16.227V8.7289Z" fill="#2D4151"/>
<path d="M18.608 7.5615V7.40519C18.608 7.18054 18.5591 7.06326 18.4712 6.97049C18.3784 6.87282 18.2465 6.82399 18.0853 6.82399C17.9094 6.82399 17.6848 6.89234 17.4747 7.04384L17.3037 6.75074C17.5529 6.57001 17.8606 6.48206 18.139 6.48206C18.3978 6.48206 18.6372 6.55531 18.8033 6.72632C18.9742 6.91195 19.0279 7.09267 19.0279 7.40039V8.729H18.6323L18.6177 8.51896C18.4614 8.70458 18.1732 8.78274 17.9485 8.78274C17.4356 8.78274 17.1328 8.45061 17.1328 8.05494C17.1328 7.68858 17.4112 7.33694 17.9681 7.33694C18.1879 7.33684 18.4468 7.4199 18.608 7.5615ZM18.0511 7.63965C17.7483 7.63965 17.5529 7.80577 17.5529 8.04994C17.5529 8.2893 17.7385 8.46512 18.0462 8.46512C18.354 8.46512 18.608 8.30882 18.608 8.04994C18.608 7.78625 18.3052 7.63965 18.0511 7.63965Z" fill="#2D4151"/>
<path d="M20.5053 6.86302C20.2464 6.86302 20.0315 7.05355 20.0315 7.54199V8.7289H19.6016V6.53089H20.0069L20.0217 6.81419C20.1681 6.61395 20.3538 6.48206 20.598 6.48206C20.7103 6.48206 20.8032 6.50647 20.9155 6.57001L20.8227 6.94608C20.725 6.89724 20.6029 6.86302 20.5053 6.86302Z" fill="#2D4151"/>
<path d="M22.9813 6.79467C23.1571 6.59933 23.4014 6.48206 23.7189 6.48206C23.9924 6.48206 24.2952 6.60424 24.432 6.87282C24.5004 7.01452 24.5346 7.17563 24.5346 7.45412V8.729H24.1047V7.49315C24.1047 7.29291 24.0852 7.17563 24.0412 7.07306C23.9728 6.92166 23.836 6.82389 23.6407 6.82389C23.4404 6.82389 23.2939 6.91185 23.2108 7.04374C23.1522 7.14141 23.1131 7.25869 23.1131 7.47354V8.7289H22.6832V7.49315C22.6832 7.29291 22.6637 7.17563 22.6197 7.07306C22.5513 6.92166 22.4145 6.82389 22.2192 6.82389C22.0189 6.82389 21.8724 6.91185 21.7893 7.04374C21.7307 7.14141 21.6916 7.25869 21.6916 7.47354V8.7289H21.2617V6.53089H21.6622L21.6818 6.79957C21.7746 6.66278 22.0139 6.48206 22.3412 6.48206C22.5856 6.48206 22.8299 6.58463 22.9813 6.79467Z" fill="#2D4151"/>
<path d="M26.4869 7.5615V7.40519C26.4869 7.18054 26.438 7.06326 26.3501 6.97049C26.2573 6.87282 26.1254 6.82399 25.9642 6.82399C25.7884 6.82399 25.5637 6.89234 25.3536 7.04384L25.1826 6.75074C25.4318 6.57001 25.7395 6.48206 26.0179 6.48206C26.2767 6.48206 26.5162 6.55531 26.6822 6.72632C26.8531 6.91195 26.9068 7.09267 26.9068 7.40039V8.729H26.5113L26.4966 8.51896C26.3403 8.70458 26.0521 8.78274 25.8274 8.78274C25.3145 8.78274 25.0117 8.45061 25.0117 8.05494C25.0117 7.68858 25.2901 7.33694 25.847 7.33694C26.0668 7.33684 26.3257 7.4199 26.4869 7.5615ZM25.9301 7.63965C25.6272 7.63965 25.4318 7.80577 25.4318 8.04994C25.4318 8.2893 25.6174 8.46512 25.9251 8.46512C26.2329 8.46512 26.4869 8.30882 26.4869 8.04994C26.4869 7.78625 26.184 7.63965 25.9301 7.63965Z" fill="#2D4151"/>
<path d="M28.5131 8.44068C28.8013 8.44068 28.982 8.30879 29.153 8.07433L29.4557 8.28437C29.2555 8.59699 28.9234 8.78262 28.5228 8.78262C27.8438 8.78262 27.375 8.25996 27.375 7.63473C27.375 7.00459 27.8683 6.48193 28.5228 6.48193C28.899 6.48193 29.2311 6.63824 29.4362 6.92154L29.1431 7.1609C29.0064 6.98018 28.8012 6.82877 28.513 6.82877C28.1223 6.82877 27.8048 7.17561 27.8048 7.63473C27.8049 8.10855 28.1223 8.44068 28.5131 8.44068Z" fill="#2D4151"/>
<path d="M29.6445 6.53088H30.1135L30.7777 8.19162H30.7876L31.4226 6.53088H31.8376L30.5286 9.74979H30.1036L30.5482 8.69477L29.6445 6.53088Z" fill="#2D4151"/>
<path d="M33.5448 24.3857H26.5273V25.0266H33.5448V24.3857Z" fill="#6EBEFF"/>
<path d="M33.5448 19.7074H26.5273V20.3483H33.5448V19.7074Z" fill="#6EBEFF"/>
<path d="M32.3986 22.3351H31.4285C31.2716 22.3351 31.1445 22.4623 31.1445 22.619V24.3858H32.6826V22.619C32.6825 22.4622 32.5553 22.3351 32.3986 22.3351Z" fill="white"/>
<path d="M32.3954 21.8544H31.4297V22.335H32.3954V21.8544Z" fill="#ED4C58"/>
<path d="M30.797 17.6566H29.8269C29.6701 17.6566 29.543 17.7838 29.543 17.9406V19.7074H31.0811V17.9406C31.0811 17.7838 30.9539 17.6566 30.797 17.6566Z" fill="white"/>
<path d="M30.7938 17.176H29.8281V17.6567H30.7938V17.176Z" fill="#39B54A"/>
<path d="M29.5096 22.1106H28.0036C27.924 22.1106 27.8594 22.046 27.8594 21.9664V20.9409C27.8594 20.8614 27.924 20.7968 28.0036 20.7968H29.5096C29.5892 20.7968 29.6538 20.8614 29.6538 20.9409V21.9664C29.6538 22.0462 29.5893 22.1106 29.5096 22.1106ZM28.1479 21.8222H29.3655V21.0851H28.1479V21.8222Z" fill="#39B54A"/>
<path d="M29.9049 21.4698H27.6125C27.4404 21.4698 27.3008 21.6094 27.3008 21.7816V24.0739C27.3008 24.2461 27.4404 24.3857 27.6125 24.3857H29.9049C30.077 24.3857 30.2166 24.2461 30.2166 24.0739V21.7816C30.2167 21.6095 30.077 21.4698 29.9049 21.4698Z" fill="#39B54A"/>
<path d="M28.7561 21.8987C28.1832 21.8987 27.7188 22.3593 27.7188 22.9277C27.7188 23.496 28.1832 23.9566 28.7561 23.9566C29.329 23.9566 29.7934 23.496 29.7934 22.9277C29.7933 22.3594 29.3289 21.8987 28.7561 21.8987ZM29.0018 23.1715V23.7492H28.5105V23.1715H27.9281V22.6842H28.5105V22.1065H29.0018V22.6842H29.5842V23.1715H29.0018Z" fill="white"/>
<path d="M28.8388 19.0667H27.6211V19.7076H28.8388V19.0667Z" fill="#ED4C58"/>
<path d="M29.0569 17.0798H27.4609L27.6181 19.0665H28.8357L29.0569 17.0798Z" fill="white"/>
<path d="M33.0982 17.3041H31.6562V19.7073H33.0982V17.3041Z" fill="white"/>
<path d="M32.7718 19.0185H31.9809C31.9073 19.0185 31.8477 18.9588 31.8477 18.8853V18.1264C31.8477 18.0528 31.9074 17.9932 31.9809 17.9932H32.7718C32.8454 17.9932 32.905 18.0529 32.905 18.1264V18.8853C32.9051 18.9588 32.8454 19.0185 32.7718 19.0185Z" fill="#ED4C58"/>
<path d="M24.6399 27.0977H18.3594V28.5716H24.6399V27.0977Z" fill="#5DB0E8"/>
<path d="M24.1906 26.4685H17.9102V27.9425H24.1906V26.4685Z" fill="white"/>
<path d="M37 1.41064H0V2.51018H37V1.41064Z" fill="#5DB0E8"/>
<path d="M31.5742 29.8971H19.6541C18.8312 29.8971 18.1641 30.5642 18.1641 31.3871C18.1641 32.21 18.8312 32.8771 19.6541 32.8771H31.5742C32.3971 32.8771 33.0642 32.21 33.0642 31.3871C33.0642 30.5642 32.3971 29.8971 31.5742 29.8971Z" fill="#5DB0E8"/>
</svg>
