<svg width="37" height="37" viewBox="0 0 37 37" fill="none" xmlns="http://www.w3.org/2000/svg">
<path d="M34.6875 9.53906H2.3125V32.0859H34.6875V9.53906Z" fill="#FFE1B2"/>
<path d="M34.6875 28.6172H2.3125V32.0859H34.6875V28.6172Z" fill="#FFB980"/>
<path d="M34.6875 8.38281H2.3125V12.4297H34.6875V8.38281Z" fill="#FFB980"/>
<path d="M13.875 13.5859H5.78125C5.46198 13.5859 5.20312 13.8448 5.20312 14.1641V31.5078H14.4531V14.1641C14.4531 13.8448 14.1943 13.5859 13.875 13.5859Z" fill="#7E5C62"/>
<path d="M36.4219 32.6641H0.578125C0.258566 32.6641 0 32.4055 0 32.0859C0 31.7664 0.258566 31.5078 0.578125 31.5078H36.4219C36.7414 31.5078 37 31.7664 37 32.0859C37 32.4055 36.7414 32.6641 36.4219 32.6641Z" fill="#5C546A"/>
<path d="M12.7188 24.5703C12.3992 24.5703 12.1406 24.3117 12.1406 23.9922V22.8359C12.1406 22.5164 12.3992 22.2578 12.7188 22.2578C13.0383 22.2578 13.2969 22.5164 13.2969 22.8359V23.9922C13.2969 24.3117 13.0383 24.5703 12.7188 24.5703Z" fill="#5C546A"/>
<path d="M2.89062 11.2734C1.93274 11.2734 1.15625 10.4969 1.15625 9.53906V5.49219C1.15625 4.85358 1.67389 4.33594 2.3125 4.33594H4.625V9.53906C4.625 10.4969 3.84851 11.2734 2.89062 11.2734Z" fill="#FF4F19"/>
<path d="M6.35938 11.2734C5.40149 11.2734 4.625 10.4969 4.625 9.53906V4.33594H8.09375V9.53906C8.09375 10.4969 7.31726 11.2734 6.35938 11.2734Z" fill="#E9001E"/>
<path d="M9.82812 11.2734C8.87024 11.2734 8.09375 10.4969 8.09375 9.53906V4.33594H11.5625V9.53906C11.5625 10.4969 10.786 11.2734 9.82812 11.2734Z" fill="#FF4F19"/>
<path d="M13.2969 11.2734C12.339 11.2734 11.5625 10.4969 11.5625 9.53906V4.33594H15.0312V9.53906C15.0312 10.4969 14.2548 11.2734 13.2969 11.2734Z" fill="#E9001E"/>
<path d="M16.7656 11.2734C15.8077 11.2734 15.0312 10.4969 15.0312 9.53906V4.33594H18.5V9.53906C18.5 10.4969 17.7235 11.2734 16.7656 11.2734Z" fill="#FF4F19"/>
<path d="M20.2344 11.2734C19.2765 11.2734 18.5 10.4969 18.5 9.53906V4.33594H21.9688V9.53906C21.9688 10.4969 21.1923 11.2734 20.2344 11.2734Z" fill="#E9001E"/>
<path d="M23.7031 11.2734C22.7452 11.2734 21.9688 10.4969 21.9688 9.53906V4.33594H25.4375V9.53906C25.4375 10.4969 24.661 11.2734 23.7031 11.2734Z" fill="#FF4F19"/>
<path d="M27.1719 11.2734C26.214 11.2734 25.4375 10.4969 25.4375 9.53906V4.33594H28.9062V9.53906C28.9062 10.4969 28.1298 11.2734 27.1719 11.2734Z" fill="#E9001E"/>
<path d="M30.6406 11.2734C29.6827 11.2734 28.9062 10.4969 28.9062 9.53906V4.33594H32.375V9.53906C32.375 10.4969 31.5985 11.2734 30.6406 11.2734Z" fill="#FF4F19"/>
<path d="M34.1094 11.2734C33.1515 11.2734 32.375 10.4969 32.375 9.53906V4.33594H34.6875C35.3261 4.33594 35.8438 4.85358 35.8438 5.49219V9.53906C35.8438 10.4969 35.0673 11.2734 34.1094 11.2734Z" fill="#E9001E"/>
<path d="M31.7969 14.1641H17.3438C17.0245 14.1641 16.7656 14.4229 16.7656 14.7422V26.3047C16.7656 26.624 17.0245 26.8828 17.3438 26.8828H31.7969C32.1161 26.8828 32.375 26.624 32.375 26.3047V14.7422C32.375 14.4229 32.1161 14.1641 31.7969 14.1641Z" fill="#53DCFF"/>
<path d="M28.7344 26.8828H31.7993C32.1186 26.8828 32.3774 26.624 32.3774 26.3047V25.6203L20.9211 14.1641H16.768C16.5632 14.1641 16.3918 14.2768 16.2891 14.4375L28.7344 26.8828Z" fill="#B3F4FF"/>
<path d="M24.1406 14.1641L32.3746 22.3981V19.9453L26.5934 14.1641H24.1406Z" fill="white"/>
<path d="M31.7969 27.4609H17.3438C16.7064 27.4609 16.1875 26.9421 16.1875 26.3047V14.7422C16.1875 14.1048 16.7064 13.5859 17.3438 13.5859H31.7969C32.4343 13.5859 32.9531 14.1048 32.9531 14.7422V26.3047C32.9531 26.9421 32.4343 27.4609 31.7969 27.4609ZM17.3438 14.7422V26.3047H31.798L31.7969 14.7422H17.3438Z" fill="#7E5C62"/>
<path d="M12.7188 21.1016H6.9375C6.61823 21.1016 6.35938 20.8427 6.35938 20.5234V15.3203C6.35938 15.001 6.61823 14.7422 6.9375 14.7422H12.7188C13.038 14.7422 13.2969 15.001 13.2969 15.3203V20.5234C13.2969 20.8427 13.038 21.1016 12.7188 21.1016Z" fill="#53DCFF"/>
<path d="M9.83528 14.7422H6.9375C6.61823 14.7422 6.35938 15.001 6.35938 15.3203V16.1719L11.289 21.1016H12.7188C13.038 21.1016 13.2969 20.8427 13.2969 20.5234V18.2038L9.83528 14.7422Z" fill="#B3F4FF"/>
</svg>
