<svg width="37" height="37" viewBox="0 0 37 37" fill="none" xmlns="http://www.w3.org/2000/svg">
<g clip-path="url(#clip0)">
<path d="M35.7771 28.6071L35.8239 28.5603L8.43988 1.17612L5.31902 1.16687C5.06797 1.41792 0.940591 5.5453 0.161134 6.32461C-0.0537114 6.53953 -0.0537114 6.88771 0.161134 7.10255C0.268521 7.20994 0.409294 7.26363 0.550068 7.26363C0.690841 7.26363 0.831615 7.20994 0.939001 7.10255L4.93002 3.11154L5.7172 3.89873L1.72619 7.88974C1.51135 8.10466 1.51135 8.45284 1.72619 8.66768C1.83358 8.77507 1.97435 8.82876 2.11512 8.82876C2.2559 8.82876 2.39667 8.77507 2.50406 8.66768L6.49507 4.67667L7.28226 5.46386L3.29125 9.45487C3.0764 9.66979 3.0764 10.018 3.29125 10.2328C3.39863 10.3402 3.53941 10.3939 3.68018 10.3939C3.82095 10.3939 3.96173 10.3402 4.06911 10.2328L8.06013 6.2418L8.84732 7.02899L4.85623 11.0198C4.64139 11.2347 4.64139 11.5829 4.85623 11.7977C4.96362 11.9051 5.10439 11.9588 5.24517 11.9588C5.38594 11.9588 5.52671 11.9051 5.6341 11.7977L9.62511 7.80671L10.4123 8.5939L6.42136 12.5848C6.20652 12.7998 6.20652 13.1479 6.42136 13.3628C6.52875 13.4702 6.66952 13.5239 6.81029 13.5239C6.95107 13.5239 7.09184 13.4702 7.19923 13.3628L11.1902 9.37177L11.9774 10.159L7.98642 14.1499C7.77157 14.3648 7.77157 14.713 7.98642 14.9278C8.0938 15.0352 8.23458 15.0889 8.37535 15.0889C8.51612 15.0889 8.6569 15.0352 8.76428 14.9278L12.7553 10.9369L13.5425 11.7241L9.55147 15.715C9.33663 15.9299 9.33663 16.2781 9.55147 16.493C9.65886 16.6004 9.79963 16.654 9.94041 16.654C10.0812 16.654 10.222 16.6004 10.3293 16.493L14.3204 12.502L15.1075 13.2892L11.1166 17.2802C10.9018 17.4951 10.9018 17.8433 11.1166 18.0582C11.224 18.1656 11.3648 18.2192 11.5055 18.2192C11.6463 18.2192 11.7871 18.1656 11.8945 18.0582L15.8855 14.0672L22.9329 21.1146L18.9419 25.1056C18.727 25.3205 18.727 25.6687 18.9419 25.8835C19.0493 25.9909 19.1901 26.0446 19.3309 26.0446C19.4717 26.0446 19.6124 25.9909 19.7199 25.8835L23.7109 21.8925L24.4981 22.6797L20.5072 26.6706C20.2923 26.8856 20.2923 27.2337 20.5072 27.4486C20.6146 27.556 20.7554 27.6097 20.8962 27.6097C21.0369 27.6097 21.1777 27.556 21.2852 27.4486L25.2761 23.4576L26.0632 24.2448L22.0723 28.2357C21.8574 28.4506 21.8574 28.7988 22.0723 29.0136C22.1797 29.121 22.3205 29.1747 22.4613 29.1747C22.6021 29.1747 22.7428 29.121 22.8503 29.0136L26.8412 25.0227L27.6284 25.8099L23.6374 29.8009C23.4226 30.0158 23.4226 30.364 23.6374 30.5788C23.7449 30.6862 23.8857 30.7399 24.0264 30.7399C24.1672 30.7399 24.308 30.6862 24.4154 30.5788L28.4064 26.5878L29.1936 27.3749L25.2025 31.366C24.9877 31.5809 24.9877 31.929 25.2025 32.1439C25.31 32.2513 25.4508 32.305 25.5916 32.305C25.7323 32.305 25.8731 32.2513 25.9806 32.1439L29.9716 28.1529L30.7587 28.94L26.7677 32.931C26.5528 33.1459 26.5528 33.4941 26.7677 33.709C26.8751 33.8163 27.0159 33.87 27.1567 33.87C27.2975 33.87 27.4382 33.8163 27.5457 33.709L31.5367 29.7179L32.3238 30.5051L35.4448 31.2923C36.1725 30.564 36.2833 29.4523 35.7771 28.6071Z" fill="#FF5368"/>
<path d="M35.7973 27.7545L9.20965 1.16684C8.13737 0.0945654 6.39252 0.0946377 5.32031 1.16691L32.723 28.5697C32.726 28.5726 32.7289 28.5756 32.7318 28.5786C33.1516 29.0046 33.1341 29.6957 32.7111 30.1187L28.3337 34.496C28.1189 34.711 28.1189 35.0591 28.3337 35.274C28.4412 35.3814 28.582 35.4351 28.7227 35.4351C28.8635 35.4351 29.0043 35.3814 29.1117 35.274L33.1028 31.283L33.8899 32.0701L29.8989 36.0611C29.684 36.276 29.684 36.6242 29.8989 36.839C30.0063 36.9464 30.1471 37.0001 30.2879 37.0001C30.4286 37.0001 30.5694 36.9464 30.6769 36.839L35.8346 31.6811C36.3649 31.1508 36.652 30.4422 36.6397 29.6904C36.6278 28.9614 36.3128 28.2701 35.7973 27.7545Z" fill="#C5324F"/>
<path d="M36.6723 0.328369C36.6722 0.328369 36.6722 0.328369 36.6723 0.328369L36.6717 0.328875L10.0356 21.5819C10.0356 21.5819 8.98092 22.5058 8.37331 23.0557C6.72587 21.0224 3.68154 20.8708 1.84064 22.7113C0.120864 24.4307 0.120792 27.2135 1.84064 28.9328C3.56519 30.657 6.38456 30.6527 8.10137 28.893L15.3839 26.9981C15.3894 27.0026 15.3867 27.0003 15.3839 26.9981C22.7377 18.8172 29.8876 10.4156 36.7561 1.8195C37.112 1.37405 37.0756 0.731539 36.6723 0.328369ZM6.50777 27.3775C5.64991 28.2351 4.2541 28.2351 3.3963 27.3775C2.53649 26.5179 2.53641 25.1265 3.3963 24.2667C4.25402 23.4091 5.64991 23.409 6.50777 24.2667C7.36557 25.1244 7.36557 26.5199 6.50777 27.3775Z" fill="#6C7A88"/>
<path d="M13.941 28.6323C14.4334 28.0884 14.8921 27.5436 15.3826 26.998C15.1769 26.8249 14.9952 26.6657 14.7726 26.5205C14.1616 26.1221 13.7678 25.4663 13.6827 24.7419C13.6814 24.7313 13.6801 24.7206 13.6788 24.7099C13.5837 23.9285 13.8482 23.146 14.405 22.5893L36.671 0.328236C36.2677 -0.0749342 35.6251 -0.111284 35.1796 0.244624C27.1557 6.6543 19.3093 13.2805 11.6465 20.1133C11.6463 20.1135 11.646 20.1137 11.6458 20.1139C11.0985 20.602 10.58 21.0916 10.0344 21.5818C10.0436 21.5927 10.0253 21.5708 10.0344 21.5818C11.4119 23.2403 11.279 25.7146 9.75432 27.239L8.10001 28.893C8.08715 28.9061 8.07523 28.9197 8.06214 28.9328C8.06186 28.9331 8.06149 28.9334 8.06121 28.9337V28.9408L8.06229 28.9419C7.15095 29.853 6.68859 31.0934 6.7863 32.3948C6.85553 33.3163 7.21967 34.1974 7.81933 34.9005C8.70054 35.9334 9.93708 36.4498 11.1737 36.4498C12.3005 36.4498 13.4274 36.0211 14.2852 35.1634C15.1162 34.3325 15.5739 33.2277 15.5739 32.0526C15.5739 30.8775 15.1162 29.7727 14.2852 28.9418C14.1752 28.8319 14.0602 28.729 13.941 28.6323ZM9.61802 33.6081C8.24548 32.2357 9.20575 29.8531 11.1737 29.8531C12.3896 29.8531 13.3738 30.8368 13.3738 32.0528C13.374 33.9976 11.0052 34.9949 9.61802 33.6081Z" fill="#4D5967"/>
</g>
<defs>
<clipPath id="clip0">
<rect width="37" height="37" fill="white"/>
</clipPath>
</defs>
</svg>
