<svg width="37" height="37" viewBox="0 0 37 37" fill="none" xmlns="http://www.w3.org/2000/svg">
<g clip-path="url(#clip0)">
<path d="M30.4258 12.2563V20.668C30.4258 24.1802 24.2903 26.0879 18.502 26.0879C12.7136 26.0879 6.57812 24.1802 6.57812 20.668V12.2563C6.57812 11.6709 7.05491 11.1724 7.66211 11.1724H29.3418C29.949 11.1724 30.4258 11.6709 30.4258 12.2563Z" fill="#444444"/>
<path d="M30.4238 12.2563V20.668C30.4238 24.1802 24.2883 26.0879 18.5 26.0879V11.1724H29.3398C29.947 11.1724 30.4238 11.6709 30.4238 12.2563Z" fill="#292929"/>
<path d="M37.0014 9.82812C37.0014 10.2835 36.7197 10.6953 36.3076 10.8469L18.8916 17.3508C18.7617 17.3943 18.6316 17.416 18.5014 17.416C18.3713 17.416 18.2412 17.3943 18.1113 17.3508L0.695312 10.8469V8.80907L18.1113 2.30516C18.2412 2.26197 18.3713 2.24023 18.5014 2.24023C18.6316 2.24023 18.7617 2.26197 18.8916 2.30516L36.3076 8.80907C36.7197 8.96094 37.0014 9.3728 37.0014 9.82812Z" fill="#6E6E6E"/>
<path d="M37 9.82812C37 10.2835 36.7183 10.6953 36.3061 10.8469L18.8901 17.3508C18.7603 17.3943 18.6301 17.416 18.5 17.416V2.24023C18.6301 2.24023 18.7603 2.26197 18.8901 2.30516L36.3061 8.80907C36.7183 8.96094 37 9.3728 37 9.82812Z" fill="#5A5A5A"/>
<path d="M19.584 9.82812C19.584 10.435 19.1072 10.9121 18.5 10.9121H2.16797V26.9983L4.27073 33.3288C4.46607 33.8923 4.16233 34.5212 3.59888 34.6946C3.01342 34.8899 2.4065 34.5862 2.23318 34.0224L2.16797 33.8277C2.08131 34.3479 1.62598 34.7598 1.08398 34.7598C0.476784 34.7598 0 34.2827 0 33.6758V9.82812C0 9.22092 0.476784 8.74414 1.08398 8.74414H18.5C19.1072 8.74414 19.584 9.22092 19.584 9.82812Z" fill="#FDBF00"/>
</g>
<defs>
<clipPath id="clip0">
<rect width="37" height="37" fill="white"/>
</clipPath>
</defs>
</svg>
