<svg width="37" height="37" viewBox="0 0 37 37" fill="none" xmlns="http://www.w3.org/2000/svg">
<g clip-path="url(#clip0)">
<path d="M18.5001 0L17.0547 15.3259L18.5001 37L29.3371 26.1629C32.2319 23.2682 33.826 19.4195 33.826 15.3258C33.8261 6.87513 26.9509 0 18.5001 0V0Z" fill="#29CC5F"/>
<path d="M3.17578 15.3259C3.17578 19.4196 4.76993 23.2682 7.66467 26.163L18.5017 37.0001V0C10.051 0 3.17578 6.87512 3.17578 15.3259Z" fill="#8AE62E"/>
<path d="M18.5001 4.33618L17.0547 15.3258L18.5001 26.3155C24.5599 26.3155 29.4898 21.3855 29.4898 15.3258C29.4898 9.26614 24.5599 4.33618 18.5001 4.33618Z" fill="#198080"/>
<path d="M7.51172 15.3258C7.51172 21.3855 12.4417 26.3155 18.5014 26.3155V4.33618C12.4417 4.33618 7.51172 9.26614 7.51172 15.3258Z" fill="#29CC5F"/>
<path d="M18.5001 6.50439L17.0547 15.3259L18.5001 24.1474C23.3644 24.1474 27.3217 20.1901 27.3217 15.3259C27.3217 10.4617 23.3644 6.50439 18.5001 6.50439Z" fill="#E6E6F2"/>
<path d="M9.67969 15.3259C9.67969 20.1901 13.637 24.1474 18.5012 24.1474V6.50439C13.637 6.50439 9.67969 10.4617 9.67969 15.3259Z" fill="#FFF5F5"/>
<path d="M18.5001 8.67249L17.7773 9.79268L18.5001 10.8406C19.0978 10.8406 19.5841 11.3269 19.5841 11.9247V14.0928H21.7522V11.9247C21.7522 10.1314 20.2933 8.67249 18.5001 8.67249Z" fill="#4429CC"/>
<path d="M15.25 11.9247V14.0928H17.4181V11.9247C17.4181 11.3269 17.9044 10.8406 18.5022 10.8406V8.67249C16.7089 8.67249 15.25 10.1314 15.25 11.9247Z" fill="#6A4DFF"/>
<path d="M24.7599 13.0088H18.504L17.0586 16.3332L18.504 19.6577H23.1512L24.7599 13.0088Z" fill="#FFBB33"/>
<path d="M12.2461 13.0088L13.8547 19.6577H18.502V13.0088H12.2461Z" fill="#FFE14D"/>
</g>
<defs>
<clipPath id="clip0">
<rect width="37" height="37" fill="white"/>
</clipPath>
</defs>
</svg>
