<svg width="37" height="37" viewBox="0 0 37 37" fill="none" xmlns="http://www.w3.org/2000/svg">
<path d="M35.2656 10.9844L32.375 24.8594H10.4062L7.51562 10.9844H35.2656Z" fill="#EA9F26"/>
<path d="M27.75 14.4531L19.0781 21.3906V24.8594H28.3281L29.4844 14.4531H27.75Z" fill="#2D85CC"/>
<path d="M32.375 24.8594H26.0156L26.3473 20.879L28.9062 21.3907L32.375 24.8594Z" fill="#EB423F"/>
<path d="M33.5312 10.9844H27.75L29.4844 7.51562H31.7969L33.5312 10.9844Z" fill="#FFD33A"/>
<path d="M33.5312 10.9844V17.9219H29.4844V14.4531H27.75V10.9844H33.5312Z" fill="#FFD33A"/>
<path d="M33.5312 17.9219V17.3438L29.4844 14.4531L28.9062 17.9219H26.5938L26.0156 24.8594H32.375L33.8203 17.9219H33.5312Z" fill="#248256"/>
<path d="M30.0625 5.20312H31.2188C31.5254 5.20312 31.8195 5.32494 32.0363 5.54178C32.2532 5.75862 32.375 6.05272 32.375 6.35938V7.51562H28.9062V6.35938C28.9062 6.05272 29.0281 5.75862 29.2449 5.54178C29.4617 5.32494 29.7558 5.20312 30.0625 5.20312Z" fill="#EA9F26"/>
<path d="M16.1875 21.3906V24.8594H10.4062L9.68359 21.3906H16.1875Z" fill="#996046"/>
<path d="M18.5012 9.25002V14.4531H8.0949L7.00781 8.73209L7.04763 8.6719C7.22208 8.40959 7.45885 8.19463 7.73674 8.04625C8.01464 7.89788 8.32498 7.82072 8.64 7.82169C8.76788 7.82164 8.89545 7.83425 9.02084 7.85934C9.02084 7.84677 9.0199 7.83434 9.0199 7.82169C9.0199 6.37551 10.2106 5.20315 11.6793 5.20315C12.2243 5.20086 12.7568 5.36618 13.2048 5.67669C13.6527 5.98721 13.9943 6.42793 14.1834 6.93911C14.3855 6.57111 14.7036 6.2802 15.0881 6.1116C15.4727 5.943 15.9021 5.90617 16.3097 6.00682C16.7174 6.10747 17.0803 6.33996 17.3422 6.66816C17.6041 6.99637 17.7502 7.40189 17.7578 7.82169C17.758 8.24735 17.6109 8.65998 17.3416 8.98958C17.4783 8.95933 17.6178 8.94404 17.7578 8.94398L18.5012 9.25002Z" fill="#35A872"/>
<path d="M17.3438 2.89062H26.5938V10.9844H17.3438V2.89062Z" fill="#C48669"/>
<path d="M17.3438 2.89062H24.2812V10.9844H17.3438V2.89062Z" fill="#D49073"/>
<path d="M21.9688 5.78125H19.6562C19.5029 5.78125 19.3559 5.72034 19.2475 5.61192C19.139 5.5035 19.0781 5.35645 19.0781 5.20312C19.0781 5.0498 19.139 4.90275 19.2475 4.79433C19.3559 4.68591 19.5029 4.625 19.6562 4.625H21.9688C22.1221 4.625 22.2691 4.68591 22.3775 4.79433C22.486 4.90275 22.5469 5.0498 22.5469 5.20312C22.5469 5.35645 22.486 5.5035 22.3775 5.61192C22.2691 5.72034 22.1221 5.78125 21.9688 5.78125Z" fill="#996046"/>
<path d="M18.5 14.4531H15.6094L16.1875 17.9219H13.2969L10.4062 21.3906H9.68359L7.51562 10.9844H18.5V14.4531Z" fill="#248256"/>
<path d="M33.5312 30.0625H10.4062C9.79315 30.0618 9.20536 29.818 8.77183 29.3844C8.3383 28.9509 8.09444 28.3631 8.09375 27.75V26.5938C8.09444 25.9806 8.3383 25.3929 8.77183 24.9593C9.20536 24.5258 9.79315 24.2819 10.4062 24.2812H10.9844C11.1377 24.2812 11.2848 24.3422 11.3932 24.4506C11.5016 24.559 11.5625 24.706 11.5625 24.8594C11.5625 25.0127 11.5016 25.1598 11.3932 25.2682C11.2848 25.3766 11.1377 25.4375 10.9844 25.4375H10.4062C10.0997 25.4379 9.80582 25.5598 9.58906 25.7766C9.3723 25.9933 9.25036 26.2872 9.25 26.5938V27.75C9.25036 28.0565 9.3723 28.3504 9.58906 28.5672C9.80582 28.784 10.0997 28.9059 10.4062 28.9062H33.5312C33.6846 28.9062 33.8316 28.9672 33.94 29.0756C34.0485 29.184 34.1094 29.331 34.1094 29.4844C34.1094 29.6377 34.0485 29.7848 33.94 29.8932C33.8316 30.0016 33.6846 30.0625 33.5312 30.0625Z" fill="#D0D2D4"/>
<path d="M12.7188 33.5312C13.9959 33.5312 15.0312 32.4959 15.0312 31.2188C15.0312 29.9416 13.9959 28.9062 12.7188 28.9062C11.4416 28.9062 10.4062 29.9416 10.4062 31.2188C10.4062 32.4959 11.4416 33.5312 12.7188 33.5312Z" fill="#7E8589"/>
<path d="M28.9062 33.5312C30.1834 33.5312 31.2188 32.4959 31.2188 31.2188C31.2188 29.9416 30.1834 28.9062 28.9062 28.9062C27.6291 28.9062 26.5938 29.9416 26.5938 31.2188C26.5938 32.4959 27.6291 33.5312 28.9062 33.5312Z" fill="#7E8589"/>
<path d="M12.7188 31.7969C13.038 31.7969 13.2969 31.538 13.2969 31.2188C13.2969 30.8995 13.038 30.6406 12.7188 30.6406C12.3995 30.6406 12.1406 30.8995 12.1406 31.2188C12.1406 31.538 12.3995 31.7969 12.7188 31.7969Z" fill="#414649"/>
<path d="M28.9062 31.7969C29.2255 31.7969 29.4844 31.538 29.4844 31.2188C29.4844 30.8995 29.2255 30.6406 28.9062 30.6406C28.587 30.6406 28.3281 30.8995 28.3281 31.2188C28.3281 31.538 28.587 31.7969 28.9062 31.7969Z" fill="#414649"/>
<path d="M21.3906 17.9219L20.2344 14.4531H18.5V10.9844H27.75V14.4531L23.7031 17.9219H21.3906Z" fill="#EB423F"/>
<path d="M35.7142 10.6197C35.66 10.553 35.5916 10.4992 35.514 10.4623C35.4364 10.4254 35.3516 10.4063 35.2656 10.4062H7.59938L6.34398 5.07066C6.31413 4.94383 6.24231 4.83081 6.14016 4.74991C6.03802 4.66902 5.91155 4.625 5.78125 4.625H1.73438C1.58105 4.625 1.434 4.68591 1.32558 4.79433C1.21716 4.90275 1.15625 5.0498 1.15625 5.20312C1.15625 5.35645 1.21716 5.5035 1.32558 5.61192C1.434 5.72034 1.58105 5.78125 1.73438 5.78125H5.32338L9.84352 24.9918C9.87337 25.1187 9.94519 25.2317 10.0473 25.3126C10.1495 25.3935 10.276 25.4375 10.4062 25.4375H32.375C32.5079 25.4375 32.6367 25.3918 32.7397 25.3079C32.8428 25.2241 32.9139 25.1074 32.941 24.9773L35.8316 11.1023C35.8491 11.0182 35.8477 10.9312 35.8274 10.8477C35.8071 10.7642 35.7684 10.6863 35.7142 10.6197ZM24.8357 11.5625H29.4076L29.1185 13.875H24.7392L24.8357 11.5625ZM17.9454 11.5625L18.0418 13.875H13.6625L13.3734 11.5625H17.9454ZM7.87161 11.5625H12.2085L12.4975 13.875H8.41562L7.87161 11.5625ZM8.68777 15.0312H12.6421L12.9311 17.3438H9.23179L8.68777 15.0312ZM9.50394 18.5H13.0757L13.3647 20.8125H10.0477L9.50394 18.5ZM10.8643 24.2812L10.3201 21.9688H13.5093L13.7983 24.2812H10.8643ZM13.8074 15.0312H18.0901L18.1864 17.3438H14.0962L13.8074 15.0312ZM14.241 18.5H18.2346L18.331 20.8125H14.5298L14.241 18.5ZM14.9636 24.2812L14.6745 21.9688H18.3792L18.4755 24.2812H14.9636ZM23.1487 24.2812H19.6326L19.5363 21.9688H23.2449L23.1487 24.2812ZM23.2932 20.8125H19.4881L19.3918 18.5H23.3894L23.2932 20.8125ZM23.4378 17.3438H19.3436L19.2472 15.0312H23.534L23.4378 17.3438ZM23.5823 13.875H19.199L19.1027 11.5625H23.6785L23.5823 13.875ZM27.8179 24.2812H24.3057L24.4021 21.9688H28.1067L27.8179 24.2812ZM28.2515 20.8125H24.4503L24.5466 18.5H28.5403L28.2515 20.8125ZM28.685 17.3438H24.5948L24.6911 15.0312H28.9739L28.685 17.3438ZM31.9053 24.2812H28.983L29.2721 21.9688H32.3867L31.9053 24.2812ZM32.6279 20.8125H29.4166L29.7057 18.5H33.1094L32.6279 20.8125ZM33.3506 17.3438H29.8502L30.1392 15.0312H33.832L33.3506 17.3438ZM34.0732 13.875H30.2838L30.5728 11.5625H34.5547L34.0732 13.875Z" fill="#D0D2D4"/>
</svg>
