<svg width="37" height="37" viewBox="0 0 37 37" fill="none" xmlns="http://www.w3.org/2000/svg">
<g clip-path="url(#clip0)">
<path d="M25.0989 14.7332C9.11452 9.27074 19.8925 2.72687 25.3172 0.146193C25.3913 0.111 25.3661 0 25.284 0H21.4142C20.8022 0 20.1974 0.141641 19.6378 0.415166C13.4924 3.41896 1.10149 10.7271 11.1119 16.8563C22.5913 23.8849 10.2844 33.0631 3.84375 37H29.099C32.4764 32.1793 39.4744 19.6458 25.0989 14.7332Z" fill="#665E68"/>
<path d="M3.84375 37H9.39202C16.0092 32.4387 26.137 23.4091 15.3806 16.3906C6.40246 10.5325 15.4438 3.66372 21.8375 0H21.4142C20.8022 0 20.1974 0.141641 19.6378 0.415166C13.4924 3.41896 1.10149 10.7271 11.1119 16.8563C22.5913 23.8849 10.2844 33.0631 3.84375 37Z" fill="#554E56"/>
<path d="M15.7391 5.15541C15.557 5.15541 15.3786 5.0666 15.2713 4.90299C15.102 4.64493 15.174 4.29856 15.4321 4.12931C15.6792 3.96729 15.8347 3.87848 15.8411 3.87479C16.1092 3.72195 16.4505 3.81553 16.6032 4.08371C16.7559 4.35175 16.6625 4.69277 16.3946 4.84561C16.3909 4.84771 16.2579 4.92416 16.045 5.06378C15.9505 5.12578 15.8442 5.15534 15.7391 5.15541Z" fill="#DFEBFA"/>
<path d="M21.0586 31.9367C20.9226 31.9367 20.7863 31.8873 20.6787 31.7875C20.4525 31.5777 20.4393 31.2241 20.6492 30.9979C20.8525 30.7787 21.0509 30.5557 21.2389 30.335C21.4391 30.1001 21.7917 30.0718 22.0266 30.272C22.2615 30.4721 22.2898 30.8248 22.0896 31.0597C21.8914 31.2923 21.6824 31.5272 21.4684 31.758C21.3583 31.8766 21.2087 31.9367 21.0586 31.9367Z" fill="#DFEBFA"/>
<path d="M23.4255 28.7898C23.3311 28.7898 23.2353 28.7658 23.1476 28.7154C22.88 28.5616 22.7878 28.22 22.9416 27.9525C23.0894 27.6953 23.2257 27.4369 23.3465 27.1843C23.4797 26.906 23.8134 26.7882 24.0917 26.9214C24.3702 27.0546 24.4878 27.3883 24.3546 27.6666C24.2217 27.9445 24.0723 28.2281 23.9104 28.5094C23.8071 28.6892 23.619 28.7898 23.4255 28.7898Z" fill="#DFEBFA"/>
<path d="M24.6845 25.0843C24.6696 25.0843 24.6547 25.0837 24.6396 25.0825C24.332 25.0581 24.1024 24.789 24.1268 24.4813C24.1388 24.3306 24.1448 24.1793 24.1448 24.0315C24.1448 23.9058 24.1404 23.7793 24.1318 23.6554C24.1102 23.3475 24.3423 23.0805 24.6501 23.0589C24.9572 23.0371 25.2249 23.2694 25.2465 23.5772C25.257 23.7271 25.2624 23.8799 25.2623 24.0316C25.2623 24.2087 25.2551 24.3898 25.2408 24.5696C25.2176 24.8622 24.973 25.0843 24.6845 25.0843Z" fill="#DFEBFA"/>
<path d="M23.7099 21.3419C23.5286 21.3419 23.3508 21.2538 23.2432 21.0912C23.0937 20.8651 22.9232 20.64 22.7362 20.4221C22.5353 20.1879 22.5623 19.8352 22.7965 19.6342C23.0307 19.4333 23.3834 19.4602 23.5844 19.6945C23.8015 19.9475 24.0003 20.21 24.1754 20.4747C24.3456 20.7322 24.275 21.0788 24.0176 21.2491C23.9227 21.3119 23.8157 21.3419 23.7099 21.3419Z" fill="#DFEBFA"/>
<path d="M20.8531 18.6635C20.7493 18.6635 20.6444 18.6346 20.5508 18.5742C20.3128 18.4207 20.06 18.2682 19.7995 18.121C19.5308 17.9691 19.4362 17.6282 19.5881 17.3596C19.7399 17.0909 20.0808 16.9963 20.3495 17.1481C20.6288 17.306 20.9003 17.4698 21.1564 17.635C21.4157 17.8023 21.4904 18.1481 21.3232 18.4074C21.2164 18.5731 21.0366 18.6635 20.8531 18.6635Z" fill="#DFEBFA"/>
<path d="M17.3544 16.8507C17.2694 16.8507 17.1832 16.8313 17.1022 16.7903C16.8191 16.6467 16.5422 16.4998 16.2795 16.3537C16.0098 16.2037 15.9127 15.8635 16.0627 15.5938C16.2128 15.324 16.5529 15.2269 16.8227 15.377C17.073 15.5163 17.3371 15.6563 17.6075 15.7934C17.8828 15.933 17.9928 16.2692 17.8533 16.5445C17.7548 16.7387 17.5583 16.8507 17.3544 16.8507Z" fill="#DFEBFA"/>
<path d="M14.0433 14.7266C13.9151 14.7266 13.7864 14.6827 13.6811 14.5931C13.4281 14.3774 13.1915 14.1562 12.9778 13.9357C12.763 13.714 12.7686 13.3603 12.9904 13.1456C13.2121 12.9308 13.5657 12.9365 13.7804 13.1582C13.9695 13.3533 14.18 13.55 14.406 13.7427C14.6409 13.9428 14.6691 14.2955 14.4688 14.5304C14.3583 14.6599 14.2013 14.7266 14.0433 14.7266Z" fill="#DFEBFA"/>
<path d="M11.8803 11.516C11.6217 11.516 11.3896 11.3356 11.3341 11.0724C11.2705 10.7709 11.2383 10.463 11.2383 10.1573C11.2382 10.1177 11.2388 10.0778 11.2399 10.038C11.2483 9.72945 11.5061 9.48751 11.8137 9.49466C12.1222 9.50312 12.3655 9.76002 12.357 10.0685C12.3562 10.0979 12.3558 10.1272 12.3559 10.1567C12.3559 10.3856 12.38 10.6159 12.4276 10.8418C12.4913 11.1437 12.2982 11.4401 11.9962 11.5038C11.9573 11.5121 11.9185 11.516 11.8803 11.516Z" fill="#DFEBFA"/>
<path d="M12.8552 7.81635C12.7416 7.81635 12.627 7.78181 12.528 7.71012C12.278 7.52917 12.2221 7.17976 12.4031 6.92987C12.5855 6.67795 12.7913 6.42466 13.0149 6.17708C13.2215 5.94807 13.5748 5.92979 13.8041 6.13668C14.0331 6.34343 14.0512 6.69674 13.8445 6.92589C13.6478 7.14385 13.4674 7.3657 13.3083 7.58532C13.1991 7.73621 13.0284 7.81635 12.8552 7.81635Z" fill="#DFEBFA"/>
<path d="M18.5006 34.3108C18.3318 34.3108 18.165 34.2346 18.0551 34.0897C17.8685 33.8439 17.9166 33.4934 18.1624 33.3068C18.1635 33.306 18.2863 33.2125 18.4926 33.0419C18.7305 32.8452 19.0828 32.8786 19.2793 33.1163C19.476 33.3542 19.4426 33.7064 19.2049 33.903C18.9785 34.0903 18.8436 34.1928 18.838 34.1971C18.737 34.2737 18.6183 34.3108 18.5006 34.3108Z" fill="#DFEBFA"/>
<path d="M26.3743 13.3935C11.1415 8.68568 19.9304 3.32472 25.5703 0.563311C25.8339 0.434316 25.75 0 25.4617 0H25.2521C19.9467 2.47163 8.4276 9.16437 24.7233 14.7332C39.0986 19.6458 32.1007 32.1793 28.7233 37H31.5856C32.3022 37 32.9606 36.5655 33.299 35.8684C36.5441 29.1869 39.5725 17.4725 26.3743 13.3935Z" fill="#FFD301"/>
<path d="M11.2594 16.8563C3.85842 12.3249 8.55352 7.1489 14.0653 3.54443C7.89915 7.00227 0.827455 12.6855 9.11683 17.7608C18.8258 23.7055 8.64125 31.1876 1.2213 35.7359C0.67006 36.0739 0.888303 37 1.51896 37H3.99124C10.432 33.0631 22.7389 23.885 11.2594 16.8563Z" fill="#FFC20C"/>
</g>
<defs>
<clipPath id="clip0">
<rect width="37" height="37" fill="white"/>
</clipPath>
</defs>
</svg>
