<svg width="37" height="37" viewBox="0 0 37 37" fill="none" xmlns="http://www.w3.org/2000/svg">
<g clip-path="url(#clip0)">
<path d="M10.8824 23.9412L9.79412 37H0V14.4811L9.79412 10.8083L10.8824 23.9412Z" fill="#DCE6F4"/>
<path d="M36.9995 36.9999H27.2054L26.1172 22.611L27.2054 10.8087L36.9995 14.4811V36.9999Z" fill="#CEDCF2"/>
<path d="M4.35547 21.7646H6.53194V23.9411H4.35547V21.7646Z" fill="#77D4F5"/>
<path d="M4.35547 26.1177H6.53194V28.2941H4.35547V26.1177Z" fill="#77D4F5"/>
<path d="M4.35547 30.4706H6.53194V32.6471H4.35547V30.4706Z" fill="#77D4F5"/>
<path d="M9.79297 4.35293V37H14.1459L18.4988 27.2059L19.2243 16.7105L18.4988 4.35293L14.1459 3.62744L9.79297 4.35293Z" fill="#F1F5FD"/>
<path d="M27.2059 4.35293L23.1431 3.62744L18.5 4.35293V27.2059L22.8529 37H27.2059V4.35293Z" fill="#DCE6F4"/>
<path d="M30.4727 21.7646H32.6491V23.9411H30.4727V21.7646Z" fill="#69B4F4"/>
<path d="M30.4727 26.1177H32.6491V28.2941H30.4727V26.1177Z" fill="#69B4F4"/>
<path d="M30.4727 30.4706H32.6491V32.6471H30.4727V30.4706Z" fill="#69B4F4"/>
<path d="M13.0586 10.8823H15.2351V13.0588H13.0586V10.8823Z" fill="#596C76"/>
<path d="M21.7656 10.8823H23.9421V13.0588H21.7656V10.8823Z" fill="#3E4F55"/>
<path d="M17.4102 8.70593V10.8824H18.4984L19.2239 9.79417L18.4984 8.70593H17.4102Z" fill="#596C76"/>
<path d="M18.5 8.70593H19.5882V10.8824H18.5V8.70593Z" fill="#3E4F55"/>
<path d="M15.2344 17.4118C15.2344 19.212 16.6988 20.6765 18.4991 20.6765L19.2246 17.4118L18.4991 14.1471C16.6988 14.1471 15.2344 15.6117 15.2344 17.4118Z" fill="#596C76"/>
<path d="M18.5 14.1471V20.6765C20.3002 20.6765 21.7647 19.212 21.7647 17.4118C21.7647 15.6117 20.3002 14.1471 18.5 14.1471Z" fill="#3E4F55"/>
<path d="M14.1445 22.8529V25.0294H18.4975L19.223 23.9411L18.4975 22.8529H14.1445Z" fill="#77D4F5"/>
<path d="M18.5 22.8529H22.8529V25.0294H18.5V22.8529Z" fill="#69B4F4"/>
<path d="M14.1445 27.2059V37.0001H18.4975L19.223 32.103L18.4975 27.2059H14.1445Z" fill="#69B4F4"/>
<path d="M18.5 27.2059H22.8529V37.0001H18.5V27.2059Z" fill="#6989F4"/>
<path d="M6.52734 0V4.35294H18.4979L19.2234 2.17647L18.4979 0H6.52734Z" fill="#77D4F5"/>
<path d="M18.5 0H30.4706V4.35294H18.5V0Z" fill="#69B4F4"/>
</g>
<defs>
<clipPath id="clip0">
<rect width="37" height="37" fill="white"/>
</clipPath>
</defs>
</svg>
